<svg width="179" height="20" viewBox="0 0 179 20" fill="none" xmlns="http://www.w3.org/2000/svg">
<path d="M8.7931 0.585999C9.8731 0.585999 10.8001 0.702999 11.5741 0.936999C12.3661 1.153 13.0231 1.387 13.5451 1.639L13.2211 2.692C12.6991 2.422 12.0691 2.197 11.3311 2.017C10.6111 1.837 9.8191 1.747 8.9551 1.747C7.8751 1.747 6.8851 1.918 5.9851 2.26C5.1031 2.584 4.3471 3.097 3.7171 3.799C3.0871 4.501 2.5921 5.392 2.2321 6.472C1.8901 7.552 1.7191 8.839 1.7191 10.333C1.7191 11.467 1.8631 12.511 2.1511 13.465C2.4391 14.401 2.8441 15.211 3.3661 15.895C3.9061 16.579 4.5541 17.11 5.3101 17.488C6.0841 17.866 6.9571 18.055 7.9291 18.055C8.5771 18.055 9.2071 17.92 9.8191 17.65C10.4311 17.38 10.9711 17.011 11.4391 16.543C11.9251 16.057 12.3031 15.481 12.5731 14.815C12.8611 14.149 13.0051 13.42 13.0051 12.628V10.36H9.1441V9.334H14.2201V19H13.3291L13.0051 16.003C12.5371 16.903 11.8531 17.668 10.9531 18.298C10.0711 18.91 9.0091 19.216 7.7671 19.216C6.6331 19.216 5.6161 19 4.7161 18.568C3.8161 18.118 3.0421 17.506 2.3941 16.732C1.7641 15.94 1.2781 15.004 0.936098 13.924C0.612098 12.826 0.450098 11.62 0.450098 10.306C0.450098 8.686 0.648098 7.273 1.0441 6.067C1.4581 4.843 2.0251 3.826 2.7451 3.016C3.4831 2.206 4.3651 1.603 5.3911 1.207C6.4171 0.792999 7.5511 0.585999 8.7931 0.585999ZM18.6411 0.801999H29.2791V1.936H19.9101V9.064H28.6851V10.198H19.9101V17.893H29.4411V19H18.6411V0.801999ZM43.9425 1.963L38.2185 1.936V19H36.9495V1.936L31.2255 1.963V0.801999H43.9425V1.963ZM59.6276 6.445C59.6276 7.705 59.2676 8.776 58.5476 9.658C57.8456 10.54 56.9366 11.179 55.8206 11.575L60.1136 19H56.3606L52.4456 12.196H49.7726V19H46.2626V0.801999H53.0936C54.1376 0.801999 55.0646 0.955 55.8746 1.261C56.6846 1.549 57.3686 1.945 57.9266 2.449C58.4846 2.953 58.9076 3.556 59.1956 4.258C59.4836 4.942 59.6276 5.671 59.6276 6.445ZM56.1176 6.445C56.1176 5.653 55.8656 5.023 55.3616 4.555C54.8756 4.069 54.1286 3.826 53.1206 3.826H49.7726V9.172H53.1206C54.0566 9.172 54.7856 8.929 55.3076 8.443C55.8476 7.957 56.1176 7.291 56.1176 6.445ZM62.4784 0.801999H74.3044V3.772H65.8804V8.227H73.7914V11.197H65.8804V16.03H74.4664V19H62.4784V0.801999ZM85.2316 19.324C83.8276 19.324 82.5766 19.09 81.4786 18.622C80.3986 18.136 79.4896 17.47 78.7516 16.624C78.0136 15.778 77.4556 14.779 77.0776 13.627C76.6996 12.475 76.5106 11.233 76.5106 9.901C76.5106 8.569 76.6996 7.327 77.0776 6.175C77.4556 5.023 78.0136 4.024 78.7516 3.178C79.4896 2.332 80.3986 1.675 81.4786 1.207C82.5766 0.720999 83.8276 0.477999 85.2316 0.477999C86.2216 0.477999 87.1306 0.576999 87.9586 0.775C88.7866 0.972999 89.5876 1.279 90.3616 1.693L89.4976 4.366C88.2196 3.682 86.8876 3.34 85.5016 3.34C83.6836 3.34 82.3156 3.916 81.3976 5.068C80.4796 6.22 80.0206 7.831 80.0206 9.901C80.0206 11.971 80.4796 13.582 81.3976 14.734C82.3336 15.886 83.7016 16.462 85.5016 16.462C86.0416 16.462 86.6806 16.372 87.4186 16.192C88.1746 16.012 88.9216 15.724 89.6596 15.328L90.4696 18.028C89.7496 18.442 88.9396 18.766 88.0396 19C87.1576 19.216 86.2216 19.324 85.2316 19.324ZM106.535 6.445C106.535 7.705 106.175 8.776 105.455 9.658C104.753 10.54 103.844 11.179 102.728 11.575L107.021 19H103.268L99.3528 12.196H96.6798V19H93.1698V0.801999H100.001C101.045 0.801999 101.972 0.955 102.782 1.261C103.592 1.549 104.276 1.945 104.834 2.449C105.392 2.953 105.815 3.556 106.103 4.258C106.391 4.942 106.535 5.671 106.535 6.445ZM103.025 6.445C103.025 5.653 102.773 5.023 102.269 4.555C101.783 4.069 101.036 3.826 100.028 3.826H96.6798V9.172H100.028C100.964 9.172 101.693 8.929 102.215 8.443C102.755 7.957 103.025 7.291 103.025 6.445ZM116.622 16.462C117.81 16.462 118.737 16.066 119.403 15.274C120.087 14.464 120.429 13.249 120.429 11.629V0.801999H123.939V11.602C123.939 14.23 123.291 16.174 121.995 17.434C120.699 18.694 118.908 19.324 116.622 19.324C114.336 19.324 112.545 18.694 111.249 17.434C109.953 16.174 109.305 14.23 109.305 11.602V0.801999H112.815V11.629C112.815 13.249 113.148 14.464 113.814 15.274C114.498 16.066 115.434 16.462 116.622 16.462ZM131.142 19H127.632V0.801999H131.142V19ZM141.794 19H138.284V3.772L133.073 3.826V0.801999H147.005V3.826L141.794 3.772V19ZM148.936 0.801999H160.762V3.772H152.338V8.227H160.249V11.197H152.338V16.03H160.924V19H148.936V0.801999ZM178.872 9.82C178.872 12.844 178.071 15.13 176.469 16.678C174.885 18.226 172.581 19 169.557 19H163.887V0.801999H169.557C172.581 0.801999 174.885 1.576 176.469 3.124C178.071 4.654 178.872 6.886 178.872 9.82ZM175.362 9.82C175.362 8.74 175.227 7.822 174.957 7.066C174.687 6.292 174.3 5.671 173.796 5.203C173.31 4.717 172.707 4.366 171.987 4.15C171.267 3.934 170.457 3.826 169.557 3.826H167.397V15.976H169.557C170.457 15.976 171.267 15.859 171.987 15.625C172.707 15.391 173.31 15.022 173.796 14.518C174.3 14.014 174.687 13.375 174.957 12.601C175.227 11.827 175.362 10.9 175.362 9.82Z" fill="black"/>
</svg>
