<svg width="937" height="749" viewBox="0 0 937 749" fill="none" xmlns="http://www.w3.org/2000/svg">
<path fill-rule="evenodd" clip-rule="evenodd" d="M210.942 2.4292H287.57H340.404H1093.8C1117.83 2.4292 1133.46 2.53212 1146.53 6.50189C1161.03 11.5725 1169.19 19.3206 1174.45 33.2032C1178.6 45.808 1179.02 60.6128 1179.02 83.7005V633.287C1179.02 656.376 1178.6 671.234 1174.47 683.787C1169.19 697.719 1160.82 705.416 1146.37 710.469C1133.24 714.456 1117.83 714.559 1093.79 714.559C1093.11 715.212 212.086 714.559 212.086 714.559C188.051 714.559 171.68 714.456 158.611 710.486C144.108 705.416 136.348 697.668 131.087 683.784C127.269 672.187 127.288 658.726 127.315 638.662C127.317 636.921 127.32 635.131 127.32 633.287V83.7005C127.32 81.851 127.317 80.0544 127.315 78.3074C127.287 58.248 127.269 44.7507 131.07 33.2007C136.348 19.2692 143.917 11.5725 158.37 6.51878C171.489 2.53212 186.907 2.4292 210.942 2.4292Z" fill="#F2F5F7"/>
<path d="M1140.22 12.8624L1140.39 12.3902L1140.38 12.3868L1140.37 12.3838L1140.22 12.8624ZM1167.79 39.0815L1168.26 38.9244L1168.26 38.9139L1168.26 38.9036L1167.79 39.0815ZM1167.8 677.917L1168.27 678.095L1168.28 678.084L1168.28 678.074L1167.8 677.917ZM1140.07 704.117L1140.21 704.596L1140.22 704.593L1140.23 704.589L1140.07 704.117ZM1088.16 708.133V707.633H1087.96L1087.82 707.771L1088.16 708.133ZM217.713 708.133L217.714 707.633H217.713V708.133ZM164.921 704.134L164.757 704.606L164.767 704.609L164.777 704.612L164.921 704.134ZM137.748 677.914L137.274 678.071L137.277 678.081L137.281 678.092L137.748 677.914ZM134.024 633.607L134.524 633.608L134.024 633.607ZM134.024 83.3713L134.524 83.3706L134.024 83.3713ZM137.732 39.0791L137.265 38.9012L137.261 38.9115L137.257 38.9221L137.732 39.0791ZM164.683 12.879L164.538 12.4004L164.528 12.4034L164.519 12.4068L164.683 12.879ZM292.233 8.36328H216.584V9.36328H292.233V8.36328ZM344.393 8.36328H292.233V9.36328H344.393V8.36328ZM1088.17 8.36328H344.393V9.36328H1088.17V8.36328ZM1140.37 12.3838C1127.38 8.45968 1111.87 8.36328 1088.17 8.36328V9.36328C1111.92 9.36328 1127.26 9.46901 1140.08 13.3411L1140.37 12.3838ZM1168.26 38.9036C1165.64 32.0342 1162.29 26.6555 1157.77 22.3646C1153.26 18.0747 1147.59 14.8962 1140.39 12.3902L1140.06 13.3347C1147.17 15.8076 1152.7 18.9228 1157.08 23.0897C1161.47 27.2556 1164.75 32.4969 1167.32 39.2595L1168.26 38.9036ZM1172.8 88.667C1172.8 66.0135 1172.39 51.3918 1168.26 38.9244L1167.31 39.2387C1171.38 51.5256 1171.8 65.9789 1171.8 88.667H1172.8ZM1172.8 628.329V88.667H1171.8V628.329H1172.8ZM1168.28 678.074C1172.39 665.657 1172.8 650.983 1172.8 628.329H1171.8C1171.8 651.018 1171.38 665.523 1167.33 677.76L1168.28 678.074ZM1140.23 704.589C1147.41 702.092 1153.11 698.931 1157.67 694.651C1162.24 690.369 1165.65 684.991 1168.27 678.095L1167.34 677.739C1164.75 684.523 1161.42 689.764 1156.99 693.922C1152.55 698.081 1146.99 701.18 1139.9 703.645L1140.23 704.589ZM1088.16 708.633C1111.86 708.633 1127.17 708.536 1140.21 704.596L1139.92 703.638C1127.05 707.527 1111.91 707.633 1088.16 707.633V708.633ZM217.713 708.133C217.713 708.633 217.716 708.633 217.723 708.633C217.729 708.633 217.739 708.633 217.753 708.633C217.779 708.633 217.819 708.633 217.871 708.633C217.977 708.633 218.134 708.633 218.343 708.633C218.761 708.633 219.385 708.634 220.208 708.635C221.854 708.636 224.296 708.637 227.481 708.64C233.852 708.644 243.195 708.651 255.087 708.659C278.872 708.675 312.85 708.698 353.626 708.723C435.178 708.773 543.921 708.833 652.686 708.873C761.45 708.913 870.235 708.933 951.871 708.903C992.689 708.888 1026.72 708.861 1050.57 708.817C1062.49 708.795 1071.87 708.769 1078.28 708.738C1081.48 708.723 1083.94 708.707 1085.61 708.689C1086.44 708.68 1087.08 708.671 1087.51 708.662C1087.73 708.657 1087.89 708.652 1088.01 708.647C1088.07 708.644 1088.12 708.642 1088.16 708.638C1088.18 708.637 1088.21 708.633 1088.23 708.63C1088.26 708.624 1088.41 708.57 1088.51 708.494L1087.82 707.771C1087.92 707.698 1088.05 707.646 1088.07 707.642C1088.07 707.642 1088.08 707.641 1088.07 707.642C1088.05 707.644 1088.02 707.646 1087.97 707.648C1087.86 707.653 1087.7 707.657 1087.49 707.662C1087.06 707.671 1086.43 707.68 1085.6 707.689C1083.94 707.707 1081.48 707.723 1078.27 707.738C1071.87 707.769 1062.49 707.795 1050.57 707.817C1026.72 707.861 992.689 707.888 951.871 707.903C870.235 707.933 761.45 707.913 652.686 707.873C543.922 707.833 435.179 707.773 353.627 707.723C312.851 707.698 278.872 707.675 255.088 707.659C243.196 707.651 233.852 707.644 227.482 707.64C224.296 707.637 221.854 707.636 220.209 707.635C219.386 707.634 218.762 707.633 218.344 707.633C218.135 707.633 217.977 707.633 217.872 707.633C217.819 707.633 217.78 707.633 217.753 707.633C217.74 707.633 217.73 707.633 217.724 707.633C217.717 707.633 217.714 707.633 217.713 708.133ZM164.777 704.612C177.765 708.536 194.013 708.633 217.713 708.633V707.633C193.958 707.633 177.881 707.527 165.066 703.655L164.777 704.612ZM137.281 678.092C139.897 684.957 143.145 690.336 147.565 694.628C151.985 698.92 157.549 702.1 164.757 704.606L165.086 703.661C157.976 701.189 152.551 698.076 148.262 693.911C143.973 689.746 140.794 684.504 138.216 677.736L137.281 678.092ZM133.524 633.606C133.498 653.278 133.474 666.589 137.274 678.071L138.223 677.757C134.485 666.463 134.497 653.338 134.524 633.608L133.524 633.606ZM133.529 628.329C133.529 630.139 133.527 631.897 133.524 633.606L134.524 633.608C134.527 631.898 134.529 630.14 134.529 628.329H133.529ZM133.529 88.667V628.329H134.529V88.667H133.529ZM133.524 83.3719C133.527 85.0874 133.529 86.8513 133.529 88.667H134.529C134.529 86.8505 134.527 85.0859 134.524 83.3706L133.524 83.3719ZM137.257 38.9221C133.473 50.3573 133.497 63.7041 133.524 83.3719L134.524 83.3706C134.497 63.644 134.485 50.4837 138.206 39.2362L137.257 38.9221ZM164.519 12.4068C157.335 14.9053 151.829 18.0687 147.461 22.353C143.092 26.637 139.887 32.0149 137.265 38.9012L138.199 39.2571C140.787 32.4634 143.923 27.2224 148.161 23.067C152.398 18.9118 157.763 15.8151 164.847 13.3513L164.519 12.4068ZM216.584 8.36328C192.881 8.36328 177.576 8.45972 164.538 12.4004L164.828 13.3576C177.693 9.46897 192.831 9.36328 216.584 9.36328V8.36328Z" fill="#424B5A"/>
<path fill-rule="evenodd" clip-rule="evenodd" d="M657.636 29.145C654.501 29.145 651.96 31.6822 651.96 34.812C651.96 37.9418 654.501 40.479 657.636 40.479C660.771 40.479 663.312 37.9418 663.312 34.812C663.312 31.6822 660.771 29.145 657.636 29.145Z" fill="#424B5A"/>
<path fill-rule="evenodd" clip-rule="evenodd" d="M1093.8 4.84197C1117.57 4.84197 1132.86 4.9457 1145.51 8.78601C1159.26 13.5952 1167.08 20.7661 1172.07 33.9282C1176.08 46.1293 1176.5 60.861 1176.5 83.701V633.288C1176.5 656.129 1176.08 670.809 1172.08 682.96C1167.08 696.171 1159.47 703.539 1145.77 708.332C1133.07 712.187 1117.57 712.437 1094.11 712.437H211.256C187.167 712.437 171.878 712.187 159.231 708.348C145.479 703.54 138.458 696.296 133.469 683.134C129.454 670.934 129.836 656.129 129.836 633.288V83.701C129.836 60.861 129.454 46.1808 133.452 34.0295C138.458 20.8183 145.67 13.5952 159.37 8.8029C172.069 4.9457 187.167 4.84197 210.942 4.84197H1093.8ZM287.57 2.4292H210.942C186.907 2.4292 171.489 2.53212 158.37 6.51878C143.917 11.5725 136.348 19.2692 131.07 33.2007C126.938 45.7565 127.32 60.6136 127.32 83.7005V633.287C127.32 656.376 126.938 671.181 131.087 683.784C136.348 697.668 144.108 705.416 158.611 710.486C171.68 714.456 188.051 714.559 212.086 714.559C212.086 714.559 1093.11 715.212 1093.79 714.559C1117.83 714.559 1133.24 714.456 1146.37 710.469C1160.82 705.416 1169.19 697.719 1174.47 683.787C1178.6 671.234 1179.02 656.376 1179.02 633.287V83.7005C1179.02 60.6128 1178.6 45.808 1174.45 33.2032C1169.19 19.3206 1161.03 11.5725 1146.53 6.50189C1133.46 2.53212 1117.83 2.4292 1093.8 2.4292H340.404H287.57Z" fill="#424B5A"/>
<path fill-rule="evenodd" clip-rule="evenodd" d="M185.004 667.921H1129.61V56.6653H185.004V667.921Z" fill="white"/>
<g clip-path="url(#clip0)">
<path opacity="0.1" d="M704.443 666.998C742.583 666.998 773.503 663.947 773.503 660.184C773.503 656.42 742.583 653.37 704.443 653.37C666.302 653.37 635.383 656.42 635.383 660.184C635.383 663.947 666.302 666.998 704.443 666.998Z" fill="#738D9B"/>
<path opacity="0.1" d="M519.962 111.255C550.378 99.9381 587.406 109.671 619.027 123.866C718.341 168.458 790.693 253.107 848.178 339.347C868.992 370.574 888.762 403.176 896.586 438.036C912.518 508.989 870.965 582.443 800.296 608.184C776.263 616.946 749.861 620.538 723.418 622.54C676.397 626.106 627.713 624.69 581.07 611.486C547.806 602.05 516.339 586.872 486.159 570.102C401.875 523.245 324.903 462.395 269.479 388.065C245.17 355.463 224.606 318.709 224.013 281.092C223.421 243.476 247.911 205.677 288.205 199.281C304.864 196.639 322.486 199.389 339.677 202.219C364.988 206.392 390.643 210.779 415.665 208.96C441.516 207.066 475.137 196.955 479.85 172.253C484.84 145.73 489.587 122.558 519.962 111.255Z" fill="#738D9B"/>
<path d="M388.313 621.192C388.313 621.192 420.81 619.231 416.978 642.026C416.978 642.026 417.739 646.07 414.09 647.883C414.09 647.883 414.036 646.191 410.757 646.764C409.592 646.965 408.407 647.023 407.228 646.939C405.634 646.829 404.119 646.202 402.912 645.153C402.912 645.153 393.774 641.379 390.226 626.429C390.226 626.429 387.593 623.174 387.701 622.331L393.182 624.677C393.182 624.677 391.31 628.64 392.785 631.929C392.785 631.929 392.96 624.825 394.017 624.987C394.226 625.021 396.865 626.335 396.865 626.335C396.865 626.335 393.64 633.23 396.071 638.245C396.071 638.245 395.148 629.745 397.868 626.834L401.733 629.092C401.733 629.092 397.963 636.216 400.521 642.026C400.521 642.026 399.848 633.109 402.542 629.638L406.043 632.334C406.043 632.334 402.501 639.357 404.663 644.183C404.663 644.183 404.939 633.796 406.797 633.014C406.797 633.014 409.861 635.71 410.326 636.829C410.326 636.829 407.901 641.925 409.403 644.614C409.403 644.614 410.326 637.699 411.086 637.665C411.086 637.665 414.13 642.248 414.453 645.389C414.453 645.389 414.319 640.718 411.82 637.227C411.82 637.227 414.77 637.732 416.494 639.647C416.494 639.647 416.015 636.405 411.073 636.122C411.073 636.122 408.555 632.65 407.875 632.435C407.875 632.435 412.797 632.024 415.78 633.351C415.78 633.351 413.154 630.291 406.972 631.68L403.518 628.862C403.518 628.862 410.002 627.973 412.743 628.957C412.743 628.957 409.585 626.261 402.589 628.222L398.831 625.971C398.831 625.971 404.353 624.778 407.646 625.209C407.646 625.209 404.171 623.336 397.727 625.364L395.034 624.158C395.034 624.158 399.074 623.363 400.266 623.234C401.457 623.106 401.511 622.783 401.511 622.783C398.948 622.353 396.316 622.645 393.909 623.625C393.909 623.625 388.212 621.583 388.313 621.192Z" fill="#738D9B"/>
<path opacity="0.1" d="M410.696 653.76C423.4 653.76 433.698 652.019 433.698 649.871C433.698 647.724 423.4 645.982 410.696 645.982C397.992 645.982 387.694 647.724 387.694 649.871C387.694 652.019 397.992 653.76 410.696 653.76Z" fill="#738D9B"/>
<path d="M344.781 605.859C344.781 605.859 363.103 604.753 360.941 617.607C361.055 618.258 360.96 618.929 360.668 619.523C360.376 620.116 359.904 620.602 359.319 620.909C359.319 620.909 359.285 619.959 357.44 620.282C356.784 620.395 356.117 620.426 355.453 620.377C354.552 620.321 353.695 619.968 353.016 619.372C353.016 619.372 347.871 617.236 345.851 608.811C345.851 608.811 344.37 606.971 344.424 606.499L347.521 607.847C347.521 607.847 346.464 610.085 347.292 611.938C347.292 611.938 347.393 607.928 347.966 608.022C348.087 608.022 349.575 608.797 349.575 608.797C349.575 608.797 347.757 612.686 349.131 615.537C349.131 615.537 348.605 610.745 350.141 609.101L352.316 610.374C352.316 610.374 350.194 614.418 351.642 617.667C351.642 617.667 351.272 612.639 352.78 610.684L354.753 612.221C354.753 612.221 352.733 616.178 353.979 618.901C353.979 618.901 354.134 613.043 355.184 612.605C355.184 612.605 356.908 614.129 357.17 614.755C357.17 614.755 355.824 617.627 356.652 619.143C356.652 619.143 357.171 615.248 357.601 615.227C357.601 615.227 359.319 617.809 359.494 619.581C359.408 617.944 358.897 616.358 358.012 614.978C359.003 615.159 359.918 615.628 360.645 616.326C360.645 616.326 360.382 614.499 357.588 614.338C357.588 614.338 356.167 612.376 355.79 612.262C355.79 612.262 358.564 612.026 360.248 612.774C360.248 612.774 358.766 611.048 355.278 611.83L353.332 610.24C353.332 610.24 356.989 609.741 358.537 610.294C358.537 610.294 356.753 608.77 352.807 609.882L350.693 608.609C352.322 608.252 353.99 608.11 355.655 608.184C355.655 608.184 353.703 607.126 350.067 608.271L348.551 607.597C348.551 607.597 350.834 607.146 351.501 607.078C352.167 607.011 352.208 606.822 352.208 606.822C350.761 606.582 349.277 606.748 347.919 607.301C347.919 607.301 344.727 606.081 344.781 605.859Z" fill="#738D9B"/>
<path opacity="0.1" d="M357.399 624.218C364.562 624.218 370.368 623.235 370.368 622.021C370.368 620.808 364.562 619.824 357.399 619.824C350.237 619.824 344.431 620.808 344.431 622.021C344.431 623.235 350.237 624.218 357.399 624.218Z" fill="#738D9B"/>
<path d="M795.535 618.213C795.535 618.213 817.655 616.865 815.062 632.367C815.195 633.155 815.076 633.964 814.723 634.681C814.37 635.397 813.801 635.984 813.096 636.358C813.096 636.358 813.056 635.205 810.827 635.596C810.033 635.731 809.226 635.77 808.423 635.711C807.338 635.64 806.306 635.214 805.487 634.497C805.487 634.497 799.265 631.929 796.848 621.752C796.848 621.752 795.057 619.534 795.131 618.968L798.861 620.559C798.861 620.559 797.589 623.255 798.592 625.499C798.592 625.499 798.713 620.66 799.427 620.781C799.575 620.781 801.366 621.711 801.366 621.711C801.366 621.711 799.171 626.429 800.828 629.799C800.828 629.799 800.201 624.016 802.053 622.035L804.679 623.565C804.679 623.565 802.114 628.418 803.858 632.374C803.858 632.374 803.406 626.308 805.204 623.942L807.588 625.803C807.588 625.803 805.177 630.581 806.645 633.891C806.645 633.891 806.841 626.827 808.107 626.288C808.107 626.288 810.187 628.128 810.504 628.883C810.504 628.883 808.854 632.354 809.877 634.187C809.877 634.187 810.504 629.469 811.022 629.469C811.022 629.469 813.096 632.59 813.312 634.727C813.211 632.751 812.596 630.836 811.527 629.173C812.724 629.399 813.829 629.971 814.705 630.817C814.705 630.817 814.382 628.613 811.009 628.418C811.009 628.418 809.298 626.052 808.841 625.91C808.841 625.91 812.207 625.627 814.227 626.531C814.227 626.531 812.436 624.455 808.228 625.398L805.878 623.477C805.878 623.477 810.288 622.871 812.16 623.538C812.16 623.538 810.005 621.698 805.245 623.039L802.686 621.509C802.686 621.509 806.443 620.7 808.686 620.99C808.686 620.99 806.322 619.716 801.952 621.098L800.121 620.276C800.121 620.276 802.875 619.73 803.683 619.649C804.491 619.568 804.531 619.339 804.531 619.339C802.787 619.048 800.997 619.246 799.36 619.912C799.36 619.912 795.468 618.469 795.535 618.213Z" fill="#738D9B"/>
<path opacity="0.1" d="M810.766 640.388C819.413 640.388 826.422 639.202 826.422 637.739C826.422 636.276 819.413 635.09 810.766 635.09C802.12 635.09 795.111 636.276 795.111 637.739C795.111 639.202 802.12 640.388 810.766 640.388Z" fill="#738D9B"/>
<path d="M773.496 454.583C773.072 452.21 772.826 449.808 772.762 447.398C772.762 444.507 768.836 441.945 768.836 441.945C768.836 441.945 766.412 436.331 764.796 435.502C763.18 434.673 758.19 427.326 758.19 427.326C758.133 425.877 757.606 424.486 756.689 423.363C755.194 421.396 753.829 419.333 752.601 417.189C751.928 416.367 752.265 415.787 751.255 410.995C751.201 410.745 751.14 410.503 751.066 410.274C751.066 410.166 750.999 410.071 750.958 409.963C752.03 408.887 752.778 407.53 753.115 406.049C753.452 404.567 753.365 403.02 752.864 401.586C752.683 401.015 752.353 400.503 751.908 400.103C750.77 399.173 748.952 399.557 747.78 398.674L749.026 393.16C749.322 391.812 749.477 390.107 748.299 389.379C747.857 389.169 747.391 389.013 746.912 388.914C744.891 388.24 743.72 386.103 743.195 384.048C742.69 382.068 742.553 380.011 742.791 377.982C743.02 376.027 743.592 374.126 743.801 372.165C744.18 368.537 743.308 364.888 741.329 361.826C740.56 360.504 739.426 359.432 738.064 358.739C736.818 358.179 735.37 358.065 734.205 357.391C731.7 355.793 731.828 351.998 729.828 349.821C727.828 347.644 724.287 347.651 721.371 348.399C718.455 349.147 715.553 350.421 712.563 350.104C710.638 349.889 708.833 349.013 706.9 348.81C706.348 348.758 705.79 348.783 705.244 348.884V348.824C703.816 349.08 702.503 349.875 702.167 351.23C702.091 351.552 702.059 351.883 702.072 352.214C702.072 353.003 702.261 353.825 702.274 354.58C702.299 354.88 702.264 355.182 702.17 355.468C702.077 355.754 701.927 356.018 701.729 356.245C701.345 356.656 700.78 356.872 700.382 357.296C700.22 357.458 700.093 357.652 700.009 357.865C699.924 358.079 699.884 358.307 699.891 358.536C699.891 359.736 701.386 360.794 702.389 361.28H702.429C702.16 361.549 701.891 361.832 701.642 362.122C698.765 365.374 697.179 369.568 697.184 373.911C697.208 377.418 698.256 380.842 700.199 383.762C702.142 386.681 704.895 388.969 708.119 390.343L707.978 390.781C707.694 391.648 707.364 392.498 706.988 393.329C706.291 393.094 705.552 393.015 704.821 393.097C704.091 393.178 703.387 393.418 702.759 393.801C700.833 395.149 697.069 395.041 696.066 394.791C695.063 394.542 684.619 393.221 683.777 393.551C682.936 393.882 681.272 392.399 680.188 394.38C679.104 396.362 678.599 397.434 677.495 397.932C676.39 398.431 674.485 399.995 674.741 400.325C674.997 400.655 671.98 402.637 671.98 402.637C671.98 402.637 669.388 405.333 667.886 405.69C666.384 406.047 663.206 408.09 663.206 408.09L659.523 410.974C659.523 410.974 656.769 411.392 657.604 409.492C658.439 407.591 656.095 405.198 656.095 405.198C656.095 405.198 651.416 395.701 651.416 393.74C651.416 391.779 647.571 383.414 647.571 383.414L647.099 383.367L646.884 382.754C646.177 380.765 645.261 378.325 644.561 376.896C643.214 374.167 642.386 373.884 642.386 373.884C642.386 373.884 626.171 361.697 615.64 365.411C605.109 369.125 634.864 380.192 637.538 381.352C638.474 381.756 639.147 383.064 639.618 384.594C637.246 385.739 635.249 387.537 633.861 389.777C633.861 389.777 640.298 404.059 640.467 407.611C640.635 411.163 644.897 421.091 644.897 421.091C644.897 421.091 646.487 428.445 655.092 428.027C655.092 428.027 666.963 430.211 669.556 428.027C672.148 425.843 674.485 424.131 675.744 423.882C676.67 423.577 677.484 423.002 678.081 422.231C678.081 422.231 674.155 447 672.229 449.151C670.303 451.301 653.287 479.11 659.395 484.085C664.232 487.834 669.344 491.213 674.687 494.195C675.205 494.451 676.761 491.856 678.983 490.016C678.983 490.481 678.983 490.953 678.983 491.452C679.023 501.346 680.33 516.39 682.134 519.76C684.828 524.714 683.723 534.292 683.723 534.292C685.14 534.959 686.677 535.328 688.242 535.377C688.322 535.7 688.417 536.051 688.504 536.388C689.979 541.962 692.369 550.583 693.588 552.874C695.426 556.345 696.76 567.332 696.76 567.332C696.76 567.332 697.85 578.116 697.433 579.633C697.271 580.206 697.978 584.694 699.089 590.417C698.416 598.161 697.137 613.091 696.921 618.489C696.921 618.591 696.921 618.692 696.921 618.786V618.88C696.925 618.941 696.925 619.002 696.921 619.062C696.921 619.184 696.921 619.292 696.921 619.393C696.9 619.732 696.914 620.073 696.962 620.41C697.045 620.924 697.006 621.451 696.847 621.947C696.371 623.44 695.765 624.888 695.036 626.274C694.729 626.956 694.459 627.653 694.228 628.364C693.554 628.66 692.733 629.381 692.275 631.141C691.44 634.362 690.188 643.273 690.188 643.273C690.188 643.273 689.683 648.726 688.686 649.966C687.689 651.206 686.666 658.964 693.783 659.955C700.901 660.945 703.978 656.18 703.978 656.18L703.729 634.558V634.517C703.873 634.336 703.997 634.139 704.099 633.931V633.877C704.146 633.776 704.2 633.668 704.247 633.547L704.308 633.385L704.416 633.122C704.412 633.091 704.412 633.059 704.416 633.028C705.106 630.957 705.314 628.755 705.022 626.591V626.483V626.315C705.022 626.261 705.022 626.2 705.022 626.146V625.809C705.022 625.769 705.022 625.722 705.022 625.681C705.022 625.537 705.035 625.389 705.062 625.236C705.062 625.236 705.062 625.182 705.062 625.155L705.103 624.893V624.778C705.103 624.69 705.103 624.603 705.156 624.508C705.154 624.486 705.154 624.463 705.156 624.441C705.224 624.131 705.305 623.767 705.392 623.47V623.396L705.493 623.073C705.594 622.729 705.709 622.399 705.83 622.035V621.967C705.83 621.859 705.904 621.752 705.944 621.651V621.61C706.065 621.28 706.193 620.936 706.315 620.653L706.348 620.565L706.456 620.296L706.49 620.215L706.746 619.615L708.719 625.715C708.719 625.715 709.809 630.258 709.224 631.329C708.638 632.401 709.897 636.863 710.725 636.944L709.951 642.558C709.532 645.654 709.283 648.77 709.203 651.893C709.149 652.251 709.096 652.568 709.055 652.783C708.517 655.661 709.809 660.123 709.809 660.123C716.408 667.935 724.273 660.73 724.273 660.73C724.273 660.73 725.189 656.598 724.273 655.776C723.357 654.953 723.768 651.974 723.768 651.974C723.768 651.974 724.186 644.621 724.266 639.256C724.347 633.891 719.883 629.146 719.883 629.146L719.634 629.368C718.819 627.265 717.89 624.812 718.085 623.713C718.422 621.812 717.162 601.747 717.162 601.747C717.628 596.368 717.727 590.963 717.459 585.571C717.566 584.661 717.667 583.764 717.768 582.875C718.274 578.561 718.684 574.874 718.846 572.94V572.711C718.886 572.192 718.906 571.821 718.9 571.646C718.9 570.972 718.9 570.203 718.967 569.361C719.122 567.042 719.486 564.461 719.486 564.461L721.236 553.804C721.236 553.804 722.583 548.601 724.502 545.716L724.731 545.352C724.805 545.224 724.879 545.083 724.96 544.934L724.994 544.874C725.068 544.732 725.149 544.584 725.223 544.429L725.256 544.368C725.526 543.836 725.815 543.222 726.118 542.548C726.118 542.495 726.165 542.447 726.186 542.393L726.414 541.881C726.414 541.814 726.468 541.746 726.502 541.679C726.536 541.612 726.643 541.335 726.717 541.167C726.751 541.099 726.78 541.029 726.805 540.958C726.893 540.756 726.987 540.547 727.074 540.331L727.202 540.021C727.263 539.866 727.33 539.711 727.398 539.556L727.559 539.145C727.606 539.044 727.647 538.942 727.687 538.841L727.869 538.376C727.869 538.309 727.93 538.235 727.956 538.167C728.435 536.974 728.892 535.795 729.303 534.723C729.431 534.386 729.559 534.049 729.674 533.753C733.956 534.015 736.865 534.251 736.865 534.251C736.865 534.251 738.212 524.593 737.781 518.237C737.498 513.896 738.306 508.437 738.838 505.431C738.899 505.1 738.952 504.804 739.006 504.534L739.121 504.629C741.215 506.28 742.716 500.827 742.716 500.827C742.716 500.827 742.151 495.738 741.37 489.571L741.289 488.958C742.496 489.215 743.717 489.402 744.945 489.517C744.945 489.517 745.619 489.456 746.541 489.342C749.093 490.821 751.786 492.04 754.581 492.982L759.032 484.759C759.868 483.054 760.848 481.424 761.961 479.886C763.308 478.234 768.062 472.95 767.981 471.959C767.9 470.968 769.57 465.266 771.24 462.705C772.91 460.144 773.577 454.994 773.496 454.583ZM754.938 460.858C753.181 461.6 751.511 465.731 751.43 466.971C751.349 468.212 749.504 473.658 747.585 474.318C745.814 474.925 742.434 478.039 741.895 478.538C741.343 478.585 740.717 478.659 740.063 478.767C739.329 473.557 738.602 469.243 738.138 468.373C736.791 465.893 739.612 457.967 739.612 457.967C739.612 457.967 739.888 449.959 741.632 448.059C743.376 446.158 742.979 441.366 742.979 441.366C742.979 441.366 743.397 439.384 743.565 438.481C743.733 437.578 746.05 438.481 746.07 438.481C746.07 438.481 750.581 440.955 751.255 444.668C751.928 448.382 756.857 454.826 756.857 454.826C756.857 454.826 756.103 457.057 756.857 458.196C757.611 459.335 756.695 460.117 754.938 460.858Z" fill="url(#paint0_linear)"/>
<path d="M634.05 390.282C635.422 388.016 637.432 386.205 639.827 385.076C642.222 383.947 644.897 383.549 647.517 383.933V393.578H641.665L637.086 392.419L634.05 390.282Z" fill="#4C4981"/>
<path opacity="0.1" d="M634.05 390.282C635.422 388.016 637.432 386.205 639.827 385.076C642.222 383.947 644.897 383.549 647.517 383.933V393.578H641.665L637.086 392.419L634.05 390.282Z" fill="black"/>
<path d="M647.954 386.488L640.783 391.516C640.783 391.516 640.723 390.512 640.541 389.137C640.184 386.535 639.383 382.632 637.652 381.877C635.019 380.718 605.708 369.678 616.105 365.964C626.501 362.25 642.453 374.423 642.453 374.423C642.453 374.423 643.275 374.706 644.588 377.422C645.261 378.851 646.184 381.284 646.877 383.273C647.517 385.066 647.954 386.488 647.954 386.488Z" fill="#AE6E79"/>
<path d="M705.244 394.232L706.059 393.848L708.348 396.463L706.476 400.46L703.285 399.179L704.025 395.985L705.244 394.232Z" fill="#4C4981"/>
<path d="M694.396 628.323C694.396 628.323 692.336 628.081 691.514 631.296C690.693 634.511 689.454 643.428 689.454 643.428C689.454 643.428 688.962 648.867 687.972 650.107C686.983 651.348 685.999 659.092 692.996 660.076C699.992 661.06 703.042 656.308 703.042 656.308L702.793 634.693L694.396 628.323Z" fill="#444053"/>
<path d="M718.812 629.294C718.812 629.294 723.216 634.012 723.135 639.364C723.054 644.715 722.637 652.055 722.637 652.055C722.637 652.055 722.233 655.028 723.135 655.85C724.037 656.672 723.135 660.797 723.135 660.797C723.135 660.797 715.392 667.989 708.887 660.191C708.887 660.191 707.621 655.735 708.146 652.864C708.671 649.993 710.139 637.086 710.139 637.086L718.812 629.294Z" fill="#444053"/>
<path d="M729.721 530.733C729.721 530.733 725.276 543.175 723.378 546.06C721.479 548.945 720.172 554.148 720.172 554.148L718.442 564.777C718.104 567.154 717.911 569.549 717.863 571.949C717.944 574.342 713.58 609.202 713.58 609.202L706.665 618.024C706.665 618.024 703.621 624.205 704.113 626.787C704.604 629.368 703.783 633.466 702.766 634.7C702.766 634.7 702.604 642.788 702.355 644.587C702.106 646.387 703.264 651.516 702.355 652.419C701.446 653.323 689.346 652.918 689.016 651.429C688.686 649.939 690.497 642.774 690.497 642.774L691.568 635.852C691.568 635.852 693.709 632.064 693.218 630.824C692.726 629.584 694.12 626.706 694.201 626.456C694.282 626.207 696.511 622.17 696.1 620.606C695.689 619.042 698.692 585.786 698.692 585.786L707.17 526.197L729.721 530.733Z" fill="#AE6E79"/>
<path opacity="0.1" d="M729.721 530.733C729.721 530.733 729.047 532.607 728.125 535.067C726.657 538.949 724.542 544.294 723.378 546.06C721.485 548.945 720.166 554.148 720.166 554.148L718.435 564.784C718.101 567.161 717.909 569.556 717.863 571.956C717.863 572.899 717.23 578.918 716.422 585.854C715.176 596.456 713.58 609.208 713.58 609.208L706.665 618.031C706.665 618.031 706.315 618.705 705.877 619.77C705.008 621.792 703.783 625.075 704.113 626.766C704.604 629.321 703.783 633.439 702.766 634.679C702.766 634.679 702.598 642.767 702.355 644.567C702.113 646.367 703.264 651.489 702.355 652.399C701.446 653.309 689.346 652.898 689.016 651.415C688.686 649.932 690.497 642.761 690.497 642.761L691.568 635.832C691.568 635.832 693.709 632.044 693.211 630.804C692.713 629.564 694.12 626.686 694.201 626.436C694.282 626.187 696.511 622.149 696.1 620.586C695.783 619.393 697.446 599.867 698.221 590.606C698.483 587.694 698.652 585.8 698.652 585.8L705.944 534.534L706.537 530.403L707.129 526.21L729.721 530.733Z" fill="black"/>
<path d="M722.314 654.691C722.388 655.601 710.698 656.922 709.028 655.931C707.358 654.94 709.028 642.66 709.028 642.66L709.789 637.058C708.974 636.971 707.735 632.522 708.308 631.451C708.88 630.379 707.816 625.85 707.816 625.85L705.877 619.784L704.692 616.07C702.766 611.817 699.978 599.685 698.248 590.626C697.157 584.937 696.463 580.455 696.618 579.882C697.029 578.399 695.945 567.602 695.945 567.602C695.945 567.602 694.598 556.635 692.821 553.178C691.615 550.886 689.265 542.279 687.811 536.725C687.07 533.874 686.558 531.825 686.558 531.825C686.558 531.825 699.002 530.78 706.55 530.416C710.018 530.248 712.456 530.228 712.173 530.511C711.89 530.794 711.816 532.304 711.829 534.487C711.863 540.142 712.651 550.091 713.486 552.767C714.637 556.474 715.789 567.595 715.297 568.673C714.806 569.752 714.967 576.916 714.967 576.916C715.816 579.827 716.304 582.831 716.422 585.861C716.685 591.228 716.591 596.608 716.139 601.963C716.139 601.963 717.371 621.994 717.041 623.888C716.711 625.782 719.674 631.72 719.674 632.873C719.674 634.025 720.496 641.857 720.496 641.857C720.496 641.857 722.26 653.787 722.314 654.691Z" fill="#AE6E79"/>
<path d="M728.812 413.934L727.398 415.464L726.475 416.461L721.088 422.258L707.17 423.828L699.763 421.847L697.931 421.354C697.931 421.354 697.931 417.634 698.261 413.172C698.733 407.45 699.857 400.501 702.544 398.607C703.889 397.552 704.963 396.191 705.675 394.637C706.212 393.565 706.663 392.451 707.022 391.307C707.076 391.159 707.116 391.017 707.163 390.869C707.769 388.871 708.206 386.826 708.469 384.756C708.469 384.756 710.247 383.772 712.718 382.626C719.162 379.613 730.293 375.454 726.421 384.756C725.852 386.118 725.366 387.513 724.967 388.934C724.906 389.143 724.852 389.352 724.805 389.555C723.512 394.731 724.367 397.872 725.33 399.604C725.493 399.904 725.68 400.19 725.889 400.46C726.152 400.822 726.468 401.142 726.825 401.41L728.428 411.595L728.562 412.437L728.812 413.934Z" fill="#AE6E79"/>
<path opacity="0.1" d="M726.428 385.254C725.694 387.02 726.785 383.812 726.428 385.254C723.492 387.344 716.577 393.295 712.691 393.295C710.065 393.295 709.277 392.817 707.028 391.799C707.709 389.666 708.194 387.475 708.476 385.254C708.476 385.254 731.781 372.394 726.428 385.254Z" fill="black"/>
<path d="M732.36 374.423C732.357 378.862 730.713 383.142 727.746 386.441C724.778 389.74 720.697 391.823 716.287 392.291C715.668 392.352 715.041 392.392 714.408 392.392C710.858 392.392 707.387 391.338 704.435 389.364C701.483 387.389 699.182 384.583 697.823 381.299C696.464 378.016 696.109 374.403 696.802 370.917C697.494 367.432 699.204 364.23 701.715 361.717C704.225 359.204 707.424 357.492 710.906 356.799C714.389 356.106 717.998 356.461 721.278 357.821C724.559 359.181 727.362 361.485 729.335 364.44C731.307 367.395 732.36 370.869 732.36 374.423Z" fill="#AE6E79"/>
<path opacity="0.1" d="M734.912 454.078L732.353 460.757C732.353 460.757 730.273 460.845 727.027 460.946C716.072 461.296 691.932 461.741 690.854 458.924C690.613 458.209 690.485 457.461 690.477 456.706C690.336 452.413 692.336 445.821 692.336 445.821C692.336 445.821 693.487 432.631 693.487 432.058C693.487 431.485 692.497 422.244 692.497 422.244L694.477 414.83L699.992 410.954C699.992 410.954 702.463 414.749 703.944 415.073C705.426 415.396 707.405 417.223 707.405 417.223C707.405 417.223 712.26 420.188 713.829 418.537C715.398 416.886 727.579 409.633 727.579 409.633L734.003 416.724L734.912 454.078Z" fill="black"/>
<path d="M734.912 455.102L732.353 461.775C732.353 461.775 730.273 461.869 727.027 461.97H726.711C725.31 462.017 723.708 462.065 721.997 462.098C713.291 462.301 701.298 462.354 695.029 461.424C692.672 461.087 691.13 460.602 690.874 459.941C690.733 459.544 690.633 459.133 690.578 458.715C690.538 458.405 690.511 458.041 690.497 457.724C690.356 453.431 692.356 446.839 692.356 446.839C692.356 446.839 693.507 433.648 693.507 433.075C693.507 432.502 692.517 423.262 692.517 423.262L694.497 415.848L698.288 413.192L700.012 411.979C700.592 412.848 701.224 413.68 701.904 414.473C702.436 415.187 703.146 415.747 703.965 416.097C705.453 416.427 707.426 418.247 707.426 418.247C707.426 418.247 712.281 421.213 713.85 419.561C715.041 418.301 722.448 413.765 725.869 411.696C726.919 411.055 727.6 410.658 727.6 410.658L728.461 411.615L734.023 417.748L734.912 455.102Z" fill="white"/>
<path opacity="0.1" d="M647.954 386.488L640.783 391.516C640.783 391.516 640.723 390.512 640.541 389.137C644.083 387.64 646.237 384.331 646.857 383.273C647.517 385.066 647.954 386.488 647.954 386.488Z" fill="black"/>
<path d="M673.152 403.554L671.589 403.136C671.589 403.136 669.031 405.832 667.549 406.189C666.068 406.546 662.943 408.575 662.943 408.575L659.314 411.46C659.314 411.46 656.621 411.878 657.422 409.977C658.223 408.076 655.941 405.69 655.941 405.69C655.941 405.69 651.328 396.214 651.328 394.232C651.328 392.25 647.517 383.933 647.517 383.933C647.517 383.933 642.736 393.248 634.009 390.282C634.009 390.282 640.352 404.538 640.514 408.083C640.675 411.628 644.877 421.516 644.877 421.516C644.877 421.516 646.446 428.856 654.924 428.445C654.924 428.445 666.62 430.622 669.172 428.445C671.724 426.268 674.027 424.556 675.232 424.306C676.438 424.057 677.535 422.662 677.535 422.662V412.862L673.152 403.554Z" fill="#C2D1D9"/>
<path opacity="0.1" d="M658.493 412.862C658.493 412.862 660.553 420.532 659.233 421.354L658.493 412.862Z" fill="black"/>
<path opacity="0.1" d="M727.027 461.937C716.072 462.287 691.932 462.725 690.854 459.915C690.613 459.2 690.485 458.451 690.477 457.697L726.266 459.584L727.027 461.937Z" fill="black"/>
<path opacity="0.1" d="M729.721 530.733C729.721 530.733 729.047 532.607 728.125 535.067C723.58 534.791 717.56 534.501 711.843 534.46C709.823 534.46 707.843 534.46 705.971 534.528C701.998 534.649 698.564 534.973 696.376 535.593C693.609 536.446 690.717 536.819 687.824 536.698C687.083 533.847 686.572 531.798 686.572 531.798C686.572 531.798 699.015 530.753 706.564 530.389L707.156 526.197L729.721 530.733Z" fill="black"/>
<path d="M739.356 500.564L737.956 503.53C737.956 503.53 737.761 504.413 737.511 505.815C736.986 508.834 736.165 514.28 736.474 518.621C736.885 524.97 735.565 534.609 735.565 534.609C735.565 534.609 705.264 532.054 696.376 534.609C687.487 537.163 683.111 534.609 683.111 534.609C683.111 534.609 684.188 525.051 681.548 520.104C679.751 516.734 678.485 501.69 678.444 491.795C678.444 487.232 678.673 483.775 679.246 483.074C681.057 480.849 688.794 458.594 688.794 458.594L690.558 458.688L695.272 458.937L722.071 460.353L726.28 460.575L726.724 461.923L739.356 500.564Z" fill="#738D9B"/>
<path d="M752.696 490.67L752.945 493.312C752.945 493.312 739.673 488.985 740.346 483.667C741.02 478.349 740.346 478.949 740.346 478.949L751.012 479.852L752.696 490.67Z" fill="#4C4981"/>
<path opacity="0.1" d="M752.696 490.67L752.945 493.312C752.945 493.312 739.673 488.985 740.346 483.667C741.02 478.349 740.346 478.949 740.346 478.949L751.012 479.852L752.696 490.67Z" fill="black"/>
<path opacity="0.1" d="M667.347 414.992C668.702 416.144 670.3 416.976 672.02 417.425C671.522 417.317 671.059 417.085 670.674 416.751C669.724 416.077 668.822 415.342 667.906 414.628C667.165 414.048 666.243 413.084 665.334 412.848C665.929 413.631 666.604 414.349 667.347 414.992Z" fill="black"/>
<path opacity="0.1" d="M667.549 418.463C667.976 418.945 668.322 419.494 668.573 420.087C668.998 421.765 668.972 423.525 668.499 425.19L666.371 420.054C666.001 419.177 665.63 418.301 665.186 417.465C664.99 417.108 663.765 415.619 663.906 415.309C664.283 414.432 667.152 417.971 667.549 418.463Z" fill="black"/>
<path opacity="0.1" d="M726.919 446.906C728.37 446.73 729.727 446.095 730.791 445.093C728.603 445.369 726.529 446.232 724.374 446.684C722.374 447.149 720.276 446.955 718.395 446.131C720.873 447.344 724.28 447.385 726.919 446.906Z" fill="black"/>
<path opacity="0.1" d="M720.731 431.815C720.339 431.873 719.94 431.774 719.62 431.539C717.977 430.595 716.357 429.611 714.759 428.587C713.203 427.582 711.324 426.564 709.998 425.297C713.264 428.25 716.307 430.743 720.731 431.815Z" fill="black"/>
<path opacity="0.1" d="M725.297 449.299C726.159 449.338 727.024 449.268 727.869 449.09C728.724 448.912 729.48 448.416 729.983 447.701C729.678 447.631 729.357 447.682 729.088 447.843C726.479 448.942 723.613 449.285 720.819 448.834C722.159 449.407 723.876 449.292 725.297 449.299Z" fill="black"/>
<path opacity="0.1" d="M709.702 487.569C707.987 488.087 706.225 488.432 704.443 488.601C703.055 488.665 701.665 488.638 700.281 488.52L693.548 488.095L690.181 487.88C689.784 487.88 688.161 487.88 688.962 487.077C689.366 486.686 691.615 486.936 692.194 486.916C693.312 486.88 694.434 486.859 695.561 486.855C697.79 486.855 700.025 486.855 702.254 486.99C704.752 487.111 707.21 487.3 709.702 487.569Z" fill="black"/>
<path opacity="0.1" d="M701.897 490.906C700.753 490.858 699.278 491.539 698.1 491.687C696.781 491.843 695.453 491.895 694.127 491.842C691.502 491.779 688.91 491.25 686.471 490.279C691.608 490.542 696.76 490.697 701.897 490.906Z" fill="black"/>
<path opacity="0.1" d="M687.474 494.438C687.972 494.538 688.463 494.673 688.942 494.842C691.784 495.651 694.807 494.936 697.696 494.222C696.975 495.307 695.676 495.772 694.376 496.069C692.262 496.605 690.059 496.685 687.912 496.305C687.238 496.17 685.548 495.927 685.218 495.226C684.666 494.195 686.841 494.337 687.474 494.438Z" fill="black"/>
<path opacity="0.1" d="M703.406 499.756C704.258 499.93 705.099 500.155 705.924 500.43C709.123 501.225 712.442 500.133 715.654 499.398C719.515 498.521 723.475 498.154 727.431 498.306C726.724 498.306 725.6 498.927 724.906 499.135C723.997 499.412 723.075 499.668 722.152 499.897C720.341 500.342 718.502 500.706 716.651 500.969C712.912 501.51 709.13 501.675 705.359 501.461C703.635 501.366 700.645 501.542 699.17 500.672C700.445 499.914 701.932 499.592 703.406 499.756Z" fill="black"/>
<path opacity="0.1" d="M704.611 398.101C704.611 398.101 704.773 405.69 703.54 409.155C703.15 410.233 702.544 412.222 701.884 414.453C701.163 416.926 700.376 419.696 699.77 421.867C699.164 424.037 698.76 425.493 698.76 425.493C698.76 425.493 695.979 448.167 695.258 458.971C695.258 459.16 695.258 459.355 695.218 459.537C695.177 460.144 695.11 460.777 695.009 461.431C693.406 472.162 684.161 488.709 681.057 490.03C680.089 490.474 679.205 491.083 678.444 491.829C678.444 487.266 678.673 483.808 679.246 483.107C681.057 480.883 688.794 458.627 688.794 458.627L690.558 458.722C690.518 458.412 690.491 458.048 690.477 457.731C690.336 453.437 692.336 446.846 692.336 446.846C692.336 446.846 693.487 433.655 693.487 433.082C693.487 432.509 692.497 423.269 692.497 423.269L694.477 415.854L698.268 413.199C698.739 407.477 699.864 400.527 702.551 398.633C703.896 397.579 704.97 396.218 705.682 394.664C706.214 394.738 705.244 394.266 705.244 394.266L704.611 398.101Z" fill="black"/>
<path d="M706.059 393.848C705.372 393.613 704.642 393.533 703.922 393.615C703.201 393.697 702.507 393.937 701.891 394.32C699.992 395.668 696.288 395.553 695.298 395.311C694.309 395.068 684.02 393.74 683.178 394.07C682.336 394.401 680.707 392.918 679.636 394.899C678.565 396.881 678.074 397.946 677.003 398.438C675.933 398.93 674.034 400.5 674.31 400.831C674.586 401.161 671.616 403.136 671.616 403.136L677.623 422.682C677.623 422.682 673.751 447.405 671.859 449.548C669.967 451.692 653.166 479.468 659.179 484.415C663.94 488.162 668.978 491.542 674.249 494.525C674.923 494.855 677.293 490.407 680.585 489.005C683.878 487.603 694.093 469.054 694.726 458.506C695.359 447.958 698.268 424.468 698.268 424.468C698.268 424.468 701.81 411.608 703.042 408.144C704.274 404.679 704.113 397.09 704.113 397.09L706.059 393.848Z" fill="#C2D1D9"/>
<path opacity="0.1" d="M739.356 500.564L737.956 503.53C737.956 503.53 737.761 504.413 737.511 505.815C737.262 505.783 737.027 505.678 736.838 505.511C734.778 503.86 722.697 491.418 722.098 480.371C721.674 472.222 721.876 465.199 722.011 462.071C722.051 461.087 722.091 460.494 722.091 460.366C722.091 460.366 731.478 448.989 730.407 444.958C729.337 440.928 726.866 419.346 726.866 419.346L726.502 416.515L725.876 411.729L724.381 400.15L725.93 400.514C726.193 400.876 726.508 401.196 726.866 401.464L728.468 411.649L734.03 417.782L734.939 455.122L732.38 461.795C732.38 461.795 730.3 461.889 727.054 461.99H726.738L739.356 500.564Z" fill="black"/>
<path d="M744.541 438.926C744.541 438.926 742.238 438.016 742.077 438.926C741.915 439.836 741.498 441.804 741.498 441.804C741.498 441.804 741.908 446.589 740.151 448.483C738.394 450.377 738.131 458.371 738.131 458.371C738.131 458.371 735.357 466.284 736.67 468.758C737.148 469.654 737.888 474.15 738.629 479.542C739.101 482.912 739.565 486.612 739.976 489.996C740.723 496.143 741.282 501.232 741.282 501.232C741.282 501.232 739.794 506.671 737.734 505.02C735.673 503.368 723.593 490.926 723.001 479.879C722.596 472.121 722.758 465.381 722.893 462.058C722.947 460.649 723.001 459.854 723.001 459.854C723.001 459.854 732.387 448.477 731.317 444.439C730.246 440.402 727.775 418.827 727.775 418.827L727.344 415.491L726.879 411.905L726.771 411.116L725.283 399.658C725.546 399.719 734.784 401.808 736.003 403.028C737.222 404.248 744.757 405.994 744.757 405.994C745.893 406.302 746.926 406.91 747.748 407.754C748.57 408.598 749.151 409.648 749.43 410.793C749.504 411.022 749.558 411.264 749.612 411.514C750.602 416.299 750.285 416.872 750.958 417.701C751.632 418.53 744.541 438.926 744.541 438.926Z" fill="#C2D1D9"/>
<path opacity="0.1" d="M740.03 489.989C736.663 489.315 731.667 487.758 731.781 484.321C731.882 481.106 735.747 479.946 738.676 479.535C739.148 482.892 739.612 486.606 740.03 489.989Z" fill="black"/>
<path d="M750.474 488.277C750.339 488.567 749.8 488.816 749.033 489.039C747.232 489.468 745.402 489.767 743.558 489.935C743.558 489.935 732.111 489.025 732.273 483.829C732.394 480.101 737.565 479.111 740.467 478.888C741.11 478.828 741.755 478.801 742.4 478.807C742.4 478.807 750.965 487.212 750.474 488.277Z" fill="#AE6E79"/>
<path opacity="0.1" d="M750.474 488.277C750.339 488.567 749.8 488.816 749.033 489.039C746.05 485.042 741.888 479.913 739.848 479.461L740.467 478.888C741.11 478.828 741.755 478.801 742.4 478.807C742.4 478.807 750.965 487.212 750.474 488.277Z" fill="black"/>
<path d="M747.592 417.148L750.958 417.647C752.174 419.79 753.523 421.855 754.999 423.828C755.903 424.954 756.423 426.341 756.48 427.784C756.48 427.784 761.422 435.118 762.985 435.94C764.547 436.762 766.937 442.37 766.937 442.37C766.937 442.37 770.809 444.924 770.809 447.809C770.878 450.215 771.125 452.612 771.55 454.981C771.637 455.392 770.977 460.508 769.328 463.069C767.678 465.63 766.028 471.278 766.116 472.289C766.203 473.3 761.503 478.558 760.19 480.202C759.094 481.74 758.13 483.368 757.308 485.069L752.945 493.312C752.945 493.312 743.72 479.71 740.346 478.969C740.346 478.969 744.131 475.343 746.023 474.682C747.915 474.022 749.733 468.616 749.814 467.349C749.895 466.082 751.544 461.99 753.268 461.283C754.992 460.575 755.908 459.8 755.167 458.641C754.426 457.481 755.167 455.271 755.167 455.271C755.167 455.271 750.305 448.841 749.645 445.16C748.985 441.48 744.541 438.98 744.541 438.98L741.989 432.711L747.592 417.148Z" fill="#C2D1D9"/>
<path opacity="0.1" d="M759.84 447.917C761.703 446.343 764.048 445.453 766.486 445.396C764.924 445.666 763.281 446.01 762.136 447.102C761.687 447.575 761.283 448.089 760.931 448.638C760.54 449.198 757.362 453.242 756.891 452.602C756.103 451.665 759.2 448.463 759.84 447.917Z" fill="black"/>
<path opacity="0.1" d="M752.379 444.015C752.883 443.971 753.367 443.794 753.78 443.501C754.193 443.209 754.521 442.811 754.729 442.35C755.131 441.421 755.379 440.433 755.463 439.425C755.704 437.737 756.044 436.065 756.48 434.417C756.611 434.091 756.666 433.74 756.642 433.389C756.617 433.039 756.514 432.699 756.339 432.395C756.158 431.868 755.914 431.366 755.611 430.898C755.005 431.572 754.83 433.143 754.581 434.046C754.271 435.165 753.989 436.291 753.719 437.416C753.578 437.955 752.46 444.015 752.379 444.015Z" fill="black"/>
<path opacity="0.1" d="M749.464 410.739C749.132 411.173 748.75 411.567 748.326 411.911C746.979 412.983 745.194 413.886 745.026 415.578C745.073 416.128 745.004 416.681 744.824 417.202C744.393 417.944 743.336 417.876 742.494 417.735C741.784 417.671 741.103 417.42 740.521 417.007C739.639 416.252 739.558 414.904 738.885 413.954C738.476 413.463 737.959 413.074 737.375 412.815C736.792 412.557 736.156 412.437 735.518 412.464C734.259 412.424 733.007 412.707 731.747 412.761C730.938 412.801 730.127 412.747 729.33 412.599C729.067 412.559 728.806 412.505 728.549 412.437C727.986 412.298 727.437 412.111 726.906 411.878C726.631 411.768 726.364 411.642 726.105 411.5C725.262 411.067 724.481 410.523 723.782 409.883C722.549 408.75 721.526 407.187 721.627 405.508C721.687 404.477 722.152 403.527 722.3 402.509C722.805 399.597 720.873 396.847 718.779 394.765C717.944 393.935 717.055 393.133 716.22 392.291C714.92 391.09 713.893 389.624 713.21 387.991C712.648 386.252 712.464 384.414 712.671 382.599C712.86 380.758 712.912 378.906 712.826 377.058C712.207 370.507 706.618 365.485 701.029 362.756L700.78 362.628C702.438 360.723 704.478 359.19 706.769 358.128C709.059 357.067 711.547 356.501 714.071 356.467C716.594 356.434 719.096 356.933 721.414 357.933C723.732 358.934 725.812 360.412 727.52 362.272C729.228 364.132 730.525 366.331 731.326 368.727C732.127 371.123 732.414 373.661 732.169 376.175C731.924 378.689 731.151 381.123 729.902 383.319C728.653 385.514 726.955 387.42 724.92 388.914C724.859 389.123 724.805 389.332 724.758 389.534C723.465 394.711 724.32 397.851 725.283 399.584C725.546 399.644 734.784 401.734 736.003 402.954C737.222 404.174 744.757 405.919 744.757 405.919C745.902 406.224 746.944 406.833 747.772 407.681C748.6 408.53 749.185 409.586 749.464 410.739Z" fill="black"/>
<path d="M699.594 357.876C699.965 357.451 700.524 357.236 700.901 356.825C702.066 355.557 700.901 353.488 701.325 351.817C701.783 349.963 704.059 349.154 705.958 349.35C707.857 349.545 709.634 350.421 711.533 350.637C714.482 350.967 717.338 349.687 720.213 348.939C723.088 348.19 726.563 348.15 728.542 350.354C730.522 352.558 730.387 356.312 732.852 357.91C733.99 358.644 735.424 358.725 736.656 359.258C738.005 359.95 739.123 361.021 739.875 362.338C741.826 365.405 742.685 369.041 742.312 372.657C742.104 374.612 741.538 376.512 741.309 378.467C741.077 380.497 741.214 382.552 741.713 384.533C742.232 386.555 743.356 388.739 745.37 389.386C745.835 389.489 746.287 389.645 746.716 389.851C747.881 390.579 747.726 392.291 747.43 393.626L746.231 399.159C747.383 400.035 749.174 399.658 750.272 400.581C750.711 400.984 751.037 401.495 751.214 402.064C751.756 403.612 751.814 405.287 751.383 406.869C750.951 408.451 750.049 409.864 748.797 410.921C747.45 411.992 745.666 412.896 745.497 414.581C745.549 415.13 745.48 415.685 745.295 416.205C744.871 416.946 743.807 416.879 742.966 416.738C742.258 416.672 741.579 416.421 740.999 416.01C740.111 415.255 740.037 413.907 739.363 412.956C738.953 412.467 738.437 412.078 737.853 411.819C737.269 411.561 736.634 411.44 735.996 411.467C734.73 411.426 733.485 411.709 732.219 411.77C729.299 411.89 726.449 410.859 724.28 408.899C723.041 407.76 722.024 406.203 722.118 404.518C722.179 403.493 722.644 402.536 722.792 401.518C723.29 398.613 721.364 395.857 719.27 393.774C717.176 391.691 714.718 389.77 713.695 387C712.415 383.569 713.654 379.741 713.311 376.101C712.691 369.543 707.109 364.529 701.514 361.792C700.268 361.152 698.147 359.527 699.594 357.876Z" fill="#444053"/>
<path opacity="0.1" d="M743.632 414.48C742.743 413.718 742.669 412.377 741.996 411.426C741.586 410.936 741.07 410.546 740.486 410.287C739.902 410.028 739.267 409.906 738.629 409.93C737.363 409.89 736.111 410.173 734.852 410.233C731.921 410.362 729.058 409.328 726.886 407.355C725.647 406.223 724.637 404.659 724.731 402.981C724.792 401.95 725.256 400.993 725.404 399.982C725.909 397.07 723.977 394.313 721.883 392.23C719.789 390.148 717.338 388.227 716.307 385.457C715.035 382.033 716.307 378.204 715.93 374.558C715.304 368 709.722 362.985 704.133 360.248C702.827 359.608 700.706 357.984 702.153 356.332C702.517 355.908 703.076 355.692 703.453 355.281C704.618 354.021 703.453 351.945 703.884 350.28C703.967 349.948 704.111 349.635 704.308 349.356C702.901 349.619 701.615 350.415 701.271 351.763C700.86 353.434 702.012 355.503 700.847 356.771C700.47 357.182 699.911 357.397 699.541 357.815C698.093 359.467 700.214 361.098 701.52 361.731C707.116 364.468 712.698 369.489 713.318 376.041C713.661 379.687 712.422 383.515 713.701 386.946C714.725 389.71 717.183 391.664 719.277 393.72C721.371 395.776 723.317 398.553 722.798 401.464C722.515 402.45 722.29 403.451 722.125 404.464C722.031 406.142 723.048 407.706 724.287 408.838C726.456 410.811 729.317 411.846 732.246 411.716C733.512 411.655 734.757 411.379 736.023 411.413C736.661 411.389 737.296 411.511 737.88 411.771C738.463 412.03 738.98 412.419 739.39 412.909C740.063 413.859 740.138 415.207 741.026 415.962C741.607 416.372 742.285 416.62 742.993 416.684C743.834 416.839 744.898 416.893 745.322 416.158C745.474 415.858 745.539 415.522 745.511 415.187C744.833 415.121 744.185 414.877 743.632 414.48Z" fill="black"/>
<path d="M645.611 374.423H599.035V328.482H645.645L645.611 374.423ZM644.938 305.155H599.708C599.708 233.763 667.502 237.936 667.502 192.77C667.502 167.892 647.16 147.962 622.306 147.962C597.452 147.962 577.117 169.449 577.117 193.478H531.921C531.901 181.591 534.225 169.817 538.76 158.831C543.295 147.845 549.952 137.864 558.349 129.458C566.746 121.053 576.718 114.39 587.693 109.85C598.668 105.311 610.431 102.985 622.306 103.005C672.229 103.005 712.691 142.873 712.691 192.77C712.691 249.245 644.904 255.676 644.904 305.155H644.938Z" fill="#F36F6E"/>
<path opacity="0.1" d="M413.309 360.741H401.296V348.864H413.309V360.741ZM413.127 342.879H401.478C401.478 324.479 418.951 325.55 418.951 313.897C418.945 312.372 418.639 310.863 418.05 309.457C417.461 308.051 416.601 306.774 415.519 305.701C414.438 304.628 413.155 303.778 411.745 303.201C410.335 302.624 408.825 302.33 407.302 302.337C404.226 302.408 401.297 303.67 399.13 305.857C396.963 308.043 395.726 310.985 395.68 314.065H384.031C384.108 307.946 386.585 302.102 390.927 297.793C395.269 293.484 401.129 291.057 407.243 291.033C413.357 291.009 419.236 293.391 423.611 297.665C427.987 301.94 430.509 307.764 430.634 313.883C430.6 328.442 413.127 330.1 413.127 342.852V342.879Z" fill="#738D9B"/>
<path opacity="0.1" d="M504.266 443.246H492.253V431.404H504.266V443.246ZM504.091 425.392H492.442C492.442 406.984 509.916 408.063 509.916 396.409C509.909 394.885 509.603 393.376 509.014 391.971C508.425 390.565 507.565 389.289 506.483 388.216C505.401 387.143 504.119 386.294 502.709 385.718C501.299 385.141 499.789 384.849 498.266 384.857C495.177 384.912 492.231 386.169 490.05 388.36C487.87 390.551 486.627 393.505 486.584 396.598H474.935C475.012 390.478 477.489 384.634 481.831 380.326C486.173 376.017 492.033 373.589 498.147 373.565C504.261 373.541 510.139 375.924 514.515 380.198C518.891 384.473 521.413 390.297 521.538 396.416C521.558 410.975 504.091 412.639 504.091 425.392Z" fill="#738D9B"/>
<path opacity="0.1" d="M559.576 297.188H550.869V288.621H559.576V297.188ZM559.448 284.24H551.004C551.004 270.908 563.67 271.683 563.67 263.244C563.665 262.14 563.442 261.047 563.015 260.028C562.588 259.01 561.964 258.086 561.18 257.308C560.396 256.531 559.467 255.916 558.445 255.498C557.423 255.08 556.33 254.868 555.226 254.873C552.991 254.918 550.862 255.831 549.286 257.418C547.711 259.005 546.813 261.142 546.782 263.379H538.338C538.32 258.896 540.082 254.589 543.237 251.406C546.391 248.224 550.68 246.425 555.159 246.408C559.638 246.39 563.94 248.154 567.12 251.311C570.3 254.469 572.096 258.761 572.114 263.244C572.1 273.793 559.448 274.999 559.448 284.24Z" fill="#738D9B"/>
<path opacity="0.1" d="M708.281 309.28H703.359V304.427H708.281V309.28ZM708.207 301.967H703.406C703.406 294.431 710.564 294.869 710.564 290.097C710.564 289.473 710.44 288.855 710.2 288.279C709.959 287.703 709.607 287.181 709.164 286.742C708.721 286.303 708.195 285.957 707.617 285.723C707.038 285.489 706.42 285.372 705.796 285.379C704.534 285.405 703.33 285.921 702.44 286.817C701.549 287.713 701.041 288.921 701.022 290.185H696.248C696.304 287.694 697.329 285.324 699.105 283.578C700.881 281.833 703.268 280.851 705.757 280.841C708.246 280.832 710.64 281.795 712.43 283.527C714.219 285.258 715.263 287.62 715.338 290.111C715.365 296.035 708.207 296.743 708.207 301.967Z" fill="#738D9B"/>
<path opacity="0.1" d="M783.536 529.998H778.613V525.145H783.536V529.998ZM783.462 522.685H778.687C778.687 515.143 785.852 515.588 785.852 510.816C785.843 509.557 785.335 508.353 784.44 507.468C783.545 506.584 782.336 506.091 781.078 506.098C779.815 506.122 778.61 506.637 777.72 507.534C776.829 508.431 776.321 509.639 776.304 510.904H771.53C771.585 508.413 772.61 506.042 774.387 504.297C776.163 502.552 778.55 501.57 781.038 501.56C783.527 501.55 785.922 502.514 787.711 504.245C789.501 505.977 790.544 508.339 790.619 510.829C790.646 516.781 783.488 517.462 783.488 522.685H783.462Z" fill="#738D9B"/>
</g>
<path fill-rule="evenodd" clip-rule="evenodd" d="M1130.52 55.8713H1128.68H185.915H184.073V57.459V667.127V668.714H185.915H1128.68H1130.52V667.127V57.459V55.8713ZM185.915 667.127H1128.68V57.4594H185.915V667.127Z" fill="#424B5A"/>
<rect x="328.413" y="705.275" width="626.822" height="34.0019" fill="#424B5A"/>
<path fill-rule="evenodd" clip-rule="evenodd" d="M553.081 705.275C553.048 705.54 553.031 705.81 553.031 706.084V719.037C553.031 722.614 555.935 725.514 559.518 725.514H748.456C752.039 725.514 754.944 722.614 754.944 719.037V706.084C754.944 705.81 754.927 705.54 754.893 705.275H1294.19V716.609C1294.19 734.493 1279.67 748.991 1261.75 748.991H34.8685C16.9547 748.991 2.43269 734.493 2.43269 716.609V705.275H553.081V705.275Z" fill="#F2F5F7"/>
<path fill-rule="evenodd" clip-rule="evenodd" d="M553.842 706.084C553.842 705.81 553.859 705.54 553.892 705.275H2.43269V716.609C2.43269 734.493 16.9547 748.991 34.8685 748.991H1261.75C1279.67 748.991 1294.19 734.493 1294.19 716.609V705.275H754.893C754.927 705.54 754.944 705.81 754.944 706.084V718.228C754.944 721.805 752.039 724.704 748.456 724.704H560.329C556.746 724.704 553.842 721.805 553.842 718.228V706.084ZM4.86538 707.704H551.409V718.228C551.409 723.146 555.402 727.133 560.329 727.133H748.456C753.383 727.133 757.376 723.146 757.376 718.228V707.704H1291.76V716.609C1291.76 733.152 1278.32 746.563 1261.75 746.563H34.8685C18.2982 746.563 4.86538 733.152 4.86538 716.609V707.704Z" fill="#424B5A"/>
<rect x="548.165" y="705.134" width="214.887" height="2.4292" fill="#424B5A"/>
<defs>
<linearGradient id="paint0_linear" x1="693.467" y1="663.817" x2="693.467" y2="347.873" gradientUnits="userSpaceOnUse">
<stop stop-color="#808080" stop-opacity="0.25"/>
<stop offset="0.54" stop-color="#808080" stop-opacity="0.12"/>
<stop offset="1" stop-color="#808080" stop-opacity="0.1"/>
</linearGradient>
<clipPath id="clip0">
<rect width="676" height="564" fill="white" transform="translate(224 103.005)"/>
</clipPath>
</defs>
</svg>
