<svg width="648" height="451" viewBox="0 0 648 451" fill="none" xmlns="http://www.w3.org/2000/svg">
<g clip-path="url(#clip0)">
<path d="M0.219651 39.0585C2.32605 56.9031 17.0991 71.0332 20.6041 88.6577C21.0435 90.9684 21.3122 93.308 21.4082 95.6578C21.9121 105.78 19.902 116.111 20.9382 126.25C22.8691 145.263 34.4599 160.121 49.1764 172.998C60.3086 182.713 73.23 191.26 85.1153 199.531C115.375 220.604 143.755 247.211 156.184 281.861C164.468 304.967 165.102 330.077 171.183 353.855C177.264 377.633 191.115 401.964 214.523 409.546C239.647 417.686 267.33 404.115 293.184 409.478C320.93 415.236 340.606 441.379 367.984 448.763C402.768 458.146 437.433 435.09 473.14 430.286C490.285 427.977 507.737 429.936 524.973 428.457C544.16 426.794 562.739 420.909 579.371 411.228C585.033 407.914 590.758 403.844 593.391 397.826C595.656 392.627 595.311 386.699 594.614 381.071C592.009 360.184 585.418 337.478 595.786 319.12C605.35 302.184 628.526 290.069 625.089 270.949C623.022 259.438 611.675 252.252 601.154 247.098C579.456 236.468 556.342 228.146 536.949 213.791C523.076 203.505 511.128 189.155 506.032 173.015C503.943 166.562 503.082 159.776 503.495 153.008C504.209 142.339 507.912 130.359 501.457 121.818C498.66 118.115 494.373 115.84 490.064 114.101C473.813 107.552 455.762 107.174 438.865 102.522C433.072 100.946 427.505 98.639 422.297 95.6578C411.992 89.7077 403.696 80.9406 401.692 69.4977C400.52 62.7911 401.562 55.4692 398.204 49.5417C392.542 39.4931 381.347 35.2931 368.845 33.9269C353.369 32.2333 335.844 34.881 324.112 36.185L322.94 36.3092C307.872 37.873 292.929 34.5479 278.247 29.5349C262.392 24.1663 246.894 16.8613 231.816 11.6677C230.4 11.1784 228.988 10.7098 227.58 10.262C216.573 6.76496 205.303 4.15041 193.878 2.4433C177.765 0.0253155 161.433 -0.60327 145.182 0.569071C136.939 1.16115 128.738 2.2242 120.618 3.753C118.233 4.20462 115.851 4.68823 113.472 5.20383C99.6449 8.1563 85.8911 11.7636 71.7862 11.9781C70.7726 11.9781 69.7534 11.9781 68.7398 11.9781C51.9169 11.6902 34.7147 7.42806 18.7525 12.5765C11.4934 14.9306 4.53436 19.5597 1.61259 26.5824C-0.012506 30.4946 -0.272974 34.8584 0.219651 39.0585Z" fill="#738D9B"/>
<path opacity="0.2" d="M21.4094 95.659H35.9446C36.1615 91.9122 37.4753 88.3111 39.7236 85.301C41.9719 82.2909 45.056 80.004 48.5943 78.7232C45.953 77.2734 43.8703 74.9889 42.6741 72.2295C41.4779 69.4701 41.2361 66.3924 41.9868 63.481C42.7376 60.5696 44.4382 57.9897 46.821 56.1476C49.2037 54.3055 52.1333 53.3058 55.1485 53.3058C58.1637 53.3058 61.0933 54.3055 63.4761 56.1476C65.8588 57.9897 67.5594 60.5696 68.3102 63.481C69.0609 66.3924 68.8192 69.4701 67.623 72.2295C66.4268 74.9889 64.344 77.2734 61.7027 78.7232C65.241 80.004 68.3251 82.2909 70.5734 85.301C72.8217 88.3111 74.1355 91.9122 74.3524 95.659H74.477C74.7967 92.0154 76.154 88.5387 78.3891 85.6383C80.6241 82.7379 83.6438 80.5346 87.0927 79.2877C85.0853 78.186 83.39 76.5961 82.1643 74.6659C80.9386 72.7357 80.2223 70.5278 80.0821 68.2476C79.9419 65.9673 80.3823 63.6888 81.3624 61.6238C82.3425 59.5588 83.8304 57.7744 85.6878 56.4365C87.5451 55.0986 89.7117 54.2507 91.9859 53.9715C94.2602 53.6924 96.5684 53.9912 98.6957 54.84C100.823 55.6889 102.701 57.0602 104.154 58.8266C105.607 60.593 106.589 62.697 107.007 64.9431C108.672 63.5882 110.554 62.5215 112.573 61.7874C109.932 60.3376 107.849 58.0531 106.653 55.2937C105.457 52.5343 105.215 49.4566 105.966 46.5452C106.717 43.6338 108.417 41.054 110.8 39.2119C113.183 37.3698 116.112 36.37 119.127 36.37C122.143 36.37 125.072 37.3698 127.455 39.2119C129.838 41.054 131.538 43.6338 132.289 46.5452C133.04 49.4566 132.798 52.5343 131.602 55.2937C130.406 58.0531 128.323 60.3376 125.682 61.7874C129.404 63.1317 132.62 65.5875 134.892 68.8202C137.164 72.0528 138.38 75.9051 138.377 79.8522V95.659H144.605V83.2394C144.601 79.2923 145.818 75.44 148.09 72.2073C150.362 68.9747 153.578 66.5189 157.3 65.1746C154.659 63.7247 152.576 61.4403 151.38 58.6809C150.184 55.9215 149.942 52.8438 150.693 49.9324C151.443 47.0209 153.144 44.4411 155.527 42.599C157.91 40.7569 160.839 39.7572 163.854 39.7572C166.87 39.7572 169.799 40.7569 172.182 42.599C174.565 44.4411 176.265 47.0209 177.016 49.9324C177.767 52.8438 177.525 55.9215 176.329 58.6809C175.133 61.4403 173.05 63.7247 170.409 65.1746C172.87 66.0684 175.123 67.4522 177.031 69.2418C178.939 71.0314 180.462 73.1894 181.507 75.5844C183.785 72.3565 187.003 69.9048 190.725 68.5617C188.084 67.1119 186.001 64.8275 184.805 62.068C183.609 59.3086 183.367 56.231 184.118 53.3195C184.868 50.4081 186.569 47.8283 188.952 45.9862C191.335 44.1441 194.264 43.1443 197.279 43.1443C200.294 43.1443 203.224 44.1441 205.607 45.9862C207.99 47.8283 209.69 50.4081 210.441 53.3195C211.192 56.231 210.95 59.3086 209.754 62.068C208.558 64.8275 206.475 67.1119 203.833 68.5617C207.938 70.0505 211.415 72.8823 213.697 76.5949V74.207C213.693 70.2599 214.91 66.4076 217.182 63.1749C219.454 59.9423 222.67 57.4865 226.392 56.1421C223.751 54.6923 221.668 52.4079 220.472 49.6485C219.276 46.8891 219.034 43.8114 219.785 40.9C220.536 37.9885 222.236 35.4087 224.619 33.5666C227.002 31.7245 229.931 30.7248 232.946 30.7248C235.962 30.7248 238.891 31.7245 241.274 33.5666C243.657 35.4087 245.357 37.9885 246.108 40.9C246.859 43.8114 246.617 46.8891 245.421 49.6485C244.225 52.4079 242.142 54.6923 239.501 56.1421C243.223 57.4865 246.439 59.9423 248.711 63.1749C250.983 66.4076 252.199 70.2599 252.196 74.207V95.659H258.99C260.049 93.3212 261.566 91.218 263.451 89.473C265.337 87.728 267.553 86.3763 269.97 85.4975C267.328 84.0477 265.246 81.7632 264.05 79.0038C262.853 76.2444 262.612 73.1667 263.362 70.2553C264.113 67.3439 265.814 64.7641 268.196 62.922C270.579 61.0799 273.509 60.0801 276.524 60.0801C279.539 60.0801 282.469 61.0799 284.852 62.922C287.234 64.7641 288.935 67.3439 289.686 70.2553C290.436 73.1667 290.195 76.2444 288.998 79.0038C287.802 81.7632 285.719 84.0477 283.078 85.4975C284.421 85.9838 285.705 86.6181 286.906 87.3887C287.384 83.9199 288.805 80.6476 291.015 77.9261C293.225 75.2046 296.139 73.1376 299.442 71.9489C296.801 70.4991 294.718 68.2146 293.522 65.4552C292.326 62.6958 292.084 59.6181 292.835 56.7067C293.586 53.7953 295.286 51.2154 297.669 49.3733C300.052 47.5312 302.981 46.5315 305.997 46.5315C309.012 46.5315 311.941 47.5312 314.324 49.3733C316.707 51.2154 318.407 53.7953 319.158 56.7067C319.909 59.6181 319.667 62.6958 318.471 65.4552C317.275 68.2146 315.192 70.4991 312.551 71.9489C315.387 72.9818 317.941 74.664 320.006 76.8604C322.071 79.0567 323.591 81.7057 324.442 84.5942C326.567 82.2038 329.256 80.3798 332.267 79.2877C329.626 77.8379 327.543 75.5535 326.347 72.794C325.151 70.0346 324.909 66.957 325.66 64.0455C326.41 61.1341 328.111 58.5543 330.494 56.7122C332.876 54.8701 335.806 53.8703 338.821 53.8703C341.836 53.8703 344.766 54.8701 347.149 56.7122C349.531 58.5543 351.232 61.1341 351.983 64.0455C352.734 66.957 352.492 70.0346 351.296 72.794C350.099 75.5535 348.017 77.8379 345.375 79.2877C347.453 80.0435 349.384 81.1512 351.083 82.562C352.118 80.1183 353.647 77.9142 355.577 76.0879C357.506 74.2615 359.793 72.8524 362.294 71.9489C359.653 70.4991 357.57 68.2146 356.374 65.4552C355.178 62.6958 354.936 59.6181 355.687 56.7067C356.438 53.7953 358.138 51.2154 360.521 49.3733C362.904 47.5312 365.833 46.5315 368.849 46.5315C371.864 46.5315 374.793 47.5312 377.176 49.3733C379.559 51.2154 381.26 53.7953 382.01 56.7067C382.761 59.6181 382.519 62.6958 381.323 65.4552C380.127 68.2146 378.044 70.4991 375.403 71.9489C379.125 73.2932 382.341 75.749 384.613 78.9816C386.885 82.2143 388.102 86.0666 388.098 90.0137V95.659H422.298C427.504 98.6377 433.07 100.943 438.861 102.518C455.757 107.17 473.809 107.548 490.06 114.096C494.369 115.835 498.655 118.11 501.453 121.813C507.908 130.355 504.204 142.334 503.491 153.004C503.074 159.767 503.928 166.549 506.011 172.999H49.1776C34.4554 160.15 22.8703 145.264 20.9394 126.251C19.9315 116.117 21.9133 105.787 21.4094 95.659Z" fill="black"/>
<path d="M562.782 43.4516V262.482L551.457 255.143V43.4516H544.662L541.831 247.804L531.072 239.901L538.433 40.629" stroke="#E0E0E0" stroke-miterlimit="10"/>
<path d="M576.943 59.2583L531.078 61.7987" stroke="#E0E0E0" stroke-miterlimit="10"/>
<path d="M574.112 70.5488L531.078 72.2424" stroke="#E0E0E0" stroke-miterlimit="10"/>
<path d="M574.112 84.0975L531.078 85.2265" stroke="#E0E0E0" stroke-miterlimit="10"/>
<path d="M574.112 96.517L531.078 98.2106" stroke="#E0E0E0" stroke-miterlimit="10"/>
<path d="M574.112 110.63H529.379" stroke="#E0E0E0" stroke-miterlimit="10"/>
<path d="M574.112 124.743L528.247 123.05" stroke="#E0E0E0" stroke-miterlimit="10"/>
<path d="M574.112 137.727L528.247 135.469" stroke="#E0E0E0" stroke-miterlimit="10"/>
<path d="M574.112 151.841L528.247 148.453" stroke="#E0E0E0" stroke-miterlimit="10"/>
<path d="M575.244 164.26L526.548 159.744" stroke="#E0E0E0" stroke-miterlimit="10"/>
<path d="M575.244 178.373L526.548 171.035" stroke="#E0E0E0" stroke-miterlimit="10"/>
<path d="M575.244 194.745L524.849 185.712" stroke="#E0E0E0" stroke-miterlimit="10"/>
<path d="M575.244 213.374L524.849 198.696" stroke="#E0E0E0" stroke-miterlimit="10"/>
<path d="M576.377 232.568L523.151 211.68" stroke="#E0E0E0" stroke-miterlimit="10"/>
<path d="M576.377 250.068L523.151 224.1" stroke="#E0E0E0" stroke-miterlimit="10"/>
<path d="M518.615 42.8871L509.555 235.385H497.664L505.026 42.8871H492.002L483.509 235.385H470.485L477.846 42.8871H461.992L456.329 235.385H442.173L448.402 44.5806H433.68L430.282 235.385H417.259L421.223 42.8871H408.199L405.368 235.385H392.911L395.742 42.8871H381.02V235.385H366.298V42.8871H352.708L354.973 235.385H343.082L339.685 42.8871H326.095L330.625 235.385H318.734L313.072 42.8871H301.181L305.711 235.385H294.952L286.459 42.8871H275.134L284.194 235.385H272.869L260.412 42.8871H246.822L262.677 235.385H251.918L236.63 42.8871H225.871L241.726 235.385H229.835L214.547 40.629H203.788L221.341 235.385H210.017L191.897 40.629" stroke="#E0E0E0" stroke-miterlimit="10"/>
<path d="M166.417 43.4516L183.404 238.772L174.91 245.546L161.887 43.4516H152.827L161.887 252.885L148.863 261.353L143.773 40.629" stroke="#E0E0E0" stroke-miterlimit="10"/>
<path d="M131.316 65.4681H183.409" stroke="#E0E0E0" stroke-miterlimit="10"/>
<path d="M131.316 79.5813H183.409" stroke="#E0E0E0" stroke-miterlimit="10"/>
<path d="M131.316 95.388L183.409 93.6944" stroke="#E0E0E0" stroke-miterlimit="10"/>
<path d="M131.316 108.937L185.674 106.114" stroke="#E0E0E0" stroke-miterlimit="10"/>
<path d="M131.316 124.179L185.674 121.921" stroke="#E0E0E0" stroke-miterlimit="10"/>
<path d="M131.316 140.55L187.939 137.727" stroke="#E0E0E0" stroke-miterlimit="10"/>
<path d="M131.316 156.357L187.939 150.712" stroke="#E0E0E0" stroke-miterlimit="10"/>
<path d="M131.316 174.422L187.939 160.873" stroke="#E0E0E0" stroke-miterlimit="10"/>
<path d="M131.316 190.228L190.204 170.47" stroke="#E0E0E0" stroke-miterlimit="10"/>
<path d="M131.316 206.6L190.204 184.019" stroke="#E0E0E0" stroke-miterlimit="10"/>
<path d="M129.617 222.406L188.239 197.878" stroke="#E0E0E0" stroke-miterlimit="10"/>
<path d="M129.617 240.471L190.204 209.987" stroke="#E0E0E0" stroke-miterlimit="10"/>
<path d="M129.617 256.843L191.903 222.406" stroke="#E0E0E0" stroke-miterlimit="10"/>
<path d="M531.078 59.2583L183.409 62.0809" stroke="#E0E0E0" stroke-miterlimit="10"/>
<path d="M530.795 69.4198L183.126 72.2424" stroke="#E0E0E0" stroke-miterlimit="10"/>
<path d="M530.512 79.5813L182.843 82.4039" stroke="#E0E0E0" stroke-miterlimit="10"/>
<path d="M530.229 89.7427L182.56 92.5654" stroke="#E0E0E0" stroke-miterlimit="10"/>
<path d="M529.946 99.9042L182.277 102.727" stroke="#E0E0E0" stroke-miterlimit="10"/>
<path d="M529.662 110.066L186.524 112.888" stroke="#E0E0E0" stroke-miterlimit="10"/>
<path d="M529.379 120.227L186.241 123.05" stroke="#E0E0E0" stroke-miterlimit="10"/>
<path d="M529.096 130.389L185.957 133.211" stroke="#E0E0E0" stroke-miterlimit="10"/>
<path d="M528.813 140.55L185.674 143.373" stroke="#E0E0E0" stroke-miterlimit="10"/>
<path d="M528.53 150.712L188.789 153.534" stroke="#E0E0E0" stroke-miterlimit="10"/>
<path d="M528.247 160.873L188.505 163.696" stroke="#E0E0E0" stroke-miterlimit="10"/>
<path d="M527.964 171.035L188.222 173.857" stroke="#E0E0E0" stroke-miterlimit="10"/>
<path d="M527.681 181.196L190.204 184.019" stroke="#E0E0E0" stroke-miterlimit="10"/>
<path d="M527.398 191.357L189.921 194.18" stroke="#E0E0E0" stroke-miterlimit="10"/>
<path d="M527.114 201.519L191.337 204.342" stroke="#E0E0E0" stroke-miterlimit="10"/>
<path d="M526.831 211.68L191.054 214.503" stroke="#E0E0E0" stroke-miterlimit="10"/>
<path d="M526.548 221.842L190.77 224.664" stroke="#E0E0E0" stroke-miterlimit="10"/>
<path d="M576.371 272.079L524.844 235.385H190.199L131.316 272.079" stroke="#E0E0E0" stroke-width="3" stroke-miterlimit="10"/>
<path d="M579.57 232.376C579.57 232.376 580.878 193.841 601.784 172.079C610.615 163.003 616.254 151.316 617.854 138.772C618.568 132.814 618.732 126.803 618.346 120.814" stroke="#535461" stroke-width="2" stroke-miterlimit="10"/>
<path d="M631.438 107.023C630.005 111.325 618.046 121.215 618.046 121.215C618.046 121.215 614.383 106.154 615.815 101.852C616.525 99.8139 618.01 98.1363 619.951 97.1819C621.891 96.2275 624.13 96.073 626.184 96.7518C628.238 97.4306 629.941 98.8882 630.925 100.809C631.909 102.73 632.095 104.96 631.443 107.017L631.438 107.023Z" fill="#738D9B"/>
<path d="M636.426 135.125C632.881 137.948 617.446 139.782 617.446 139.782C617.446 139.782 622.582 125.155 626.126 122.322C626.966 121.62 627.939 121.092 628.986 120.77C630.033 120.448 631.134 120.337 632.225 120.445C633.316 120.553 634.374 120.876 635.338 121.397C636.301 121.918 637.151 122.625 637.836 123.478C638.522 124.33 639.03 125.311 639.331 126.361C639.632 127.412 639.719 128.512 639.588 129.597C639.456 130.682 639.109 131.73 638.566 132.679C638.023 133.628 637.296 134.46 636.426 135.125Z" fill="#738D9B"/>
<path d="M622.316 175.664C617.82 176.324 603.573 170.131 603.573 170.131C603.573 170.131 615.413 160.088 619.909 159.405C622.043 159.141 624.197 159.719 625.909 161.017C627.621 162.315 628.755 164.23 629.07 166.351C629.384 168.472 628.854 170.632 627.591 172.368C626.329 174.104 624.435 175.279 622.316 175.641V175.664Z" fill="#738D9B"/>
<path d="M604.711 203.935C600.391 205.346 585.301 201.637 585.301 201.637C585.301 201.637 595.266 189.749 599.587 188.332C600.62 187.972 601.716 187.821 602.808 187.888C603.901 187.955 604.969 188.238 605.951 188.722C606.932 189.205 607.807 189.879 608.524 190.704C609.241 191.529 609.786 192.488 610.127 193.525C610.468 194.563 610.598 195.657 610.509 196.745C610.42 197.833 610.115 198.892 609.611 199.861C609.106 200.83 608.413 201.689 607.572 202.387C606.731 203.086 605.758 203.61 604.711 203.929V203.935Z" fill="#738D9B"/>
<path d="M600.759 135.176C602.86 139.195 616.246 147.07 616.246 147.07C616.246 147.07 617.463 131.625 615.368 127.6C614.869 126.644 614.186 125.795 613.358 125.101C612.53 124.408 611.573 123.884 610.542 123.56C609.511 123.235 608.426 123.117 607.348 123.21C606.271 123.304 605.223 123.608 604.264 124.105C603.305 124.603 602.453 125.284 601.758 126.109C601.063 126.935 600.537 127.889 600.212 128.917C599.886 129.945 599.767 131.027 599.861 132.101C599.955 133.175 600.26 134.219 600.759 135.176Z" fill="#738D9B"/>
<path d="M580.595 168.517C583.806 171.729 598.941 175.246 598.941 175.246C598.941 175.246 595.47 160.145 592.26 156.933C590.711 155.431 588.631 154.597 586.471 154.61C584.31 154.623 582.241 155.482 580.71 157.002C579.179 158.523 578.309 160.582 578.288 162.736C578.266 164.89 579.095 166.966 580.595 168.517Z" fill="#738D9B"/>
<path d="M565.454 203.591C568.07 207.294 582.396 213.312 582.396 213.312C582.396 213.312 581.535 197.838 578.914 194.118C578.295 193.226 577.506 192.465 576.591 191.879C575.676 191.293 574.654 190.893 573.583 190.703C572.512 190.513 571.414 190.537 570.353 190.772C569.291 191.007 568.287 191.45 567.398 192.075C566.509 192.699 565.753 193.493 565.174 194.411C564.594 195.328 564.203 196.351 564.022 197.42C563.841 198.489 563.875 199.584 564.12 200.64C564.366 201.696 564.82 202.693 565.454 203.574V203.591Z" fill="#738D9B"/>
<path d="M588.064 266.812C588.064 266.812 589.372 228.277 610.277 206.515C619.108 197.439 624.747 185.752 626.347 173.208C627.061 167.25 627.226 161.239 626.84 155.25" stroke="#535461" stroke-width="2" stroke-miterlimit="10"/>
<path d="M639.931 141.459C638.499 145.761 626.54 155.651 626.54 155.651C626.54 155.651 622.876 140.59 624.309 136.288C625.018 134.25 626.504 132.572 628.444 131.618C630.384 130.664 632.624 130.509 634.677 131.188C636.731 131.867 638.434 133.324 639.419 135.245C640.403 137.166 640.589 139.396 639.937 141.453L639.931 141.459Z" fill="#738D9B"/>
<path d="M644.92 169.561C641.375 172.384 625.939 174.218 625.939 174.218C625.939 174.218 631.075 159.592 634.62 156.758C635.46 156.056 636.432 155.528 637.479 155.206C638.527 154.884 639.628 154.773 640.719 154.881C641.809 154.989 642.867 155.313 643.831 155.833C644.795 156.354 645.644 157.061 646.33 157.914C647.015 158.766 647.524 159.747 647.824 160.797C648.125 161.848 648.212 162.948 648.081 164.033C647.95 165.118 647.602 166.166 647.059 167.115C646.517 168.064 645.789 168.896 644.92 169.561Z" fill="#738D9B"/>
<path d="M630.809 210.1C626.313 210.76 612.067 204.567 612.067 204.567C612.067 204.567 623.907 194.524 628.403 193.841C630.537 193.577 632.69 194.155 634.402 195.453C636.114 196.751 637.249 198.666 637.563 200.787C637.878 202.908 637.347 205.068 636.085 206.804C634.823 208.54 632.929 209.715 630.809 210.077V210.1Z" fill="#738D9B"/>
<path d="M613.205 238.371C608.884 239.783 593.794 236.074 593.794 236.074C593.794 236.074 603.76 224.185 608.08 222.768C609.114 222.408 610.209 222.257 611.302 222.324C612.394 222.391 613.463 222.674 614.444 223.158C615.426 223.642 616.301 224.315 617.018 225.14C617.735 225.965 618.28 226.924 618.62 227.961C618.961 228.999 619.091 230.093 619.002 231.181C618.914 232.269 618.608 233.329 618.104 234.297C617.6 235.266 616.907 236.125 616.065 236.823C615.224 237.522 614.252 238.046 613.205 238.366V238.371Z" fill="#738D9B"/>
<path d="M609.252 169.612C611.353 173.631 624.739 181.506 624.739 181.506C624.739 181.506 625.956 166.061 623.861 162.036C622.854 160.105 621.118 158.651 619.035 157.996C616.953 157.341 614.695 157.537 612.757 158.542C610.82 159.546 609.363 161.277 608.705 163.353C608.048 165.429 608.245 167.68 609.252 169.612Z" fill="#738D9B"/>
<path d="M589.089 202.953C592.299 206.165 607.435 209.682 607.435 209.682C607.435 209.682 603.964 194.581 600.753 191.369C599.204 189.867 597.125 189.033 594.964 189.046C592.803 189.059 590.734 189.918 589.204 191.438C587.673 192.959 586.803 195.018 586.781 197.172C586.76 199.326 587.589 201.402 589.089 202.953Z" fill="#738D9B"/>
<path d="M573.948 238.027C576.564 241.73 590.889 247.748 590.889 247.748C590.889 247.748 590.029 232.274 587.407 228.554C586.789 227.662 585.999 226.901 585.085 226.315C584.17 225.729 583.147 225.329 582.077 225.139C581.006 224.949 579.908 224.973 578.846 225.208C577.785 225.444 576.781 225.886 575.892 226.511C575.003 227.135 574.246 227.929 573.667 228.847C573.088 229.764 572.696 230.787 572.515 231.856C572.335 232.926 572.368 234.02 572.614 235.076C572.86 236.132 573.313 237.129 573.948 238.01V238.027Z" fill="#738D9B"/>
<path d="M123.1 60.8559C123.377 49.9324 130.965 40.3354 141.672 37.9926L141.978 37.9305C142.41 37.8446 142.851 37.803 143.292 37.8063H567.062C570.192 37.7809 573.275 38.5642 576.011 40.0799C578.747 41.5955 581.042 43.7918 582.674 46.4549L582.781 46.6412C583.404 47.7309 583.739 48.9605 583.755 50.2146L587.69 272.073H574.101L569.571 55.2953C569.571 55.2953 569.571 49.0856 563.909 48.521C563.042 48.4364 552.533 48.3743 535.365 48.3347L525.41 235.949H519.748L530.818 48.3291C455.338 48.1823 270.593 48.3686 184.848 48.4702L195.844 234.82H190.182L180.306 48.4759L147.669 48.5154C145.275 48.5169 142.924 49.1431 140.849 50.3315C138.774 51.52 137.047 53.2294 135.84 55.2897L131.31 272.068H117.72L123.1 60.8559Z" fill="#E0E0E0"/>
<path d="M117.647 276.646C117.647 276.646 115.812 246.805 130.347 228.469C136.494 220.818 139.985 211.385 140.296 201.587C140.406 196.931 140.088 192.275 139.345 187.677" stroke="#535461" stroke-width="2" stroke-miterlimit="10"/>
<path d="M148.439 176.081C147.652 179.508 139.147 188.021 139.147 188.021C139.147 188.021 135.183 176.663 135.993 173.242C136.179 172.426 136.524 171.655 137.009 170.973C137.493 170.29 138.108 169.71 138.818 169.264C139.528 168.819 140.319 168.517 141.146 168.376C141.972 168.235 142.819 168.258 143.637 168.443C144.455 168.629 145.228 168.973 145.913 169.456C146.597 169.939 147.18 170.552 147.627 171.26C148.074 171.968 148.376 172.756 148.518 173.581C148.659 174.405 148.636 175.249 148.45 176.064L148.439 176.081Z" fill="#738D9B"/>
<path d="M154.361 197.409C151.83 199.859 140.053 202.4 140.053 202.4C140.053 202.4 142.935 190.731 145.466 188.286C146.067 187.704 146.777 187.246 147.556 186.937C148.335 186.628 149.168 186.476 150.006 186.488C150.844 186.5 151.671 186.676 152.441 187.007C153.211 187.338 153.908 187.817 154.492 188.416C155.076 189.016 155.536 189.724 155.845 190.5C156.155 191.277 156.308 192.107 156.296 192.942C156.284 193.778 156.107 194.603 155.775 195.37C155.443 196.138 154.963 196.832 154.361 197.415V197.409Z" fill="#738D9B"/>
<path d="M146.462 229.734C143.065 230.575 131.587 226.838 131.587 226.838C131.587 226.838 139.973 218.218 143.405 217.376C145.048 216.972 146.786 217.235 148.235 218.108C149.684 218.981 150.726 220.392 151.131 222.031C151.537 223.67 151.273 225.402 150.397 226.846C149.521 228.291 148.106 229.33 146.462 229.734Z" fill="#738D9B"/>
<path d="M134.957 252.851C131.723 254.257 119.804 252.501 119.804 252.501C119.804 252.501 126.599 242.588 129.849 241.211C130.62 240.857 131.455 240.66 132.303 240.631C133.152 240.603 133.998 240.744 134.791 241.045C135.585 241.347 136.31 241.803 136.924 242.388C137.538 242.972 138.029 243.673 138.368 244.449C138.707 245.225 138.888 246.061 138.899 246.907C138.91 247.754 138.751 248.594 138.432 249.379C138.114 250.163 137.641 250.876 137.042 251.477C136.443 252.077 135.731 252.552 134.945 252.874L134.957 252.851Z" fill="#738D9B"/>
<path d="M126.837 200.096C128.751 203.049 139.668 208.141 139.668 208.141C139.668 208.141 139.47 196.128 137.55 193.175C136.629 191.759 135.182 190.765 133.527 190.413C131.871 190.06 130.143 190.378 128.722 191.295C127.302 192.213 126.305 193.656 125.951 195.307C125.598 196.957 125.916 198.68 126.837 200.096Z" fill="#738D9B"/>
<path d="M113.728 227.278C116.441 229.536 128.388 231.128 128.388 231.128C128.388 231.128 124.594 219.725 121.877 217.478C121.231 216.945 120.487 216.543 119.686 216.297C118.885 216.05 118.043 215.963 117.208 216.041C116.373 216.119 115.562 216.36 114.821 216.75C114.079 217.141 113.423 217.673 112.888 218.316C112.353 218.96 111.95 219.702 111.703 220.501C111.455 221.299 111.368 222.139 111.446 222.971C111.524 223.803 111.766 224.612 112.158 225.351C112.549 226.09 113.083 226.745 113.728 227.278Z" fill="#738D9B"/>
<path d="M104.629 255.465C106.922 258.135 118.423 261.731 118.423 261.731C118.423 261.731 116.616 249.876 114.317 247.183C113.215 245.902 111.647 245.109 109.959 244.98C108.27 244.851 106.6 245.396 105.314 246.495C104.029 247.594 103.234 249.157 103.104 250.84C102.975 252.523 103.521 254.189 104.623 255.471L104.629 255.465Z" fill="#738D9B"/>
<path opacity="0.5" d="M148.439 176.081C147.652 179.508 139.147 188.021 139.147 188.021C139.147 188.021 135.183 176.663 135.993 173.242C136.179 172.426 136.524 171.655 137.009 170.973C137.493 170.29 138.108 169.71 138.818 169.264C139.528 168.819 140.319 168.517 141.146 168.376C141.972 168.235 142.819 168.258 143.637 168.443C144.455 168.629 145.228 168.973 145.913 169.456C146.597 169.939 147.18 170.552 147.627 171.26C148.074 171.968 148.376 172.756 148.518 173.581C148.659 174.405 148.636 175.249 148.45 176.064L148.439 176.081Z" fill="white"/>
<path opacity="0.5" d="M154.361 197.409C151.83 199.859 140.053 202.4 140.053 202.4C140.053 202.4 142.935 190.731 145.466 188.286C146.067 187.704 146.777 187.246 147.556 186.937C148.335 186.628 149.168 186.476 150.006 186.488C150.844 186.5 151.671 186.676 152.441 187.007C153.211 187.338 153.908 187.817 154.492 188.416C155.076 189.016 155.536 189.724 155.845 190.5C156.155 191.277 156.308 192.107 156.296 192.942C156.284 193.778 156.107 194.603 155.775 195.37C155.443 196.138 154.963 196.832 154.361 197.415V197.409Z" fill="white"/>
<path opacity="0.5" d="M146.462 229.734C143.065 230.575 131.587 226.838 131.587 226.838C131.587 226.838 139.973 218.218 143.405 217.376C145.048 216.972 146.786 217.235 148.235 218.108C149.684 218.981 150.726 220.392 151.131 222.031C151.537 223.67 151.273 225.402 150.397 226.846C149.521 228.291 148.106 229.33 146.462 229.734Z" fill="white"/>
<path opacity="0.5" d="M134.957 252.851C131.723 254.257 119.804 252.501 119.804 252.501C119.804 252.501 126.599 242.588 129.849 241.211C130.62 240.857 131.455 240.66 132.303 240.631C133.152 240.603 133.998 240.744 134.791 241.045C135.585 241.347 136.31 241.803 136.924 242.388C137.538 242.972 138.029 243.673 138.368 244.449C138.707 245.225 138.888 246.061 138.899 246.907C138.91 247.754 138.751 248.594 138.432 249.379C138.114 250.163 137.641 250.876 137.042 251.477C136.443 252.077 135.731 252.552 134.945 252.874L134.957 252.851Z" fill="white"/>
<path opacity="0.5" d="M126.837 200.096C128.751 203.049 139.668 208.141 139.668 208.141C139.668 208.141 139.47 196.128 137.55 193.175C136.629 191.759 135.182 190.765 133.527 190.413C131.871 190.06 130.143 190.378 128.722 191.295C127.302 192.213 126.305 193.656 125.951 195.307C125.598 196.957 125.916 198.68 126.837 200.096Z" fill="white"/>
<path opacity="0.5" d="M113.728 227.278C116.441 229.536 128.388 231.128 128.388 231.128C128.388 231.128 124.594 219.725 121.877 217.478C121.231 216.945 120.487 216.543 119.686 216.297C118.885 216.05 118.043 215.963 117.208 216.041C116.373 216.119 115.562 216.36 114.821 216.75C114.079 217.141 113.423 217.673 112.888 218.316C112.353 218.96 111.95 219.702 111.703 220.501C111.455 221.299 111.368 222.139 111.446 222.971C111.524 223.803 111.766 224.612 112.158 225.351C112.549 226.09 113.083 226.745 113.728 227.278Z" fill="white"/>
<path opacity="0.5" d="M104.629 255.465C106.922 258.135 118.423 261.731 118.423 261.731C118.423 261.731 116.616 249.876 114.317 247.183C113.215 245.902 111.647 245.109 109.959 244.98C108.27 244.851 106.6 245.396 105.314 246.495C104.029 247.594 103.234 249.157 103.104 250.84C102.975 252.523 103.521 254.189 104.623 255.471L104.629 255.465Z" fill="white"/>
<g opacity="0.1">
<path opacity="0.1" d="M216.415 161.906C216.347 161.821 216.313 161.765 216.313 161.765L216.415 161.906Z" fill="url(#paint0_linear)"/>
</g>
<path d="M310.037 169.612C309.929 173.208 312.166 174.557 312.166 174.557L333.06 193.006C341.123 195.919 342.12 211.201 342.12 211.201C342.912 212.612 343.252 215.062 343.252 217.975C343.156 227.007 340.596 239.596 340.596 239.596L340.67 239.715L340.596 240.082L340.67 240.2L340.596 240.567C340.996 241.212 341.429 241.835 341.893 242.436C339.628 247.059 335.41 254.5 333.586 256.086C331.067 258.271 326.027 274.523 326.027 274.523L326.191 274.484L326.027 275.009H326.135C324.912 277.363 323.666 280.4 323.4 283.398C323.22 285.363 322.812 287.301 322.182 289.173C321.439 291.347 321.374 293.695 321.996 295.908C322.494 297.677 322.824 299.49 322.981 301.321C323.297 304.85 324.166 308.308 325.557 311.568C327.862 317.027 330.914 324.484 331.072 325.986C331.157 326.799 331.355 327.995 331.582 329.232L331.452 329.266L326.033 341.516C326.033 341.516 324.521 344.903 321.503 344.903C321.209 344.901 320.918 344.961 320.649 345.08C320.38 345.199 320.139 345.373 319.943 345.591C319.746 345.809 319.598 346.067 319.509 346.346C319.42 346.625 319.391 346.921 319.425 347.212C319.385 347.552 319.43 347.897 319.555 348.217V348.251C319.555 348.307 319.606 348.363 319.629 348.42L319.68 348.516C319.708 348.572 319.742 348.623 319.782 348.68L319.849 348.776L319.974 348.928L320.059 349.024L320.206 349.171L320.308 349.267L320.478 349.402L320.603 349.493L320.801 349.617L320.948 349.707L321.169 349.82L321.339 349.905L321.582 350.006L321.775 350.085L322.046 350.176L322.262 350.243L322.567 350.317L322.811 350.373L323.145 350.43L323.411 350.475L323.779 350.514L324.068 350.548H324.476H324.781H325.557H326.095H326.395C326.686 350.548 326.986 350.524 327.296 350.475C337.125 349.504 344.43 342.007 344.43 342.007V341.866V341.725V341.584L344.464 341.544C344.464 341.544 343.83 331.783 340.234 329.576C339.876 327.763 339.686 325.92 339.668 324.072C339.668 317.298 341.684 310.484 336.14 299.323C336.14 299.323 335.885 296.41 337.907 292.046C339.092 289.708 340.404 287.435 341.836 285.238L342.086 285.21L341.684 285.741C341.684 285.741 348.235 285.255 348.739 280.886C348.786 280.522 348.872 280.165 348.994 279.819C350.511 275.427 357.838 269.2 361.088 268.754C364.616 268.268 371.671 276.516 374.446 282.342C374.604 282.675 374.769 282.991 374.933 283.279C377.64 288.027 380.997 286.954 380.997 286.954C380.878 286.813 380.776 286.678 380.669 286.537C380.78 286.522 380.89 286.5 380.997 286.469C380.7 286.11 380.426 285.733 380.176 285.34C382.696 288.061 385.374 290.567 386.541 292.029C389.06 295.185 387.803 297.364 387.803 298.335C387.803 302.71 382.005 315.559 383.517 322.61C384.264 326.093 383.409 330.169 382.351 333.398H382.13C377.843 335.012 377.345 340.804 377.379 343.717C377.379 343.808 377.379 343.898 377.379 343.983C377.379 344.13 377.379 344.271 377.379 344.406V344.496C377.379 344.606 377.379 344.711 377.379 344.813V344.886C377.379 344.999 377.379 345.106 377.379 345.202C377.379 345.304 377.379 345.4 377.379 345.479V345.513V345.682V345.727V345.817V345.88C377.379 345.88 389.474 351.214 399.808 352.654C400.17 352.705 400.515 352.744 400.849 352.772H401.155L401.806 352.812H402.69H402.973C403.171 352.812 403.358 352.812 403.539 352.767H403.72C403.954 352.737 404.175 352.699 404.383 352.654L404.519 352.62C404.677 352.58 404.824 352.547 404.966 352.501L405.153 352.439L405.487 352.31L405.657 352.23C405.759 352.18 405.855 352.129 405.951 352.072L406.104 351.954C406.219 351.88 406.328 351.799 406.433 351.711C406.536 351.622 406.632 351.526 406.721 351.423L406.795 351.333C406.852 351.264 406.904 351.193 406.954 351.118L407.021 351.005C407.063 350.934 407.099 350.862 407.129 350.791L407.18 350.678C407.211 350.597 407.237 350.514 407.259 350.43V350.345C407.284 350.235 407.301 350.124 407.31 350.012C407.31 350.012 407.31 349.972 407.31 349.95C407.315 349.86 407.315 349.769 407.31 349.679C407.31 349.645 407.31 349.605 407.31 349.572C407.457 348.081 406.274 346.596 405.091 346.822C402.571 347.308 399.292 344.395 399.292 344.395L392.401 333.172C392.294 330.547 392.588 327.211 394.253 324.501C397.531 319.166 401.563 307.763 401.563 307.763C401.563 307.763 401.059 300.729 403.075 297.33C405.091 293.932 403.075 288.597 403.075 288.597L396.909 276.742C397.616 276.742 398.041 276.742 398.041 276.742L397.82 276.257H398.041C398.041 276.257 390.482 259.518 387.458 257.576C385.301 256.193 382.254 248.403 380.663 244.028C381.297 243.695 381.648 243.463 381.648 243.463C381.648 243.463 383.415 222.356 383.415 209.027C383.415 195.699 392.475 190.347 392.475 190.347L413.465 177.961C419.009 175.777 419.767 170.199 419.767 170.199L419.705 170.041C419.75 169.832 419.767 169.713 419.767 169.713L419.705 169.555C419.75 169.347 419.767 169.228 419.767 169.228L409.688 143.514C409.688 143.593 409.626 143.661 409.598 143.734C408.884 139.302 406.682 132.364 399.859 131.879C389.78 131.151 386.269 136.248 388.268 136.734C390.267 137.219 398.851 140.618 398.851 140.618L402.248 146.077C402.027 146.003 401.903 145.953 401.903 145.953C402.095 146.027 402.265 146.149 402.395 146.308L402.622 146.67C402.18 146.545 401.908 146.438 401.908 146.438C401.97 146.464 402.029 146.496 402.084 146.534C402.133 146.56 402.181 146.591 402.225 146.624C402.271 146.665 402.315 146.709 402.356 146.754C402.401 146.799 402.445 146.846 402.486 146.895C402.531 146.952 402.571 147.014 402.616 147.076L402.684 147.178C402.423 147.108 402.166 147.025 401.914 146.929C404.553 147.776 405.657 163.735 405.878 167.817L392.826 173.614C392.826 173.614 379.723 173.614 374.18 176.77C369.316 179.536 366.972 177.261 366.473 176.663C366.813 177.096 367.113 177.513 367.374 177.916L367.232 177.82L367.102 177.73L366.994 177.645L366.875 177.543L366.836 177.51C365.69 175.371 364.935 173.047 364.605 170.645C365.223 169.174 365.527 167.591 365.495 165.997C365.464 164.402 365.099 162.832 364.424 161.387C364.636 161.536 364.869 161.656 365.114 161.742C364.548 160.685 364.165 159.54 363.982 158.355C363.857 157.029 364.237 155.617 363.67 154.404C363.611 154.281 363.543 154.162 363.467 154.048C363.467 154.008 363.467 153.963 363.421 153.918C362.855 152.687 361.468 152.01 360.59 150.937C360.024 150.215 359.701 149.334 359.158 148.589C358.469 147.711 357.516 147.076 356.439 146.778C355.362 146.479 354.217 146.532 353.172 146.929C352.346 147.262 351.576 147.821 350.681 147.838C350.218 147.816 349.76 147.736 349.316 147.601C346.542 147.027 343.653 147.566 341.276 149.103C338.958 150.628 337.127 152.783 335.999 155.312C335.388 156.555 334.99 157.891 334.821 159.264C334.755 160.704 334.777 162.146 334.889 163.583C334.94 165.948 334.589 168.432 335.602 170.583C335.664 170.718 335.744 170.837 335.812 170.967C335.812 171.001 335.812 171.034 335.851 171.068C336.814 173.118 338.83 174.456 340.761 175.748L343.258 177.391L343.541 177.577C342.826 177.506 342.106 177.491 341.389 177.532C337.607 177.775 330.064 174.145 330.064 174.145L322.194 167.043L326.033 151.338L325.886 151.445L326.033 150.853L325.886 150.96L326.033 150.367C325.959 150.424 325.891 150.474 325.818 150.525L329.81 144.056C329.81 144.056 338.377 140.669 340.393 140.172C342.408 139.675 338.881 134.594 328.802 135.317C321.384 135.853 319.425 144.005 318.91 148.301C318.474 147.821 318.219 147.471 318.219 147.471L311.152 164.136C310.414 165.701 310.028 167.408 310.02 169.138C310.031 169.301 310.031 169.465 310.037 169.612ZM367.147 178.08L367.351 178.385L367.147 178.08ZM346.95 178.148C347.511 177.961 348.013 177.63 348.405 177.188C349.038 177.428 349.689 177.617 350.353 177.752C350.173 178.369 349.92 178.962 349.6 179.519C349.503 179.141 349.458 178.91 349.458 178.91C348.637 178.608 347.799 178.352 346.95 178.142V178.148ZM342.686 283.77C343.252 282.861 343.818 281.975 344.384 281.14C343.898 282.032 343.252 283.003 342.686 283.77Z" fill="url(#paint1_linear)"/>
<path d="M394.145 273.671L401.365 288.066C401.365 288.066 403.29 293.345 401.365 296.704C399.44 300.063 399.921 307.023 399.921 307.023C399.921 307.023 396.07 318.314 392.939 323.581C389.808 328.848 391.733 336.565 391.733 336.565L379.219 338.004C379.219 338.004 384.032 328.645 382.617 321.684C381.201 314.723 386.711 302.016 386.711 297.686C386.711 296.726 387.917 294.564 385.505 291.448C383.092 288.332 373.953 280.411 374.18 275.85L394.145 273.671Z" fill="#A57878"/>
<path d="M330.364 270.312C330.364 270.312 325.744 276.691 325.206 282.901C325.044 284.84 324.664 286.754 324.074 288.608C323.363 290.764 323.3 293.079 323.892 295.27C324.369 297.023 324.684 298.817 324.832 300.627C325.129 304.119 325.958 307.546 327.29 310.789C329.492 316.191 332.386 323.564 332.556 325.049C332.799 327.448 334 333.206 334 333.206L343.626 336.808C343.626 336.808 340.738 329.847 340.738 323.129C340.738 316.411 342.663 309.693 337.34 298.651C337.34 298.651 337.097 295.772 339.039 291.454C340.981 287.135 348.427 275.856 348.427 275.856L330.364 270.312Z" fill="#A57878"/>
<path opacity="0.1" d="M345.925 278.87C346.717 279.728 342.635 285.193 342.635 285.193C342.635 285.193 348.892 284.713 349.373 280.395C349.418 280.035 349.5 279.682 349.616 279.339C351.066 274.998 358.065 268.839 361.168 268.398C364.565 267.918 371.275 276.076 373.925 281.834C374.078 282.167 374.231 282.472 374.389 282.76C376.977 287.457 380.182 286.395 380.182 286.395C378.483 284.307 378.132 282.653 378.664 281.315C380.771 276.138 396.546 276.29 396.546 276.29C396.546 276.29 389.327 259.733 386.439 257.813C383.551 255.894 378.976 241.493 378.976 241.493C378.976 241.493 344.554 237.654 344.317 239.331C344.079 241.008 337.335 254.212 334.928 256.368C332.522 258.525 327.714 274.614 327.714 274.614C335.897 272.215 344.922 278.091 345.885 278.814L345.925 278.87Z" fill="black"/>
<path d="M345.925 278.39C346.717 279.249 342.635 284.713 342.635 284.713C342.635 284.713 348.892 284.233 349.373 279.915C349.418 279.556 349.5 279.202 349.617 278.859C351.066 274.518 358.065 268.359 361.168 267.919C364.565 267.439 371.275 275.596 373.925 281.354C374.078 281.687 374.231 281.992 374.389 282.28C376.977 286.977 380.182 285.916 380.182 285.916C378.483 283.827 378.132 282.173 378.664 280.835C380.771 275.658 396.546 275.811 396.546 275.811C396.546 275.811 389.327 259.253 386.439 257.334C383.551 255.414 378.976 241.013 378.976 241.013C378.976 241.013 344.554 237.174 344.317 238.851C344.079 240.528 337.335 253.732 334.928 255.888C332.522 258.045 327.709 274.128 327.709 274.128C335.891 271.729 344.917 277.606 345.879 278.328L345.925 278.39Z" fill="#363636"/>
<path opacity="0.1" d="M391.139 332.105L397.758 343.266C397.758 343.266 400.889 346.145 403.296 345.665C405.702 345.185 408.109 352.383 398.239 350.943C388.37 349.504 376.818 344.226 376.818 344.226C376.818 344.226 375.737 334.504 381.269 332.37L391.139 332.105Z" fill="black"/>
<path opacity="0.1" d="M332.89 328.244L327.715 340.364C327.715 340.364 326.271 343.751 323.383 343.751C320.495 343.751 319.532 349.752 328.921 348.793C338.309 347.833 345.29 340.392 345.29 340.392C345.29 340.392 344.566 328.876 340.234 328.153C337.805 327.693 335.307 327.724 332.89 328.244Z" fill="black"/>
<path d="M391.139 332.585L397.758 343.746C397.758 343.746 400.889 346.625 403.296 346.145C405.702 345.665 408.109 352.863 398.239 351.423C388.37 349.984 376.818 344.705 376.818 344.705C376.818 344.705 375.737 334.984 381.269 332.85L391.139 332.585Z" fill="#535461"/>
<path d="M332.89 328.746L327.715 340.867C327.715 340.867 326.271 344.254 323.383 344.254C320.495 344.254 319.532 350.255 328.921 349.295C338.309 348.335 345.29 340.895 345.29 340.895C345.29 340.895 344.566 329.378 340.234 328.656C337.805 328.195 335.307 328.226 332.89 328.746Z" fill="#535461"/>
<g opacity="0.1">
<path opacity="0.1" d="M345.517 238.879C345.273 240.573 338.535 253.76 336.129 255.917C333.92 257.898 329.679 271.622 329 273.846C328.564 273.931 328.134 274.027 327.703 274.151C327.703 274.151 332.516 258.073 334.923 255.911C337.329 253.749 344.067 240.55 344.311 238.874C344.356 238.541 345.766 238.422 347.98 238.456C346.485 238.484 345.562 238.608 345.517 238.879Z" fill="black"/>
<path opacity="0.1" d="M362.374 267.913C365.771 267.433 372.481 275.59 375.131 281.349C375.284 281.682 375.437 281.987 375.595 282.274C377.09 284.984 378.783 285.774 379.955 285.961C379.18 286.102 376.558 286.22 374.389 282.274C374.231 281.987 374.078 281.682 373.925 281.349C371.496 276.065 365.63 268.771 362.074 267.969L362.374 267.913Z" fill="black"/>
<path opacity="0.1" d="M345.925 278.39L345.885 278.351C345.109 277.786 339.09 273.835 332.494 273.592C339.543 273.349 346.264 277.736 347.091 278.351L347.131 278.39C347.827 279.147 344.758 283.471 344.005 284.487C343.555 284.589 343.1 284.663 342.64 284.707C342.64 284.707 346.717 279.249 345.925 278.39Z" fill="black"/>
</g>
<path d="M407.865 148.408C407.865 148.408 407.865 133.77 398.239 133.048C388.613 132.325 385.216 137.366 387.169 137.846C389.123 138.326 397.277 141.685 397.277 141.685L402.571 150.565L407.865 148.408Z" fill="#A57878"/>
<path d="M320.733 151.767C320.733 151.767 320.733 137.129 330.359 136.406C339.985 135.684 343.382 140.725 341.429 141.205C339.475 141.685 331.321 145.044 331.321 145.044L326.027 153.924L320.733 151.767Z" fill="#A57878"/>
<path d="M364.299 166.885C364.299 166.885 363.574 176.482 369.593 182.003C375.612 187.524 355.636 194.479 355.636 194.479L346.729 183.923C346.729 183.923 353.948 179.604 350.126 172.164L364.299 166.885Z" fill="#A57878"/>
<path opacity="0.1" d="M366.224 178.164C366.224 178.164 368.393 181.552 373.687 178.407C378.981 175.263 391.501 175.257 391.501 175.257L404.015 169.499C404.015 169.499 403.052 148.86 400.164 147.9C400.164 147.9 405.94 150.299 407.627 145.501L417.253 170.939C417.253 170.939 416.529 176.46 411.234 178.616L391.257 190.855C391.257 190.855 382.594 196.133 382.594 209.332C382.594 222.531 380.895 243.407 380.895 243.407C380.895 243.407 352.974 260.207 341.661 240.528C341.661 240.528 346.236 217.252 343.105 211.488C343.105 211.488 342.142 196.37 334.441 193.491L314.476 175.257C314.476 175.257 310.626 172.858 313.513 165.897L320.252 149.34C320.252 149.34 324.345 155.098 327.715 152.219L323.864 168.539L331.565 175.737C331.565 175.737 338.784 179.339 342.397 179.124C346.01 178.91 350.098 180.564 350.098 180.564C350.098 180.564 351.797 190.161 359.486 189.201C359.486 189.201 374.168 188.484 366.224 178.164Z" fill="black"/>
<path opacity="0.1" d="M366.224 177.205C366.224 177.205 368.393 180.592 373.687 177.448C378.981 174.303 391.501 174.326 391.501 174.326L404.015 168.568C404.015 168.568 403.052 147.928 400.164 146.969C400.164 146.969 405.94 149.368 407.627 144.57L417.253 170.007C417.253 170.007 416.529 175.528 411.234 177.685L391.257 189.935C391.257 189.935 382.594 195.213 382.594 208.412C382.594 221.61 380.895 242.487 380.895 242.487C380.895 242.487 352.974 259.287 341.661 239.607C341.661 239.607 346.236 216.332 343.105 210.568C343.105 210.568 342.142 195.45 334.441 192.571L314.465 174.331C314.465 174.331 310.614 171.932 313.502 164.971L320.24 148.414C320.24 148.414 324.334 154.172 327.703 151.293L323.853 167.613L331.554 174.811C331.554 174.811 338.773 178.413 342.386 178.198C345.998 177.984 350.086 179.638 350.086 179.638C350.086 179.638 351.785 189.235 359.475 188.275C359.486 188.241 374.168 187.524 366.224 177.205Z" fill="black"/>
<path d="M366.236 177.702L366.332 177.831L366.236 177.702Z" fill="#D39999"/>
<path d="M314.476 174.806L334.453 193.045C342.154 195.924 343.116 211.042 343.116 211.042C346.247 216.801 341.672 240.082 341.672 240.082C352.997 259.761 380.907 242.961 380.907 242.961C380.907 242.961 380.963 242.272 381.054 241.058C381.133 239.997 381.241 238.529 381.36 236.785C381.518 234.527 381.699 231.8 381.869 228.842C382.249 222.378 382.594 214.847 382.594 208.886C382.594 195.687 391.257 190.409 391.257 190.409L406.246 181.23L411.24 178.17C416.534 176.008 417.259 170.493 417.259 170.493L407.633 145.055C406.059 149.537 400.912 147.737 400.244 147.482C403.075 148.758 404.02 169.053 404.02 169.053L391.507 174.811C391.507 174.811 378.993 174.811 373.693 177.933C369.163 180.586 366.949 178.554 366.383 177.882C373.993 188.044 359.492 188.727 359.492 188.727C351.791 189.686 350.103 180.09 350.103 180.09C350.103 180.09 346.01 178.396 342.403 178.65C338.796 178.904 331.571 175.263 331.571 175.263L323.87 168.065L327.72 151.745C324.323 154.624 320.257 148.866 320.257 148.866L313.519 165.423C310.625 172.406 314.476 174.806 314.476 174.806Z" fill="#F4EEE3"/>
<path opacity="0.1" d="M364.299 167.845C364.228 169.354 364.306 170.867 364.531 172.361C363.484 174.962 361.539 177.104 359.047 178.401C356.555 179.698 353.681 180.064 350.942 179.435C351.488 177.304 351.181 175.044 350.086 173.135L364.299 167.845Z" fill="black"/>
<path d="M353.591 178.769C360.106 178.769 365.386 173.504 365.386 167.009C365.386 160.515 360.106 155.25 353.591 155.25C347.077 155.25 341.797 160.515 341.797 167.009C341.797 173.504 347.077 178.769 353.591 178.769Z" fill="#A57878"/>
<path opacity="0.1" d="M353.778 160.32C353.88 161.511 353.965 162.781 353.416 163.842C353.11 164.376 352.729 164.863 352.283 165.288L349.815 167.822C349.036 168.504 348.433 169.362 348.054 170.323C347.34 172.694 349.447 175.048 349.379 177.527C349.001 178.117 348.44 178.567 347.782 178.81C347.124 179.052 346.404 179.074 345.732 178.87C345.187 178.662 344.675 178.379 344.209 178.029L341.791 176.386C339.951 175.133 338.026 173.778 337.103 171.757C336.134 169.629 336.463 167.168 336.418 164.83C336.312 163.408 336.291 161.981 336.355 160.557C336.517 159.198 336.899 157.875 337.488 156.639C338.554 154.167 340.301 152.047 342.527 150.525C343.641 149.776 344.895 149.258 346.215 149.003C347.534 148.748 348.891 148.761 350.205 149.041C350.628 149.173 351.065 149.251 351.508 149.272C352.363 149.272 353.099 148.708 353.886 148.374C354.887 147.985 355.989 147.934 357.022 148.231C358.054 148.528 358.96 149.156 359.599 150.017C360.12 150.751 360.42 151.626 360.964 152.337C361.774 153.399 363.093 154.071 363.642 155.284C364.191 156.498 363.823 157.887 363.942 159.196C364.112 160.367 364.473 161.502 365.012 162.555C363.676 162.092 363.025 160.636 362.181 159.518C361.513 158.689 360.675 158.011 359.723 157.53C358.771 157.049 357.727 156.776 356.66 156.729C355.924 156.696 354.56 156.639 353.977 157.198C353.235 157.915 353.705 159.45 353.778 160.32Z" fill="black"/>
<path d="M353.541 159.84C353.642 161.031 353.727 162.301 353.178 163.363C352.872 163.896 352.491 164.383 352.046 164.808L349.543 167.354C348.767 168.031 348.163 168.882 347.782 169.838C347.068 172.209 349.175 174.563 349.107 177.041C348.729 177.631 348.169 178.082 347.51 178.324C346.852 178.567 346.132 178.588 345.46 178.385C344.916 178.177 344.403 177.894 343.937 177.544L341.553 175.923C339.713 174.67 337.788 173.315 336.865 171.294C335.897 169.166 336.225 166.705 336.18 164.367C336.074 162.945 336.053 161.518 336.117 160.094C336.279 158.735 336.661 157.412 337.25 156.176C338.316 153.704 340.064 151.584 342.289 150.062C343.403 149.313 344.657 148.795 345.977 148.54C347.296 148.285 348.653 148.298 349.968 148.578C350.39 148.71 350.828 148.788 351.27 148.809C352.125 148.809 352.861 148.245 353.648 147.912C354.649 147.522 355.751 147.471 356.784 147.768C357.816 148.065 358.722 148.693 359.361 149.554C359.882 150.288 360.182 151.163 360.726 151.874C361.536 152.936 362.855 153.608 363.404 154.821C363.954 156.035 363.586 157.424 363.704 158.734C363.874 159.904 364.235 161.039 364.775 162.092C363.438 161.63 362.787 160.173 361.943 159.055C361.275 158.226 360.437 157.548 359.485 157.067C358.533 156.586 357.489 156.313 356.423 156.267C355.687 156.233 354.322 156.176 353.739 156.735C352.991 157.435 353.444 158.965 353.541 159.84Z" fill="#4E3B3F"/>
<g opacity="0.1">
<path opacity="0.1" d="M366.326 177.82C366.258 177.735 366.224 177.685 366.224 177.685L366.326 177.82Z" fill="black"/>
<path opacity="0.1" d="M325.568 152.569C326.36 152.585 327.128 152.298 327.714 151.767L327.482 152.738C326.841 152.867 326.177 152.808 325.568 152.569Z" fill="black"/>
<path opacity="0.1" d="M368.24 179.062C374.27 188.292 360.692 188.964 360.692 188.964C359.657 189.106 358.604 189.031 357.6 188.744C358.227 188.817 358.86 188.817 359.486 188.744C359.486 188.744 374.038 188.027 366.326 177.837C366.829 178.425 367.495 178.851 368.24 179.062Z" fill="black"/>
<path opacity="0.1" d="M343.603 178.887C342.627 178.912 341.652 178.796 340.71 178.543C341.27 178.64 341.84 178.676 342.408 178.65C343.907 178.587 345.408 178.737 346.865 179.096C345.789 178.901 344.695 178.831 343.603 178.887Z" fill="black"/>
<path opacity="0.1" d="M313.513 165.446L320.252 148.888C320.522 149.256 320.813 149.608 321.124 149.944L314.719 165.66C311.832 172.621 315.682 175.02 315.682 175.02L335.659 193.26C343.36 196.139 344.322 211.257 344.322 211.257C347.454 217.015 342.878 240.296 342.878 240.296C345.913 245.575 350.143 248.2 354.713 249.283C349.69 248.431 344.979 245.795 341.689 240.053C341.689 240.053 346.264 216.778 343.133 211.014C343.133 211.014 342.171 195.896 334.47 193.017L314.476 174.806C314.476 174.806 310.626 172.406 313.513 165.446Z" fill="black"/>
<path opacity="0.1" d="M400.164 147.449C400.658 147.638 401.168 147.784 401.688 147.883C404.326 150.192 405.215 169.284 405.215 169.284L392.701 175.043C392.701 175.043 380.188 175.043 374.888 178.164C372.294 179.694 370.454 179.666 369.225 179.243C370.358 179.31 371.813 179.011 373.659 177.927C378.953 174.806 391.473 174.806 391.473 174.806L403.986 169.047C403.986 169.047 403.052 148.408 400.164 147.449Z" fill="black"/>
<path opacity="0.1" d="M402.265 147.979C404.094 148.216 406.608 147.951 407.627 145.049L408.194 146.545C406.614 148.781 403.726 148.369 402.265 147.979Z" fill="black"/>
</g>
<path opacity="0.1" d="M381.869 228.836C382.249 222.373 382.594 214.842 382.594 208.88C382.594 195.682 391.257 190.403 391.257 190.403L406.246 181.224C397.526 183.482 385.924 187.372 384.882 191.95C383.183 199.391 380.069 200.108 381.269 212.838C381.767 218.155 381.967 223.497 381.869 228.836Z" fill="black"/>
<path opacity="0.1" d="M379.582 247.155C379.582 247.155 377.413 253.873 383.432 258.192L379.582 247.155Z" fill="black"/>
<path opacity="0.1" d="M345.885 247.155C345.885 247.155 345.16 252.196 342.272 254.116L345.885 247.155Z" fill="black"/>
<path opacity="0.1" d="M376.818 343.746C376.818 343.746 388.37 349.024 398.239 350.464C403.245 351.192 405.091 349.701 405.379 348.121C405.708 349.967 404.247 352.304 398.239 351.423C388.37 349.984 376.818 344.705 376.818 344.705C376.745 343.908 376.718 343.107 376.739 342.306C376.756 343.181 376.818 343.746 376.818 343.746Z" fill="black"/>
<path opacity="0.1" d="M328.677 348.781C338.065 347.822 345.047 340.381 345.047 340.381C345.047 340.381 344.69 334.702 342.98 331.072C344.9 334.657 345.29 340.861 345.29 340.861C345.29 340.861 338.309 348.301 328.921 349.261C324.125 349.752 322.029 348.426 321.514 347.003C322.301 348.228 324.43 349.216 328.677 348.781Z" fill="black"/>
<path d="M339.968 102.721C339.966 107.736 341.75 112.589 345.002 116.415C348.254 120.241 352.763 122.792 357.725 123.613C362.687 124.435 367.781 123.473 372.098 120.899C376.416 118.325 379.677 114.307 381.3 109.56C382.923 104.813 382.803 99.6463 380.961 94.9794C379.12 90.3124 375.676 86.4488 371.244 84.077C366.812 81.7051 361.679 80.9789 356.76 82.0279C351.841 83.0769 347.456 85.8329 344.384 89.8048C341.523 93.5062 339.97 98.0477 339.968 102.721Z" fill="url(#paint2_linear)"/>
<path d="M340.749 102.721C340.742 107.554 342.457 112.233 345.588 115.923C348.718 119.613 353.061 122.074 357.843 122.869C362.625 123.664 367.534 122.74 371.696 120.262C375.858 117.784 379.002 113.913 380.568 109.34C382.135 104.766 382.021 99.7861 380.247 95.2882C378.474 90.7903 375.156 87.0664 370.885 84.7802C366.614 82.4941 361.667 81.7942 356.927 82.8055C352.186 83.8167 347.96 86.4732 345.002 90.3016C342.25 93.8612 340.755 98.2273 340.749 102.721Z" fill="#E0E0E0"/>
<path d="M349.741 92.7009V100.615" stroke="#535461" stroke-miterlimit="10"/>
<path d="M364.905 99.9099L356.621 105.363" stroke="#535461" stroke-miterlimit="10"/>
<path d="M356.621 87.7838L366.32 91.8258" stroke="#535461" stroke-miterlimit="10"/>
<path d="M372.843 101.316L372.311 113.622" stroke="#535461" stroke-miterlimit="10"/>
<path d="M366.32 117.314L355.386 111.867" stroke="#535461" stroke-miterlimit="10"/>
<path d="M349.741 112.747V119.617" stroke="#535461" stroke-miterlimit="10"/>
<path d="M345.687 107.469L340.919 105.363" stroke="#535461" stroke-miterlimit="10"/>
<path d="M372.311 91.1202L371.949 85.3676" stroke="#535461" stroke-miterlimit="10"/>
<path d="M375.488 97.8042L381.399 99.4865" stroke="#535461" stroke-miterlimit="10"/>
<path d="M377.073 97.8042L372.492 89.8895L364.911 91.1202V99.9098L373.019 104.133L377.073 97.8042Z" fill="#738D9B"/>
<path d="M345.002 90.279L349.747 92.7008C351.332 90.5895 357.855 88.1282 357.855 88.1282L357.176 82.7257C352.336 83.6943 348.011 86.3775 345.002 90.279Z" fill="#738D9B"/>
<path d="M357.855 104.483L349.566 100.616L344.979 107.119L349.741 114.678L357.855 113.447V104.483Z" fill="#738D9B"/>
<path d="M364.905 116.259V122.756C367.56 122.269 370.093 121.263 372.356 119.795C374.62 118.327 376.569 116.427 378.092 114.204L372.311 111.838L364.905 116.259Z" fill="#738D9B"/>
<path d="M61.4366 252.659C61.4367 256.867 62.9351 260.938 65.6649 264.147C68.3947 267.355 72.1786 269.494 76.3422 270.181C80.5059 270.868 84.779 270.058 88.4 267.897C92.0211 265.736 94.7549 262.363 96.1145 258.38C97.474 254.397 97.3709 250.062 95.8235 246.147C94.2762 242.233 91.3851 238.993 87.6653 237.005C83.9456 235.018 79.6389 234.411 75.5125 235.294C71.3862 236.177 67.7083 238.492 65.1341 241.826C62.7361 244.931 61.436 248.74 61.4366 252.659Z" fill="url(#paint3_linear)"/>
<path d="M62.0934 252.659C62.0944 256.712 63.5383 260.632 66.1679 263.722C68.7975 266.812 72.442 268.87 76.452 269.531C80.4621 270.192 84.5773 269.412 88.0644 267.331C91.5515 265.249 94.1841 262 95.4931 258.164C96.8021 254.328 96.7025 250.153 95.2121 246.383C93.7216 242.613 90.9372 239.493 87.3547 237.579C83.7723 235.665 79.6245 235.081 75.6505 235.931C71.6765 236.781 68.1343 239.01 65.655 242.221C63.3448 245.213 62.0925 248.883 62.0934 252.659Z" fill="#E0E0E0"/>
<path d="M69.6357 244.254V250.892" stroke="#535461" stroke-miterlimit="10"/>
<path d="M82.3533 250.3L75.3999 254.872" stroke="#535461" stroke-miterlimit="10"/>
<path d="M75.3999 240.127L83.5367 243.52" stroke="#535461" stroke-miterlimit="10"/>
<path d="M89.0066 251.479L88.5649 261.805" stroke="#535461" stroke-miterlimit="10"/>
<path d="M83.5367 264.898L74.3637 260.326" stroke="#535461" stroke-miterlimit="10"/>
<path d="M69.6357 261.065V266.829" stroke="#535461" stroke-miterlimit="10"/>
<path d="M66.2326 256.639L62.235 254.872" stroke="#535461" stroke-miterlimit="10"/>
<path d="M88.5649 242.927L88.2591 238.106" stroke="#535461" stroke-miterlimit="10"/>
<path d="M91.2262 248.533L96.1864 249.944" stroke="#535461" stroke-miterlimit="10"/>
<path d="M92.5569 248.533L88.7121 241.899L82.3533 242.927V250.3L89.1538 253.839L92.5569 248.533Z" fill="#738D9B"/>
<path d="M65.655 242.221L69.6187 244.254C70.9493 242.487 76.4135 240.42 76.4135 240.42L75.8473 235.904C71.7971 236.716 68.1775 238.959 65.655 242.221Z" fill="#738D9B"/>
<path d="M76.4361 254.133L69.4884 250.892L65.638 256.346L69.6357 262.685L76.4361 261.652V254.133Z" fill="#738D9B"/>
<path d="M82.3533 264.012V269.482C84.5804 269.073 86.7043 268.229 88.6023 266.997C90.5004 265.766 92.135 264.172 93.4119 262.307L88.5649 260.326L82.3533 264.012Z" fill="#738D9B"/>
<path d="M48.3565 274.004C48.3566 278.212 49.8551 282.283 52.5849 285.491C55.3147 288.7 59.0985 290.839 63.2622 291.525C67.4259 292.212 71.6989 291.403 75.32 289.242C78.9411 287.081 81.6749 283.708 83.0344 279.725C84.394 275.742 84.2909 271.407 82.7435 267.492C81.1961 263.577 78.305 260.338 74.5853 258.35C70.8656 256.363 66.5589 255.756 62.4325 256.639C58.3062 257.522 54.6282 259.837 52.054 263.171C49.6561 266.276 48.356 270.085 48.3565 274.004Z" fill="url(#paint4_linear)"/>
<path d="M49.0133 274.004C49.0143 278.056 50.4582 281.977 53.0878 285.066C55.7174 288.156 59.3619 290.215 63.372 290.876C67.3821 291.537 71.4973 290.757 74.9844 288.675C78.4715 286.594 81.1041 283.345 82.4131 279.509C83.7221 275.673 83.6225 271.497 82.1321 267.728C80.6416 263.958 77.8571 260.838 74.2747 258.923C70.6922 257.009 66.5445 256.425 62.5705 257.276C58.5965 258.126 55.0543 260.355 52.575 263.566C50.2647 266.558 49.0124 270.228 49.0133 274.004Z" fill="#E0E0E0"/>
<path d="M56.5556 265.598V272.231" stroke="#535461" stroke-miterlimit="10"/>
<path d="M69.2733 271.644L62.3255 276.217" stroke="#535461" stroke-miterlimit="10"/>
<path d="M62.3255 261.472L70.4567 264.864" stroke="#535461" stroke-miterlimit="10"/>
<path d="M75.9265 272.824L75.4849 283.144" stroke="#535461" stroke-miterlimit="10"/>
<path d="M70.4567 286.243L61.2893 281.67" stroke="#535461" stroke-miterlimit="10"/>
<path d="M56.5556 282.41V288.174" stroke="#535461" stroke-miterlimit="10"/>
<path d="M53.1525 277.984L49.1549 276.217" stroke="#535461" stroke-miterlimit="10"/>
<path d="M75.4849 264.272L75.1791 259.451" stroke="#535461" stroke-miterlimit="10"/>
<path d="M78.1462 269.877L83.1064 271.289" stroke="#535461" stroke-miterlimit="10"/>
<path d="M79.4768 269.877L75.6321 263.239L69.2733 264.272V271.644L76.0794 275.184L79.4768 269.877Z" fill="#738D9B"/>
<path d="M52.575 263.566L56.5386 265.598C57.8693 263.831 63.3334 261.765 63.3334 261.765L62.7672 257.249C58.717 258.061 55.0974 260.304 52.575 263.566Z" fill="#738D9B"/>
<path d="M63.3561 275.478L56.4084 272.231L52.5636 277.69L56.5556 284.03L63.3561 282.997V275.478Z" fill="#738D9B"/>
<path d="M69.2733 285.34V290.81C71.4995 290.403 73.6228 289.56 75.5208 288.33C77.4188 287.101 79.0539 285.509 80.3318 283.646L75.4849 281.665L69.2733 285.34Z" fill="#738D9B"/>
</g>
<defs>
<linearGradient id="paint0_linear" x1="216.342" y1="161.906" x2="216.342" y2="161.765" gradientUnits="userSpaceOnUse">
<stop stop-color="#808080" stop-opacity="0.25"/>
<stop offset="0.54" stop-color="#808080" stop-opacity="0.12"/>
<stop offset="1" stop-color="#808080" stop-opacity="0.1"/>
</linearGradient>
<linearGradient id="paint1_linear" x1="56475.6" y1="149431" x2="56475.6" y2="62899.2" gradientUnits="userSpaceOnUse">
<stop stop-color="#808080" stop-opacity="0.25"/>
<stop offset="0.54" stop-color="#808080" stop-opacity="0.12"/>
<stop offset="1" stop-color="#808080" stop-opacity="0.1"/>
</linearGradient>
<linearGradient id="paint2_linear" x1="22351" y1="11513.7" x2="22351" y2="8338.2" gradientUnits="userSpaceOnUse">
<stop stop-color="#808080" stop-opacity="0.25"/>
<stop offset="0.54" stop-color="#808080" stop-opacity="0.12"/>
<stop offset="1" stop-color="#808080" stop-opacity="0.1"/>
</linearGradient>
<linearGradient id="paint3_linear" x1="36267.9" y1="19044.9" x2="36267.9" y2="16810.7" gradientUnits="userSpaceOnUse">
<stop stop-color="#808080" stop-opacity="0.25"/>
<stop offset="0.54" stop-color="#808080" stop-opacity="0.12"/>
<stop offset="1" stop-color="#808080" stop-opacity="0.1"/>
</linearGradient>
<linearGradient id="paint4_linear" x1="37077.5" y1="20409.3" x2="37077.5" y2="18175.1" gradientUnits="userSpaceOnUse">
<stop stop-color="#808080" stop-opacity="0.25"/>
<stop offset="0.54" stop-color="#808080" stop-opacity="0.12"/>
<stop offset="1" stop-color="#808080" stop-opacity="0.1"/>
</linearGradient>
<clipPath id="clip0">
<rect width="648" height="451" fill="white"/>
</clipPath>
</defs>
</svg>
