<svg width="79" height="58" viewBox="0 0 79 58" fill="none" xmlns="http://www.w3.org/2000/svg">
<g clip-path="url(#clip0)">
<path d="M1.10382 0C0.811071 0 0.53031 0.124153 0.323303 0.345145C0.116296 0.566137 0 0.865867 0 1.1784V56.8216C0 57.1341 0.116296 57.4339 0.323303 57.6549C0.53031 57.8758 0.811071 58 1.10382 58H77.8971C78.1898 58 78.4706 57.8758 78.6776 57.6549C78.8846 57.4339 79.0009 57.1341 79.0009 56.8216V1.1784C79.0009 0.865867 78.8846 0.566137 78.6776 0.345145C78.4706 0.124153 78.1898 0 77.8971 0H1.10382Z" fill="url(#paint0_linear)"/>
<path d="M0.362793 2.8418V56.5659C0.362793 56.8157 0.455772 57.0554 0.621276 57.2321C0.786779 57.4088 1.01125 57.508 1.24531 57.508H77.7547C77.9887 57.508 78.2132 57.4088 78.3787 57.2321C78.5442 57.0554 78.6372 56.8157 78.6372 56.5659V2.8418H0.362793Z" fill="white"/>
<path d="M77.7211 0.241943H1.26075C1.02669 0.241943 0.802221 0.341204 0.636718 0.517889C0.471214 0.694574 0.378235 0.93421 0.378235 1.18408V4.26418H78.6009V1.18408C78.6009 0.934712 78.5083 0.695516 78.3434 0.518915C78.1785 0.342313 77.9547 0.242712 77.7211 0.241943Z" fill="#EEEEEE"/>
<path d="M3.35683 3.1674C3.86126 3.1674 4.27019 2.73085 4.27019 2.19234C4.27019 1.65383 3.86126 1.21729 3.35683 1.21729C2.8524 1.21729 2.44348 1.65383 2.44348 2.19234C2.44348 2.73085 2.8524 3.1674 3.35683 3.1674Z" fill="#FF5252"/>
<path d="M5.86922 3.1674C6.37366 3.1674 6.78258 2.73085 6.78258 2.19234C6.78258 1.65383 6.37366 1.21729 5.86922 1.21729C5.36479 1.21729 4.95587 1.65383 4.95587 2.19234C4.95587 2.73085 5.36479 3.1674 5.86922 3.1674Z" fill="#FFFF00"/>
<path d="M8.3807 3.1674C8.88513 3.1674 9.29405 2.73085 9.29405 2.19234C9.29405 1.65383 8.88513 1.21729 8.3807 1.21729C7.87627 1.21729 7.46735 1.65383 7.46735 2.19234C7.46735 2.73085 7.87627 3.1674 8.3807 3.1674Z" fill="#69F0AE"/>
<path d="M78.6372 4.2605H0.362793V22.7547H78.6372V4.2605Z" fill="#738D9B"/>
<g opacity="0.5">
<path opacity="0.5" d="M29.26 34.5396C31.6519 34.5396 33.5909 32.4695 33.5909 29.916C33.5909 27.3625 31.6519 25.2925 29.26 25.2925C26.868 25.2925 24.929 27.3625 24.929 29.916C24.929 32.4695 26.868 34.5396 29.26 34.5396Z" fill="url(#paint1_linear)"/>
</g>
<path d="M29.26 34.4174C31.6018 34.4174 33.5002 32.3908 33.5002 29.8907C33.5002 27.3907 31.6018 25.364 29.26 25.364C26.9181 25.364 25.0197 27.3907 25.0197 29.8907C25.0197 32.3908 26.9181 34.4174 29.26 34.4174Z" fill="#F5F5F5"/>
<path d="M29.2717 34.4311C30.1 34.4324 30.9104 34.1735 31.6018 33.6865C31.4458 32.7754 30.8508 32.7183 30.8508 32.7183H27.5729C27.5729 32.7183 27.0115 32.7676 26.8364 33.6062C27.5488 34.1432 28.3996 34.4314 29.2717 34.4311Z" fill="#738D9B"/>
<path d="M29.2273 31.7975C30.2652 31.7975 31.1066 30.8992 31.1066 29.7912C31.1066 28.6832 30.2652 27.7849 29.2273 27.7849C28.1894 27.7849 27.348 28.6832 27.348 29.7912C27.348 30.8992 28.1894 31.7975 29.2273 31.7975Z" fill="#333333"/>
<path opacity="0.1" d="M28.5706 31.6106H29.8821V32.728C29.8821 32.9137 29.8131 33.0917 29.6901 33.223C29.5671 33.3543 29.4003 33.4281 29.2264 33.4281C29.0525 33.4281 28.8857 33.3543 28.7627 33.223C28.6397 33.0917 28.5706 32.9137 28.5706 32.728V31.6106Z" fill="black"/>
<path d="M28.6912 31.5591H29.7497C29.7829 31.5591 29.8147 31.5732 29.8382 31.5982C29.8617 31.6233 29.8749 31.6573 29.8749 31.6927V32.6794C29.8749 32.7713 29.8579 32.8624 29.825 32.9473C29.792 33.0322 29.7437 33.1094 29.6828 33.1744C29.6219 33.2394 29.5496 33.291 29.4701 33.3262C29.3905 33.3613 29.3052 33.3794 29.2191 33.3794C29.133 33.3794 29.0477 33.3613 28.9682 33.3262C28.8886 33.291 28.8163 33.2394 28.7554 33.1744C28.6945 33.1094 28.6462 33.0322 28.6133 32.9473C28.5803 32.8624 28.5634 32.7713 28.5634 32.6794V31.6927C28.5634 31.6573 28.5765 31.6233 28.6 31.5982C28.6235 31.5732 28.6553 31.5591 28.6885 31.5591H28.6912Z" fill="#BE7C5E"/>
<path opacity="0.1" d="M28.5688 32.1391C28.9919 32.3065 29.4572 32.3065 29.8803 32.1391V31.9668H28.5688V32.1391Z" fill="black"/>
<path d="M29.2273 32.233C30.2652 32.233 31.1066 31.3348 31.1066 30.2267C31.1066 29.1187 30.2652 28.2205 29.2273 28.2205C28.1894 28.2205 27.348 29.1187 27.348 30.2267C27.348 31.3348 28.1894 32.233 29.2273 32.233Z" fill="#BE7C5E"/>
<path d="M28.0881 29.399C28.0998 29.3091 28.1437 29.2275 28.2105 29.1715C28.2721 29.1427 28.3401 29.1336 28.4064 29.1453C28.9262 29.1753 29.4413 29.0485 29.9483 28.9168C30.2368 28.8413 30.547 28.7493 30.732 28.5014C30.917 28.2535 30.6749 27.4721 30.391 27.3792C30.2032 27.3182 29.9873 27.4324 29.8105 27.3424C29.7361 27.2933 29.6673 27.2351 29.6055 27.1691C29.458 27.0607 29.2903 26.9877 29.1139 26.9551C28.9116 26.9018 28.6921 26.8495 28.4999 26.9357C28.3511 27.0025 28.2414 27.1419 28.0999 27.2262C27.8278 27.384 27.5003 27.3114 27.1929 27.3104C27.0886 27.3104 26.9643 27.3327 26.9208 27.4353C26.9053 27.509 26.9053 27.5854 26.9208 27.659C26.9298 27.8972 26.7448 28.0851 26.5897 28.2564C26.4346 28.4278 26.2877 28.6757 26.3865 28.8907C26.4237 28.973 26.4927 29.034 26.5308 29.1153C26.5979 29.2557 26.5643 29.4252 26.5879 29.581C26.6123 29.6988 26.6536 29.8118 26.7103 29.9161C26.8255 30.1552 27.4033 31.444 27.67 31.1167C27.7987 30.9579 27.8205 30.4961 27.8713 30.2889C27.9414 29.9919 28.0137 29.6953 28.0881 29.399Z" fill="#333333"/>
<path d="M27.8894 30.5028C27.9861 30.5028 28.0645 30.3463 28.0645 30.1533C28.0645 29.9602 27.9861 29.8037 27.8894 29.8037C27.7927 29.8037 27.7144 29.9602 27.7144 30.1533C27.7144 30.3463 27.7927 30.5028 27.8894 30.5028Z" fill="#BE7C5E"/>
<g opacity="0.5">
<path opacity="0.5" d="M39.2896 44.6028C41.6815 44.6028 43.6205 42.5328 43.6205 39.9793C43.6205 37.4257 41.6815 35.3557 39.2896 35.3557C36.8976 35.3557 34.9586 37.4257 34.9586 39.9793C34.9586 42.5328 36.8976 44.6028 39.2896 44.6028Z" fill="url(#paint2_linear)"/>
</g>
<path d="M39.2977 44.477C41.6396 44.477 43.538 42.4503 43.538 39.9503C43.538 37.4503 41.6396 35.4236 39.2977 35.4236C36.9559 35.4236 35.0575 37.4503 35.0575 39.9503C35.0575 42.4503 36.9559 44.477 39.2977 44.477Z" fill="#F5F5F5"/>
<path d="M39.3014 44.4924C40.1297 44.4937 40.9401 44.2348 41.6315 43.7478C41.4755 42.8367 40.8805 42.7795 40.8805 42.7795H37.6026C37.6026 42.7795 37.0411 42.8289 36.8661 43.6675C37.5785 44.2045 38.4293 44.4927 39.3014 44.4924Z" fill="#738D9B"/>
<path d="M39.257 42.0388C40.387 42.0388 41.3032 41.0608 41.3032 39.8544C41.3032 38.6479 40.387 37.6699 39.257 37.6699C38.1269 37.6699 37.2108 38.6479 37.2108 39.8544C37.2108 41.0608 38.1269 42.0388 39.257 42.0388Z" fill="#F55F44"/>
<path opacity="0.1" d="M38.5957 41.6748H39.9081V42.798C39.9081 42.8899 39.8912 42.981 39.8582 43.0659C39.8253 43.1509 39.777 43.228 39.7161 43.293C39.6552 43.358 39.5829 43.4096 39.5033 43.4448C39.4238 43.48 39.3385 43.4981 39.2524 43.4981C39.1663 43.4981 39.081 43.48 39.0014 43.4448C38.9219 43.4096 38.8496 43.358 38.7887 43.293C38.7278 43.228 38.6795 43.1509 38.6465 43.0659C38.6136 42.981 38.5966 42.8899 38.5966 42.798V41.6748H38.5957Z" fill="black"/>
<path d="M38.7209 41.6226H39.7821C39.8152 41.6226 39.8471 41.6366 39.8706 41.6617C39.894 41.6868 39.9072 41.7207 39.9072 41.7562V42.7429C39.9072 42.9285 39.8381 43.1066 39.7152 43.2379C39.5922 43.3692 39.4254 43.4429 39.2515 43.4429C39.1653 43.4429 39.0801 43.4248 39.0005 43.3896C38.921 43.3544 38.8487 43.3029 38.7878 43.2379C38.7269 43.1729 38.6786 43.0957 38.6456 43.0108C38.6127 42.9258 38.5957 42.8348 38.5957 42.7429V41.7562C38.5957 41.7386 38.5989 41.7213 38.6052 41.705C38.6115 41.6888 38.6207 41.6741 38.6324 41.6617C38.644 41.6493 38.6578 41.6394 38.673 41.6327C38.6882 41.626 38.7044 41.6226 38.7209 41.6226Z" fill="#FDA57D"/>
<path opacity="0.1" d="M38.5984 42.2034C39.0216 42.3707 39.4869 42.3707 39.91 42.2034V42.031H38.5984V42.2034Z" fill="black"/>
<path d="M39.2569 42.2965C40.2948 42.2965 41.1362 41.3982 41.1362 40.2902C41.1362 39.1822 40.2948 38.2839 39.2569 38.2839C38.219 38.2839 37.3776 39.1822 37.3776 40.2902C37.3776 41.3982 38.219 42.2965 39.2569 42.2965Z" fill="#FDA57D"/>
<path d="M39.2542 38.4398C39.6719 38.4398 40.0106 38.0782 40.0106 37.6322C40.0106 37.1863 39.6719 36.8247 39.2542 36.8247C38.8364 36.8247 38.4977 37.1863 38.4977 37.6322C38.4977 38.0782 38.8364 38.4398 39.2542 38.4398Z" fill="#F55F44"/>
<path d="M39.2542 37.3669C39.5282 37.3669 39.7503 37.1298 39.7503 36.8373C39.7503 36.5448 39.5282 36.3076 39.2542 36.3076C38.9802 36.3076 38.7581 36.5448 38.7581 36.8373C38.7581 37.1298 38.9802 37.3669 39.2542 37.3669Z" fill="#F55F44"/>
<path d="M38.9259 38.0747C38.7484 37.9897 38.6085 37.8351 38.535 37.6429C38.4615 37.4507 38.4602 37.2357 38.5313 37.0425L38.5159 37.0764C38.4752 37.1731 38.4528 37.2775 38.4499 37.3835C38.447 37.4895 38.4637 37.5951 38.499 37.6943C38.5344 37.7934 38.5876 37.8841 38.6558 37.9613C38.724 38.0384 38.8057 38.1005 38.8964 38.1439C38.987 38.1873 39.0848 38.2113 39.1841 38.2144C39.2834 38.2174 39.3823 38.1996 39.4752 38.1619C39.568 38.1242 39.653 38.0673 39.7253 37.9945C39.7976 37.9217 39.8557 37.8345 39.8964 37.7377L39.91 37.7029C39.8221 37.8879 39.6709 38.0298 39.4876 38.099C39.3044 38.1683 39.1032 38.1595 38.9259 38.0747Z" fill="#F55F44"/>
<path opacity="0.1" d="M37.9182 38.4649C37.9182 38.4649 38.71 40.1817 40.9448 39.1844L40.4242 38.3129L39.5 37.9604L37.9182 38.4649Z" fill="black"/>
<path d="M37.9182 38.4398C37.9182 38.4398 38.71 40.1565 40.9448 39.1592L40.4242 38.2878L39.5 37.9353L37.9182 38.4398Z" fill="#F55F44"/>
<path d="M38.5268 37.8114C39.014 37.7705 39.5035 37.7705 39.9907 37.8114C39.9907 37.8114 38.9114 37.9228 38.5268 37.8114Z" fill="#333333"/>
<path d="M39.3676 36.2748C39.3302 36.2733 39.2928 36.2762 39.256 36.2835H39.2851C39.4077 36.2873 39.5247 36.3394 39.6134 36.4298C39.7022 36.5202 39.7564 36.6425 39.7656 36.7731C39.7749 36.9036 39.7385 37.0333 39.6635 37.1369C39.5885 37.2405 39.4801 37.3108 39.3594 37.3341C39.491 37.3354 39.6177 37.2808 39.7116 37.1824C39.8055 37.084 39.8589 36.9498 39.8601 36.8093C39.8613 36.6688 39.8102 36.5336 39.718 36.4334C39.6258 36.3331 39.5001 36.2761 39.3685 36.2748H39.3676Z" fill="#F55F44"/>
<path d="M37.3767 40.6378C37.4734 40.6378 37.5518 40.4813 37.5518 40.2883C37.5518 40.0952 37.4734 39.9387 37.3767 39.9387C37.28 39.9387 37.2017 40.0952 37.2017 40.2883C37.2017 40.4813 37.28 40.6378 37.3767 40.6378Z" fill="#FDA57D"/>
<path d="M41.1362 40.6378C41.2329 40.6378 41.3113 40.4813 41.3113 40.2883C41.3113 40.0952 41.2329 39.9387 41.1362 39.9387C41.0396 39.9387 40.9612 40.0952 40.9612 40.2883C40.9612 40.4813 41.0396 40.6378 41.1362 40.6378Z" fill="#FDA57D"/>
<path d="M37.7994 38.49L38.1658 38.2886L38.2493 38.612L38.0243 38.7756L37.7994 38.49Z" fill="#F55F44"/>
<g opacity="0.5">
<path opacity="0.5" d="M39.285 34.312C41.677 34.312 43.616 32.242 43.616 29.6885C43.616 27.135 41.677 25.0649 39.285 25.0649C36.8931 25.0649 34.9541 27.135 34.9541 29.6885C34.9541 32.242 36.8931 34.312 39.285 34.312Z" fill="url(#paint3_linear)"/>
</g>
<path d="M39.285 34.1899C41.6269 34.1899 43.5253 32.1632 43.5253 29.6632C43.5253 27.1632 41.6269 25.1365 39.285 25.1365C36.9432 25.1365 35.0448 27.1632 35.0448 29.6632C35.0448 32.1632 36.9432 34.1899 39.285 34.1899Z" fill="#F5F5F5"/>
<path d="M37.6307 29.7039C37.6307 29.7039 37.1499 32.232 36.8878 32.0916C36.8878 32.0916 39.4184 34.4252 41.6523 32.0916C41.6523 32.0916 41.2587 30.31 40.6909 29.7039H37.6307Z" fill="#333333"/>
<path d="M39.2969 34.2036C40.1259 34.2036 40.9367 33.9429 41.6279 33.4541C41.4718 32.543 40.8769 32.4858 40.8769 32.4858H37.5953C37.5953 32.4858 37.0339 32.5352 36.8588 33.3737C37.5715 33.913 38.4233 34.203 39.2969 34.2036Z" fill="#738D9B"/>
<path d="M39.2524 31.5699C40.2903 31.5699 41.1317 30.6717 41.1317 29.5637C41.1317 28.4556 40.2903 27.5574 39.2524 27.5574C38.2145 27.5574 37.3731 28.4556 37.3731 29.5637C37.3731 30.6717 38.2145 31.5699 39.2524 31.5699Z" fill="#333333"/>
<path opacity="0.1" d="M38.5921 31.384H39.9036V32.5043C39.9036 32.69 39.8345 32.8681 39.7116 32.9994C39.5886 33.1306 39.4218 33.2044 39.2479 33.2044C39.0739 33.2044 38.9072 33.1306 38.7842 32.9994C38.6612 32.8681 38.5921 32.69 38.5921 32.5043V31.384Z" fill="black"/>
<path d="M38.7173 31.3315H39.7785C39.8117 31.3315 39.8435 31.3456 39.867 31.3707C39.8904 31.3957 39.9036 31.4297 39.9036 31.4652V32.4518C39.9036 32.5438 39.8867 32.6348 39.8537 32.7197C39.8207 32.8047 39.7724 32.8819 39.7116 32.9469C39.6507 33.0119 39.5784 33.0634 39.4988 33.0986C39.4192 33.1338 39.334 33.1519 39.2479 33.1519C39.1617 33.1519 39.0765 33.1338 38.9969 33.0986C38.9173 33.0634 38.8451 33.0119 38.7842 32.9469C38.7233 32.8819 38.675 32.8047 38.642 32.7197C38.6091 32.6348 38.5921 32.5438 38.5921 32.4518V31.469C38.5916 31.4512 38.5945 31.4334 38.6006 31.4167C38.6066 31.4001 38.6158 31.3849 38.6274 31.372C38.6391 31.3592 38.6531 31.349 38.6685 31.3421C38.6839 31.3351 38.7005 31.3315 38.7173 31.3315Z" fill="#BE7C5E"/>
<path opacity="0.1" d="M38.593 31.9126C39.0161 32.08 39.4814 32.08 39.9045 31.9126V31.7402H38.593V31.9126Z" fill="black"/>
<path d="M39.2524 32.0055C40.2903 32.0055 41.1317 31.1072 41.1317 29.9992C41.1317 28.8912 40.2903 27.9929 39.2524 27.9929C38.2145 27.9929 37.3731 28.8912 37.3731 29.9992C37.3731 31.1072 38.2145 32.0055 39.2524 32.0055Z" fill="#BE7C5E"/>
<path d="M37.4556 29.2371H41.0419C41.0419 29.2371 40.7363 27.6879 39.3812 27.7905C38.0261 27.8932 37.4556 29.2371 37.4556 29.2371Z" fill="#333333"/>
<path d="M37.4121 30.2636C37.5087 30.2636 37.5871 30.1071 37.5871 29.914C37.5871 29.721 37.5087 29.5645 37.4121 29.5645C37.3154 29.5645 37.237 29.721 37.237 29.914C37.237 30.1071 37.3154 30.2636 37.4121 30.2636Z" fill="#BE7C5E"/>
<path d="M41.0836 30.2636C41.1803 30.2636 41.2587 30.1071 41.2587 29.914C41.2587 29.721 41.1803 29.5645 41.0836 29.5645C40.9869 29.5645 40.9086 29.721 40.9086 29.914C40.9086 30.1071 40.9869 30.2636 41.0836 30.2636Z" fill="#BE7C5E"/>
<path opacity="0.1" d="M37.4556 29.2905H41.0419C41.0419 29.2905 40.7335 27.7413 39.3785 27.8381C38.0234 27.9349 37.4556 29.2905 37.4556 29.2905Z" fill="black"/>
<g opacity="0.5">
<path opacity="0.5" d="M49.6104 34.2918C52.0023 34.2918 53.9413 32.2217 53.9413 29.6682C53.9413 27.1147 52.0023 25.0447 49.6104 25.0447C47.2184 25.0447 45.2794 27.1147 45.2794 29.6682C45.2794 32.2217 47.2184 34.2918 49.6104 34.2918Z" fill="url(#paint4_linear)"/>
</g>
<path d="M49.6185 34.1657C51.9604 34.1657 53.8588 32.139 53.8588 29.639C53.8588 27.139 51.9604 25.1123 49.6185 25.1123C47.2767 25.1123 45.3783 27.139 45.3783 29.639C45.3783 32.139 47.2767 34.1657 49.6185 34.1657Z" fill="#F5F5F5"/>
<path d="M49.6221 34.1831C50.4504 34.1844 51.2608 33.9254 51.9522 33.4385C51.7962 32.5273 51.2012 32.4702 51.2012 32.4702H47.9233C47.9233 32.4702 47.3619 32.5196 47.1868 33.3581C47.8993 33.8951 48.75 34.1833 49.6221 34.1831Z" fill="#738D9B"/>
<path d="M49.5777 31.7275C50.7078 31.7275 51.6239 30.7495 51.6239 29.5431C51.6239 28.3366 50.7078 27.3586 49.5777 27.3586C48.4476 27.3586 47.5315 28.3366 47.5315 29.5431C47.5315 30.7495 48.4476 31.7275 49.5777 31.7275Z" fill="#72351C"/>
<path opacity="0.1" d="M48.9174 31.3635H50.2289V32.4838C50.2289 32.6695 50.1599 32.8476 50.0369 32.9789C49.9139 33.1101 49.7471 33.1839 49.5732 33.1839C49.3993 33.1839 49.2325 33.1101 49.1095 32.9789C48.9865 32.8476 48.9174 32.6695 48.9174 32.4838V31.3635Z" fill="black"/>
<path d="M49.0426 31.3113H50.1038C50.137 31.3113 50.1688 31.3254 50.1923 31.3504C50.2158 31.3755 50.2289 31.4095 50.2289 31.4449V32.4316C50.2289 32.5235 50.212 32.6145 50.179 32.6995C50.1461 32.7844 50.0978 32.8616 50.0369 32.9266C49.976 32.9916 49.9037 33.0432 49.8241 33.0784C49.7446 33.1135 49.6593 33.1316 49.5732 33.1316C49.4871 33.1316 49.4018 33.1135 49.3222 33.0784C49.2427 33.0432 49.1704 32.9916 49.1095 32.9266C49.0486 32.8616 49.0003 32.7844 48.9673 32.6995C48.9344 32.6145 48.9174 32.5235 48.9174 32.4316V31.4449C48.9174 31.4095 48.9306 31.3755 48.9541 31.3504C48.9776 31.3254 49.0094 31.3113 49.0426 31.3113Z" fill="#FDA57D"/>
<path opacity="0.1" d="M48.9193 31.8913C49.3424 32.0587 49.8077 32.0587 50.2308 31.8913V31.719H48.9193V31.8913Z" fill="black"/>
<path d="M49.5777 31.9852C50.6157 31.9852 51.4571 31.087 51.4571 29.9789C51.4571 28.8709 50.6157 27.9727 49.5777 27.9727C48.5398 27.9727 47.6984 28.8709 47.6984 29.9789C47.6984 31.087 48.5398 31.9852 49.5777 31.9852Z" fill="#FDA57D"/>
<path opacity="0.1" d="M48.239 28.1538C48.239 28.1538 49.0308 29.8706 51.2656 28.8733L50.745 28.0018L49.8226 27.6445L48.239 28.1538Z" fill="black"/>
<path d="M48.239 28.1285C48.239 28.1285 49.0308 29.8452 51.2656 28.8479L50.745 27.9765L49.8226 27.623L48.239 28.1285Z" fill="#72351C"/>
<path d="M48.2317 28.0123C48.286 27.8354 48.3793 27.675 48.5038 27.5446C48.8739 27.1573 49.4798 27.0721 49.7909 26.6277C49.8078 26.6591 49.8183 26.694 49.8218 26.7301C49.8253 26.7662 49.8217 26.8026 49.8112 26.8371C49.8007 26.8716 49.7835 26.9034 49.7608 26.9303C49.7381 26.9573 49.7103 26.9789 49.6793 26.9937C49.9768 26.9937 50.3224 26.9637 50.4911 26.7032C50.5332 26.8064 50.5471 26.9202 50.531 27.0315C50.515 27.1427 50.4697 27.2468 50.4004 27.3316C50.6643 27.3442 50.9446 27.5359 50.9627 27.8158C50.9626 27.91 50.9403 28.0027 50.8979 28.0853C50.8554 28.1679 50.7941 28.2377 50.7196 28.2883C50.5694 28.3863 50.4028 28.4521 50.2289 28.4819C49.7201 28.6039 47.9043 29.0968 48.2317 28.0123Z" fill="#72351C"/>
<path d="M51.4571 29.9963H51.4072L50.4376 30.9181C49.5034 30.4514 48.8177 30.9181 48.8177 30.9181L47.8009 30.0351L47.6984 30.0486C47.7048 30.5807 47.9089 31.0883 48.2659 31.4598C48.6228 31.8312 49.1033 32.0361 49.6018 32.0292C50.1002 32.0224 50.5757 31.8045 50.9236 31.4235C51.2715 31.0424 51.4634 30.5294 51.4571 29.9973V29.9963ZM49.575 31.2706C49.2122 31.2706 48.9129 31.1912 48.9129 31.0944C48.9129 30.9975 49.2095 30.9181 49.575 30.9181C49.9405 30.9181 50.2371 30.9975 50.2371 31.0944C50.2371 31.1912 49.9405 31.2716 49.575 31.2716V31.2706Z" fill="#72351C"/>
<path d="M47.6975 30.3265C47.7942 30.3265 47.8726 30.17 47.8726 29.977C47.8726 29.7839 47.7942 29.6274 47.6975 29.6274C47.6008 29.6274 47.5225 29.7839 47.5225 29.977C47.5225 30.17 47.6008 30.3265 47.6975 30.3265Z" fill="#FDA57D"/>
<path d="M51.457 30.3265C51.5537 30.3265 51.6321 30.17 51.6321 29.977C51.6321 29.7839 51.5537 29.6274 51.457 29.6274C51.3604 29.6274 51.282 29.7839 51.282 29.977C51.282 30.17 51.3604 30.3265 51.457 30.3265Z" fill="#FDA57D"/>
<g opacity="0.5">
<path opacity="0.5" d="M29.2282 44.3008C31.6201 44.3008 33.5592 42.2308 33.5592 39.6773C33.5592 37.1237 31.6201 35.0537 29.2282 35.0537C26.8363 35.0537 24.8973 37.1237 24.8973 39.6773C24.8973 42.2308 26.8363 44.3008 29.2282 44.3008Z" fill="url(#paint5_linear)"/>
</g>
<path d="M29.2363 44.174C31.5782 44.174 33.4766 42.1474 33.4766 39.6473C33.4766 37.1473 31.5782 35.1206 29.2363 35.1206C26.8945 35.1206 24.9961 37.1473 24.9961 39.6473C24.9961 42.1474 26.8945 44.174 29.2363 44.174Z" fill="#F5F5F5"/>
<path d="M29.2399 44.1914C30.0683 44.1927 30.8786 43.9337 31.57 43.4468C31.414 42.5356 30.819 42.4785 30.819 42.4785H27.542C27.542 42.4785 26.9806 42.5279 26.8055 43.3664C27.5177 43.9033 28.3681 44.1915 29.2399 44.1914Z" fill="#738D9B"/>
<path d="M29.1955 41.7368C30.3256 41.7368 31.2417 40.7588 31.2417 39.5524C31.2417 38.3459 30.3256 37.3679 29.1955 37.3679C28.0654 37.3679 27.1493 38.3459 27.1493 39.5524C27.1493 40.7588 28.0654 41.7368 29.1955 41.7368Z" fill="#333333"/>
<path opacity="0.1" d="M28.5353 41.3718H29.8468V42.4921C29.8468 42.6778 29.7777 42.8559 29.6547 42.9871C29.5318 43.1184 29.365 43.1922 29.191 43.1922C29.0171 43.1922 28.8503 43.1184 28.7273 42.9871C28.6044 42.8559 28.5353 42.6778 28.5353 42.4921V41.3718Z" fill="black"/>
<path d="M28.6613 41.3196H29.7225C29.7557 41.3196 29.7875 41.3337 29.811 41.3587C29.8345 41.3838 29.8477 41.4178 29.8477 41.4532V42.4399C29.8477 42.5318 29.8307 42.6229 29.7977 42.7078C29.7648 42.7927 29.7165 42.8699 29.6556 42.9349C29.5947 42.9999 29.5224 43.0515 29.4428 43.0867C29.3633 43.1218 29.278 43.1399 29.1919 43.1399C29.018 43.1399 28.8512 43.0662 28.7282 42.9349C28.6052 42.8036 28.5361 42.6256 28.5361 42.4399V41.4532C28.5361 41.4178 28.5493 41.3838 28.5728 41.3587C28.5963 41.3337 28.6281 41.3196 28.6613 41.3196Z" fill="#FDB797"/>
<path opacity="0.1" d="M28.538 41.9004C28.9611 42.0677 29.4264 42.0677 29.8495 41.9004V41.728H28.538V41.9004Z" fill="black"/>
<path d="M29.1955 41.9933C30.2335 41.9933 31.0748 41.095 31.0748 39.987C31.0748 38.879 30.2335 37.9807 29.1955 37.9807C28.1576 37.9807 27.3162 38.879 27.3162 39.987C27.3162 41.095 28.1576 41.9933 29.1955 41.9933Z" fill="#FDB797"/>
<path opacity="0.1" d="M27.8568 38.1629C27.8568 38.1629 28.6486 39.8797 30.8835 38.8823L30.3629 38.0109L29.4404 37.6575L27.8568 38.1629Z" fill="black"/>
<path d="M27.8568 38.1368C27.8568 38.1368 28.6486 39.8535 30.8835 38.8562L30.3629 37.9848L29.4404 37.6313L27.8568 38.1368Z" fill="#333333"/>
<path d="M27.8495 38.0214C27.9038 37.8444 27.9971 37.6841 28.1216 37.5537C28.4917 37.1664 29.0976 37.0812 29.4087 36.6367C29.4256 36.6682 29.4361 36.7031 29.4396 36.7391C29.4431 36.7752 29.4395 36.8117 29.429 36.8462C29.4184 36.8806 29.4013 36.9124 29.3786 36.9394C29.3559 36.9663 29.3281 36.9879 29.2971 37.0027C29.5946 37.0027 29.9402 36.9727 30.1089 36.7122C30.151 36.8154 30.1649 36.9292 30.1488 37.0405C30.1328 37.1517 30.0874 37.2558 30.0182 37.3407C30.2821 37.3532 30.5624 37.545 30.5805 37.8248C30.5804 37.919 30.5581 38.0117 30.5157 38.0943C30.4732 38.1769 30.4119 38.2467 30.3374 38.2973C30.1872 38.3954 30.0206 38.4612 29.8467 38.491C29.3415 38.613 27.5221 39.1078 27.8495 38.0214Z" fill="#333333"/>
<path d="M27.3153 40.3346C27.412 40.3346 27.4904 40.1781 27.4904 39.9851C27.4904 39.792 27.412 39.6355 27.3153 39.6355C27.2186 39.6355 27.1403 39.792 27.1403 39.9851C27.1403 40.1781 27.2186 40.3346 27.3153 40.3346Z" fill="#FDB797"/>
<path d="M31.0748 40.3346C31.1715 40.3346 31.2499 40.1781 31.2499 39.9851C31.2499 39.792 31.1715 39.6355 31.0748 39.6355C30.9782 39.6355 30.8998 39.792 30.8998 39.9851C30.8998 40.1781 30.9782 40.3346 31.0748 40.3346Z" fill="#FDB797"/>
<g opacity="0.5">
<path opacity="0.5" d="M49.7718 44.813C52.1637 44.813 54.1027 42.743 54.1027 40.1895C54.1027 37.6359 52.1637 35.5659 49.7718 35.5659C47.3799 35.5659 45.4409 37.6359 45.4409 40.1895C45.4409 42.743 47.3799 44.813 49.7718 44.813Z" fill="url(#paint6_linear)"/>
</g>
<path d="M49.7719 44.6911C52.1137 44.6911 54.0121 42.6644 54.0121 40.1644C54.0121 37.6644 52.1137 35.6377 49.7719 35.6377C47.43 35.6377 45.5316 37.6644 45.5316 40.1644C45.5316 42.6644 47.43 44.6911 49.7719 44.6911Z" fill="#F5F5F5"/>
<path d="M49.7836 44.7046C50.6119 44.7059 51.4222 44.4469 52.1137 43.96C51.9577 43.0488 51.3627 42.9917 51.3627 42.9917H48.0848C48.0848 42.9917 47.5233 43.0411 47.3483 43.8796C48.0607 44.4166 48.9115 44.7048 49.7836 44.7046Z" fill="#738D9B"/>
<path opacity="0.1" d="M49.0789 41.8838H50.3904V43.0041C50.3904 43.1898 50.3213 43.3678 50.1983 43.4991C50.0753 43.6304 49.9085 43.7042 49.7346 43.7042C49.5607 43.7042 49.3939 43.6304 49.2709 43.4991C49.1479 43.3678 49.0789 43.1898 49.0789 43.0041V41.8838Z" fill="black"/>
<path d="M49.204 41.8298H50.2652C50.2984 41.8298 50.3302 41.8439 50.3537 41.869C50.3772 41.894 50.3904 41.928 50.3904 41.9635V42.953C50.3904 43.1387 50.3213 43.3168 50.1983 43.4481C50.0753 43.5793 49.9085 43.6531 49.7346 43.6531C49.5607 43.6531 49.3939 43.5793 49.2709 43.4481C49.1479 43.3168 49.0789 43.1387 49.0789 42.953V41.9664C49.0789 41.9309 49.092 41.8969 49.1155 41.8719C49.139 41.8468 49.1708 41.8327 49.204 41.8327V41.8298Z" fill="#FDB797"/>
<path opacity="0.1" d="M49.0807 42.4126C49.5038 42.5799 49.9691 42.5799 50.3922 42.4126V42.2402H49.0807V42.4126Z" fill="black"/>
<path d="M49.7392 42.5065C50.7771 42.5065 51.6185 41.6082 51.6185 40.5002C51.6185 39.3921 50.7771 38.4939 49.7392 38.4939C48.7013 38.4939 47.8599 39.3921 47.8599 40.5002C47.8599 41.6082 48.7013 42.5065 49.7392 42.5065Z" fill="#FDB797"/>
<path d="M47.898 40.7645C47.9946 40.7645 48.073 40.608 48.073 40.415C48.073 40.2219 47.9946 40.0654 47.898 40.0654C47.8013 40.0654 47.7229 40.2219 47.7229 40.415C47.7229 40.608 47.8013 40.7645 47.898 40.7645Z" fill="#FDB797"/>
<path d="M51.5695 40.7645C51.6661 40.7645 51.7445 40.608 51.7445 40.415C51.7445 40.2219 51.6661 40.0654 51.5695 40.0654C51.4728 40.0654 51.3944 40.2219 51.3944 40.415C51.3944 40.608 51.4728 40.7645 51.5695 40.7645Z" fill="#FDB797"/>
<path d="M49.1959 40.51H48.795C48.6838 40.51 48.5936 40.606 48.5936 40.7245C48.5936 40.8429 48.6838 40.939 48.795 40.939H49.1959C49.3071 40.939 49.3972 40.8429 49.3972 40.7245C49.3972 40.606 49.3071 40.51 49.1959 40.51Z" stroke="#333333" stroke-width="2" stroke-miterlimit="10"/>
<path d="M50.2825 40.939H50.6834C50.7946 40.939 50.8847 40.8429 50.8847 40.7245C50.8847 40.606 50.7946 40.51 50.6834 40.51H50.2825C50.1713 40.51 50.0811 40.606 50.0811 40.7245C50.0811 40.8429 50.1713 40.939 50.2825 40.939Z" stroke="#333333" stroke-width="2" stroke-miterlimit="10"/>
<path d="M49.3655 40.5517C49.3655 40.5517 49.6203 40.4035 50.0911 40.5517" stroke="#333333" stroke-width="2" stroke-miterlimit="10"/>
<path d="M51.038 39.0459L51.4988 40.1894C51.4988 40.1894 52.0629 39.4313 51.038 39.0459Z" fill="#858585"/>
<path d="M50.8847 40.7249L51.5731 40.0684" stroke="#333333" stroke-width="2" stroke-linecap="round" stroke-linejoin="round"/>
<path d="M48.4394 39.0459L47.9786 40.1894C47.9786 40.1894 47.4145 39.4313 48.4394 39.0459Z" fill="#858585"/>
<path d="M48.5936 40.7249L47.8961 40.0684" stroke="#333333" stroke-width="2" stroke-linecap="round" stroke-linejoin="round"/>
<g opacity="0.5">
<path opacity="0.5" d="M29.26 54.6951C31.6519 54.6951 33.5909 52.625 33.5909 50.0715C33.5909 47.518 31.6519 45.448 29.26 45.448C26.868 45.448 24.929 47.518 24.929 50.0715C24.929 52.625 26.868 54.6951 29.26 54.6951Z" fill="url(#paint7_linear)"/>
</g>
<path d="M29.26 54.5732C31.6018 54.5732 33.5002 52.5465 33.5002 50.0465C33.5002 47.5465 31.6018 45.5198 29.26 45.5198C26.9181 45.5198 25.0197 47.5465 25.0197 50.0465C25.0197 52.5465 26.9181 54.5732 29.26 54.5732Z" fill="#F5F5F5"/>
<path d="M31.6091 50.4543C31.6091 52.1207 30.5905 53.9769 29.3334 53.9769C28.0763 53.9769 27.0577 52.1207 27.0577 50.4543C27.0577 48.7879 28.0763 47.9368 29.3334 47.9368C30.5905 47.9368 31.6091 48.7869 31.6091 50.4543Z" fill="#FDD835"/>
<path d="M29.2717 54.5867C30.1 54.588 30.9104 54.329 31.6018 53.8421C31.4458 52.9309 30.8508 52.8738 30.8508 52.8738H27.5729C27.5729 52.8738 27.0115 52.9232 26.8364 53.7617C27.5488 54.2987 28.3996 54.5869 29.2717 54.5867Z" fill="#738D9B"/>
<path opacity="0.1" d="M28.5706 51.7671H29.8821V52.8874C29.8821 53.0731 29.8131 53.2511 29.6901 53.3824C29.5671 53.5137 29.4003 53.5875 29.2264 53.5875C29.0525 53.5875 28.8857 53.5137 28.7627 53.3824C28.6397 53.2511 28.5706 53.0731 28.5706 52.8874V51.7671Z" fill="black"/>
<path d="M28.6912 51.7148H29.7497C29.7829 51.7148 29.8147 51.7289 29.8382 51.754C29.8617 51.779 29.8749 51.813 29.8749 51.8485V52.8351C29.8749 53.0208 29.8058 53.1989 29.6828 53.3302C29.5598 53.4615 29.393 53.5352 29.2191 53.5352C29.0452 53.5352 28.8784 53.4615 28.7554 53.3302C28.6324 53.1989 28.5634 53.0208 28.5634 52.8351V51.8485C28.5634 51.813 28.5765 51.779 28.6 51.754C28.6235 51.7289 28.6553 51.7148 28.6885 51.7148H28.6912Z" fill="#FDB797"/>
<path opacity="0.1" d="M28.5688 52.2949C28.9919 52.4623 29.4572 52.4623 29.8803 52.2949V52.1226H28.5688V52.2949Z" fill="black"/>
<path d="M29.2273 52.3888C30.2652 52.3888 31.1066 51.4905 31.1066 50.3825C31.1066 49.2745 30.2652 48.3762 29.2273 48.3762C28.1894 48.3762 27.348 49.2745 27.348 50.3825C27.348 51.4905 28.1894 52.3888 29.2273 52.3888Z" fill="#FDB797"/>
<path d="M27.386 50.6469C27.4827 50.6469 27.5611 50.4904 27.5611 50.2973C27.5611 50.1043 27.4827 49.9478 27.386 49.9478C27.2894 49.9478 27.211 50.1043 27.211 50.2973C27.211 50.4904 27.2894 50.6469 27.386 50.6469Z" fill="#FDB797"/>
<path d="M31.0576 50.6469C31.1543 50.6469 31.2327 50.4904 31.2327 50.2973C31.2327 50.1043 31.1543 49.9478 31.0576 49.9478C30.9609 49.9478 30.8826 50.1043 30.8826 50.2973C30.8826 50.4904 30.9609 50.6469 31.0576 50.6469Z" fill="#FDB797"/>
<path opacity="0.1" d="M27.5611 49.2942C27.5611 49.2942 28.625 50.8434 31.0603 50.3167C31.0603 50.3167 31.3324 49.9632 30.6703 48.8778C30.0082 47.7923 28.1624 47.9686 27.5611 49.2942Z" fill="black"/>
<path d="M27.5611 49.269C27.5611 49.269 28.625 50.8182 31.0603 50.2915C31.0603 50.2915 31.3324 49.9381 30.6703 48.8526C30.0082 47.7672 28.1624 47.9434 27.5611 49.269Z" fill="#FDD835"/>
<g opacity="0.5">
<path opacity="0.5" d="M39.549 55.2258C41.9409 55.2258 43.8799 53.1558 43.8799 50.6023C43.8799 48.0488 41.9409 45.9788 39.549 45.9788C37.157 45.9788 35.218 48.0488 35.218 50.6023C35.218 53.1558 37.157 55.2258 39.549 55.2258Z" fill="url(#paint8_linear)"/>
</g>
<path d="M39.558 55.0991C41.8999 55.0991 43.7983 53.0724 43.7983 50.5724C43.7983 48.0723 41.8999 46.0457 39.558 46.0457C37.2162 46.0457 35.3178 48.0723 35.3178 50.5724C35.3178 53.0724 37.2162 55.0991 39.558 55.0991Z" fill="#F5F5F5"/>
<path d="M41.89 51.0187C41.89 52.5244 40.8768 53.2651 39.5608 53.2651C38.2447 53.2651 37.1255 52.5244 37.1255 51.0187C37.1255 49.513 38.1921 48.293 39.5073 48.293C40.8224 48.293 41.89 49.513 41.89 51.0187Z" fill="#333333"/>
<path d="M39.5608 55.1164C40.3897 55.117 41.2004 54.8571 41.8918 54.3689C41.7358 53.4578 41.1408 53.4006 41.1408 53.4006H37.8629C37.8629 53.4006 37.3015 53.45 37.1264 54.2885C37.8383 54.8264 38.6887 55.1156 39.5608 55.1164Z" fill="#738D9B"/>
<path opacity="0.1" d="M38.856 52.2969H40.1675V53.4172C40.1675 53.5091 40.1506 53.6001 40.1176 53.6851C40.0847 53.77 40.0364 53.8472 39.9755 53.9122C39.9146 53.9772 39.8423 54.0288 39.7627 54.064C39.6832 54.0991 39.5979 54.1172 39.5118 54.1172C39.3379 54.1172 39.1711 54.0435 39.0481 53.9122C38.9251 53.7809 38.856 53.6028 38.856 53.4172V52.2969Z" fill="black"/>
<path d="M38.9812 52.2454H40.0424C40.0756 52.2454 40.1074 52.2594 40.1309 52.2845C40.1544 52.3096 40.1675 52.3435 40.1675 52.379V53.3657C40.1675 53.4576 40.1506 53.5486 40.1176 53.6336C40.0847 53.7185 40.0364 53.7957 39.9755 53.8607C39.9146 53.9257 39.8423 53.9773 39.7627 54.0124C39.6832 54.0476 39.5979 54.0657 39.5118 54.0657C39.3379 54.0657 39.1711 53.992 39.0481 53.8607C38.9251 53.7294 38.856 53.5513 38.856 53.3657V52.378C38.8563 52.3427 38.8696 52.309 38.893 52.2842C38.9164 52.2593 38.9481 52.2454 38.9812 52.2454Z" fill="#FDA57D"/>
<path opacity="0.1" d="M38.8587 52.8254C39.2818 52.9928 39.7471 52.9928 40.1702 52.8254V52.6531H38.8587V52.8254Z" fill="black"/>
<path d="M39.5163 52.9195C40.5543 52.9195 41.3956 52.0213 41.3956 50.9133C41.3956 49.8052 40.5543 48.907 39.5163 48.907C38.4784 48.907 37.637 49.8052 37.637 50.9133C37.637 52.0213 38.4784 52.9195 39.5163 52.9195Z" fill="#FDA57D"/>
<path opacity="0.1" d="M37.3504 51.0438C37.3504 51.0438 38.5204 50.8927 39.4075 49.6805C39.4075 49.6805 40.5775 51.0564 41.3938 50.9044C41.3938 50.9044 41.8664 50.3747 41.3938 49.8441C40.9213 49.3135 40.5549 48.6454 39.9281 48.7335C39.3014 48.8216 38.5331 48.8593 38.2048 49.175C37.8765 49.4907 37.3504 51.0438 37.3504 51.0438Z" fill="black"/>
<path d="M37.3504 51.0186C37.3504 51.0186 38.5204 50.8676 39.4075 49.6553C39.4075 49.6553 40.5775 51.0312 41.3938 50.8792C41.3938 50.8792 41.8664 50.3496 41.3938 49.8189C40.9213 49.2883 40.5549 48.6202 39.9281 48.7083C39.3014 48.7964 38.5331 48.8342 38.2048 49.1499C37.8765 49.4655 37.3504 51.0186 37.3504 51.0186Z" fill="#333333"/>
<path d="M37.6361 51.2606C37.7328 51.2606 37.8112 51.1041 37.8112 50.9111C37.8112 50.718 37.7328 50.5615 37.6361 50.5615C37.5394 50.5615 37.4611 50.718 37.4611 50.9111C37.4611 51.1041 37.5394 51.2606 37.6361 51.2606Z" fill="#FDA57D"/>
<path d="M41.3956 51.2606C41.4923 51.2606 41.5707 51.1041 41.5707 50.9111C41.5707 50.718 41.4923 50.5615 41.3956 50.5615C41.299 50.5615 41.2206 50.718 41.2206 50.9111C41.2206 51.1041 41.299 51.2606 41.3956 51.2606Z" fill="#FDA57D"/>
<path d="M39.5453 13.459H0.362793V22.7545H39.5453V13.459Z" fill="url(#paint9_linear)"/>
<path d="M39.3639 13.4592H19.8634H0.362793V4.2605H31.0195L39.3639 13.4592Z" fill="url(#paint10_linear)"/>
<path d="M78.6372 13.459H39.5453V22.7545H78.6372V13.459Z" fill="url(#paint11_linear)"/>
<path d="M51.9713 12.5876H26.938V14.3306H51.9713V12.5876Z" fill="#E0E0E0"/>
<path d="M5.89552 5.51929H2.72101V7.26219H5.89552V5.51929Z" fill="#E0E0E0"/>
<path d="M76.1883 5.51929H73.2859V5.80977H76.1883V5.51929Z" fill="#E0E0E0"/>
<path d="M76.1883 6.2937H73.2859V6.58419H76.1883V6.2937Z" fill="#E0E0E0"/>
<path d="M76.1883 6.97168H73.2859V7.26216H76.1883V6.97168Z" fill="#E0E0E0"/>
</g>
<defs>
<linearGradient id="paint0_linear" x1="39.5" y1="58" x2="39.5" y2="0" gradientUnits="userSpaceOnUse">
<stop stop-color="#808080" stop-opacity="0.25"/>
<stop offset="0.54" stop-color="#808080" stop-opacity="0.12"/>
<stop offset="1" stop-color="#808080" stop-opacity="0.1"/>
</linearGradient>
<linearGradient id="paint1_linear" x1="2819.25" y1="3323.82" x2="2819.25" y2="2440.72" gradientUnits="userSpaceOnUse">
<stop stop-color="#808080" stop-opacity="0.25"/>
<stop offset="0.54" stop-color="#808080" stop-opacity="0.12"/>
<stop offset="1" stop-color="#808080" stop-opacity="0.1"/>
</linearGradient>
<linearGradient id="paint2_linear" x1="3787.12" y1="4295.03" x2="3787.12" y2="3411.84" gradientUnits="userSpaceOnUse">
<stop stop-color="#808080" stop-opacity="0.25"/>
<stop offset="0.54" stop-color="#808080" stop-opacity="0.12"/>
<stop offset="1" stop-color="#808080" stop-opacity="0.1"/>
</linearGradient>
<linearGradient id="paint3_linear" x1="3786.67" y1="3301.95" x2="3786.67" y2="2418.76" gradientUnits="userSpaceOnUse">
<stop stop-color="#808080" stop-opacity="0.25"/>
<stop offset="0.54" stop-color="#808080" stop-opacity="0.12"/>
<stop offset="1" stop-color="#808080" stop-opacity="0.1"/>
</linearGradient>
<linearGradient id="paint4_linear" x1="4783.07" y1="3299.9" x2="4783.07" y2="2416.8" gradientUnits="userSpaceOnUse">
<stop stop-color="#808080" stop-opacity="0.25"/>
<stop offset="0.54" stop-color="#808080" stop-opacity="0.12"/>
<stop offset="1" stop-color="#808080" stop-opacity="0.1"/>
</linearGradient>
<linearGradient id="paint5_linear" x1="2816.19" y1="4265.78" x2="2816.19" y2="3382.59" gradientUnits="userSpaceOnUse">
<stop stop-color="#808080" stop-opacity="0.25"/>
<stop offset="0.54" stop-color="#808080" stop-opacity="0.12"/>
<stop offset="1" stop-color="#808080" stop-opacity="0.1"/>
</linearGradient>
<linearGradient id="paint6_linear" x1="4798.65" y1="4315.21" x2="4798.65" y2="3432.11" gradientUnits="userSpaceOnUse">
<stop stop-color="#808080" stop-opacity="0.25"/>
<stop offset="0.54" stop-color="#808080" stop-opacity="0.12"/>
<stop offset="1" stop-color="#808080" stop-opacity="0.1"/>
</linearGradient>
<linearGradient id="paint7_linear" x1="2819.25" y1="5268.94" x2="2819.25" y2="4385.75" gradientUnits="userSpaceOnUse">
<stop stop-color="#808080" stop-opacity="0.25"/>
<stop offset="0.54" stop-color="#808080" stop-opacity="0.12"/>
<stop offset="1" stop-color="#808080" stop-opacity="0.1"/>
</linearGradient>
<linearGradient id="paint8_linear" x1="3812.15" y1="5320.05" x2="3812.15" y2="4436.95" gradientUnits="userSpaceOnUse">
<stop stop-color="#808080" stop-opacity="0.25"/>
<stop offset="0.54" stop-color="#808080" stop-opacity="0.12"/>
<stop offset="1" stop-color="#808080" stop-opacity="0.1"/>
</linearGradient>
<linearGradient id="paint9_linear" x1="0.362793" y1="18.1067" x2="39.5453" y2="18.1067" gradientUnits="userSpaceOnUse">
<stop stop-color="white" stop-opacity="0.05"/>
<stop offset="0.99" stop-color="white" stop-opacity="0.07"/>
</linearGradient>
<linearGradient id="paint10_linear" x1="0.362793" y1="8.85983" x2="39.3639" y2="8.85983" gradientUnits="userSpaceOnUse">
<stop stop-color="white" stop-opacity="0.02"/>
<stop offset="0.99" stop-color="white" stop-opacity="0.05"/>
</linearGradient>
<linearGradient id="paint11_linear" x1="39.5453" y1="18.1067" x2="78.6372" y2="18.1067" gradientUnits="userSpaceOnUse">
<stop stop-color="white" stop-opacity="0.02"/>
<stop offset="0.99" stop-color="white" stop-opacity="0.04"/>
</linearGradient>
<clipPath id="clip0">
<rect width="79" height="58" fill="white"/>
</clipPath>
</defs>
</svg>
