<svg width="584" height="449" viewBox="0 0 584 449" fill="none" xmlns="http://www.w3.org/2000/svg">
<g clip-path="url(#clip0)">
<path opacity="0.1" d="M180.323 22.6845C200.137 2.77921 231.242 -1.27401 259.552 0.31007C348.476 5.28781 428.746 53.6333 498.18 108.321C523.316 128.119 548.062 149.473 564.393 176.718C597.611 232.217 587.755 309.105 541.572 354.823C525.858 370.382 506.808 382.305 487.252 392.881C452.482 411.675 414.973 426.761 375.502 431.056C347.359 434.117 318.892 431.62 290.89 427.358C212.723 415.418 135.996 389.025 71.6823 343.847C43.4631 324.038 16.8765 299.408 5.2512 267.343C-6.37411 235.279 1.06609 194.684 29.8665 175.715C41.7799 167.868 56.0184 164.327 69.9637 160.996C90.49 156.103 111.34 151.271 129.864 141.316C148.996 131.033 171.645 111.145 167.859 88.3817C163.795 63.9778 160.535 42.5278 180.323 22.6845Z" fill="#738D9B"/>
<path d="M129.749 252.444C129.749 252.444 134.99 248.256 140.414 250.843C140.414 250.843 138.897 254.44 132.139 254.395L129.749 252.444Z" fill="#738D9B"/>
<path d="M129.097 252.687C129.097 252.687 127.696 259.705 131.962 264.26C131.962 264.26 134.328 261.289 131.639 254.378L129.097 252.687Z" fill="#738D9B"/>
<path d="M122.167 246.299C122.167 246.299 122.359 240.375 134.389 241.823C134.389 241.823 134.576 245.634 130.441 247.619C126.306 249.603 124.325 248.177 122.167 246.299Z" fill="#738D9B"/>
<path d="M121.424 246.288C121.424 246.288 116.425 248.318 121.368 260.641C121.368 260.641 124.674 259.665 125.093 254.665C125.513 249.665 123.683 248.013 121.424 246.288Z" fill="#738D9B"/>
<path d="M114.363 238.199C114.363 238.199 113.352 228.502 125.604 228.976C125.604 228.976 126.771 237.742 116.602 240.442L114.363 238.199Z" fill="#738D9B"/>
<path d="M105.907 227.567C105.907 227.567 107.206 216.478 119.554 219.235C119.554 219.235 119.928 228.762 108.009 230.109L105.907 227.567Z" fill="#738D9B"/>
<path d="M99.6137 216.467C99.6137 216.467 102.05 205.592 114.272 208.31C114.272 208.31 111.745 218.09 100.488 218.417L99.6137 216.467Z" fill="#738D9B"/>
<path d="M93.6242 205.626C93.6242 205.626 95.9846 194.352 107.777 197.215C107.777 197.215 104.239 207.966 94.4481 207.492L93.6242 205.626Z" fill="#738D9B"/>
<path d="M89.6463 195.254C89.6463 195.254 91.289 181.538 102.282 184.086C102.282 184.086 99.543 196.618 90.5056 197.199L89.6463 195.254Z" fill="#738D9B"/>
<path d="M85.8201 182.677C85.8201 182.677 87.8772 168.837 99.0376 172.361C99.0376 172.361 95.1557 185.524 86.6541 184.543L85.8201 182.677Z" fill="#738D9B"/>
<path d="M83.313 170.946C83.313 170.946 86.8512 157.044 95.4034 157.05C95.4034 157.05 91.7894 171.707 84.1218 173.668L83.313 170.946Z" fill="#738D9B"/>
<path d="M81.5844 159.434C81.5844 159.434 85.3904 142.714 92.3757 143.695C92.3757 143.695 89.7828 156.458 81.918 161.999L81.5844 159.434Z" fill="#738D9B"/>
<path d="M80.3562 145.668C80.3562 145.668 83.9803 131.721 90.8139 130.876C90.8139 130.876 88.4889 144.546 80.6291 149.242L80.3562 145.668Z" fill="#738D9B"/>
<path d="M79.0825 132.86C79.0825 132.86 83.7225 118.851 88.2412 118.344C88.2412 118.344 86.4873 132.014 79.6132 135.104L79.0825 132.86Z" fill="#738D9B"/>
<path d="M78.1069 120.92C78.1069 120.92 80.7353 105.807 85.2135 104.375C85.2135 104.375 85.0164 116.647 78.5972 122.019L78.1069 120.92Z" fill="#738D9B"/>
<path d="M75.8678 105.339C75.8678 105.339 78.764 93.2635 82.3628 91.2849C82.3628 91.2849 82.1202 105.378 76.8029 108.197L75.8678 105.339Z" fill="#738D9B"/>
<path d="M74.0987 95.1126L72.7087 74.0967C72.7087 74.0967 80.0883 89.6895 74.7305 98.8051L74.0987 95.1126Z" fill="#738D9B"/>
<path d="M68.0839 74.4237C68.0839 74.4237 62.6301 59.265 61.417 58.4589C61.417 58.4589 71.4249 68.0423 70.9194 80.8841L68.0839 74.4237Z" fill="#738D9B"/>
<path d="M114.029 238.142C114.029 238.142 105.31 237.246 106.043 250.899C106.043 250.899 113.928 251.987 116.096 240.578L114.029 238.142Z" fill="#738D9B"/>
<path d="M105.487 227.217C105.487 227.217 95.4691 227.606 96.763 241.558C96.763 241.558 105.229 242.878 107.559 229.771L105.487 227.217Z" fill="#738D9B"/>
<path d="M99.548 217.38C99.548 217.38 90.2882 213.011 84.89 225.537C84.89 225.537 93.427 229.14 100.417 219.336L99.548 217.38Z" fill="#738D9B"/>
<path d="M93.422 205.739C93.422 205.739 83.9398 201.071 78.8802 213.304C78.8802 213.304 88.7112 216.613 94.256 207.599L93.422 205.739Z" fill="#738D9B"/>
<path d="M89.7727 195.541C89.7727 195.541 80.4826 186.375 73.6641 196.342C73.6641 196.342 83.0907 203.805 90.2579 197.65L89.7727 195.541Z" fill="#738D9B"/>
<path d="M86.3154 182.327C86.3154 182.327 76.9646 172.947 70.2169 183.455C70.2169 183.455 80.6139 191.037 86.7096 184.351L86.3154 182.327Z" fill="#738D9B"/>
<path d="M84.2229 170.5C84.2229 170.5 76.8585 158.606 68.7713 161.672C68.7713 161.672 76.4238 174.277 84.2431 173.37L84.2229 170.5Z" fill="#738D9B"/>
<path d="M81.7916 159.35C81.7916 159.35 74.2554 144.287 67.7351 147.235C67.7351 147.235 73.1838 158.825 82.0545 161.92L81.7916 159.35Z" fill="#738D9B"/>
<path d="M80.806 144.862C80.806 144.862 73.194 133.08 66.5069 134.844C66.5069 134.844 72.8098 146.852 81.6248 148.334L80.806 144.862Z" fill="#738D9B"/>
<path d="M79.8356 132.556C79.8356 132.556 73.7955 119.229 69.2565 119.302C69.2565 119.302 72.3954 132.663 79.5374 134.85L79.8356 132.556Z" fill="#738D9B"/>
<path d="M78.3192 120.616C78.3192 120.616 71.6473 107.143 66.9871 107.312C66.9871 107.312 70.5656 118.925 78.1524 121.833L78.3192 120.616Z" fill="#738D9B"/>
<path d="M76.8888 106.117C76.8888 106.117 71.8596 94.9435 67.9777 93.8217C67.9777 93.8217 70.7729 107.577 76.4794 109.155L76.8888 106.117Z" fill="#738D9B"/>
<path d="M73.5326 94.7405L62.5695 77.5806C62.5695 77.5806 65.8195 94.842 75.1602 98.0327L73.5326 94.7405Z" fill="#738D9B"/>
<path d="M65.7639 75.9401C65.7639 75.9401 53.4259 67.1854 52.9204 65.7028C52.9204 65.7028 59.4912 78.4318 70.9447 80.2358L65.7639 75.9401Z" fill="#738D9B"/>
<path d="M64.8995 71.8024C64.8995 71.8024 50.565 57.5682 47.037 57.7373C47.037 57.7373 58.4601 57.8275 65.2331 71.0019L64.8995 71.8024Z" fill="#738D9B"/>
<path d="M76.8282 108.372L76.3227 108.467C72.9463 85.89 68.6955 72.6479 64.3588 71.171L64.5053 70.6072C69.0948 72.1631 73.3709 85.2135 76.8282 108.372Z" fill="#444053"/>
<path d="M82.5144 162.422L81.7562 162.523C81.5237 160.415 81.3216 158.25 81.1649 156.097C79.7951 137.353 78.0766 120.159 76.1559 107.295L76.5754 106.669C78.5012 119.556 80.5533 137.257 81.9281 156.029C82.0848 158.171 82.2819 160.319 82.5144 162.422Z" fill="#444053"/>
<path d="M144.321 262.636C144.184 262.574 130.557 256.475 116.101 241.153C107.636 232.184 100.498 221.777 94.9535 210.317C88.0238 195.992 83.4899 178.212 81.5743 160.838L82.383 161.221C86.6793 200.22 103.571 226.287 116.753 240.296C131.068 255.483 144.553 261.52 144.679 261.577L144.321 262.636Z" fill="#444053"/>
<g opacity="0.7">
<path opacity="0.7" d="M150.897 216.726C150.897 216.726 157.017 214.471 161.511 218.739C161.511 218.739 159.1 221.67 152.661 219.381L150.897 216.726Z" fill="#738D9B"/>
<path opacity="0.7" d="M150.209 216.737C150.209 216.737 147.005 222.978 149.86 228.734C149.86 228.734 152.893 226.687 152.19 219.195L150.209 216.737Z" fill="#738D9B"/>
<path opacity="0.7" d="M145.291 208.343C145.291 208.343 147.06 202.751 158.155 208.124C158.155 208.124 157.321 211.827 152.837 212.346C148.354 212.865 146.858 210.841 145.291 208.343Z" fill="#738D9B"/>
<path opacity="0.7" d="M144.589 208.09C144.589 208.09 139.281 208.372 140.707 221.772C140.707 221.772 144.129 221.941 145.862 217.301C147.596 212.662 146.287 210.48 144.589 208.09Z" fill="#738D9B"/>
<path opacity="0.7" d="M140.009 198.005C140.009 198.005 141.622 188.421 153.196 192.931C153.196 192.931 151.978 201.686 141.546 200.891L140.009 198.005Z" fill="#738D9B"/>
<path opacity="0.7" d="M134.773 185.039C134.773 185.039 138.968 174.892 150.007 181.611C150.007 181.611 147.823 190.828 136.082 188.162L134.773 185.039Z" fill="#738D9B"/>
<path opacity="0.7" d="M131.72 172.383C131.72 172.383 136.951 162.8 147.894 169.457C147.894 169.457 142.84 177.947 132.038 174.531L131.72 172.383Z" fill="#738D9B"/>
<path opacity="0.7" d="M128.894 160.043C128.894 160.043 134.151 150.076 144.659 156.711C144.659 156.711 138.417 165.799 129.198 162.101L128.894 160.043Z" fill="#738D9B"/>
<path opacity="0.7" d="M127.863 148.819C127.863 148.819 133.09 136.271 142.915 142.359C142.915 142.359 136.956 153.408 128.177 150.967L127.863 148.819Z" fill="#738D9B"/>
<path opacity="0.7" d="M127.57 135.543C127.57 135.543 133.226 123.012 142.936 130.081C142.936 130.081 135.723 141.355 127.868 137.601L127.57 135.543Z" fill="#738D9B"/>
<path opacity="0.7" d="M128.313 123.496C128.313 123.496 135.389 111.399 143.557 114.24C143.557 114.24 136.193 127.054 128.354 126.366L128.313 123.496Z" fill="#738D9B"/>
<path opacity="0.7" d="M129.749 111.946C129.749 111.946 137.836 97.2491 144.25 100.502C144.25 100.502 138.366 111.827 129.385 114.505L129.749 111.946Z" fill="#738D9B"/>
<path opacity="0.7" d="M132.22 98.3992C132.22 98.3992 139.408 86.2846 146.15 87.7447C146.15 87.7447 140.287 100.028 131.533 101.9L132.22 98.3992Z" fill="#738D9B"/>
<path opacity="0.7" d="M134.429 85.7434C134.429 85.7434 142.592 73.9051 147.04 74.9311C147.04 74.9311 141.718 87.4008 134.333 88.0604L134.429 85.7434Z" fill="#738D9B"/>
<path opacity="0.7" d="M136.678 74.0235C136.678 74.0235 143.219 60.4939 147.879 60.5841C147.879 60.5841 144.412 72.2364 136.855 75.2411L136.678 74.0235Z" fill="#738D9B"/>
<path opacity="0.7" d="M138.695 58.4025C138.695 58.4025 144.685 47.8382 148.647 47.1279C148.647 47.1279 144.654 60.5108 138.831 61.4523L138.695 58.4025Z" fill="#738D9B"/>
<path opacity="0.7" d="M139.736 48.0524L144.017 27.5213C144.017 27.5213 146.903 44.856 139.352 51.7617L139.736 48.0524Z" fill="#738D9B"/>
<path opacity="0.7" d="M139.524 26.3093C139.524 26.3093 138.356 10.0288 137.416 8.83368C137.416 8.83368 144.422 21.2808 140.51 33.401L139.524 26.3093Z" fill="#738D9B"/>
<path opacity="0.7" d="M139.701 197.852C139.701 197.852 131.614 194.109 128.677 207.391C128.677 207.391 135.91 211.044 141.025 200.868L139.701 197.852Z" fill="#738D9B"/>
<path opacity="0.7" d="M134.459 184.588C134.459 184.588 124.79 181.64 122.303 195.389C122.303 195.389 130.037 199.459 135.758 187.717L134.459 184.588Z" fill="#738D9B"/>
<path opacity="0.7" d="M131.417 173.229C131.417 173.229 123.744 165.985 115.242 176.154C115.242 176.154 122.43 182.429 131.725 175.377L131.417 173.229Z" fill="#738D9B"/>
<path opacity="0.7" d="M128.677 160.083C128.677 160.083 120.863 152.483 112.776 162.478C112.776 162.478 121.277 168.905 128.975 162.14L128.677 160.083Z" fill="#738D9B"/>
<path opacity="0.7" d="M127.914 149.141C127.914 149.141 121.484 137.302 112.316 144.552C112.316 144.552 119.326 154.812 127.813 151.317L127.914 149.141Z" fill="#738D9B"/>
<path opacity="0.7" d="M128.136 135.374C128.136 135.374 121.707 123.316 112.467 131.118C112.467 131.118 120.372 141.829 127.969 137.449L128.136 135.374Z" fill="#738D9B"/>
<path opacity="0.7" d="M129.289 123.384C129.289 123.384 125.432 109.589 116.895 109.854C116.895 109.854 120.838 124.432 128.546 126.157L129.289 123.384Z" fill="#738D9B"/>
<path opacity="0.7" d="M129.941 111.934C129.941 111.934 126.766 95.0506 119.756 95.7046C119.756 95.7046 121.869 108.58 129.511 114.482L129.941 111.934Z" fill="#738D9B"/>
<path opacity="0.7" d="M132.872 97.779C132.872 97.779 128.748 84.0015 121.889 83.4659C121.889 83.4659 124.704 97.0237 132.726 101.364L132.872 97.779Z" fill="#738D9B"/>
<path opacity="0.7" d="M135.228 85.7039C135.228 85.7039 133.014 70.9793 128.657 69.5418C128.657 69.5418 128.096 83.3363 134.328 87.801L135.228 85.7039Z" fill="#738D9B"/>
<path opacity="0.7" d="M136.961 73.8036C136.961 73.8036 134.186 58.7238 129.693 57.3427C129.693 57.3427 130.011 69.6151 136.481 74.9085L136.961 73.8036Z" fill="#738D9B"/>
<path opacity="0.7" d="M139.458 59.5074C139.458 59.5074 137.639 47.173 134.232 44.8109C134.232 44.8109 133.221 58.8704 138.275 62.2866L139.458 59.5074Z" fill="#738D9B"/>
<path opacity="0.7" d="M139.297 47.4887L133.403 27.465C133.403 27.465 131.887 45.0195 139.974 51.1698L139.297 47.4887Z" fill="#738D9B"/>
<path opacity="0.7" d="M136.896 26.9858C136.896 26.9858 127.429 14.5217 127.358 12.9489C127.358 12.9489 130.254 27.2846 140.686 32.8035L136.896 26.9858Z" fill="#738D9B"/>
<path opacity="0.7" d="M137.174 22.7522C137.174 22.7522 127.282 4.40275 123.87 3.38803C123.87 3.38803 134.747 7.27213 137.679 22.0813L137.174 22.7522Z" fill="#738D9B"/>
<path opacity="0.7" d="M138.811 61.5819L138.306 61.503C141.101 38.8354 140.58 24.776 136.83 21.9291L137.118 21.4612C141.096 24.4885 141.677 38.3619 138.811 61.5819Z" fill="#444053"/>
<path opacity="0.7" d="M129.814 115.136L129.061 114.984C129.405 112.893 129.789 110.762 130.214 108.648C133.908 90.2983 136.855 73.3188 138.447 60.3981L139.018 59.9358C137.421 72.9016 134.656 90.4618 130.962 108.839C130.537 110.908 130.153 113.028 129.814 115.136Z" fill="#444053"/>
<path opacity="0.7" d="M162.097 231.293C161.986 231.192 150.603 220.847 140.868 201.415C135.179 190.045 131.143 177.74 128.91 164.959C126.114 148.983 126.524 130.504 129.334 113.282L130.001 113.913C123.708 152.574 132.882 183.071 141.748 200.823C151.351 220.069 162.613 230.306 162.729 230.408L162.097 231.293Z" fill="#444053"/>
</g>
<path d="M512.702 425.115C512.702 425.115 491.331 423.677 493.853 440.381C493.853 440.381 493.348 443.329 495.749 444.671C495.749 444.671 495.789 443.43 497.942 443.853C498.709 443.997 499.487 444.039 500.262 443.977C501.311 443.895 502.308 443.436 503.103 442.669C503.103 442.669 509.108 439.901 511.443 428.954C511.443 428.954 513.172 426.564 513.106 425.949L509.497 427.64C509.497 427.64 510.73 430.543 509.76 432.951C509.76 432.951 509.644 427.747 508.951 427.877C508.81 427.905 507.076 428.886 507.076 428.886C507.076 428.886 509.199 433.96 507.581 437.613C507.581 437.613 508.188 431.383 506.399 429.247L503.871 430.904C503.871 430.904 506.348 436.124 504.67 440.381C504.67 440.381 505.1 433.847 503.336 431.304L501.036 433.306C501.036 433.306 503.366 438.453 501.946 441.982C501.946 441.982 501.759 434.377 500.54 433.802C500.54 433.802 498.519 435.781 498.22 436.62C498.22 436.62 499.813 440.352 498.827 442.325C498.827 442.325 498.22 437.252 497.72 437.252C497.72 437.252 495.698 440.606 495.506 442.889C495.506 442.889 495.592 439.467 497.235 436.914C496.079 437.156 495.012 437.772 494.167 438.684C494.167 438.684 494.48 436.31 497.705 436.102C497.705 436.102 499.363 433.559 499.808 433.402C499.808 433.402 496.568 433.103 494.606 434.072C494.606 434.072 496.335 431.818 500.399 432.849L502.668 430.78C502.668 430.78 498.407 430.132 496.603 430.848C496.603 430.848 498.68 428.869 503.28 430.312L505.752 428.666C505.752 428.666 502.122 427.792 499.959 428.103C499.959 428.103 502.244 426.727 506.479 428.215L508.249 427.33C508.249 427.33 505.585 426.766 504.806 426.654C504.028 426.541 503.988 426.321 503.988 426.321C505.672 426.008 507.401 426.222 508.982 426.941C508.982 426.941 512.767 425.38 512.702 425.115Z" fill="#738D9B"/>
<path opacity="0.1" d="M497.983 448.978C506.335 448.978 513.106 447.7 513.106 446.125C513.106 444.55 506.335 443.273 497.983 443.273C489.631 443.273 482.86 444.55 482.86 446.125C482.86 447.7 489.631 448.978 497.983 448.978Z" fill="#738D9B"/>
<path d="M553.693 381.104C553.693 381.104 541.648 380.298 543.079 389.712C543.005 390.19 543.068 390.68 543.26 391.115C543.452 391.549 543.761 391.905 544.145 392.131C544.145 392.131 544.171 391.432 545.384 391.669C545.816 391.753 546.255 391.777 546.693 391.742C547.283 391.697 547.844 391.438 548.29 391.003C548.29 391.003 551.677 389.442 552.996 383.269C552.996 383.269 553.971 381.922 553.931 381.578L551.909 382.547C551.909 382.547 552.602 384.182 552.056 385.541C552.056 385.541 551.99 382.604 551.601 382.677C551.52 382.677 550.544 383.241 550.544 383.241C550.544 383.241 551.737 386.093 550.838 388.162C550.838 388.162 551.181 384.65 550.17 383.449L548.74 384.38C548.74 384.38 550.135 387.322 549.19 389.724C549.19 389.724 549.432 386.043 548.437 384.605L547.143 385.733C547.143 385.733 548.452 388.636 547.648 390.626C547.648 390.626 547.542 386.341 546.854 386.014C546.364 386.479 545.924 387.007 545.545 387.587C545.545 387.587 546.445 389.696 545.889 390.806C545.889 390.806 545.545 387.948 545.267 387.937C545.267 387.937 544.135 389.831 544.019 391.127C544.073 389.924 544.41 388.758 544.994 387.745C544.342 387.882 543.739 388.229 543.261 388.743C543.261 388.743 543.438 387.407 545.283 387.288C545.283 387.288 546.218 385.851 546.465 385.766C546.465 385.766 544.641 385.597 543.534 386.144C543.534 386.144 544.509 384.881 546.799 385.451L548.083 384.289C548.083 384.289 545.677 383.923 544.661 384.329C544.661 384.329 545.833 383.201 548.426 384.024L549.822 383.094C548.748 382.832 547.649 382.726 546.551 382.779C546.551 382.779 547.84 382.006 550.226 382.846L551.237 382.344C551.237 382.344 549.721 382.018 549.296 381.967C548.871 381.916 548.831 381.775 548.831 381.775C549.782 381.599 550.758 381.72 551.651 382.125C551.651 382.125 553.729 381.256 553.693 381.104Z" fill="#738D9B"/>
<path opacity="0.1" d="M545.399 394.561C550.108 394.561 553.926 393.841 553.926 392.954C553.926 392.067 550.108 391.347 545.399 391.347C540.69 391.347 536.872 392.067 536.872 392.954C536.872 393.841 540.69 394.561 545.399 394.561Z" fill="#738D9B"/>
<path d="M482.582 389.278C482.582 389.278 468.035 388.298 469.754 399.668C469.664 400.244 469.741 400.837 469.973 401.362C470.204 401.886 470.579 402.316 471.042 402.588C471.042 402.588 471.042 401.748 472.534 402.024C473.056 402.122 473.587 402.152 474.116 402.115C474.828 402.057 475.505 401.744 476.046 401.224C476.046 401.224 480.135 399.341 481.728 391.883C481.728 391.883 482.905 390.259 482.855 389.842L480.403 391.009C480.403 391.009 481.242 392.988 480.58 394.628C480.58 394.628 480.504 391.082 480.029 391.167C479.933 391.167 478.756 391.849 478.756 391.849C478.756 391.849 480.196 395.293 479.109 397.791C479.109 397.791 479.524 393.552 478.306 392.097L476.577 393.225C476.577 393.225 478.26 396.776 477.118 399.679C477.118 399.679 477.411 395.231 476.213 393.478L474.646 394.837C474.646 394.837 476.233 398.338 475.268 400.745C475.268 400.745 475.142 395.57 474.308 395.175C474.308 395.175 472.938 396.522 472.731 397.075C472.731 397.075 473.812 399.617 473.14 400.959C473.14 400.959 472.731 397.515 472.392 397.498C472.392 397.498 471.027 399.781 470.876 401.348C470.944 399.9 471.35 398.497 472.053 397.278C471.267 397.445 470.541 397.864 469.966 398.484C469.966 398.484 470.178 396.866 472.392 396.725C472.392 396.725 473.519 394.995 473.822 394.888C473.822 394.888 471.619 394.685 470.284 395.344C470.284 395.344 471.457 393.816 474.222 394.51L475.768 393.106C475.768 393.106 472.872 392.661 471.639 393.151C471.639 393.151 473.054 391.804 476.188 392.785L477.871 391.657C477.871 391.657 475.399 391.06 473.923 391.274C473.923 391.274 475.48 390.344 478.361 391.353L479.569 390.801C479.569 390.801 477.76 390.406 477.229 390.344C476.698 390.282 476.673 390.118 476.673 390.118C477.82 389.905 478.998 390.052 480.075 390.541C480.075 390.541 482.627 389.459 482.582 389.278Z" fill="#738D9B"/>
<path opacity="0.1" d="M472.564 405.519C478.25 405.519 482.86 404.651 482.86 403.58C482.86 402.509 478.25 401.641 472.564 401.641C466.878 401.641 462.268 402.509 462.268 403.58C462.268 404.651 466.878 405.519 472.564 405.519Z" fill="#738D9B"/>
<path opacity="0.1" d="M360.925 395.175L310.224 417.053L236.115 449C233.32 443.21 229.196 435.29 224.09 425.887C206.541 393.444 177.498 342.985 151.65 298.642C122.516 248.678 97.4454 206.489 97.4454 206.489L115.596 200.62L263.854 152.664L360.925 395.175Z" fill="black"/>
<path d="M361.936 391.229L311.235 413.107L237.126 445.054C234.331 439.264 230.206 431.344 225.101 421.941C207.552 389.498 178.509 339.039 152.661 294.696C123.526 244.732 98.4563 202.543 98.4563 202.543L116.607 196.674L264.865 148.718L361.936 391.229Z" fill="white"/>
<path opacity="0.1" d="M361.936 391.229L311.235 413.107C282.917 419.686 254.02 422.65 225.101 421.941C207.552 389.498 178.509 339.039 152.661 294.696L116.607 196.674L264.865 148.718L361.936 391.229Z" fill="black"/>
<path d="M399.658 377.62C399.658 377.62 320.889 429.585 203.291 417.86L109.531 162.946L154.46 154.338L309.774 124.59L397.899 372.693L399.658 377.62Z" fill="#F4EEE3"/>
<path opacity="0.1" d="M397.899 372.694C379.349 373.708 357.898 373.612 336.305 370.743C312.943 367.688 289.47 361.363 269.303 349.784C252.461 340.104 238.061 329.591 225.501 316.969C192.844 284.205 172.631 237.336 154.48 154.338L309.794 124.59L397.899 372.694Z" fill="black"/>
<path d="M455.677 358.442C455.677 358.442 397.591 371.138 338.524 363.319C315.162 360.246 291.664 353.938 271.522 342.359C254.68 332.68 240.28 322.166 227.72 309.544C187.284 268.956 165.949 206.821 143.942 81.2843C143.942 81.2843 240.482 107.267 335.865 50.3524C335.865 50.3524 368.037 274.306 455.677 358.442Z" fill="white"/>
<path opacity="0.1" d="M338.524 363.319C315.162 360.246 291.664 353.938 271.522 342.359C254.68 332.68 240.28 322.166 227.72 309.544C262.136 306.427 267.084 285.439 267.084 285.439C292.599 330.605 338.524 363.319 338.524 363.319Z" fill="black"/>
<path opacity="0.3" d="M193.865 127.375C193.865 127.375 245.724 133.976 294.262 103.557L297.588 115.469C297.588 115.469 251.152 141.293 193.865 141.293V127.375Z" fill="#738D9B"/>
<path opacity="0.3" d="M193.865 186.166C193.865 186.166 245.42 181.527 302.814 150.589L304.755 155.539C304.755 155.539 283.632 185.185 193.865 192.931V186.166Z" fill="black"/>
<path opacity="0.3" d="M199.976 209.099C199.976 209.099 251.531 204.459 308.925 173.527L310.866 178.477C310.866 178.477 289.748 208.152 199.976 215.903V209.099Z" fill="black"/>
<path opacity="0.3" d="M205.566 233.818C205.566 233.818 257.122 229.179 314.515 198.247L316.456 203.197C316.456 203.197 295.308 232.855 205.566 240.623V233.818Z" fill="black"/>
<path opacity="0.3" d="M212.202 255.003C212.202 255.003 263.758 250.364 321.152 219.432L323.093 224.382C323.093 224.382 301.975 254.045 212.202 261.813V255.003Z" fill="black"/>
<path opacity="0.1" d="M218.318 277.959C218.318 277.959 269.874 273.319 327.268 242.387L329.209 247.337C329.209 247.337 308.086 277 218.318 284.763V277.959Z" fill="black"/>
<path opacity="0.3" d="M325.756 135.152L311.33 140.63L316.241 156.719L330.668 151.242L325.756 135.152Z" fill="#738D9B"/>
<path opacity="0.3" d="M333.963 159.089L319.537 164.566L324.448 180.656L338.875 175.179L333.963 159.089Z" fill="#738D9B"/>
<path opacity="0.3" d="M347.12 205.145L332.694 210.623L337.605 226.712L352.031 221.235L347.12 205.145Z" fill="#738D9B"/>
<path opacity="0.3" d="M354.669 229.864L340.243 235.342L345.154 251.432L359.58 245.954L354.669 229.864Z" fill="#738D9B"/>
<path opacity="0.3" d="M340.655 183.955L326.229 189.432L331.14 205.522L345.566 200.045L340.655 183.955Z" fill="#738D9B"/>
<path d="M491.498 253.436L490.957 252.873C492.352 252.557 493.666 252.416 493.666 252.416C493.666 252.416 488.88 233.103 480.808 226.659C476.815 223.474 473.489 218.169 471.138 213.62C466.854 205.394 462.041 197.524 456.738 190.073L455.283 188.027L454.656 187.136C455.53 185.659 456.602 184.255 456.48 182.542C456.478 182.53 456.478 182.519 456.48 182.508C456.486 182.418 456.486 182.327 456.48 182.237C456.466 182.025 456.432 181.816 456.379 181.611L456.324 181.707C455.641 179.497 453.018 178.522 451.072 177.304C446.523 174.446 444.577 168.2 443.607 162.394C442.849 157.884 442.222 152.81 439.058 149.907C437.036 148.041 434.286 147.427 432.249 145.572C430.318 143.813 429.242 141.147 428.029 138.695C426.007 134.608 423.338 130.802 419.815 128.361C416.292 125.92 411.819 124.979 407.952 126.614C406.471 127.245 405.127 128.226 403.661 128.908C400.022 130.599 395.852 130.374 392.248 132.161C387.81 134.36 384.924 139.219 382.286 143.83C380.921 146.215 378.778 149.704 377.56 153.216C377.56 153.092 377.56 152.974 377.56 152.85C376.975 154.397 376.657 156.053 376.62 157.732C376.596 158.446 376.666 159.16 376.827 159.851C377.373 162.106 379 163.352 380.931 164.22C381.043 164.938 381.191 165.647 381.376 166.346C382.25 169.553 383.804 172.479 385.907 174.874C388.01 177.269 390.599 179.064 393.456 180.106C393.623 180.174 393.795 180.219 393.962 180.275C394.102 180.722 394.305 181.14 394.563 181.516C396.175 183.77 399.41 183.128 401.513 181.487C401.599 181.425 401.68 181.346 401.761 181.279C401.775 181.598 401.805 181.916 401.852 182.231C401.897 182.502 401.932 182.795 401.983 183.038C403.878 194.431 408.731 200.581 408.731 200.581C408.731 200.581 409.181 201.336 409.914 202.588C409.529 208.873 412.102 214.601 415.074 219.026C412.512 220.678 406.987 223.914 403.57 223.643C403.57 223.643 391.015 225.453 389.559 224.545C389.357 224.421 389.165 224.59 388.983 224.974C385.526 222.623 374.471 215.847 373.526 224.545C372.672 232.437 382.746 233.446 387.542 233.486C387.325 235.797 387.204 237.646 387.204 237.646L407.831 236.073L418.572 234.309C417.384 236.062 416.045 237.624 414.736 238.385C414.736 238.385 405.026 247.151 403.348 247.23C403.11 247.23 403.034 247.495 403.07 247.917C398.986 247.917 386.284 248.577 389.807 256.469C393.006 263.623 402.013 258.673 406.087 255.939C407.048 258.019 407.866 259.649 407.866 259.649L424.511 246.429L428.115 243.047C429.336 242.981 430.543 242.721 431.698 242.274C431.698 242.325 431.734 242.376 431.749 242.421C431.878 242.836 431.974 243.262 432.037 243.695C433.048 250.172 429.651 265.28 429.651 265.28C429.651 265.28 422.181 286.527 425.769 289.425C429.358 292.322 426.705 304.55 426.705 304.55C427.331 305.725 428.052 306.834 428.858 307.864C429.238 308.354 429.659 308.801 430.116 309.201C429.95 309.707 429.811 310.225 429.702 310.751C429.153 313.356 429.361 316.088 430.293 318.553C432.76 325.227 431.259 334.901 431.259 334.901L426.416 371.386C424.091 370.991 421.089 370.664 419.972 371.386C418.258 372.462 418.82 377.891 422.797 380.225C421.59 381.256 420.191 381.975 418.703 382.328C415.165 383.23 412.678 383.805 411.041 384.154C410.935 384.154 402.549 382.091 400.396 383.455C398.243 384.819 399.279 392.385 405.405 394.239C411.4 396.049 433.756 398.704 440.195 397.622L440.604 397.543C446.078 396.336 441.272 388.314 440.665 387.339C440.625 387.012 440.589 386.668 440.549 386.296C440.463 385.462 440.387 384.504 440.331 383.478C446.437 384.103 452.462 384.408 455.227 383.946C455.358 383.946 455.48 383.9 455.591 383.872C460.438 382.801 456.192 375.709 455.646 374.853C455.623 374.635 455.598 374.403 455.571 374.159V374.097C455.571 373.934 455.535 373.759 455.52 373.59C455.505 373.421 455.52 373.302 455.48 373.15C455.439 372.998 455.48 372.88 455.444 372.739C455.424 372.46 455.404 372.173 455.384 371.876C455.384 371.758 455.384 371.634 455.384 371.51C455.384 371.284 455.358 371.059 455.348 370.828C455.348 370.703 455.348 370.579 455.348 370.45C455.348 370.112 455.348 369.762 455.318 369.413C455.318 369.317 455.318 369.221 455.318 369.125C455.318 368.843 455.318 368.561 455.318 368.268C455.318 368.133 455.318 367.998 455.318 367.857C455.318 367.558 455.318 367.259 455.318 366.955C455.318 366.853 455.318 366.757 455.318 366.656C455.318 366.278 455.348 365.889 455.368 365.5L455.399 365.083C455.399 364.796 455.439 364.519 455.465 364.226C455.465 364.085 455.465 363.944 455.505 363.803C455.545 363.409 455.591 363.014 455.641 362.614C455.641 362.496 455.677 362.377 455.692 362.259C455.737 361.96 455.783 361.656 455.833 361.351C455.833 361.205 455.884 361.052 455.914 360.9C455.975 360.573 456.041 360.246 456.111 359.919C456.111 359.829 456.147 359.739 456.167 359.649C456.258 359.254 456.359 358.865 456.465 358.476C456.501 358.341 456.541 358.206 456.582 358.07C456.667 357.777 456.758 357.507 456.854 357.202L456.976 356.841C457.112 356.458 457.259 356.08 457.41 355.714C457.451 355.618 457.496 355.522 457.542 355.426C457.668 355.133 457.805 354.863 457.946 354.558L458.118 354.226C458.31 353.865 458.507 353.504 458.725 353.16C464.285 344.321 465.75 327.274 465.614 323.564C465.477 319.855 466.276 312.16 467.272 311.021C467.939 310.26 471.821 304.257 474.141 299.69C474.56 298.856 474.924 298.072 475.212 297.373C476.86 296.736 477.952 296.246 477.952 296.246C477.371 293.879 477.092 291.433 477.123 288.979C477.163 284.182 478.346 277.863 483.229 272.733C490.437 265.156 491.442 257.647 491.538 254.761C491.538 254.558 491.538 254.378 491.538 254.226C491.523 253.696 491.498 253.436 491.498 253.436Z" fill="url(#paint0_linear)"/>
<path d="M472.291 300.716C470.335 304.615 468.139 308.357 465.72 311.918C464.77 313.045 464.007 320.661 464.138 324.32C464.269 327.978 462.879 344.845 457.567 353.583C452.255 362.321 454.984 377.423 454.984 377.423L446.508 380.738H436.323L429.308 378.398L427.458 372.705C427.458 372.705 429.924 372.282 436.05 370.658C437.749 370.273 439.289 369.278 440.434 367.825C441.579 366.373 442.268 364.543 442.394 362.614L446.695 329.111C446.695 329.111 447.964 320.655 445.871 314.804C445.282 313.157 445.037 311.382 445.156 309.614C445.275 307.845 445.755 306.131 446.558 304.6L446.695 304.364C446.695 304.364 453.332 298.518 460.094 294.859C466.084 291.635 472.159 290.101 473.883 295.823C474.105 296.562 473.378 298.461 472.291 300.716Z" fill="#A5636D"/>
<path opacity="0.05" d="M472.291 300.716C470.335 304.615 468.139 308.357 465.72 311.918C464.77 313.045 464.007 320.661 464.138 324.32C464.269 327.978 462.879 344.845 457.567 353.583C453.827 359.745 454.075 369.057 454.534 374.024C454.732 376.104 454.974 377.406 454.974 377.406L446.498 380.721H436.323L429.308 378.398L427.458 372.705C427.458 372.705 428.074 372.598 429.479 372.293C430.885 371.989 433.018 371.47 436.081 370.658C437.774 370.266 439.307 369.268 440.446 367.817C441.585 366.365 442.269 364.538 442.394 362.614L446.695 329.111C446.695 329.111 447.964 320.656 445.871 314.804C445.282 313.157 445.037 311.382 445.156 309.614C445.275 307.845 445.755 306.131 446.558 304.6L446.695 304.364C446.695 304.364 453.332 298.518 460.094 294.859C466.084 291.635 472.159 290.101 473.883 295.823C474.105 296.562 473.378 298.461 472.291 300.716Z" fill="black"/>
<path opacity="0.1" d="M454.984 377.429L446.508 380.744H436.323L429.308 378.398L427.458 372.705C427.458 372.705 428.074 372.598 429.479 372.293C429.38 373.328 429.624 374.367 430.165 375.215C430.706 376.062 431.507 376.659 432.416 376.893L436.399 377.045C436.96 377.045 437.526 377.079 438.082 377.079C443.685 377.083 449.249 376.052 454.55 374.03C454.752 376.11 454.984 377.429 454.984 377.429Z" fill="black"/>
<path d="M436.394 378.004L432.406 377.852C432.406 377.852 428.686 376.972 429.596 372.265C429.596 372.265 422.418 370.45 420.583 371.651C418.749 372.851 419.633 379.475 424.819 381.099C429.874 382.683 448.808 385.011 454.251 384.058L454.6 383.991C459.533 382.863 454.6 374.971 454.6 374.971C448.747 377.205 442.577 378.233 436.394 378.004Z" fill="#BEBED0"/>
<path d="M460.954 302.013C460.686 302.61 460.398 303.231 460.069 303.879C457.567 308.952 453.554 315.34 452.851 316.168C451.78 317.442 450.926 326.033 451.062 330.183C451.199 334.332 449.642 353.341 443.647 363.206C440.579 368.279 439.887 375.185 439.937 380.743C439.952 382.627 440.052 384.508 440.235 386.381C440.458 388.675 440.741 390.107 440.741 390.107L431.178 393.845H419.669L411.748 391.218L409.676 384.769C409.676 384.769 410.368 384.644 411.925 384.301C413.482 383.957 415.908 383.382 419.375 382.468C421.289 382.027 423.021 380.902 424.31 379.265C425.598 377.627 426.373 375.565 426.517 373.392L431.365 335.583C431.365 335.583 432.795 326.028 430.44 319.432C429.551 316.984 429.353 314.291 429.874 311.715C430.155 310.267 430.669 308.889 431.39 307.645C431.39 307.645 433.24 306.021 436.03 303.873C437.263 302.926 438.694 301.878 440.23 300.818C446.983 296.156 455.864 291.398 460.12 294.865C461.058 295.655 461.746 296.759 462.081 298.016C462.253 298.67 461.772 300.153 460.954 302.013Z" fill="#A5636D"/>
<path opacity="0.1" d="M440.715 390.113L431.152 393.85H419.669L411.748 391.223L409.676 384.774C409.676 384.774 410.368 384.65 411.925 384.306C411.826 385.07 411.896 385.85 412.131 386.577C412.365 387.303 412.756 387.954 413.27 388.472C414.067 389.228 415.075 389.65 416.12 389.667L419.744 389.797C420.376 389.797 421.013 389.836 421.645 389.836C427.97 389.835 434.251 388.669 440.235 386.386C440.458 388.681 440.715 390.113 440.715 390.113Z" fill="black"/>
<path d="M419.739 390.755L416.12 390.62C415.074 390.6 414.065 390.178 413.265 389.425C412.345 388.512 411.551 386.933 412.067 384.278C412.067 384.278 403.98 382.232 401.892 383.585C399.805 384.938 400.826 392.418 406.674 394.251C412.4 396.038 433.75 398.665 439.897 397.593L440.286 397.514C445.846 396.24 440.286 387.322 440.286 387.322C433.682 389.852 426.719 391.016 419.739 390.755Z" fill="#BEBED0"/>
<path opacity="0.1" d="M472.291 300.716C468.829 302.064 463.744 303.851 460.954 303.924C460.665 303.936 460.376 303.921 460.089 303.879C458.138 303.58 452.108 304.059 446.579 304.612C444.36 304.832 442.227 305.063 440.463 305.266C437.834 305.57 436.025 305.79 436.025 305.79V303.879C437.258 302.932 438.689 301.883 440.225 300.823C446.978 296.161 455.859 291.403 460.115 294.87C466.104 291.646 472.18 290.113 473.903 295.834C474.105 296.562 473.378 298.461 472.291 300.716Z" fill="black"/>
<path d="M488.905 256.255C488.809 259.113 487.849 266.532 480.964 274.029C472.19 283.585 475.91 297.306 475.91 297.306C475.91 297.306 465.447 301.889 460.933 302.013C460.645 302.025 460.356 302.01 460.069 301.968C457.36 301.545 446.604 302.656 440.422 303.355C437.794 303.659 435.984 303.879 435.984 303.879V263.29L484.472 250.161L488.865 255.037C488.903 255.442 488.916 255.849 488.905 256.255Z" fill="#F36F6E"/>
<g opacity="0.1">
<path opacity="0.1" d="M436.803 303.377L436.005 303.473V303.901C436.005 303.901 437.814 303.682 440.443 303.377C444.88 302.875 451.659 302.171 456.142 301.962C453.038 301.646 442.788 302.701 436.803 303.377Z" fill="black"/>
<path opacity="0.1" d="M488.885 255.06L484.492 250.178L481.566 250.995L485.246 255.082C485.27 255.49 485.27 255.898 485.246 256.306C485.15 259.158 484.189 266.582 477.305 274.08C468.53 283.63 472.25 297.357 472.25 297.357C472.25 297.357 463.592 301.145 458.634 301.928C459.107 301.927 459.579 301.955 460.049 302.013C460.335 302.057 460.624 302.074 460.913 302.064C465.427 301.94 475.89 297.357 475.89 297.357C475.89 297.357 472.149 283.63 480.944 274.08C487.828 266.582 488.789 259.158 488.885 256.306C488.911 255.891 488.911 255.475 488.885 255.06Z" fill="black"/>
</g>
<path d="M392.011 227.584C392.011 227.584 377.353 216.241 376.276 226.456C375.199 236.671 392.011 235.211 392.011 235.211V227.584Z" fill="#A5636D"/>
<path d="M417.283 220.063C417.283 220.063 409.352 225.915 404.965 225.554C404.965 225.554 392.976 227.347 391.581 226.451C390.186 225.554 389.337 239.416 389.337 239.416L409.049 237.866L421.685 235.713C421.685 235.713 428.003 231.417 428.003 227.713C428.003 224.01 417.283 220.063 417.283 220.063Z" fill="#C2D1D9"/>
<path opacity="0.05" d="M417.283 220.063C417.283 220.063 409.352 225.915 404.965 225.554C404.965 225.554 392.976 227.347 391.581 226.451C390.186 225.554 389.337 239.416 389.337 239.416L409.049 237.866L421.685 235.713C421.685 235.713 428.003 231.417 428.003 227.713C428.003 224.01 417.283 220.063 417.283 220.063Z" fill="black"/>
<path d="M405.653 249.58C405.653 249.58 387.825 248.757 391.818 258.036C395.811 267.315 409.322 256.052 409.322 256.052L405.653 249.58Z" fill="#A5636D"/>
<path d="M423.586 229.855C423.586 229.855 409.135 217.797 411.172 203.112C413.209 188.427 423.586 214.353 423.586 214.353V229.855Z" fill="#F36F6E"/>
<path d="M419.593 163.279C419.588 168.562 417.745 173.636 414.452 177.434C413.651 178.367 412.767 179.208 411.814 179.943C409.994 181.358 407.965 182.404 405.819 183.032C404.967 183.27 404.1 183.441 403.226 183.545C402.6 183.613 401.968 183.652 401.326 183.652C399.276 183.665 397.24 183.284 395.306 182.525C392.141 181.292 389.341 179.112 387.212 176.224C385.084 173.335 383.71 169.848 383.24 166.146C382.769 162.444 383.222 158.669 384.547 155.235C385.873 151.8 388.02 148.839 390.754 146.675C393.488 144.511 396.703 143.228 400.047 142.966C403.392 142.705 406.736 143.474 409.714 145.191C412.692 146.908 415.189 149.506 416.932 152.701C418.674 155.895 419.595 159.562 419.593 163.301V163.279Z" fill="#A5636D"/>
<path opacity="0.1" d="M488.905 256.255C487.267 256.593 485.245 257.202 485.245 258.149C485.245 259.744 462.409 268.341 462.409 268.341C462.409 268.341 463.264 270.562 460.984 274.384C458.704 278.207 440.144 300.17 440.144 300.17L440.205 300.823L440.443 303.355L441.575 315.452C441.575 315.452 434.438 312.588 432.153 312.904C431.415 313.011 430.637 312.481 429.874 311.72C430.156 310.273 430.669 308.894 431.39 307.65C431.39 307.65 433.24 306.027 436.03 303.879V263.29L484.518 250.161L488.91 255.037C488.933 255.443 488.931 255.85 488.905 256.255Z" fill="black"/>
<path d="M490.957 254.011C490.957 254.011 485.246 254.643 485.246 256.238C485.246 257.833 462.409 266.43 462.409 266.43C462.409 266.43 463.264 268.651 460.984 272.473C458.704 276.296 440.144 298.264 440.144 298.264L441.575 313.541C441.575 313.541 434.438 310.677 432.153 310.993C431.142 311.134 430.005 310.086 429.07 308.862C428.297 307.842 427.609 306.746 427.013 305.587C427.013 305.587 429.586 293.484 426.159 290.62C422.732 287.756 429.869 266.746 429.869 266.746C429.869 266.746 433.093 251.807 432.143 245.397C432.084 244.969 431.993 244.546 431.87 244.135C431.87 244.09 431.845 244.039 431.83 243.994C429.808 237.872 407.892 186.493 407.892 186.493C407.905 185.036 407.997 183.581 408.165 182.136C408.21 181.735 408.271 181.318 408.336 180.895C408.448 180.135 408.596 179.383 408.781 178.641C408.897 178.165 409.036 177.696 409.196 177.237C409.873 175.298 410.909 173.804 412.456 173.77C412.456 173.77 414.169 171.656 418.188 171.081C421.129 170.652 425.33 171.081 431.016 173.77C444.426 180.129 447.569 180.456 447.569 180.456L454.307 190.321L455.692 192.345C460.769 199.73 465.365 207.51 469.445 215.627C471.689 220.137 474.869 225.374 478.68 228.525C486.388 234.912 490.957 254.011 490.957 254.011Z" fill="#C2D1D9"/>
<path opacity="0.1" d="M440.928 217.2C440.928 217.2 459.983 222.454 467.368 235.701L440.928 217.2Z" fill="black"/>
<path opacity="0.1" d="M446.816 240.476C446.816 240.476 450.42 267.462 449.419 269.491C448.419 271.521 446.816 240.476 446.816 240.476Z" fill="black"/>
<path opacity="0.1" d="M445.527 254.327C444.142 256.351 438.517 271.994 438.517 271.994L440.139 298.264L441.57 313.541C441.57 313.541 434.438 310.678 432.153 310.993C431.142 311.134 430 310.086 429.07 308.862C430.551 299.916 433.72 281.194 434.291 280.834C435.044 280.354 438.901 265.314 439.103 261.103C439.305 256.892 444.663 247.506 444.663 247.506C444.663 247.506 446.922 252.303 445.527 254.327Z" fill="black"/>
<path opacity="0.1" d="M440.144 228.542C439.791 229.731 439.245 236.66 439.245 236.66C438.85 242.759 434.696 244.755 432.143 245.397C432.084 244.969 431.993 244.546 431.87 244.135C430.157 238.729 407.892 186.516 407.892 186.516C407.915 183.867 408.214 181.23 408.781 178.657C413.629 177.068 421.301 179.514 421.301 179.514C423.52 179.187 430.758 195.237 430.758 195.237C430.758 195.237 435.58 207.526 436.111 209.2C436.642 210.875 436.111 213.62 436.323 214.578C436.535 215.537 438.79 216.36 439.108 217.679C439.427 218.998 439.219 221.625 439.432 222.093C439.644 222.561 440.503 227.347 440.144 228.542Z" fill="black"/>
<path d="M438.431 227.584C438.077 228.779 437.531 235.701 437.531 235.701C437.208 240.775 434.276 243.03 431.83 243.994C430.727 244.433 429.572 244.69 428.403 244.755L424.961 248.092L409.064 261.143C409.064 261.143 403.14 248.926 404.748 248.859C406.355 248.791 415.625 240.11 415.625 240.11C418.461 238.419 421.301 232.781 422.62 229.884C422.545 229.538 422.487 229.188 422.449 228.835C421.877 223.429 409.888 202.729 409.888 202.729C409.888 202.729 405.253 196.646 403.449 185.377C403.398 185.118 403.363 184.853 403.317 184.582C403.266 184.232 403.236 183.878 403.226 183.522C403.009 179.187 405.84 177.609 409.196 177.237C410.949 177.082 412.711 177.142 414.452 177.417C416.187 177.661 417.905 178.038 419.593 178.545C421.028 178.331 424.566 184.988 426.886 189.707C428.135 192.266 429.035 194.262 429.035 194.262C429.035 194.262 433.857 206.556 434.387 208.225C434.918 209.894 434.387 212.65 434.6 213.603C434.812 214.556 437.066 215.39 437.385 216.709C437.703 218.028 437.496 220.655 437.708 221.123C437.92 221.591 438.79 226.389 438.431 227.584Z" fill="#C2D1D9"/>
<path opacity="0.1" d="M456.87 200.04C453.837 203.495 448.939 203.507 445.007 201.731C441.074 199.955 437.743 196.776 434.099 194.301C431.734 192.689 429.227 191.37 426.897 189.707C426.553 189.459 426.219 189.211 425.886 188.951C423.197 186.832 420.867 184.109 418.082 182.186C416.219 180.805 414.05 180.024 411.814 179.932C410.785 179.921 409.766 180.16 408.827 180.631C408.653 180.709 408.484 180.802 408.321 180.907C407.404 181.493 406.556 182.203 405.794 183.021C405.006 183.81 404.252 184.65 403.424 185.388C403.373 185.129 403.338 184.864 403.292 184.594C403.241 184.243 403.211 183.889 403.201 183.534C402.574 183.601 401.943 183.641 401.301 183.641C399.251 183.654 397.214 183.273 395.281 182.513C395.281 182.429 395.281 182.344 395.235 182.26C394.553 178.246 393.32 173.995 390.423 171.741C388.745 170.433 386.066 169.897 383.741 168.922C382.936 165.794 382.814 162.496 383.385 159.304C383.957 156.113 385.206 153.121 387.028 150.578C388.85 148.036 391.191 146.017 393.856 144.691C396.521 143.365 399.432 142.77 402.345 142.957C405.259 143.144 408.089 144.106 410.601 145.763C413.112 147.421 415.231 149.725 416.78 152.483C418.329 155.242 419.262 158.374 419.503 161.617C419.743 164.861 419.284 168.121 418.162 171.126C421.104 170.698 425.304 171.126 430.991 173.815C444.4 180.174 447.544 180.501 447.544 180.501L454.282 190.366C453.554 191.606 452.73 192.83 452.654 194.278C452.528 196.934 454.848 198.788 456.87 200.04Z" fill="black"/>
<path d="M390.444 169.818C393.34 172.073 394.573 176.318 395.261 180.326C395.473 181.578 395.675 182.897 396.362 183.889C397.879 186.11 400.992 185.484 402.999 183.889C405.006 182.294 406.588 179.875 408.827 178.748C411.799 177.248 415.297 178.342 418.082 180.287C420.867 182.232 423.197 184.954 425.886 187.051C428.489 189.098 431.39 190.558 434.099 192.401C437.743 194.876 441.074 198.072 445.007 199.831C448.939 201.59 453.852 201.584 456.865 198.14C454.843 196.888 452.523 195.039 452.679 192.356C452.836 189.673 455.636 187.672 455.449 184.921C455.262 182.17 452.361 181.093 450.279 179.74C445.932 176.921 444.077 170.72 443.147 164.998C442.424 160.522 441.827 155.522 438.83 152.647C436.894 150.798 434.281 150.195 432.33 148.363C430.485 146.621 429.459 143.988 428.287 141.558C426.351 137.516 423.808 133.756 420.447 131.338C417.086 128.92 412.81 127.956 409.12 129.613C407.705 130.239 406.416 131.208 405.021 131.868C401.543 133.559 397.565 133.317 394.123 135.081C389.883 137.257 387.128 142.06 384.606 146.621C382.473 150.527 378.242 157.416 379.44 162.49C380.633 167.648 387.3 167.372 390.444 169.818Z" fill="#4C3E42"/>
<g opacity="0.1">
<path opacity="0.1" d="M455.444 184.61C455.429 184.401 455.397 184.193 455.348 183.99C454.58 185.338 453.625 186.646 453.534 188.224C453.514 188.589 453.541 188.955 453.614 189.312C454.469 187.796 455.566 186.369 455.444 184.61Z" fill="black"/>
<path opacity="0.1" d="M445.861 195.716C441.929 193.957 438.603 190.761 434.958 188.286C432.244 186.443 429.343 184.983 426.74 182.936C424.051 180.817 421.721 178.094 418.936 176.171C416.151 174.249 412.658 173.133 409.681 174.627C407.442 175.754 405.865 178.15 403.853 179.774C401.841 181.397 398.758 182.029 397.217 179.774C396.529 178.781 396.327 177.462 396.115 176.211C395.432 172.203 394.194 167.958 391.303 165.703C388.154 163.251 381.487 163.527 380.279 158.374C380.077 157.453 380.024 156.498 380.122 155.556C379.349 157.856 378.95 160.167 379.42 162.18C380.633 167.355 387.3 167.078 390.444 169.508C393.34 171.763 394.573 176.014 395.261 180.022C395.473 181.273 395.675 182.592 396.357 183.584C397.874 185.806 400.987 185.18 402.999 183.556C405.011 181.933 406.583 179.543 408.827 178.415C411.799 176.921 415.297 178.015 418.082 179.96C420.867 181.905 423.197 184.627 425.886 186.724C428.489 188.776 431.39 190.231 434.099 192.074C437.743 194.555 441.074 197.751 445.007 199.51C448.939 201.269 453.852 201.257 456.865 197.819C456.085 197.352 455.346 196.806 454.656 196.189C451.916 197.311 448.646 196.962 445.861 195.716Z" fill="black"/>
</g>
<path d="M356.402 234.275L396.838 217.431C397.31 217.233 397.814 217.141 398.318 217.16C398.823 217.18 399.32 217.31 399.779 217.543C400.239 217.777 400.653 218.109 400.997 218.521C401.341 218.933 401.609 219.417 401.786 219.945C401.962 220.473 402.044 221.034 402.026 221.597C402.008 222.16 401.891 222.714 401.681 223.226C401.471 223.739 401.173 224.2 400.803 224.584C400.434 224.968 400 225.267 399.527 225.464L359.091 242.314L350.427 241.344L356.402 234.275Z" fill="#374750"/>
<path opacity="0.1" d="M400.558 218.592C400.914 219.659 400.877 220.84 400.453 221.876C400.03 222.912 399.254 223.718 398.298 224.117L357.862 240.961L351.352 240.234L350.417 241.361L359.081 242.331L399.516 225.481C399.99 225.284 400.424 224.985 400.793 224.601C401.163 224.217 401.461 223.756 401.671 223.243C401.881 222.731 401.998 222.177 402.016 221.614C402.034 221.051 401.952 220.49 401.776 219.962C401.479 219.073 400.926 218.32 400.204 217.82C400.343 218.064 400.461 218.323 400.558 218.592Z" fill="white"/>
<path d="M356.402 234.275L359.096 242.314L351.984 241.519L350.427 241.344L352.555 238.83L356.402 234.275Z" fill="#EFC8C4"/>
<path d="M352.55 238.83C352.717 238.966 352.858 239.139 352.965 239.337C353.032 239.454 353.067 239.59 353.067 239.729C353.067 239.868 353.032 240.004 352.965 240.121C352.848 240.246 352.715 240.351 352.57 240.431C352.406 240.552 352.269 240.712 352.169 240.901C352.069 241.089 352.01 241.301 351.994 241.519L350.437 241.344L352.55 238.83Z" fill="#727A9C"/>
<path d="M321.106 147.173L314.288 143.464C314.19 143.411 314.104 143.337 314.032 143.247C313.96 143.156 313.905 143.051 313.87 142.937C313.835 142.823 313.82 142.702 313.827 142.582C313.833 142.461 313.861 142.343 313.909 142.235L314.631 140.577C314.678 140.468 314.744 140.371 314.825 140.291C314.906 140.21 315.001 140.149 315.103 140.109C315.206 140.07 315.314 140.054 315.422 140.061C315.531 140.069 315.636 140.101 315.733 140.155L320.328 142.652L325.125 131.682C325.221 131.463 325.39 131.295 325.596 131.215C325.803 131.134 326.029 131.148 326.226 131.253L327.712 132.065C327.81 132.117 327.898 132.191 327.97 132.281C328.042 132.372 328.097 132.477 328.132 132.591C328.168 132.706 328.182 132.827 328.175 132.947C328.168 133.068 328.14 133.186 328.092 133.294L322.208 146.75C322.161 146.859 322.095 146.956 322.013 147.036C321.932 147.116 321.838 147.177 321.736 147.216C321.633 147.255 321.525 147.272 321.417 147.264C321.309 147.257 321.204 147.226 321.106 147.173Z" fill="#3ACC6C"/>
<path d="M336.002 194.622L329.183 190.913C329.086 190.86 328.999 190.786 328.927 190.696C328.856 190.605 328.801 190.5 328.766 190.386C328.73 190.272 328.716 190.151 328.722 190.031C328.729 189.91 328.757 189.792 328.804 189.684L329.527 188.027C329.624 187.807 329.795 187.639 330.002 187.56C330.21 187.481 330.437 187.497 330.634 187.604L335.223 190.101L340.015 179.12C340.111 178.901 340.281 178.733 340.487 178.653C340.693 178.572 340.92 178.586 341.117 178.691L342.598 179.503C342.696 179.555 342.783 179.629 342.855 179.719C342.927 179.809 342.983 179.914 343.019 180.029C343.054 180.143 343.069 180.264 343.063 180.384C343.057 180.505 343.029 180.623 342.982 180.732L337.099 194.188C337.001 194.407 336.83 194.573 336.623 194.652C336.416 194.732 336.189 194.717 335.992 194.611L336.002 194.622Z" fill="#3ACC6C"/>
<path d="M329.315 171.233L322.496 167.524C322.3 167.417 322.149 167.228 322.077 166.998C322.005 166.767 322.018 166.515 322.112 166.295L322.84 164.638C322.887 164.529 322.953 164.431 323.034 164.351C323.115 164.27 323.209 164.209 323.312 164.169C323.414 164.13 323.523 164.114 323.631 164.122C323.739 164.129 323.845 164.161 323.942 164.215L328.536 166.712L333.333 155.725C333.38 155.616 333.447 155.519 333.528 155.44C333.609 155.36 333.703 155.298 333.805 155.259C333.908 155.22 334.016 155.203 334.124 155.211C334.232 155.218 334.338 155.249 334.435 155.302L335.921 156.108C336.117 156.217 336.266 156.408 336.337 156.639C336.408 156.87 336.395 157.123 336.3 157.343L330.412 170.81C330.364 170.919 330.298 171.016 330.217 171.096C330.136 171.176 330.041 171.237 329.939 171.276C329.837 171.316 329.729 171.332 329.621 171.325C329.513 171.317 329.407 171.286 329.31 171.233H329.315Z" fill="#3ACC6C"/>
<path d="M342.472 216.044L335.653 212.335C335.556 212.282 335.469 212.208 335.397 212.118C335.326 212.027 335.27 211.922 335.235 211.808C335.2 211.694 335.185 211.573 335.192 211.453C335.199 211.332 335.227 211.214 335.274 211.106L335.997 209.448C336.044 209.34 336.11 209.243 336.191 209.163C336.272 209.083 336.367 209.022 336.469 208.982C336.571 208.943 336.68 208.927 336.788 208.934C336.896 208.942 337.001 208.973 337.099 209.026L341.693 211.523L346.49 200.553C346.587 200.333 346.757 200.165 346.965 200.085C347.172 200.005 347.399 200.019 347.597 200.124L349.078 200.936C349.175 200.988 349.263 201.062 349.335 201.152C349.407 201.243 349.462 201.348 349.498 201.462C349.533 201.577 349.547 201.698 349.54 201.818C349.533 201.939 349.505 202.057 349.457 202.165L343.578 215.621C343.481 215.84 343.31 216.006 343.103 216.085C342.896 216.165 342.669 216.15 342.472 216.044Z" fill="#3ACC6C"/>
<path d="M87.5538 361.689C87.5538 361.689 90.5612 366.075 86.1688 372.693C81.7765 379.312 78.1474 384.904 79.598 389.042C79.598 389.042 86.2295 376.747 91.6226 376.578C97.0158 376.408 93.4877 369.086 87.5538 361.689Z" fill="#F4EEE3"/>
<path opacity="0.1" d="M87.5538 361.689C87.817 362.113 88.0247 362.576 88.1704 363.065C93.4321 369.965 96.2576 376.403 91.1778 376.594C86.462 376.741 80.806 386.144 79.4565 388.517C79.4972 388.709 79.5495 388.897 79.6132 389.081C79.6132 389.081 86.2446 376.786 91.6378 376.617C97.0309 376.448 93.4877 369.086 87.5538 361.689Z" fill="black"/>
<path d="M93.144 367.282C93.144 368.821 92.9873 370.1 92.7952 370.1C92.6032 370.1 92.4515 368.849 92.4515 367.282C92.4515 365.714 92.6436 366.464 92.8357 366.464C93.0278 366.464 93.144 365.737 93.144 367.282Z" fill="#FFD037"/>
<path d="M95.0597 369.119C93.8466 369.858 92.7851 370.309 92.6942 370.117C92.6032 369.926 93.513 369.181 94.716 368.426C95.9189 367.671 95.4489 368.223 95.5398 368.426C95.6308 368.629 96.2778 368.381 95.0597 369.119Z" fill="#FFD037"/>
<path d="M71.6725 361.689C71.6725 361.689 68.6702 366.075 73.0625 372.693C77.4549 379.312 81.0789 384.904 79.6333 389.042C79.6333 389.042 73.0069 376.747 67.6087 376.578C62.2105 376.408 65.7386 369.086 71.6725 361.689Z" fill="#F4EEE3" fill-opacity="0.8"/>
<path opacity="0.1" d="M71.6726 361.689C71.4123 362.114 71.2065 362.577 71.061 363.065C65.7942 369.965 62.9738 376.403 68.0536 376.594C72.7643 376.741 78.4203 386.144 79.7749 388.517C79.7325 388.709 79.6785 388.897 79.6132 389.081C79.6132 389.081 72.9867 376.735 67.5784 376.566C62.1701 376.397 65.7386 369.086 71.6726 361.689Z" fill="black"/>
<path d="M66.0873 367.282C66.0873 368.821 66.239 370.1 66.431 370.1C66.6231 370.1 66.7798 368.849 66.7798 367.282C66.7798 365.714 66.5877 366.464 66.3957 366.464C66.2036 366.464 66.0873 365.737 66.0873 367.282Z" fill="#FFD037"/>
<path d="M64.1666 369.119C65.3848 369.858 66.4412 370.309 66.5321 370.117C66.6231 369.926 65.7133 369.181 64.5103 368.426C63.3074 367.671 63.7724 368.223 63.6814 368.426C63.5904 368.629 62.9536 368.381 64.1666 369.119Z" fill="#FFD037"/>
<path opacity="0.1" d="M79.6182 422.572C96.9786 422.572 111.052 420.165 111.052 417.194C111.052 414.224 96.9786 411.816 79.6182 411.816C62.2578 411.816 48.1844 414.224 48.1844 417.194C48.1844 420.165 62.2578 422.572 79.6182 422.572Z" fill="#738D9B"/>
<path d="M95.7926 383.122L95.6409 384.492L95.4337 386.426L95.3427 387.232L95.1355 389.166L95.0395 389.972L94.8322 391.905L92.4263 413.891C92.209 415.853 89.333 417.386 85.8555 417.386H73.3658C69.8934 417.386 67.0225 415.853 66.795 413.891L64.3891 391.905L64.1768 389.972L64.0909 389.166L63.8735 387.232L63.7876 386.426L63.5753 384.492L63.4237 383.122C63.3074 381.995 64.8591 381.07 66.8253 381.07H92.396C94.3672 381.07 95.9189 382.012 95.7926 383.122Z" fill="#505D68"/>
<path d="M95.646 384.492L95.4337 386.426H63.7977L63.5905 384.492H95.646Z" fill="#9D9CB5"/>
<path d="M95.3478 387.232L95.1355 389.166H64.101L63.8887 387.232H95.3478Z" fill="#9D9CB5"/>
<path d="M95.0445 389.972L94.8322 391.905H64.3992L64.1869 389.972H95.0445Z" fill="#9D9CB5"/>
</g>
<defs>
<linearGradient id="paint0_linear" x1="433.594" y1="397.841" x2="433.594" y2="125.78" gradientUnits="userSpaceOnUse">
<stop stop-color="#808080" stop-opacity="0.25"/>
<stop offset="0.54" stop-color="#808080" stop-opacity="0.12"/>
<stop offset="1" stop-color="#808080" stop-opacity="0.1"/>
</linearGradient>
<clipPath id="clip0">
<rect width="584" height="449" fill="white"/>
</clipPath>
</defs>
</svg>
