<svg width="671" height="509" viewBox="0 0 671 509" fill="none" xmlns="http://www.w3.org/2000/svg">
<g clip-path="url(#clip0)">
<path opacity="0.1" d="M630.864 276.298C607.275 308.69 615.06 354.926 628.695 391.762C633.263 404.093 638.451 417.136 636.083 430.552C633.19 446.953 619.597 459.242 605.467 465.935C579.709 478.133 549.28 476.186 526.239 460.816C506.355 447.55 492.358 425.505 472.088 412.873C438.165 391.738 394.125 401.181 356.369 417.317C329.658 428.731 300.399 443.432 274.369 432.892C256.051 425.475 243.717 406.596 237.228 386.414C234.095 376.67 231.901 366.093 225.659 358.466C221.947 353.931 217.043 350.772 211.999 348.131C165.971 324.011 106.765 339.086 62.1405 312.175C32.0132 294.001 13.262 258.733 5.47111 221.655C-2.3198 184.578 -0.391653 145.439 2.71145 106.969C4.91677 79.6294 8.4055 50.415 24.8309 28.9308C42.2022 6.21652 71.3172 -2.81009 97.3532 0.747493C123.389 4.30508 146.732 18.7766 167.152 36.052C192.694 57.6025 216.193 84.6583 247.959 92.8407C269.597 98.4122 292.584 94.4688 315.077 92.7261C352.676 89.8198 390.142 93.1663 427.379 96.947C463.026 100.565 498.919 104.605 532.68 116.465C556.571 124.859 575.509 140.723 598.002 151.565C612.662 158.632 628.792 160.272 642.59 169.401C659.618 180.647 675.007 200.569 670.012 224.477C665.294 247.204 643.397 259.107 630.864 276.298Z" fill="#738D9B"/>
<g opacity="0.5">
<path opacity="0.5" d="M515.17 424.04C515.17 424.04 517.158 365.093 549.027 331.784C562.403 317.807 571.188 300.055 573.514 280.844C574.602 271.727 574.852 262.529 574.261 253.366" stroke="#535461" stroke-width="2" stroke-miterlimit="10"/>
<path opacity="0.5" d="M594.224 232.268C592.042 238.853 573.81 253.975 573.81 253.975C573.81 253.975 568.224 230.936 570.405 224.357C570.924 222.792 571.745 221.344 572.823 220.097C573.901 218.85 575.213 217.827 576.686 217.087C578.159 216.348 579.763 215.906 581.406 215.786C583.049 215.667 584.7 215.873 586.264 216.392C587.828 216.911 589.274 217.733 590.521 218.811C591.767 219.89 592.789 221.203 593.528 222.677C594.268 224.151 594.709 225.756 594.829 227.4C594.948 229.045 594.742 230.697 594.224 232.262V232.268Z" fill="#738D9B"/>
<path opacity="0.5" d="M601.822 275.261C596.399 279.602 572.9 282.388 572.9 282.388C572.9 282.388 580.733 260.011 586.156 255.676C587.431 254.565 588.918 253.723 590.526 253.202C592.135 252.681 593.832 252.49 595.517 252.642C597.201 252.793 598.837 253.284 600.327 254.085C601.816 254.885 603.129 255.979 604.186 257.3C605.242 258.621 606.021 260.142 606.476 261.772C606.93 263.402 607.05 265.107 606.83 266.784C606.609 268.462 606.051 270.078 605.191 271.534C604.33 272.991 603.184 274.258 601.822 275.261Z" fill="#738D9B"/>
<path opacity="0.5" d="M580.323 337.271C573.466 338.284 551.756 328.829 551.756 328.829C551.756 328.829 569.797 313.465 576.654 312.452C578.284 312.211 579.945 312.294 581.543 312.695C583.141 313.097 584.645 313.809 585.968 314.792C587.291 315.775 588.407 317.009 589.254 318.424C590.1 319.839 590.66 321.407 590.901 323.038C591.142 324.669 591.059 326.332 590.658 327.931C590.257 329.53 589.545 331.035 588.563 332.359C587.58 333.683 586.347 334.8 584.933 335.647C583.52 336.494 581.953 337.054 580.323 337.295V337.271Z" fill="#738D9B"/>
<path opacity="0.5" d="M553.492 380.529C546.906 382.688 523.907 377.02 523.907 377.02C523.907 377.02 539.097 358.828 545.683 356.669C548.844 355.629 552.289 355.889 555.26 357.392C558.23 358.894 560.482 361.516 561.521 364.68C562.559 367.844 562.3 371.291 560.798 374.263C559.297 377.236 556.678 379.489 553.516 380.529H553.492Z" fill="#738D9B"/>
<path opacity="0.5" d="M547.466 275.363C550.666 281.514 571.092 293.555 571.092 293.555C571.092 293.555 572.948 269.924 569.748 263.768C568.988 262.305 567.947 261.007 566.685 259.947C565.423 258.887 563.965 258.086 562.394 257.59C560.823 257.094 559.17 256.912 557.529 257.056C555.887 257.199 554.29 257.665 552.829 258.425C551.367 259.186 550.07 260.228 549.011 261.491C547.952 262.753 547.151 264.213 546.655 265.785C546.16 267.357 545.978 269.012 546.122 270.654C546.265 272.297 546.73 273.895 547.49 275.357L547.466 275.363Z" fill="#738D9B"/>
<path opacity="0.5" d="M516.73 326.345C521.623 331.259 544.689 336.638 544.689 336.638C544.689 336.638 539.392 313.532 534.506 308.618C532.157 306.259 528.969 304.93 525.641 304.924C522.314 304.918 519.121 306.234 516.764 308.584C514.406 310.934 513.079 314.125 513.073 317.455C513.066 320.785 514.382 323.98 516.73 326.339V326.345Z" fill="#738D9B"/>
<path opacity="0.5" d="M493.653 380.004C497.642 385.672 519.472 394.88 519.472 394.88C519.472 394.88 518.158 371.213 514.164 365.539C513.239 364.132 512.042 362.926 510.642 361.992C509.243 361.058 507.67 360.415 506.017 360.101C504.364 359.788 502.665 359.811 501.021 360.168C499.377 360.525 497.821 361.209 496.447 362.18C495.073 363.151 493.907 364.388 493.021 365.819C492.134 367.249 491.544 368.844 491.285 370.508C491.027 372.171 491.106 373.87 491.516 375.502C491.927 377.135 492.662 378.668 493.677 380.01L493.653 380.004Z" fill="#738D9B"/>
<path opacity="0.5" d="M522.171 399.643C522.171 399.643 504.095 373.329 507.264 348.571C508.661 338.195 506.657 327.646 501.552 318.506C499.095 314.187 496.247 310.102 493.044 306.302" stroke="#535461" stroke-width="2" stroke-miterlimit="10"/>
<path opacity="0.5" d="M494.954 290.685C496.117 294.254 493.044 306.712 493.044 306.712C493.044 306.712 483.205 298.475 482.042 294.912C481.483 293.198 481.626 291.332 482.442 289.725C483.257 288.118 484.677 286.9 486.389 286.34C488.102 285.781 489.966 285.925 491.572 286.74C493.178 287.556 494.395 288.977 494.954 290.691V290.685Z" fill="#738D9B"/>
<path opacity="0.5" d="M512.085 306.959C511.127 310.577 501.775 319.375 501.775 319.375C501.775 319.375 497.991 307.11 498.949 303.48C499.41 301.737 500.544 300.249 502.102 299.342C503.66 298.436 505.514 298.186 507.255 298.647C508.997 299.109 510.485 300.244 511.39 301.802C512.296 303.361 512.546 305.216 512.085 306.959Z" fill="#738D9B"/>
<path opacity="0.5" d="M522.653 340.883C519.996 343.53 507.493 346.394 507.493 346.394C507.493 346.394 510.41 333.894 513.073 331.247C513.706 330.618 514.457 330.119 515.282 329.78C516.108 329.441 516.992 329.268 517.885 329.271C518.777 329.273 519.66 329.452 520.484 329.796C521.307 330.141 522.055 330.644 522.684 331.277C523.313 331.911 523.811 332.662 524.15 333.488C524.489 334.315 524.662 335.199 524.659 336.092C524.656 336.986 524.478 337.869 524.134 338.693C523.789 339.517 523.286 340.266 522.653 340.895V340.883Z" fill="#738D9B"/>
<path opacity="0.5" d="M524.877 368.361C522.702 371.418 510.838 376.344 510.838 376.344C510.838 376.344 511.603 363.531 513.778 360.474C514.295 359.746 514.95 359.127 515.705 358.653C516.461 358.178 517.302 357.858 518.182 357.709C519.062 357.56 519.962 357.586 520.831 357.785C521.701 357.984 522.523 358.353 523.25 358.87C523.977 359.387 524.595 360.042 525.07 360.798C525.544 361.555 525.864 362.397 526.013 363.277C526.162 364.157 526.136 365.058 525.937 365.928C525.738 366.799 525.369 367.621 524.853 368.349L524.877 368.361Z" fill="#738D9B"/>
<path opacity="0.5" d="M488.447 324.488C491.815 326.14 504.571 324.814 504.571 324.814C504.571 324.814 497.78 313.924 494.412 312.278C492.794 311.486 490.928 311.37 489.225 311.955C487.521 312.54 486.12 313.779 485.329 315.398C484.538 317.017 484.422 318.885 485.007 320.589C485.591 322.294 486.829 323.696 488.447 324.488Z" fill="#738D9B"/>
<path opacity="0.5" d="M491.454 356.597C495.165 357.163 506.939 352.08 506.939 352.08C506.939 352.08 497.202 343.723 493.496 343.18C491.715 342.909 489.9 343.357 488.449 344.426C486.998 345.495 486.03 347.096 485.76 348.879C485.489 350.661 485.936 352.478 487.004 353.93C488.072 355.382 489.673 356.35 491.454 356.621V356.597Z" fill="#738D9B"/>
<path opacity="0.5" d="M498.648 387.391C502.209 388.597 514.676 385.582 514.676 385.582C514.676 385.582 506.493 375.699 502.932 374.511C501.222 373.943 499.357 374.077 497.746 374.885C496.135 375.693 494.911 377.108 494.343 378.82C493.775 380.531 493.909 382.398 494.717 384.01C495.524 385.622 496.938 386.847 498.648 387.415V387.391Z" fill="#738D9B"/>
<path opacity="0.5" d="M494.954 290.685C496.117 294.254 493.044 306.712 493.044 306.712C493.044 306.712 483.205 298.475 482.042 294.912C481.483 293.198 481.626 291.332 482.442 289.725C483.257 288.118 484.677 286.9 486.389 286.34C488.102 285.781 489.966 285.925 491.572 286.74C493.178 287.556 494.395 288.977 494.954 290.691V290.685Z" fill="white"/>
<path opacity="0.5" d="M512.085 306.959C511.127 310.577 501.775 319.375 501.775 319.375C501.775 319.375 497.991 307.11 498.949 303.48C499.41 301.737 500.544 300.249 502.102 299.342C503.66 298.436 505.514 298.186 507.255 298.647C508.997 299.109 510.485 300.244 511.39 301.802C512.296 303.361 512.546 305.216 512.085 306.959Z" fill="white"/>
<path opacity="0.5" d="M522.653 340.883C519.996 343.53 507.493 346.394 507.493 346.394C507.493 346.394 510.41 333.894 513.073 331.247C513.706 330.618 514.457 330.119 515.282 329.78C516.108 329.441 516.992 329.268 517.885 329.271C518.777 329.273 519.66 329.452 520.484 329.796C521.307 330.141 522.055 330.644 522.684 331.277C523.313 331.911 523.811 332.662 524.15 333.488C524.489 334.315 524.662 335.199 524.659 336.092C524.656 336.986 524.478 337.869 524.134 338.693C523.789 339.517 523.286 340.266 522.653 340.895V340.883Z" fill="white"/>
<path opacity="0.5" d="M524.877 368.361C522.702 371.418 510.838 376.344 510.838 376.344C510.838 376.344 511.603 363.531 513.778 360.474C514.295 359.746 514.95 359.127 515.705 358.653C516.461 358.178 517.302 357.858 518.182 357.709C519.062 357.56 519.962 357.586 520.831 357.785C521.701 357.984 522.523 358.353 523.25 358.87C523.977 359.387 524.595 360.042 525.07 360.798C525.544 361.555 525.864 362.397 526.013 363.277C526.162 364.157 526.136 365.058 525.937 365.928C525.738 366.799 525.369 367.621 524.853 368.349L524.877 368.361Z" fill="white"/>
<path opacity="0.5" d="M488.447 324.488C491.815 326.14 504.571 324.814 504.571 324.814C504.571 324.814 497.78 313.924 494.412 312.278C492.794 311.486 490.928 311.37 489.225 311.955C487.521 312.54 486.12 313.779 485.329 315.398C484.538 317.017 484.422 318.885 485.007 320.589C485.591 322.294 486.829 323.696 488.447 324.488Z" fill="white"/>
<path opacity="0.5" d="M491.454 356.597C495.165 357.163 506.939 352.08 506.939 352.08C506.939 352.08 497.202 343.723 493.496 343.18C491.715 342.909 489.9 343.357 488.449 344.426C486.998 345.495 486.03 347.096 485.76 348.879C485.489 350.661 485.936 352.478 487.004 353.93C488.072 355.382 489.673 356.35 491.454 356.621V356.597Z" fill="white"/>
<path opacity="0.5" d="M498.648 387.391C502.209 388.597 514.676 385.582 514.676 385.582C514.676 385.582 506.493 375.699 502.932 374.511C501.222 373.943 499.357 374.077 497.746 374.885C496.135 375.693 494.911 377.108 494.343 378.82C493.775 380.531 493.909 382.398 494.717 384.01C495.524 385.622 496.938 386.847 498.648 387.415V387.391Z" fill="white"/>
<path opacity="0.5" d="M488.724 470.994H540.139L552.998 392.528H475.872L488.724 470.994Z" fill="#738D9B"/>
<path opacity="0.1" d="M485.711 392.528L497.72 465.851H540.983L540.139 470.994H488.724L475.872 392.528H485.711Z" fill="black"/>
</g>
<path d="M498.473 23.6911H121.28V479.122H498.473V23.6911Z" fill="url(#paint0_linear)"/>
<path d="M493.653 29.5159H126.101V473.31H493.653V29.5159Z" fill="white"/>
<path d="M417.13 79.5632H268.904V86.799H417.13V79.5632Z" fill="#F4EEE3"/>
<path d="M417.13 102.477H268.904V109.712H417.13V102.477Z" fill="#F4EEE3"/>
<path d="M381.58 125.39H304.454V132.626H381.58V125.39Z" fill="#738D9B"/>
<path opacity="0.5" d="M417.13 224.882H268.904V232.117H417.13V224.882Z" fill="#F4EEE3" fill-opacity="0.8"/>
<path opacity="0.5" d="M417.13 247.795H268.904V255.031H417.13V247.795Z" fill="#F4EEE3" fill-opacity="0.8"/>
<path opacity="0.5" d="M381.58 270.708H304.454V277.944H381.58V270.708Z" fill="#738D9B"/>
<path opacity="0.5" d="M417.13 370.2H268.904V377.436H417.13V370.2Z" fill="#F4EEE3" fill-opacity="0.8"/>
<path opacity="0.5" d="M417.13 393.113H268.904V400.349H417.13V393.113Z" fill="#F4EEE3" fill-opacity="0.8"/>
<path opacity="0.5" d="M381.58 416.026H304.454V423.262H381.58V416.026Z" fill="#738D9B"/>
<g opacity="0.5">
<path opacity="0.5" d="M216.717 265.239L213.608 263.84C213.656 263.367 213.676 262.892 213.668 262.417C213.69 262.015 213.69 261.613 213.668 261.211C213.361 258.039 211.343 255.278 209.915 252.377C208.607 249.73 207.777 246.872 207.462 243.936C207.083 240.318 207.462 236.567 206.137 233.167C205.058 230.423 202.925 228.132 200.641 226.106C198.078 223.698 195.083 221.798 191.814 220.504C188.476 219.298 184.638 218.99 181.3 220.221C178.287 221.33 175.967 223.543 173.726 225.696C172.098 227.131 170.66 228.768 169.448 230.568C168.08 232.811 167.495 235.392 167.037 237.936C166.318 242.01 165.823 246.121 165.555 250.249C165.32 253.692 164.953 257.599 162.012 259.71C160.578 260.741 158.56 261.32 157.903 262.881C157.717 263.35 157.643 263.856 157.686 264.359C157.668 264.777 157.698 265.196 157.776 265.607C157.819 265.848 157.867 266.083 157.927 266.324C157.083 268.423 156.375 270.574 155.806 272.764C155.366 274.392 154.962 275.99 154.601 277.54H155.577H156.095L161.711 277.673H161.789L167.815 277.811H167.845L173.461 277.944H173.599L175.22 278.058H175.75L198.207 278.577H198.328L199.822 278.613H200.346L204.841 278.716L211.469 278.866H211.517L216.506 278.987H217.037H218.061L217.796 273.753C218.892 265.74 216.717 265.239 216.717 265.239ZM191.489 264.6C191.489 269.038 186.741 274.471 186.741 274.471L181.963 267.958L182.137 267.705L186.741 273.976C186.741 273.976 191.489 268.549 191.489 264.105C191.599 263.879 191.726 263.662 191.868 263.454L191.977 263.792C191.794 264.049 191.631 264.319 191.489 264.6ZM198.792 282.014C198.792 281.791 198.792 281.562 198.749 281.339C198.707 281.116 198.713 280.917 198.683 280.699C198.653 280.482 198.629 280.271 198.599 280.054C198.569 279.837 198.526 279.626 198.484 279.409C198.442 279.192 198.4 278.981 198.352 278.764C198.352 278.692 198.322 278.625 198.304 278.547C198.237 278.263 198.165 277.98 198.087 277.697C198.008 277.413 197.96 277.238 197.888 277.015C197.888 276.913 197.828 276.81 197.791 276.714C197.755 276.617 197.689 276.388 197.635 276.225L197.526 275.912C197.478 275.773 197.43 275.628 197.376 275.49C197.285 275.236 197.189 274.989 197.092 274.736C196.996 274.483 196.894 274.236 196.791 273.988C196.586 273.482 196.363 272.981 196.14 272.475C195.267 270.521 194.285 268.598 193.381 266.692C192.896 265.695 192.466 264.673 192.091 263.629L191.977 263.78C191.794 264.039 191.631 264.311 191.489 264.594C191.489 269.032 186.741 274.465 186.741 274.465L181.963 267.952L177.781 273.982C177.178 274.284 176.576 275.309 176.106 276.768C175.973 277.16 175.847 277.594 175.726 278.046C175.642 278.354 175.563 278.649 175.491 278.993C175.449 279.156 175.413 279.319 175.377 279.487L175.268 280V280.078C175.196 280.428 175.124 280.79 175.057 281.158C174.991 281.526 174.913 281.948 174.846 282.364C174.798 282.625 174.756 282.884 174.72 283.142C174.636 283.642 174.563 284.149 174.491 284.655C174.449 284.95 174.407 285.258 174.37 285.529L174.226 286.651C174.533 287.573 174.877 288.46 175.232 289.388C175.458 289.876 175.591 290.402 175.624 290.938C183.036 292.916 190.837 292.916 198.249 290.938C198.247 290.92 198.247 290.902 198.249 290.884C198.138 290.379 198.09 289.863 198.105 289.346C198.226 287.897 198.428 286.456 198.707 285.029C198.796 284.325 198.835 283.616 198.822 282.906V282.653C198.804 282.424 198.798 282.219 198.792 282.02V282.014ZM198.792 282.014C198.792 281.791 198.792 281.562 198.749 281.339C198.707 281.116 198.713 280.917 198.683 280.699C198.653 280.482 198.629 280.271 198.599 280.054C198.569 279.837 198.526 279.626 198.484 279.409C198.442 279.192 198.4 278.981 198.352 278.764C198.352 278.692 198.322 278.625 198.304 278.547C198.237 278.263 198.165 277.98 198.087 277.697C198.008 277.413 197.96 277.238 197.888 277.015C197.888 276.913 197.828 276.81 197.791 276.714C197.755 276.617 197.689 276.388 197.635 276.225L197.526 275.912C197.478 275.773 197.43 275.628 197.376 275.49C197.285 275.236 197.189 274.989 197.092 274.736C196.996 274.483 196.894 274.236 196.791 273.988C196.586 273.482 196.363 272.981 196.14 272.475C195.267 270.521 194.285 268.598 193.381 266.692C192.896 265.695 192.466 264.673 192.091 263.629L191.977 263.78C191.794 264.039 191.631 264.311 191.489 264.594C191.489 269.032 186.741 274.465 186.741 274.465L181.963 267.952L177.781 273.982C177.178 274.284 176.576 275.309 176.106 276.768C175.973 277.16 175.847 277.594 175.726 278.046C175.642 278.354 175.563 278.649 175.491 278.993C175.449 279.156 175.413 279.319 175.377 279.487L175.268 280V280.078C175.196 280.428 175.124 280.79 175.057 281.158C174.991 281.526 174.913 281.948 174.846 282.364C174.798 282.625 174.756 282.884 174.72 283.142C174.636 283.642 174.563 284.149 174.491 284.655C174.449 284.95 174.407 285.258 174.37 285.529L174.226 286.651C174.533 287.573 174.877 288.46 175.232 289.388C175.458 289.876 175.591 290.402 175.624 290.938C183.036 292.916 190.837 292.916 198.249 290.938C198.247 290.92 198.247 290.902 198.249 290.884C198.138 290.379 198.09 289.863 198.105 289.346C198.226 287.897 198.428 286.456 198.707 285.029C198.796 284.325 198.835 283.616 198.822 282.906V282.653C198.804 282.424 198.798 282.219 198.792 282.02V282.014ZM198.792 282.014C198.792 281.791 198.792 281.562 198.749 281.339C198.707 281.116 198.713 280.917 198.683 280.699C198.653 280.482 198.629 280.271 198.599 280.054C198.569 279.837 198.526 279.626 198.484 279.409C198.442 279.192 198.4 278.981 198.352 278.764C198.352 278.692 198.322 278.625 198.304 278.547C198.237 278.263 198.165 277.98 198.087 277.697C198.008 277.413 197.96 277.238 197.888 277.015C197.888 276.913 197.828 276.81 197.791 276.714C197.755 276.617 197.689 276.388 197.635 276.225L197.526 275.912C197.478 275.773 197.43 275.628 197.376 275.49C197.285 275.236 197.189 274.989 197.092 274.736C196.996 274.483 196.894 274.236 196.791 273.988C196.586 273.482 196.363 272.981 196.14 272.475C195.267 270.521 194.285 268.598 193.381 266.692C192.896 265.695 192.466 264.673 192.091 263.629L191.977 263.78C191.794 264.039 191.631 264.311 191.489 264.594C191.489 269.032 186.741 274.465 186.741 274.465L181.963 267.952L177.781 273.982C177.178 274.284 176.576 275.309 176.106 276.768C175.973 277.16 175.847 277.594 175.726 278.046C175.642 278.354 175.563 278.649 175.491 278.993C175.449 279.156 175.413 279.319 175.377 279.487L175.268 280V280.078C175.196 280.428 175.124 280.79 175.057 281.158C174.991 281.526 174.913 281.948 174.846 282.364C174.798 282.625 174.756 282.884 174.72 283.142C174.636 283.642 174.563 284.149 174.491 284.655C174.449 284.95 174.407 285.258 174.37 285.529L174.226 286.651C174.533 287.573 174.877 288.46 175.232 289.388C175.458 289.876 175.591 290.402 175.624 290.938C183.036 292.916 190.837 292.916 198.249 290.938C198.247 290.92 198.247 290.902 198.249 290.884C198.138 290.379 198.09 289.863 198.105 289.346C198.226 287.897 198.428 286.456 198.707 285.029C198.796 284.325 198.835 283.616 198.822 282.906V282.653C198.804 282.424 198.798 282.219 198.792 282.02V282.014ZM198.792 282.014C198.792 281.791 198.792 281.562 198.749 281.339C198.707 281.116 198.713 280.917 198.683 280.699C198.653 280.482 198.629 280.271 198.599 280.054C198.569 279.837 198.526 279.626 198.484 279.409C198.442 279.192 198.4 278.981 198.352 278.764C198.352 278.692 198.322 278.625 198.304 278.547C198.237 278.263 198.165 277.98 198.087 277.697C198.008 277.413 197.96 277.238 197.888 277.015C197.888 276.913 197.828 276.81 197.791 276.714C197.755 276.617 197.689 276.388 197.635 276.225L197.526 275.912C197.478 275.773 197.43 275.628 197.376 275.49C197.285 275.236 197.189 274.989 197.092 274.736C196.996 274.483 196.894 274.236 196.791 273.988C196.586 273.482 196.363 272.981 196.14 272.475C195.267 270.521 194.285 268.598 193.381 266.692C192.896 265.695 192.466 264.673 192.091 263.629L191.977 263.78C191.794 264.039 191.631 264.311 191.489 264.594C191.489 269.032 186.741 274.465 186.741 274.465L181.963 267.952L177.781 273.982C177.178 274.284 176.576 275.309 176.106 276.768C175.973 277.16 175.847 277.594 175.726 278.046C175.642 278.354 175.563 278.649 175.491 278.993C175.449 279.156 175.413 279.319 175.377 279.487L175.268 280V280.078C175.196 280.428 175.124 280.79 175.057 281.158C174.991 281.526 174.913 281.948 174.846 282.364C174.798 282.625 174.756 282.884 174.72 283.142C174.636 283.642 174.563 284.149 174.491 284.655C174.449 284.95 174.407 285.258 174.37 285.529L174.226 286.651C174.533 287.573 174.877 288.46 175.232 289.388C175.458 289.876 175.591 290.402 175.624 290.938C183.036 292.916 190.837 292.916 198.249 290.938C198.247 290.92 198.247 290.902 198.249 290.884C198.138 290.379 198.09 289.863 198.105 289.346C198.226 287.897 198.428 286.456 198.707 285.029C198.796 284.325 198.835 283.616 198.822 282.906V282.653C198.804 282.424 198.798 282.219 198.792 282.02V282.014Z" fill="url(#paint1_linear)"/>
<path opacity="0.5" d="M199.009 239.956H171.291V258.648H199.009V239.956Z" fill="#493545"/>
<path opacity="0.5" d="M203.612 260.572L192.013 276.925L179.89 275.87C179.89 275.87 164.073 276.919 174.617 264.793C179.685 258.962 181.342 254.102 181.697 250.635C182.083 246.884 180.944 244.75 180.944 244.75L194.122 243.17C193.527 244.947 193.452 246.857 193.905 248.675C195.556 255.525 203.612 260.572 203.612 260.572Z" fill="#C77485"/>
<path opacity="0.1" d="M193.899 248.657C192.18 249.959 190.168 250.82 188.04 251.163C185.912 251.505 183.732 251.32 181.691 250.623C182.077 246.872 180.938 244.738 180.938 244.738L194.116 243.158C193.522 244.933 193.447 246.841 193.899 248.657Z" fill="black"/>
<path opacity="0.5" d="M185.951 250.804C193.229 250.804 199.129 244.9 199.129 237.617C199.129 230.333 193.229 224.429 185.951 224.429C178.674 224.429 172.774 230.333 172.774 237.617C172.774 244.9 178.674 250.804 185.951 250.804Z" fill="#C77485"/>
<path opacity="0.1" d="M203.13 261.247L202.823 260.041L202.557 258.98L202.166 257.412L202.094 257.123L202.033 256.882C202.033 256.882 202.347 255.935 200.28 256.243L199.894 256.309C199.569 256.375 199.189 256.466 198.755 256.586L198.364 256.707L197.846 256.87C196.205 257.404 194.709 258.308 193.471 259.511C192.916 260.042 192.424 260.637 192.007 261.284C191.965 261.344 191.935 261.398 191.898 261.446C191.756 261.67 191.629 261.904 191.519 262.146C191.519 266.897 186.771 272.698 186.771 272.698L182.137 265.999L182.047 265.866L180.944 264.262L180.553 263.744L180.42 263.563L178.01 260.325L177.407 259.517L177.208 259.245L176.913 258.854L176.22 257.931L173.509 259.517L169.894 261.627L167.785 275.345V275.725L167.851 276.859L168.291 284.311V284.414L167.52 287.501L167.634 287.561C169.454 288.544 171.348 289.382 173.298 290.07L173.81 290.251C174.413 290.45 174.979 290.631 175.57 290.805C175.591 290.895 175.608 290.985 175.618 291.077C175.618 290.992 175.618 290.902 175.618 290.818C183.012 292.932 190.849 292.932 198.243 290.818L198.382 290.775C198.725 290.679 199.075 290.576 199.412 290.462L199.961 290.287C201.447 289.789 202.904 289.205 204.323 288.538L204.829 277.745L205.191 269.96V269.514L203.13 261.247Z" fill="black"/>
<path opacity="0.5" d="M198.792 281.296C198.792 281.055 198.792 280.814 198.749 280.573C198.707 280.332 198.713 280.121 198.683 279.891C198.653 279.662 198.629 279.433 198.599 279.204C198.569 278.975 198.526 278.746 198.484 278.517C198.442 278.288 198.4 278.058 198.352 277.829C198.352 277.751 198.322 277.679 198.304 277.6C198.237 277.299 198.165 276.997 198.087 276.69C198.008 276.382 197.96 276.201 197.888 275.96C197.888 275.852 197.828 275.743 197.791 275.64C197.755 275.538 197.689 275.291 197.635 275.116L197.526 274.778C197.478 274.627 197.43 274.477 197.376 274.326C197.285 274.055 197.189 273.789 197.092 273.518C196.996 273.247 196.894 272.981 196.791 272.716C196.586 272.173 196.363 271.637 196.14 271.1C195.267 269.014 194.285 266.958 193.381 264.919C192.895 263.851 192.465 262.758 192.091 261.645L191.977 261.808C191.794 262.085 191.631 262.376 191.489 262.676C191.489 267.422 186.741 273.229 186.741 273.229L181.963 266.264L177.781 272.698C177.178 273.018 176.576 274.115 176.106 275.677C175.973 276.099 175.847 276.557 175.726 277.045C175.642 277.371 175.564 277.715 175.491 278.058C175.449 278.233 175.413 278.408 175.377 278.589L175.268 279.138V279.222C175.196 279.596 175.124 279.982 175.057 280.374C174.991 280.766 174.913 281.218 174.846 281.646C174.798 281.924 174.756 282.201 174.72 282.478C174.636 283.015 174.563 283.558 174.491 284.094C174.449 284.408 174.407 284.697 174.37 285.029L174.226 286.235C174.533 287.224 174.877 288.201 175.232 289.159C175.459 289.685 175.592 290.246 175.624 290.818C183.018 292.932 190.855 292.932 198.249 290.818C198.247 290.797 198.247 290.777 198.249 290.757C198.138 290.216 198.089 289.664 198.105 289.111C198.226 287.564 198.427 286.024 198.707 284.498C198.796 283.746 198.834 282.989 198.822 282.231V281.96C198.804 281.731 198.798 281.514 198.792 281.296ZM198.792 281.296C198.792 281.055 198.792 280.814 198.749 280.573C198.707 280.332 198.713 280.121 198.683 279.891C198.653 279.662 198.629 279.433 198.599 279.204C198.569 278.975 198.526 278.746 198.484 278.517C198.442 278.288 198.4 278.058 198.352 277.829C198.352 277.751 198.322 277.679 198.304 277.6C198.237 277.299 198.165 276.997 198.087 276.69C198.008 276.382 197.96 276.201 197.888 275.96C197.888 275.852 197.828 275.743 197.791 275.64C197.755 275.538 197.689 275.291 197.635 275.116L197.526 274.778C197.478 274.627 197.43 274.477 197.376 274.326C197.285 274.055 197.189 273.789 197.092 273.518C196.996 273.247 196.894 272.981 196.791 272.716C196.586 272.173 196.363 271.637 196.14 271.1C195.267 269.014 194.285 266.958 193.381 264.919C192.895 263.851 192.465 262.758 192.091 261.645L191.977 261.808C191.794 262.085 191.631 262.376 191.489 262.676C191.489 267.422 186.741 273.229 186.741 273.229L181.963 266.264L177.781 272.698C177.178 273.018 176.576 274.115 176.106 275.677C175.973 276.099 175.847 276.557 175.726 277.045C175.642 277.371 175.564 277.715 175.491 278.058C175.449 278.233 175.413 278.408 175.377 278.589L175.268 279.138V279.222C175.196 279.596 175.124 279.982 175.057 280.374C174.991 280.766 174.913 281.218 174.846 281.646C174.798 281.924 174.756 282.201 174.72 282.478C174.636 283.015 174.563 283.558 174.491 284.094C174.449 284.408 174.407 284.697 174.37 285.029L174.226 286.235C174.533 287.224 174.877 288.201 175.232 289.159C175.459 289.685 175.592 290.246 175.624 290.818C183.018 292.932 190.855 292.932 198.249 290.818C198.247 290.797 198.247 290.777 198.249 290.757C198.138 290.216 198.089 289.664 198.105 289.111C198.226 287.564 198.427 286.024 198.707 284.498C198.796 283.746 198.834 282.989 198.822 282.231V281.96C198.804 281.731 198.798 281.514 198.792 281.296ZM198.792 281.296C198.792 281.055 198.792 280.814 198.749 280.573C198.707 280.332 198.713 280.121 198.683 279.891C198.653 279.662 198.629 279.433 198.599 279.204C198.569 278.975 198.526 278.746 198.484 278.517C198.442 278.288 198.4 278.058 198.352 277.829C198.352 277.751 198.322 277.679 198.304 277.6C198.237 277.299 198.165 276.997 198.087 276.69C198.008 276.382 197.96 276.201 197.888 275.96C197.888 275.852 197.828 275.743 197.791 275.64C197.755 275.538 197.689 275.291 197.635 275.116L197.526 274.778C197.478 274.627 197.43 274.477 197.376 274.326C197.285 274.055 197.189 273.789 197.092 273.518C196.996 273.247 196.894 272.981 196.791 272.716C196.586 272.173 196.363 271.637 196.14 271.1C195.267 269.014 194.285 266.958 193.381 264.919C192.895 263.851 192.465 262.758 192.091 261.645L191.977 261.808C191.794 262.085 191.631 262.376 191.489 262.676C191.489 267.422 186.741 273.229 186.741 273.229L181.963 266.264L177.781 272.698C177.178 273.018 176.576 274.115 176.106 275.677C175.973 276.099 175.847 276.557 175.726 277.045C175.642 277.371 175.564 277.715 175.491 278.058C175.449 278.233 175.413 278.408 175.377 278.589L175.268 279.138V279.222C175.196 279.596 175.124 279.982 175.057 280.374C174.991 280.766 174.913 281.218 174.846 281.646C174.798 281.924 174.756 282.201 174.72 282.478C174.636 283.015 174.563 283.558 174.491 284.094C174.449 284.408 174.407 284.697 174.37 285.029L174.226 286.235C174.533 287.224 174.877 288.201 175.232 289.159C175.459 289.685 175.592 290.246 175.624 290.818C183.018 292.932 190.855 292.932 198.249 290.818C198.247 290.797 198.247 290.777 198.249 290.757C198.138 290.216 198.089 289.664 198.105 289.111C198.226 287.564 198.427 286.024 198.707 284.498C198.796 283.746 198.834 282.989 198.822 282.231V281.96C198.804 281.731 198.798 281.514 198.792 281.296ZM205.179 269.978L203.028 261.386L202.66 259.915L202.558 259.511L202.033 257.412C202.035 257.394 202.035 257.376 202.033 257.358C202.046 257.265 202.031 257.171 201.991 257.087C201.913 256.93 201.714 256.767 201.25 256.725C201.073 256.712 200.896 256.712 200.72 256.725C200.196 256.777 199.678 256.874 199.171 257.014C198.924 257.081 198.659 257.153 198.376 257.244L197.858 257.406H197.809C196.422 257.862 195.133 258.578 194.013 259.517C193.274 260.134 192.625 260.853 192.085 261.651L191.971 261.814C191.788 262.092 191.625 262.382 191.483 262.682C191.483 267.428 186.735 273.235 186.735 273.235L181.956 266.27L181.685 265.878L181.637 265.812L180.944 264.793L180.42 264.093L180.281 263.913L177.811 260.614L177.028 259.547V259.511L176.757 259.143L176.238 258.456L174.431 259.511L169.912 262.146L167.827 275.719V275.864L167.887 276.852L168.333 284.408V284.836L167.652 287.555C169.472 288.538 171.366 289.376 173.316 290.064L173.828 290.245C174.431 290.444 174.997 290.625 175.588 290.799C175.609 290.889 175.626 290.979 175.636 291.071C175.636 290.986 175.636 290.896 175.636 290.811C183.03 292.926 190.868 292.926 198.261 290.811L198.4 290.769C198.743 290.673 199.093 290.57 199.43 290.456L199.979 290.281C201.465 289.783 202.922 289.199 204.341 288.532L204.841 277.751L205.203 270.051L205.179 269.978ZM175.545 290.799C175.567 290.889 175.583 290.979 175.594 291.071C175.594 290.986 175.594 290.896 175.594 290.811L175.545 290.799ZM198.792 281.296C198.792 281.055 198.792 280.814 198.749 280.573C198.707 280.332 198.713 280.121 198.683 279.891C198.653 279.662 198.629 279.433 198.599 279.204C198.569 278.975 198.526 278.746 198.484 278.517C198.442 278.288 198.4 278.058 198.352 277.829C198.352 277.751 198.322 277.679 198.304 277.6C198.237 277.299 198.165 276.997 198.087 276.69C198.008 276.382 197.96 276.201 197.888 275.96C197.888 275.852 197.828 275.743 197.791 275.64C197.755 275.538 197.689 275.291 197.635 275.116L197.526 274.778C197.478 274.627 197.43 274.477 197.376 274.326C197.285 274.055 197.189 273.789 197.092 273.518C196.996 273.247 196.894 272.981 196.791 272.716C196.586 272.173 196.363 271.637 196.14 271.1C195.267 269.014 194.285 266.958 193.381 264.919C192.895 263.851 192.465 262.758 192.091 261.645L191.977 261.808C191.794 262.085 191.631 262.376 191.489 262.676C191.489 267.422 186.741 273.229 186.741 273.229L181.963 266.264L177.781 272.698C177.178 273.018 176.576 274.115 176.106 275.677C175.973 276.099 175.847 276.557 175.726 277.045C175.642 277.371 175.564 277.715 175.491 278.058C175.449 278.233 175.413 278.408 175.377 278.589L175.268 279.138V279.222C175.196 279.596 175.124 279.982 175.057 280.374C174.991 280.766 174.913 281.218 174.846 281.646C174.798 281.924 174.756 282.201 174.72 282.478C174.636 283.015 174.563 283.558 174.491 284.094C174.449 284.408 174.407 284.697 174.37 285.029L174.226 286.235C174.533 287.224 174.877 288.201 175.232 289.159C175.459 289.685 175.592 290.246 175.624 290.818C183.018 292.932 190.855 292.932 198.249 290.818C198.247 290.797 198.247 290.777 198.249 290.757C198.138 290.216 198.089 289.664 198.105 289.111C198.226 287.564 198.427 286.024 198.707 284.498C198.796 283.746 198.834 282.989 198.822 282.231V281.96C198.804 281.731 198.798 281.514 198.792 281.296ZM198.792 281.296C198.792 281.055 198.792 280.814 198.749 280.573C198.707 280.332 198.713 280.121 198.683 279.891C198.653 279.662 198.629 279.433 198.599 279.204C198.569 278.975 198.526 278.746 198.484 278.517C198.442 278.288 198.4 278.058 198.352 277.829C198.352 277.751 198.322 277.679 198.304 277.6C198.237 277.299 198.165 276.997 198.087 276.69C198.008 276.382 197.96 276.201 197.888 275.96C197.888 275.852 197.828 275.743 197.791 275.64C197.755 275.538 197.689 275.291 197.635 275.116L197.526 274.778C197.478 274.627 197.43 274.477 197.376 274.326C197.285 274.055 197.189 273.789 197.092 273.518C196.996 273.247 196.894 272.981 196.791 272.716C196.586 272.173 196.363 271.637 196.14 271.1C195.267 269.014 194.285 266.958 193.381 264.919C192.895 263.851 192.465 262.758 192.091 261.645L191.977 261.808C191.794 262.085 191.631 262.376 191.489 262.676C191.489 267.422 186.741 273.229 186.741 273.229L181.963 266.264L177.781 272.698C177.178 273.018 176.576 274.115 176.106 275.677C175.973 276.099 175.847 276.557 175.726 277.045C175.642 277.371 175.564 277.715 175.491 278.058C175.449 278.233 175.413 278.408 175.377 278.589L175.268 279.138V279.222C175.196 279.596 175.124 279.982 175.057 280.374C174.991 280.766 174.913 281.218 174.846 281.646C174.798 281.924 174.756 282.201 174.72 282.478C174.636 283.015 174.563 283.558 174.491 284.094C174.449 284.408 174.407 284.697 174.37 285.029L174.226 286.235C174.533 287.224 174.877 288.201 175.232 289.159C175.459 289.685 175.592 290.246 175.624 290.818C183.018 292.932 190.855 292.932 198.249 290.818C198.247 290.797 198.247 290.777 198.249 290.757C198.138 290.216 198.089 289.664 198.105 289.111C198.226 287.564 198.427 286.024 198.707 284.498C198.796 283.746 198.834 282.989 198.822 282.231V281.96C198.804 281.731 198.798 281.514 198.792 281.296ZM198.792 281.296C198.792 281.055 198.792 280.814 198.749 280.573C198.707 280.332 198.713 280.121 198.683 279.891C198.653 279.662 198.629 279.433 198.599 279.204C198.569 278.975 198.526 278.746 198.484 278.517C198.442 278.288 198.4 278.058 198.352 277.829C198.352 277.751 198.322 277.679 198.304 277.6C198.237 277.299 198.165 276.997 198.087 276.69C198.008 276.382 197.96 276.201 197.888 275.96C197.888 275.852 197.828 275.743 197.791 275.64C197.755 275.538 197.689 275.291 197.635 275.116L197.526 274.778C197.478 274.627 197.43 274.477 197.376 274.326C197.285 274.055 197.189 273.789 197.092 273.518C196.996 273.247 196.894 272.981 196.791 272.716C196.586 272.173 196.363 271.637 196.14 271.1C195.267 269.014 194.285 266.958 193.381 264.919C192.895 263.851 192.465 262.758 192.091 261.645L191.977 261.808C191.794 262.085 191.631 262.376 191.489 262.676C191.489 267.422 186.741 273.229 186.741 273.229L181.963 266.264L177.781 272.698C177.178 273.018 176.576 274.115 176.106 275.677C175.973 276.099 175.847 276.557 175.726 277.045C175.642 277.371 175.564 277.715 175.491 278.058C175.449 278.233 175.413 278.408 175.377 278.589L175.268 279.138V279.222C175.196 279.596 175.124 279.982 175.057 280.374C174.991 280.766 174.913 281.218 174.846 281.646C174.798 281.924 174.756 282.201 174.72 282.478C174.636 283.015 174.563 283.558 174.491 284.094C174.449 284.408 174.407 284.697 174.37 285.029L174.226 286.235C174.533 287.224 174.877 288.201 175.232 289.159C175.459 289.685 175.592 290.246 175.624 290.818C183.018 292.932 190.855 292.932 198.249 290.818C198.247 290.797 198.247 290.777 198.249 290.757C198.138 290.216 198.089 289.664 198.105 289.111C198.226 287.564 198.427 286.024 198.707 284.498C198.796 283.746 198.834 282.989 198.822 282.231V281.96C198.804 281.731 198.798 281.514 198.792 281.296ZM198.792 281.296C198.792 281.055 198.792 280.814 198.749 280.573C198.707 280.332 198.713 280.121 198.683 279.891C198.653 279.662 198.629 279.433 198.599 279.204C198.569 278.975 198.526 278.746 198.484 278.517C198.442 278.288 198.4 278.058 198.352 277.829C198.352 277.751 198.322 277.679 198.304 277.6C198.237 277.299 198.165 276.997 198.087 276.69C198.008 276.382 197.96 276.201 197.888 275.96C197.888 275.852 197.828 275.743 197.791 275.64C197.755 275.538 197.689 275.291 197.635 275.116L197.526 274.778C197.478 274.627 197.43 274.477 197.376 274.326C197.285 274.055 197.189 273.789 197.092 273.518C196.996 273.247 196.894 272.981 196.791 272.716C196.586 272.173 196.363 271.637 196.14 271.1C195.267 269.014 194.285 266.958 193.381 264.919C192.895 263.851 192.465 262.758 192.091 261.645L191.977 261.808C191.794 262.085 191.631 262.376 191.489 262.676C191.489 267.422 186.741 273.229 186.741 273.229L181.963 266.264L177.781 272.698C177.178 273.018 176.576 274.115 176.106 275.677C175.973 276.099 175.847 276.557 175.726 277.045C175.642 277.371 175.564 277.715 175.491 278.058C175.449 278.233 175.413 278.408 175.377 278.589L175.268 279.138V279.222C175.196 279.596 175.124 279.982 175.057 280.374C174.991 280.766 174.913 281.218 174.846 281.646C174.798 281.924 174.756 282.201 174.72 282.478C174.636 283.015 174.563 283.558 174.491 284.094C174.449 284.408 174.407 284.697 174.37 285.029L174.226 286.235C174.533 287.224 174.877 288.201 175.232 289.159C175.459 289.685 175.592 290.246 175.624 290.818C183.018 292.932 190.855 292.932 198.249 290.818C198.247 290.797 198.247 290.777 198.249 290.757C198.138 290.216 198.089 289.664 198.105 289.111C198.226 287.564 198.427 286.024 198.707 284.498C198.796 283.746 198.834 282.989 198.822 282.231V281.96C198.804 281.731 198.798 281.514 198.792 281.296ZM198.792 281.296C198.792 281.055 198.792 280.814 198.749 280.573C198.707 280.332 198.713 280.121 198.683 279.891C198.653 279.662 198.629 279.433 198.599 279.204C198.569 278.975 198.526 278.746 198.484 278.517C198.442 278.288 198.4 278.058 198.352 277.829C198.352 277.751 198.322 277.679 198.304 277.6C198.237 277.299 198.165 276.997 198.087 276.69C198.008 276.382 197.96 276.201 197.888 275.96C197.888 275.852 197.828 275.743 197.791 275.64C197.755 275.538 197.689 275.291 197.635 275.116L197.526 274.778C197.478 274.627 197.43 274.477 197.376 274.326C197.285 274.055 197.189 273.789 197.092 273.518C196.996 273.247 196.894 272.981 196.791 272.716C196.586 272.173 196.363 271.637 196.14 271.1C195.267 269.014 194.285 266.958 193.381 264.919C192.895 263.851 192.465 262.758 192.091 261.645L191.977 261.808C191.794 262.085 191.631 262.376 191.489 262.676C191.489 267.422 186.741 273.229 186.741 273.229L181.963 266.264L177.781 272.698C177.178 273.018 176.576 274.115 176.106 275.677C175.973 276.099 175.847 276.557 175.726 277.045C175.642 277.371 175.564 277.715 175.491 278.058C175.449 278.233 175.413 278.408 175.377 278.589L175.268 279.138V279.222C175.196 279.596 175.124 279.982 175.057 280.374C174.991 280.766 174.913 281.218 174.846 281.646C174.798 281.924 174.756 282.201 174.72 282.478C174.636 283.015 174.563 283.558 174.491 284.094C174.449 284.408 174.407 284.697 174.37 285.029L174.226 286.235C174.533 287.224 174.877 288.201 175.232 289.159C175.459 289.685 175.592 290.246 175.624 290.818C183.018 292.932 190.855 292.932 198.249 290.818C198.247 290.797 198.247 290.777 198.249 290.757C198.138 290.216 198.089 289.664 198.105 289.111C198.226 287.564 198.427 286.024 198.707 284.498C198.796 283.746 198.834 282.989 198.822 282.231V281.96C198.804 281.731 198.798 281.514 198.792 281.296ZM198.792 281.296C198.792 281.055 198.792 280.814 198.749 280.573C198.707 280.332 198.713 280.121 198.683 279.891C198.653 279.662 198.629 279.433 198.599 279.204C198.569 278.975 198.526 278.746 198.484 278.517C198.442 278.288 198.4 278.058 198.352 277.829C198.352 277.751 198.322 277.679 198.304 277.6C198.237 277.299 198.165 276.997 198.087 276.69C198.008 276.382 197.96 276.201 197.888 275.96C197.888 275.852 197.828 275.743 197.791 275.64C197.755 275.538 197.689 275.291 197.635 275.116L197.526 274.778C197.478 274.627 197.43 274.477 197.376 274.326C197.285 274.055 197.189 273.789 197.092 273.518C196.996 273.247 196.894 272.981 196.791 272.716C196.586 272.173 196.363 271.637 196.14 271.1C195.267 269.014 194.285 266.958 193.381 264.919C192.895 263.851 192.465 262.758 192.091 261.645L191.977 261.808C191.794 262.085 191.631 262.376 191.489 262.676C191.489 267.422 186.741 273.229 186.741 273.229L181.963 266.264L177.781 272.698C177.178 273.018 176.576 274.115 176.106 275.677C175.973 276.099 175.847 276.557 175.726 277.045C175.642 277.371 175.564 277.715 175.491 278.058C175.449 278.233 175.413 278.408 175.377 278.589L175.268 279.138V279.222C175.196 279.596 175.124 279.982 175.057 280.374C174.991 280.766 174.913 281.218 174.846 281.646C174.798 281.924 174.756 282.201 174.72 282.478C174.636 283.015 174.563 283.558 174.491 284.094C174.449 284.408 174.407 284.697 174.37 285.029L174.226 286.235C174.533 287.224 174.877 288.201 175.232 289.159C175.459 289.685 175.592 290.246 175.624 290.818C183.018 292.932 190.855 292.932 198.249 290.818C198.247 290.797 198.247 290.777 198.249 290.757C198.138 290.216 198.089 289.664 198.105 289.111C198.226 287.564 198.427 286.024 198.707 284.498C198.796 283.746 198.834 282.989 198.822 282.231V281.96C198.804 281.731 198.798 281.514 198.792 281.296ZM198.792 281.296C198.792 281.055 198.792 280.814 198.749 280.573C198.707 280.332 198.713 280.121 198.683 279.891C198.653 279.662 198.629 279.433 198.599 279.204C198.569 278.975 198.526 278.746 198.484 278.517C198.442 278.288 198.4 278.058 198.352 277.829C198.352 277.751 198.322 277.679 198.304 277.6C198.237 277.299 198.165 276.997 198.087 276.69C198.008 276.382 197.96 276.201 197.888 275.96C197.888 275.852 197.828 275.743 197.791 275.64C197.755 275.538 197.689 275.291 197.635 275.116L197.526 274.778C197.478 274.627 197.43 274.477 197.376 274.326C197.285 274.055 197.189 273.789 197.092 273.518C196.996 273.247 196.894 272.981 196.791 272.716C196.586 272.173 196.363 271.637 196.14 271.1C195.267 269.014 194.285 266.958 193.381 264.919C192.895 263.851 192.465 262.758 192.091 261.645L191.977 261.808C191.794 262.085 191.631 262.376 191.489 262.676C191.489 267.422 186.741 273.229 186.741 273.229L181.963 266.264L177.781 272.698C177.178 273.018 176.576 274.115 176.106 275.677C175.973 276.099 175.847 276.557 175.726 277.045C175.642 277.371 175.564 277.715 175.491 278.058C175.449 278.233 175.413 278.408 175.377 278.589L175.268 279.138V279.222C175.196 279.596 175.124 279.982 175.057 280.374C174.991 280.766 174.913 281.218 174.846 281.646C174.798 281.924 174.756 282.201 174.72 282.478C174.636 283.015 174.563 283.558 174.491 284.094C174.449 284.408 174.407 284.697 174.37 285.029L174.226 286.235C174.533 287.224 174.877 288.201 175.232 289.159C175.459 289.685 175.592 290.246 175.624 290.818C183.018 292.932 190.855 292.932 198.249 290.818C198.247 290.797 198.247 290.777 198.249 290.757C198.138 290.216 198.089 289.664 198.105 289.111C198.226 287.564 198.427 286.024 198.707 284.498C198.796 283.746 198.834 282.989 198.822 282.231V281.96C198.804 281.731 198.798 281.514 198.792 281.296ZM198.792 281.296C198.792 281.055 198.792 280.814 198.749 280.573C198.707 280.332 198.713 280.121 198.683 279.891C198.653 279.662 198.629 279.433 198.599 279.204C198.569 278.975 198.526 278.746 198.484 278.517C198.442 278.288 198.4 278.058 198.352 277.829C198.352 277.751 198.322 277.679 198.304 277.6C198.237 277.299 198.165 276.997 198.087 276.69C198.008 276.382 197.96 276.201 197.888 275.96C197.888 275.852 197.828 275.743 197.791 275.64C197.755 275.538 197.689 275.291 197.635 275.116L197.526 274.778C197.478 274.627 197.43 274.477 197.376 274.326C197.285 274.055 197.189 273.789 197.092 273.518C196.996 273.247 196.894 272.981 196.791 272.716C196.586 272.173 196.363 271.637 196.14 271.1C195.267 269.014 194.285 266.958 193.381 264.919C192.895 263.851 192.465 262.758 192.091 261.645L191.977 261.808C191.794 262.085 191.631 262.376 191.489 262.676C191.489 267.422 186.741 273.229 186.741 273.229L181.963 266.264L177.781 272.698C177.178 273.018 176.576 274.115 176.106 275.677C175.973 276.099 175.847 276.557 175.726 277.045C175.642 277.371 175.564 277.715 175.491 278.058C175.449 278.233 175.413 278.408 175.377 278.589L175.268 279.138V279.222C175.196 279.596 175.124 279.982 175.057 280.374C174.991 280.766 174.913 281.218 174.846 281.646C174.798 281.924 174.756 282.201 174.72 282.478C174.636 283.015 174.563 283.558 174.491 284.094C174.449 284.408 174.407 284.697 174.37 285.029L174.226 286.235C174.533 287.224 174.877 288.201 175.232 289.159C175.459 289.685 175.592 290.246 175.624 290.818C183.018 292.932 190.855 292.932 198.249 290.818C198.247 290.797 198.247 290.777 198.249 290.757C198.138 290.216 198.089 289.664 198.105 289.111C198.226 287.564 198.427 286.024 198.707 284.498C198.796 283.746 198.834 282.989 198.822 282.231V281.96C198.804 281.731 198.798 281.514 198.792 281.296Z" fill="white"/>
<path opacity="0.1" d="M182.047 265.86L181.643 265.806C181.034 265.723 180.43 265.602 179.836 265.444L179.613 265.384C178.142 264.968 176.534 264.22 176.172 262.905C176.064 262.482 176.077 262.038 176.208 261.621C176.411 260.904 176.685 260.209 177.028 259.547V259.511C177.073 259.418 177.123 259.327 177.178 259.239C177.675 258.267 178.427 257.448 179.353 256.87L178.63 256.984L172.509 257.979L163.019 259.511C163.019 259.511 161.331 259.173 159.036 265.504C159.036 265.583 158.981 265.655 158.957 265.739C158.403 267.289 157.819 269.225 157.216 271.643C156.8 273.319 156.421 274.965 156.071 276.563C155.969 277.045 155.866 277.522 155.77 277.992C156.856 279.274 158.026 280.482 159.271 281.61L159.47 281.797C161.908 284.007 164.603 285.916 167.495 287.483L167.61 287.543C169.43 288.526 171.323 289.364 173.274 290.052L173.786 290.233C173.894 289.117 174.015 287.881 174.16 286.615C174.16 286.488 174.16 286.361 174.208 286.235L174.352 285.029C174.389 284.721 174.431 284.426 174.473 284.094C174.545 283.558 174.618 283.015 174.702 282.478C174.738 282.201 174.78 281.924 174.828 281.646C174.895 281.218 174.967 280.79 175.039 280.374C175.112 279.958 175.178 279.596 175.25 279.222V279.138L175.359 278.589C175.395 278.408 175.431 278.233 175.473 278.058C175.545 277.715 175.624 277.371 175.708 277.045C175.829 276.557 175.955 276.099 176.088 275.677C176.57 274.115 177.13 273.017 177.763 272.698L181.944 266.264L182.119 265.993L182.198 265.872L182.047 265.86Z" fill="black"/>
<path opacity="0.1" d="M174.437 223.151C173.834 223.983 173.882 225.129 173.611 226.166C172.967 228.524 170.412 230.001 169.827 232.377C169.484 233.763 169.882 235.235 169.647 236.646C169.219 239.245 166.845 241.005 165.519 243.278C164.847 244.45 164.449 245.758 164.354 247.105C164.259 248.452 164.47 249.803 164.971 251.057C165.281 251.689 165.537 252.347 165.736 253.023C165.888 254.03 165.824 255.057 165.549 256.038C165.097 258.184 164.633 260.548 165.67 262.483C166.543 264.117 168.357 265.076 170.183 265.378C172.026 265.586 173.891 265.501 175.708 265.124C177.703 264.817 179.745 264.461 181.481 263.436L174.955 247.674C174.298 246.082 173.623 244.436 173.629 242.712C173.682 241.44 173.958 240.187 174.443 239.009C175.706 235.599 177.54 232.428 179.866 229.633C180.812 230.73 180.739 232.401 181.529 233.619C182.226 234.519 183.155 235.213 184.216 235.627C187.308 237.136 190.485 238.465 193.73 239.606C193.934 239.632 194.128 239.707 194.296 239.826C194.463 239.945 194.599 240.103 194.691 240.287C194.782 240.47 194.827 240.674 194.822 240.879C194.816 241.084 194.76 241.285 194.658 241.464L192.2 251.618C191.657 253.855 191.181 256.442 192.573 258.25C193.965 260.059 197.104 260.916 197.123 263.249C197.097 263.619 197.097 263.989 197.123 264.359C197.285 265.45 198.581 265.975 199.683 266.029C201.494 266.065 203.257 265.456 204.66 264.31C206.063 263.165 207.013 261.558 207.342 259.776C207.944 255.784 205.305 252.106 204.202 248.217C202.347 241.675 204.805 233.999 201.16 228.252C198.207 223.591 192.826 222.325 187.717 221.746C184.132 221.324 176.961 219.817 174.437 223.151Z" fill="black"/>
<path opacity="0.5" d="M174.437 222.548C173.834 223.38 173.882 224.526 173.611 225.563C172.967 227.921 170.412 229.398 169.827 231.774C169.484 233.161 169.882 234.632 169.647 236.043C169.219 238.642 166.845 240.402 165.519 242.676C164.847 243.847 164.449 245.155 164.354 246.502C164.259 247.849 164.47 249.2 164.971 250.454C165.281 251.086 165.537 251.744 165.736 252.42C165.888 253.427 165.824 254.454 165.549 255.435C165.097 257.581 164.633 259.945 165.67 261.881C166.543 263.515 168.357 264.473 170.183 264.775C172.026 264.983 173.891 264.898 175.708 264.522C177.703 264.214 179.745 263.858 181.481 262.833L174.955 247.071C174.298 245.479 173.623 243.833 173.629 242.109C173.682 240.837 173.958 239.584 174.443 238.406C175.706 234.996 177.54 231.825 179.866 229.03C180.812 230.128 180.739 231.798 181.529 233.016C182.226 233.916 183.155 234.61 184.216 235.024C187.308 236.533 190.485 237.862 193.73 239.003C193.934 239.029 194.128 239.104 194.296 239.223C194.463 239.342 194.599 239.5 194.691 239.684C194.782 239.867 194.827 240.071 194.822 240.276C194.816 240.482 194.76 240.682 194.658 240.861L192.2 251.015C191.657 253.252 191.181 255.839 192.573 257.648C193.965 259.457 197.104 260.313 197.123 262.646C197.097 263.016 197.097 263.386 197.123 263.756C197.285 264.847 198.581 265.372 199.683 265.426C201.494 265.462 203.257 264.853 204.66 263.707C206.063 262.562 207.013 260.955 207.342 259.173C207.944 255.181 205.305 251.503 204.202 247.614C202.347 241.072 204.805 233.396 201.16 227.649C198.207 222.988 192.826 221.722 187.717 221.143C184.132 220.721 176.961 219.214 174.437 222.548Z" fill="#493545"/>
</g>
<g opacity="0.5">
<path opacity="0.5" d="M170.731 384.056C170.785 386.076 169.412 387.801 168.321 389.483C167.23 391.166 166.423 393.463 167.544 395.145C167.911 395.7 168.466 396.128 168.797 396.707C169.96 398.727 168.026 401.048 167.321 403.267C166.507 405.83 167.453 408.694 169.164 410.775C170.876 412.855 173.238 414.26 175.624 415.496C180.641 418.171 186.025 420.09 191.603 421.188C194.52 421.725 197.629 421.966 200.364 420.796C202.262 419.925 203.813 418.44 204.767 416.582C205.721 414.723 206.023 412.597 205.624 410.545C204.932 407.374 202.612 404.823 201.407 401.826C201.125 401.238 200.989 400.591 201.009 399.939C201.111 398.799 201.985 397.907 202.666 396.984C204.373 394.472 205.071 391.408 204.618 388.404C204.142 385.4 202.993 382.543 201.256 380.047C200.635 379.012 199.816 378.11 198.846 377.394C197.532 376.507 195.905 376.254 194.339 376.031C187.795 375.114 181.017 374.113 174.419 373.776C172.334 373.667 170.803 374.077 169.773 376.031C168.2 378.943 170.653 381.132 170.731 384.056Z" fill="#444176"/>
<path opacity="0.5" d="M204.431 404.564L192.013 422.237L179.89 421.182C179.89 421.182 179.492 425.403 174.617 410.105C171.894 401.549 177.431 404.522 178.522 402.152C179.613 399.782 181.535 397.69 181.697 395.941C182.083 392.191 180.944 390.056 180.944 390.056L194.122 388.476C193.527 390.253 193.452 392.163 193.905 393.982C195.556 400.843 204.431 404.564 204.431 404.564Z" fill="#C77485"/>
<path opacity="0.5" d="M185.753 389.495C194.405 389.495 201.419 383.961 201.419 377.134C201.419 370.307 194.405 364.773 185.753 364.773C177.1 364.773 170.086 370.307 170.086 377.134C170.086 383.961 177.1 389.495 185.753 389.495Z" fill="#444176"/>
<path opacity="0.1" d="M193.899 393.976C192.18 395.278 190.168 396.138 188.04 396.481C185.912 396.824 183.732 396.638 181.691 395.941C182.077 392.191 180.938 390.056 180.938 390.056L194.116 388.476C193.522 390.251 193.447 392.159 193.899 393.976Z" fill="black"/>
<path opacity="0.5" d="M185.951 396.122C193.229 396.122 199.129 390.218 199.129 382.935C199.129 375.652 193.229 369.748 185.951 369.748C178.674 369.748 172.774 375.652 172.774 382.935C172.774 390.218 178.674 396.122 185.951 396.122Z" fill="#C77485"/>
<path opacity="0.1" d="M203.13 406.566L202.823 405.36L202.557 404.298L202.166 402.731L202.094 402.441L202.033 402.2C202.033 402.2 202.347 401.253 200.28 401.561L199.894 401.627C199.569 401.694 199.189 401.784 198.755 401.905L198.364 402.025L197.846 402.188C196.205 402.723 194.709 403.626 193.471 404.829C192.916 405.361 192.424 405.956 192.007 406.602C191.965 406.662 191.935 406.716 191.898 406.765C191.756 406.989 191.629 407.222 191.519 407.464C191.519 412.216 186.771 418.016 186.771 418.016L182.137 411.317L182.047 411.185L180.944 409.581L180.553 409.062L180.42 408.881L178.01 405.643L177.407 404.835L177.208 404.564L176.913 404.172L176.22 403.249L173.509 404.835L169.894 406.946L167.785 420.663V421.043L167.851 422.177L168.291 429.63V429.732L167.52 432.819L167.634 432.88C169.454 433.862 171.348 434.701 173.298 435.388L173.81 435.569C174.413 435.768 174.979 435.949 175.57 436.124C175.591 436.213 175.608 436.304 175.618 436.395C175.618 436.311 175.618 436.22 175.618 436.136C183.012 438.25 190.849 438.25 198.243 436.136L198.382 436.094C198.725 435.997 199.075 435.895 199.412 435.78L199.961 435.605C201.447 435.108 202.904 434.524 204.323 433.857L204.829 423.063L205.191 415.279V414.833L203.13 406.566Z" fill="black"/>
<path opacity="0.5" d="M198.792 426.615C198.792 426.374 198.792 426.132 198.749 425.891C198.707 425.65 198.713 425.439 198.683 425.21C198.653 424.981 198.629 424.752 198.599 424.522C198.569 424.293 198.526 424.064 198.484 423.835C198.442 423.606 198.4 423.377 198.352 423.148C198.352 423.069 198.322 422.997 198.304 422.919C198.237 422.617 198.165 422.316 198.087 422.008C198.008 421.7 197.96 421.52 197.888 421.278C197.888 421.17 197.828 421.061 197.791 420.959C197.755 420.856 197.689 420.609 197.635 420.434L197.526 420.097C197.478 419.946 197.43 419.795 197.376 419.644C197.285 419.373 197.189 419.108 197.092 418.836C196.996 418.565 196.894 418.3 196.791 418.034C196.586 417.492 196.363 416.955 196.14 416.418C195.267 414.332 194.285 412.276 193.381 410.238C192.895 409.169 192.465 408.077 192.091 406.964L191.977 407.126C191.794 407.404 191.631 407.694 191.489 407.995C191.489 412.74 186.741 418.547 186.741 418.547L181.963 411.582L177.781 418.016C177.178 418.336 176.576 419.433 176.106 420.995C175.973 421.417 175.847 421.875 175.726 422.364C175.642 422.689 175.564 423.033 175.491 423.377C175.449 423.552 175.413 423.727 175.377 423.907L175.268 424.456V424.541C175.196 424.914 175.124 425.3 175.057 425.692C174.991 426.084 174.913 426.536 174.846 426.965C174.798 427.242 174.756 427.519 174.72 427.797C174.636 428.333 174.563 428.876 174.491 429.413C174.449 429.726 174.407 430.016 174.37 430.347L174.226 431.553C174.533 432.542 174.877 433.519 175.232 434.478C175.459 435.003 175.592 435.564 175.624 436.136C183.018 438.25 190.855 438.25 198.249 436.136C198.247 436.116 198.247 436.096 198.249 436.076C198.138 435.534 198.089 434.982 198.105 434.429C198.226 432.882 198.427 431.343 198.707 429.817C198.796 429.064 198.834 428.307 198.822 427.549V427.278C198.804 427.049 198.798 426.832 198.792 426.615ZM198.792 426.615C198.792 426.374 198.792 426.132 198.749 425.891C198.707 425.65 198.713 425.439 198.683 425.21C198.653 424.981 198.629 424.752 198.599 424.522C198.569 424.293 198.526 424.064 198.484 423.835C198.442 423.606 198.4 423.377 198.352 423.148C198.352 423.069 198.322 422.997 198.304 422.919C198.237 422.617 198.165 422.316 198.087 422.008C198.008 421.7 197.96 421.52 197.888 421.278C197.888 421.17 197.828 421.061 197.791 420.959C197.755 420.856 197.689 420.609 197.635 420.434L197.526 420.097C197.478 419.946 197.43 419.795 197.376 419.644C197.285 419.373 197.189 419.108 197.092 418.836C196.996 418.565 196.894 418.3 196.791 418.034C196.586 417.492 196.363 416.955 196.14 416.418C195.267 414.332 194.285 412.276 193.381 410.238C192.895 409.169 192.465 408.077 192.091 406.964L191.977 407.126C191.794 407.404 191.631 407.694 191.489 407.995C191.489 412.74 186.741 418.547 186.741 418.547L181.963 411.582L177.781 418.016C177.178 418.336 176.576 419.433 176.106 420.995C175.973 421.417 175.847 421.875 175.726 422.364C175.642 422.689 175.564 423.033 175.491 423.377C175.449 423.552 175.413 423.727 175.377 423.907L175.268 424.456V424.541C175.196 424.914 175.124 425.3 175.057 425.692C174.991 426.084 174.913 426.536 174.846 426.965C174.798 427.242 174.756 427.519 174.72 427.797C174.636 428.333 174.563 428.876 174.491 429.413C174.449 429.726 174.407 430.016 174.37 430.347L174.226 431.553C174.533 432.542 174.877 433.519 175.232 434.478C175.459 435.003 175.592 435.564 175.624 436.136C183.018 438.25 190.855 438.25 198.249 436.136C198.247 436.116 198.247 436.096 198.249 436.076C198.138 435.534 198.089 434.982 198.105 434.429C198.226 432.882 198.427 431.343 198.707 429.817C198.796 429.064 198.834 428.307 198.822 427.549V427.278C198.804 427.049 198.798 426.832 198.792 426.615ZM198.792 426.615C198.792 426.374 198.792 426.132 198.749 425.891C198.707 425.65 198.713 425.439 198.683 425.21C198.653 424.981 198.629 424.752 198.599 424.522C198.569 424.293 198.526 424.064 198.484 423.835C198.442 423.606 198.4 423.377 198.352 423.148C198.352 423.069 198.322 422.997 198.304 422.919C198.237 422.617 198.165 422.316 198.087 422.008C198.008 421.7 197.96 421.52 197.888 421.278C197.888 421.17 197.828 421.061 197.791 420.959C197.755 420.856 197.689 420.609 197.635 420.434L197.526 420.097C197.478 419.946 197.43 419.795 197.376 419.644C197.285 419.373 197.189 419.108 197.092 418.836C196.996 418.565 196.894 418.3 196.791 418.034C196.586 417.492 196.363 416.955 196.14 416.418C195.267 414.332 194.285 412.276 193.381 410.238C192.895 409.169 192.465 408.077 192.091 406.964L191.977 407.126C191.794 407.404 191.631 407.694 191.489 407.995C191.489 412.74 186.741 418.547 186.741 418.547L181.963 411.582L177.781 418.016C177.178 418.336 176.576 419.433 176.106 420.995C175.973 421.417 175.847 421.875 175.726 422.364C175.642 422.689 175.564 423.033 175.491 423.377C175.449 423.552 175.413 423.727 175.377 423.907L175.268 424.456V424.541C175.196 424.914 175.124 425.3 175.057 425.692C174.991 426.084 174.913 426.536 174.846 426.965C174.798 427.242 174.756 427.519 174.72 427.797C174.636 428.333 174.563 428.876 174.491 429.413C174.449 429.726 174.407 430.016 174.37 430.347L174.226 431.553C174.533 432.542 174.877 433.519 175.232 434.478C175.459 435.003 175.592 435.564 175.624 436.136C183.018 438.25 190.855 438.25 198.249 436.136C198.247 436.116 198.247 436.096 198.249 436.076C198.138 435.534 198.089 434.982 198.105 434.429C198.226 432.882 198.427 431.343 198.707 429.817C198.796 429.064 198.834 428.307 198.822 427.549V427.278C198.804 427.049 198.798 426.832 198.792 426.615ZM205.179 415.297L203.028 406.704L202.66 405.233L202.558 404.829L202.033 402.731C202.035 402.713 202.035 402.695 202.033 402.676C202.046 402.584 202.031 402.49 201.991 402.405C201.913 402.248 201.714 402.086 201.25 402.043C201.073 402.031 200.896 402.031 200.72 402.043C200.196 402.095 199.678 402.192 199.171 402.333C198.924 402.399 198.659 402.471 198.376 402.562L197.858 402.725H197.809C196.422 403.18 195.133 403.897 194.013 404.835C193.274 405.452 192.625 406.171 192.085 406.97L191.971 407.132C191.788 407.41 191.625 407.7 191.483 408.001C191.483 412.746 186.735 418.553 186.735 418.553L181.956 411.589L181.685 411.197L181.637 411.13L180.944 410.111L180.42 409.412L180.281 409.231L177.811 405.933L177.028 404.865V404.829L176.757 404.461L176.238 403.774L174.431 404.829L169.912 407.464L167.827 421.037V421.182L167.887 422.171L168.333 429.726V430.154L167.652 432.874C169.472 433.856 171.366 434.695 173.316 435.382L173.828 435.563C174.431 435.762 174.997 435.943 175.588 436.118C175.609 436.207 175.626 436.298 175.636 436.389C175.636 436.305 175.636 436.214 175.636 436.13C183.03 438.244 190.868 438.244 198.261 436.13L198.4 436.088C198.743 435.991 199.093 435.889 199.43 435.774L199.979 435.599C201.465 435.102 202.922 434.518 204.341 433.851L204.841 423.069L205.203 415.369L205.179 415.297ZM175.545 436.118C175.567 436.207 175.583 436.298 175.594 436.389C175.594 436.305 175.594 436.214 175.594 436.13L175.545 436.118ZM198.792 426.615C198.792 426.374 198.792 426.132 198.749 425.891C198.707 425.65 198.713 425.439 198.683 425.21C198.653 424.981 198.629 424.752 198.599 424.522C198.569 424.293 198.526 424.064 198.484 423.835C198.442 423.606 198.4 423.377 198.352 423.148C198.352 423.069 198.322 422.997 198.304 422.919C198.237 422.617 198.165 422.316 198.087 422.008C198.008 421.7 197.96 421.52 197.888 421.278C197.888 421.17 197.828 421.061 197.791 420.959C197.755 420.856 197.689 420.609 197.635 420.434L197.526 420.097C197.478 419.946 197.43 419.795 197.376 419.644C197.285 419.373 197.189 419.108 197.092 418.836C196.996 418.565 196.894 418.3 196.791 418.034C196.586 417.492 196.363 416.955 196.14 416.418C195.267 414.332 194.285 412.276 193.381 410.238C192.895 409.169 192.465 408.077 192.091 406.964L191.977 407.126C191.794 407.404 191.631 407.694 191.489 407.995C191.489 412.74 186.741 418.547 186.741 418.547L181.963 411.582L177.781 418.016C177.178 418.336 176.576 419.433 176.106 420.995C175.973 421.417 175.847 421.875 175.726 422.364C175.642 422.689 175.564 423.033 175.491 423.377C175.449 423.552 175.413 423.727 175.377 423.907L175.268 424.456V424.541C175.196 424.914 175.124 425.3 175.057 425.692C174.991 426.084 174.913 426.536 174.846 426.965C174.798 427.242 174.756 427.519 174.72 427.797C174.636 428.333 174.563 428.876 174.491 429.413C174.449 429.726 174.407 430.016 174.37 430.347L174.226 431.553C174.533 432.542 174.877 433.519 175.232 434.478C175.459 435.003 175.592 435.564 175.624 436.136C183.018 438.25 190.855 438.25 198.249 436.136C198.247 436.116 198.247 436.096 198.249 436.076C198.138 435.534 198.089 434.982 198.105 434.429C198.226 432.882 198.427 431.343 198.707 429.817C198.796 429.064 198.834 428.307 198.822 427.549V427.278C198.804 427.049 198.798 426.832 198.792 426.615ZM198.792 426.615C198.792 426.374 198.792 426.132 198.749 425.891C198.707 425.65 198.713 425.439 198.683 425.21C198.653 424.981 198.629 424.752 198.599 424.522C198.569 424.293 198.526 424.064 198.484 423.835C198.442 423.606 198.4 423.377 198.352 423.148C198.352 423.069 198.322 422.997 198.304 422.919C198.237 422.617 198.165 422.316 198.087 422.008C198.008 421.7 197.96 421.52 197.888 421.278C197.888 421.17 197.828 421.061 197.791 420.959C197.755 420.856 197.689 420.609 197.635 420.434L197.526 420.097C197.478 419.946 197.43 419.795 197.376 419.644C197.285 419.373 197.189 419.108 197.092 418.836C196.996 418.565 196.894 418.3 196.791 418.034C196.586 417.492 196.363 416.955 196.14 416.418C195.267 414.332 194.285 412.276 193.381 410.238C192.895 409.169 192.465 408.077 192.091 406.964L191.977 407.126C191.794 407.404 191.631 407.694 191.489 407.995C191.489 412.74 186.741 418.547 186.741 418.547L181.963 411.582L177.781 418.016C177.178 418.336 176.576 419.433 176.106 420.995C175.973 421.417 175.847 421.875 175.726 422.364C175.642 422.689 175.564 423.033 175.491 423.377C175.449 423.552 175.413 423.727 175.377 423.907L175.268 424.456V424.541C175.196 424.914 175.124 425.3 175.057 425.692C174.991 426.084 174.913 426.536 174.846 426.965C174.798 427.242 174.756 427.519 174.72 427.797C174.636 428.333 174.563 428.876 174.491 429.413C174.449 429.726 174.407 430.016 174.37 430.347L174.226 431.553C174.533 432.542 174.877 433.519 175.232 434.478C175.459 435.003 175.592 435.564 175.624 436.136C183.018 438.25 190.855 438.25 198.249 436.136C198.247 436.116 198.247 436.096 198.249 436.076C198.138 435.534 198.089 434.982 198.105 434.429C198.226 432.882 198.427 431.343 198.707 429.817C198.796 429.064 198.834 428.307 198.822 427.549V427.278C198.804 427.049 198.798 426.832 198.792 426.615ZM198.792 426.615C198.792 426.374 198.792 426.132 198.749 425.891C198.707 425.65 198.713 425.439 198.683 425.21C198.653 424.981 198.629 424.752 198.599 424.522C198.569 424.293 198.526 424.064 198.484 423.835C198.442 423.606 198.4 423.377 198.352 423.148C198.352 423.069 198.322 422.997 198.304 422.919C198.237 422.617 198.165 422.316 198.087 422.008C198.008 421.7 197.96 421.52 197.888 421.278C197.888 421.17 197.828 421.061 197.791 420.959C197.755 420.856 197.689 420.609 197.635 420.434L197.526 420.097C197.478 419.946 197.43 419.795 197.376 419.644C197.285 419.373 197.189 419.108 197.092 418.836C196.996 418.565 196.894 418.3 196.791 418.034C196.586 417.492 196.363 416.955 196.14 416.418C195.267 414.332 194.285 412.276 193.381 410.238C192.895 409.169 192.465 408.077 192.091 406.964L191.977 407.126C191.794 407.404 191.631 407.694 191.489 407.995C191.489 412.74 186.741 418.547 186.741 418.547L181.963 411.582L177.781 418.016C177.178 418.336 176.576 419.433 176.106 420.995C175.973 421.417 175.847 421.875 175.726 422.364C175.642 422.689 175.564 423.033 175.491 423.377C175.449 423.552 175.413 423.727 175.377 423.907L175.268 424.456V424.541C175.196 424.914 175.124 425.3 175.057 425.692C174.991 426.084 174.913 426.536 174.846 426.965C174.798 427.242 174.756 427.519 174.72 427.797C174.636 428.333 174.563 428.876 174.491 429.413C174.449 429.726 174.407 430.016 174.37 430.347L174.226 431.553C174.533 432.542 174.877 433.519 175.232 434.478C175.459 435.003 175.592 435.564 175.624 436.136C183.018 438.25 190.855 438.25 198.249 436.136C198.247 436.116 198.247 436.096 198.249 436.076C198.138 435.534 198.089 434.982 198.105 434.429C198.226 432.882 198.427 431.343 198.707 429.817C198.796 429.064 198.834 428.307 198.822 427.549V427.278C198.804 427.049 198.798 426.832 198.792 426.615ZM198.792 426.615C198.792 426.374 198.792 426.132 198.749 425.891C198.707 425.65 198.713 425.439 198.683 425.21C198.653 424.981 198.629 424.752 198.599 424.522C198.569 424.293 198.526 424.064 198.484 423.835C198.442 423.606 198.4 423.377 198.352 423.148C198.352 423.069 198.322 422.997 198.304 422.919C198.237 422.617 198.165 422.316 198.087 422.008C198.008 421.7 197.96 421.52 197.888 421.278C197.888 421.17 197.828 421.061 197.791 420.959C197.755 420.856 197.689 420.609 197.635 420.434L197.526 420.097C197.478 419.946 197.43 419.795 197.376 419.644C197.285 419.373 197.189 419.108 197.092 418.836C196.996 418.565 196.894 418.3 196.791 418.034C196.586 417.492 196.363 416.955 196.14 416.418C195.267 414.332 194.285 412.276 193.381 410.238C192.895 409.169 192.465 408.077 192.091 406.964L191.977 407.126C191.794 407.404 191.631 407.694 191.489 407.995C191.489 412.74 186.741 418.547 186.741 418.547L181.963 411.582L177.781 418.016C177.178 418.336 176.576 419.433 176.106 420.995C175.973 421.417 175.847 421.875 175.726 422.364C175.642 422.689 175.564 423.033 175.491 423.377C175.449 423.552 175.413 423.727 175.377 423.907L175.268 424.456V424.541C175.196 424.914 175.124 425.3 175.057 425.692C174.991 426.084 174.913 426.536 174.846 426.965C174.798 427.242 174.756 427.519 174.72 427.797C174.636 428.333 174.563 428.876 174.491 429.413C174.449 429.726 174.407 430.016 174.37 430.347L174.226 431.553C174.533 432.542 174.877 433.519 175.232 434.478C175.459 435.003 175.592 435.564 175.624 436.136C183.018 438.25 190.855 438.25 198.249 436.136C198.247 436.116 198.247 436.096 198.249 436.076C198.138 435.534 198.089 434.982 198.105 434.429C198.226 432.882 198.427 431.343 198.707 429.817C198.796 429.064 198.834 428.307 198.822 427.549V427.278C198.804 427.049 198.798 426.832 198.792 426.615ZM198.792 426.615C198.792 426.374 198.792 426.132 198.749 425.891C198.707 425.65 198.713 425.439 198.683 425.21C198.653 424.981 198.629 424.752 198.599 424.522C198.569 424.293 198.526 424.064 198.484 423.835C198.442 423.606 198.4 423.377 198.352 423.148C198.352 423.069 198.322 422.997 198.304 422.919C198.237 422.617 198.165 422.316 198.087 422.008C198.008 421.7 197.96 421.52 197.888 421.278C197.888 421.17 197.828 421.061 197.791 420.959C197.755 420.856 197.689 420.609 197.635 420.434L197.526 420.097C197.478 419.946 197.43 419.795 197.376 419.644C197.285 419.373 197.189 419.108 197.092 418.836C196.996 418.565 196.894 418.3 196.791 418.034C196.586 417.492 196.363 416.955 196.14 416.418C195.267 414.332 194.285 412.276 193.381 410.238C192.895 409.169 192.465 408.077 192.091 406.964L191.977 407.126C191.794 407.404 191.631 407.694 191.489 407.995C191.489 412.74 186.741 418.547 186.741 418.547L181.963 411.582L177.781 418.016C177.178 418.336 176.576 419.433 176.106 420.995C175.973 421.417 175.847 421.875 175.726 422.364C175.642 422.689 175.564 423.033 175.491 423.377C175.449 423.552 175.413 423.727 175.377 423.907L175.268 424.456V424.541C175.196 424.914 175.124 425.3 175.057 425.692C174.991 426.084 174.913 426.536 174.846 426.965C174.798 427.242 174.756 427.519 174.72 427.797C174.636 428.333 174.563 428.876 174.491 429.413C174.449 429.726 174.407 430.016 174.37 430.347L174.226 431.553C174.533 432.542 174.877 433.519 175.232 434.478C175.459 435.003 175.592 435.564 175.624 436.136C183.018 438.25 190.855 438.25 198.249 436.136C198.247 436.116 198.247 436.096 198.249 436.076C198.138 435.534 198.089 434.982 198.105 434.429C198.226 432.882 198.427 431.343 198.707 429.817C198.796 429.064 198.834 428.307 198.822 427.549V427.278C198.804 427.049 198.798 426.832 198.792 426.615ZM198.792 426.615C198.792 426.374 198.792 426.132 198.749 425.891C198.707 425.65 198.713 425.439 198.683 425.21C198.653 424.981 198.629 424.752 198.599 424.522C198.569 424.293 198.526 424.064 198.484 423.835C198.442 423.606 198.4 423.377 198.352 423.148C198.352 423.069 198.322 422.997 198.304 422.919C198.237 422.617 198.165 422.316 198.087 422.008C198.008 421.7 197.96 421.52 197.888 421.278C197.888 421.17 197.828 421.061 197.791 420.959C197.755 420.856 197.689 420.609 197.635 420.434L197.526 420.097C197.478 419.946 197.43 419.795 197.376 419.644C197.285 419.373 197.189 419.108 197.092 418.836C196.996 418.565 196.894 418.3 196.791 418.034C196.586 417.492 196.363 416.955 196.14 416.418C195.267 414.332 194.285 412.276 193.381 410.238C192.895 409.169 192.465 408.077 192.091 406.964L191.977 407.126C191.794 407.404 191.631 407.694 191.489 407.995C191.489 412.74 186.741 418.547 186.741 418.547L181.963 411.582L177.781 418.016C177.178 418.336 176.576 419.433 176.106 420.995C175.973 421.417 175.847 421.875 175.726 422.364C175.642 422.689 175.564 423.033 175.491 423.377C175.449 423.552 175.413 423.727 175.377 423.907L175.268 424.456V424.541C175.196 424.914 175.124 425.3 175.057 425.692C174.991 426.084 174.913 426.536 174.846 426.965C174.798 427.242 174.756 427.519 174.72 427.797C174.636 428.333 174.563 428.876 174.491 429.413C174.449 429.726 174.407 430.016 174.37 430.347L174.226 431.553C174.533 432.542 174.877 433.519 175.232 434.478C175.459 435.003 175.592 435.564 175.624 436.136C183.018 438.25 190.855 438.25 198.249 436.136C198.247 436.116 198.247 436.096 198.249 436.076C198.138 435.534 198.089 434.982 198.105 434.429C198.226 432.882 198.427 431.343 198.707 429.817C198.796 429.064 198.834 428.307 198.822 427.549V427.278C198.804 427.049 198.798 426.832 198.792 426.615ZM198.792 426.615C198.792 426.374 198.792 426.132 198.749 425.891C198.707 425.65 198.713 425.439 198.683 425.21C198.653 424.981 198.629 424.752 198.599 424.522C198.569 424.293 198.526 424.064 198.484 423.835C198.442 423.606 198.4 423.377 198.352 423.148C198.352 423.069 198.322 422.997 198.304 422.919C198.237 422.617 198.165 422.316 198.087 422.008C198.008 421.7 197.96 421.52 197.888 421.278C197.888 421.17 197.828 421.061 197.791 420.959C197.755 420.856 197.689 420.609 197.635 420.434L197.526 420.097C197.478 419.946 197.43 419.795 197.376 419.644C197.285 419.373 197.189 419.108 197.092 418.836C196.996 418.565 196.894 418.3 196.791 418.034C196.586 417.492 196.363 416.955 196.14 416.418C195.267 414.332 194.285 412.276 193.381 410.238C192.895 409.169 192.465 408.077 192.091 406.964L191.977 407.126C191.794 407.404 191.631 407.694 191.489 407.995C191.489 412.74 186.741 418.547 186.741 418.547L181.963 411.582L177.781 418.016C177.178 418.336 176.576 419.433 176.106 420.995C175.973 421.417 175.847 421.875 175.726 422.364C175.642 422.689 175.564 423.033 175.491 423.377C175.449 423.552 175.413 423.727 175.377 423.907L175.268 424.456V424.541C175.196 424.914 175.124 425.3 175.057 425.692C174.991 426.084 174.913 426.536 174.846 426.965C174.798 427.242 174.756 427.519 174.72 427.797C174.636 428.333 174.563 428.876 174.491 429.413C174.449 429.726 174.407 430.016 174.37 430.347L174.226 431.553C174.533 432.542 174.877 433.519 175.232 434.478C175.459 435.003 175.592 435.564 175.624 436.136C183.018 438.25 190.855 438.25 198.249 436.136C198.247 436.116 198.247 436.096 198.249 436.076C198.138 435.534 198.089 434.982 198.105 434.429C198.226 432.882 198.427 431.343 198.707 429.817C198.796 429.064 198.834 428.307 198.822 427.549V427.278C198.804 427.049 198.798 426.832 198.792 426.615ZM198.792 426.615C198.792 426.374 198.792 426.132 198.749 425.891C198.707 425.65 198.713 425.439 198.683 425.21C198.653 424.981 198.629 424.752 198.599 424.522C198.569 424.293 198.526 424.064 198.484 423.835C198.442 423.606 198.4 423.377 198.352 423.148C198.352 423.069 198.322 422.997 198.304 422.919C198.237 422.617 198.165 422.316 198.087 422.008C198.008 421.7 197.96 421.52 197.888 421.278C197.888 421.17 197.828 421.061 197.791 420.959C197.755 420.856 197.689 420.609 197.635 420.434L197.526 420.097C197.478 419.946 197.43 419.795 197.376 419.644C197.285 419.373 197.189 419.108 197.092 418.836C196.996 418.565 196.894 418.3 196.791 418.034C196.586 417.492 196.363 416.955 196.14 416.418C195.267 414.332 194.285 412.276 193.381 410.238C192.895 409.169 192.465 408.077 192.091 406.964L191.977 407.126C191.794 407.404 191.631 407.694 191.489 407.995C191.489 412.74 186.741 418.547 186.741 418.547L181.963 411.582L177.781 418.016C177.178 418.336 176.576 419.433 176.106 420.995C175.973 421.417 175.847 421.875 175.726 422.364C175.642 422.689 175.564 423.033 175.491 423.377C175.449 423.552 175.413 423.727 175.377 423.907L175.268 424.456V424.541C175.196 424.914 175.124 425.3 175.057 425.692C174.991 426.084 174.913 426.536 174.846 426.965C174.798 427.242 174.756 427.519 174.72 427.797C174.636 428.333 174.563 428.876 174.491 429.413C174.449 429.726 174.407 430.016 174.37 430.347L174.226 431.553C174.533 432.542 174.877 433.519 175.232 434.478C175.459 435.003 175.592 435.564 175.624 436.136C183.018 438.25 190.855 438.25 198.249 436.136C198.247 436.116 198.247 436.096 198.249 436.076C198.138 435.534 198.089 434.982 198.105 434.429C198.226 432.882 198.427 431.343 198.707 429.817C198.796 429.064 198.834 428.307 198.822 427.549V427.278C198.804 427.049 198.798 426.832 198.792 426.615Z" fill="#505D68"/>
<path opacity="0.1" d="M182.047 411.178L181.643 411.124C181.034 411.042 180.43 410.921 179.836 410.762L179.613 410.702C178.142 410.286 176.534 409.538 176.172 408.224C176.064 407.801 176.077 407.356 176.208 406.939C176.411 406.222 176.685 405.527 177.028 404.865V404.829C177.073 404.736 177.123 404.645 177.178 404.558C177.675 403.585 178.427 402.766 179.353 402.188L178.63 402.303L172.509 403.297L163.019 404.829C163.019 404.829 161.331 404.491 159.036 410.823C159.036 410.901 158.981 410.973 158.957 411.058C158.403 412.608 157.819 414.543 157.216 416.961C156.8 418.637 156.421 420.283 156.071 421.881C155.969 422.364 155.866 422.84 155.77 423.31C156.856 424.592 158.026 425.8 159.271 426.928L159.47 427.115C161.908 429.325 164.603 431.234 167.495 432.801L167.61 432.862C169.43 433.844 171.323 434.683 173.274 435.37L173.786 435.551C173.894 434.435 174.015 433.199 174.16 431.933C174.16 431.806 174.16 431.68 174.208 431.553L174.352 430.347C174.389 430.04 174.431 429.744 174.473 429.413C174.545 428.876 174.618 428.333 174.702 427.797C174.738 427.519 174.78 427.242 174.828 426.964C174.895 426.536 174.967 426.108 175.039 425.692C175.112 425.276 175.178 424.914 175.25 424.54V424.456L175.359 423.907C175.395 423.726 175.431 423.552 175.473 423.377C175.545 423.033 175.624 422.689 175.708 422.364C175.829 421.875 175.955 421.417 176.088 420.995C176.57 419.433 177.13 418.336 177.763 418.016L181.944 411.582L182.119 411.311L182.198 411.19L182.047 411.178Z" fill="black"/>
<path opacity="0.1" d="M183.053 379.076C184.933 378.756 186.825 378.069 188.693 378.473C190.26 378.798 191.567 379.842 193.001 380.565C194.386 381.262 195.9 381.663 197.448 381.741C198.012 381.815 198.586 381.703 199.081 381.421C199.828 380.903 199.936 379.842 199.81 378.937C199.448 376.368 197.846 374.162 196.195 372.16C195.536 371.304 194.775 370.533 193.929 369.862C191.766 368.264 188.904 367.993 186.223 368.114C183.162 368.252 180.052 368.843 177.395 370.381C175.588 371.418 171.442 374.686 172.882 377.05C174.395 379.522 180.685 379.48 183.053 379.076Z" fill="black"/>
<path opacity="0.5" d="M183.053 378.473C184.933 378.153 186.825 377.466 188.693 377.87C190.26 378.196 191.567 379.239 193.001 379.962C194.386 380.659 195.9 381.06 197.448 381.138C198.012 381.212 198.586 381.1 199.081 380.819C199.828 380.3 199.936 379.239 199.81 378.334C199.448 375.766 197.846 373.559 196.195 371.557C195.536 370.702 194.775 369.93 193.929 369.259C191.766 367.661 188.904 367.39 186.223 367.511C183.162 367.649 180.052 368.24 177.395 369.778C175.588 370.815 171.442 374.083 172.882 376.447C174.395 378.919 180.685 378.877 183.053 378.473Z" fill="#444176"/>
</g>
<path d="M348.518 348.945H348.608C348.741 352.985 349.313 356.639 350.416 357.652C353.043 360.064 363.937 355.24 363.19 352.322C363.039 351.719 362.786 350.73 362.467 349.481C365.407 349.114 367.92 348.276 368.92 346.551L370.812 352.388L370.945 352.804H370.981H371.089C372.337 364.634 375.163 389.2 377.422 392.492C380.435 396.852 383.899 415.743 383.899 415.743L390.377 454.497C390.377 454.497 392.871 476.807 394.366 479.219C394.8 479.679 395.378 479.979 396.005 480.069C395.131 482.686 393.878 485.743 392.389 487.449C389.377 490.838 385.412 497.622 381.923 497.139C378.434 496.657 377.44 503.923 383.918 504.888C387.503 505.424 393.221 504.773 397.613 504.086C397.613 506.027 398.963 508.258 402.355 508.765C408.833 509.736 422.288 506.829 422.288 506.829C422.288 506.829 433.736 502.005 434.248 498.592C434.61 496.12 432.856 486.195 431.88 480.992C433.688 478.091 431.76 453.061 431.76 453.061L428.271 405.106C428.271 405.106 430.265 378.467 428.271 373.619C427.024 370.604 426.56 356.735 426.385 346.816L428.795 346.973C428.932 346.807 429.057 346.632 429.169 346.448L429.771 346.491C429.771 346.491 432.784 343.102 430.271 337.772C428.421 333.81 428.771 315.926 429.066 307.02L429.422 302.799C429.554 302.671 429.655 302.514 429.717 302.34C434.39 301.709 438.933 300.333 443.172 298.264C444.451 297.732 445.641 297.008 446.703 296.118C449.197 293.706 447.697 279.162 442.714 257.364C437.731 235.566 433.248 237.502 433.248 237.502C433.248 237.502 421.287 236.531 415.804 229.265C410.321 221.999 406.639 222.096 406.639 222.096C406.501 221.143 406.404 220.245 406.338 219.407C406.338 219.093 406.29 218.804 406.272 218.49C408.136 216.755 409.558 214.599 410.417 212.201C411.538 211.598 412.918 211.399 413.991 210.639C414.264 210.44 414.513 210.21 414.732 209.952C415.807 208.959 416.489 207.613 416.654 206.159C416.825 204.571 416.749 202.966 416.431 201.402C416.051 199.086 415.491 196.716 414.141 194.895C412.791 193.074 410.773 191.977 408.827 190.958C403.556 188.188 398.272 185.447 392.974 182.733C391.939 182.1 390.784 181.69 389.581 181.527C387.46 181.407 385.556 182.86 383.845 184.241C383.162 184.778 382.509 185.352 381.887 185.959C381.358 186.428 380.876 186.947 380.447 187.509C378.446 190.192 377.597 195.245 378.477 198.598C378.754 199.659 379.35 199.966 380.085 199.954C378.994 202.124 378.427 204.52 378.428 206.949C378.44 209.608 379.12 212.222 380.406 214.55C381.691 216.877 383.541 218.844 385.785 220.269C385.785 220.606 385.785 220.938 385.816 221.258C385.84 222.495 385.8 223.733 385.695 224.966C385.695 224.966 372.439 232.135 370.951 235.524C369.462 238.913 363.973 241.337 363.973 241.337C363.973 241.337 353.507 246.667 353.507 265.559L348.024 292.198L347.03 343.06C347.03 343.06 347.717 342.457 348.837 341.601C348.801 341.938 348.771 342.288 348.741 342.644C348.592 344.587 348.541 346.538 348.59 348.487L348.518 348.945ZM415.461 480.581C415.256 481.359 414.955 482.39 414.575 483.596C414.406 482.595 414.238 481.607 414.069 480.666C414.503 480.624 414.967 480.6 415.461 480.581Z" fill="url(#paint2_linear)"/>
<path d="M397.36 474.335C397.36 474.335 395.438 482.981 392.54 486.34C389.642 489.699 385.846 496.428 382.495 495.946C379.145 495.463 378.175 502.669 384.418 503.628C390.66 504.586 403.585 501.71 403.585 501.71C403.585 501.71 414.623 496.886 415.099 493.546C415.575 490.205 412.219 472.894 412.219 472.894L397.36 474.335Z" fill="black"/>
<path opacity="0.05" d="M397.36 474.335C397.36 474.335 395.438 482.981 392.54 486.34C389.642 489.699 385.846 496.428 382.495 495.946C379.145 495.463 378.175 502.669 384.418 503.628C390.66 504.586 403.585 501.71 403.585 501.71C403.585 501.71 414.623 496.886 415.099 493.546C415.575 490.205 412.219 472.894 412.219 472.894L397.36 474.335Z" fill="black"/>
<path d="M415.117 478.176C415.117 478.176 413.195 486.822 410.297 490.181C407.399 493.54 403.585 500.269 400.24 499.786C396.896 499.304 395.92 506.51 402.163 507.468C408.405 508.427 421.36 505.545 421.36 505.545C421.36 505.545 432.398 500.721 432.874 497.381C433.35 494.04 429.994 476.729 429.994 476.729L415.117 478.176Z" fill="black"/>
<path d="M371.445 346.599C371.445 346.599 375.283 387.897 378.163 392.221C381.043 396.544 384.4 415.273 384.4 415.273L390.636 453.689C390.636 453.689 393.046 475.782 394.474 478.182C395.902 480.582 413.713 479.55 413.713 479.55L402.639 352.358L371.445 346.599Z" fill="#3B4D57"/>
<path opacity="0.05" d="M371.445 346.599C371.445 346.599 375.283 387.897 378.163 392.221C381.043 396.544 384.4 415.273 384.4 415.273L390.636 453.689C390.636 453.689 393.046 475.782 394.474 478.182C395.902 480.582 413.713 479.55 413.713 479.55L402.639 352.358L371.445 346.599Z" fill="#364750"/>
<path d="M363.768 326.9L365.022 330.886L371.8 352.418L371.933 352.828H371.969C372.879 353.033 392.088 357.453 396.233 358.81C396.457 358.879 396.676 358.961 396.89 359.057C398.812 360.016 401.211 394.591 401.211 394.591C401.211 394.591 402.651 427.248 403.621 429.648C404.591 432.048 408.441 481.504 410.821 480.069C413.201 478.634 430.494 480.069 430.494 480.069C432.416 478.146 430.494 452.217 430.494 452.217L427.084 404.684C427.084 404.684 429.006 378.274 427.084 373.468C425.162 368.662 425.162 336.493 425.162 336.493L385.882 330.349L382.086 329.746L363.768 326.9Z" fill="#364750"/>
<path opacity="0.02" d="M365.022 330.892L371.8 352.424L371.963 352.846C372.873 353.051 392.082 357.471 396.227 358.828H396.643L385.912 330.355L385.605 329.535L382.116 329.758L365.022 330.892Z" fill="black"/>
<path opacity="0.1" d="M409.839 230.863C409.839 230.863 392.082 250.074 381.043 234.222L370.487 241.427L372.409 252.474L366.167 336.029C366.167 336.029 382.483 335.547 393.998 339.388C397.205 340.526 400.67 340.724 403.986 339.958C407.301 339.192 410.329 337.494 412.713 335.064L410.815 261.597L415.135 239.028L409.839 230.863Z" fill="black"/>
<path d="M409.839 229.422C409.839 229.422 392.082 248.633 381.043 232.781L370.487 239.986L372.409 251.033L366.167 334.588C366.167 334.588 382.483 334.106 393.998 337.947C397.205 339.085 400.67 339.283 403.986 338.517C407.301 337.751 410.329 336.053 412.713 333.623L410.815 260.156L415.135 237.586L409.839 229.422Z" fill="#A6B5BC"/>
<path d="M374.391 314.973V318H373.427V315.986H369.902V318H368.932V314.979L374.391 314.973Z" fill="#E82127"/>
<path d="M373.53 313.996H369.806C369.562 313.938 369.339 313.813 369.16 313.637C368.982 313.461 368.855 313.239 368.794 312.995H374.536C374.474 313.238 374.347 313.46 374.169 313.636C373.99 313.813 373.767 313.937 373.524 313.996" fill="#E82127"/>
<path d="M407.2 313.031C407.136 313.272 407.009 313.491 406.832 313.666C406.655 313.841 406.435 313.965 406.194 314.026H404.627L404.549 314.056V318.012H403.585V314.056L403.494 314.026H401.928C401.687 313.964 401.467 313.839 401.291 313.664C401.114 313.489 400.987 313.271 400.921 313.031H407.2Z" fill="#E82127"/>
<path d="M372.885 328.829C372.885 328.829 372.885 341.317 370.005 346.599C367.125 351.881 350.332 349.011 350.332 349.011L353.688 331.241L372.885 328.829Z" fill="#D6DBE6"/>
<path d="M352.157 357.652C354.688 360.064 365.178 355.24 364.455 352.37C363.949 350.338 362.178 343.066 361.171 338.941L360.472 336.041C360.472 336.041 354.327 334.118 352.157 336.041C351.368 336.741 350.814 339.496 350.555 342.825C350.109 348.607 350.561 356.12 352.157 357.652Z" fill="#FDC2CC"/>
<path d="M375.265 238.063L392.058 251.027C392.058 251.027 417.009 249.586 410.773 237.58C408.057 232.3 406.419 226.532 405.953 220.612C405.75 218.428 405.75 216.23 405.953 214.046C405.953 214.046 382.917 192.942 385.797 216.928C386.024 218.769 386.157 220.621 386.195 222.476C386.539 240.481 375.265 238.063 375.265 238.063Z" fill="#FDC2CC"/>
<path opacity="0.1" d="M385.846 216.934C386.073 218.775 386.205 220.627 386.243 222.482C388.828 224.195 391.862 225.105 394.962 225.099C399.258 225.099 402.422 220.914 405.278 218.134C404.958 214.148 405.995 214.052 405.995 214.052C405.995 214.052 382.965 192.924 385.846 216.934Z" fill="black"/>
<path d="M394.962 224.14C403.708 224.14 410.797 217.045 410.797 208.294C410.797 199.542 403.708 192.447 394.962 192.447C386.217 192.447 379.127 199.542 379.127 208.294C379.127 217.045 386.217 224.14 394.962 224.14Z" fill="#FDC2CC"/>
<path opacity="0.1" d="M406.236 223.416C406.236 223.416 408.875 223.658 414.153 230.857C419.431 238.057 430.946 239.022 430.946 239.022C430.946 239.022 435.266 237.098 440.063 258.709C444.859 280.32 446.299 294.725 443.901 297.125C441.503 299.525 431.904 302.895 427.084 302.895C427.084 302.895 425.644 333.147 428.042 338.429C430.44 343.711 427.56 347.076 427.56 347.076L406.471 345.635C406.471 345.635 399.27 336.511 397.83 320.665C396.39 304.819 391.594 259.674 393.992 254.391C396.39 249.109 406.947 235.663 406.471 234.222C405.995 232.781 406.236 223.416 406.236 223.416Z" fill="black"/>
<path d="M406.29 223.272C406.29 223.272 409.839 223.175 415.117 230.381C420.396 237.586 431.904 238.545 431.904 238.545C431.904 238.545 436.224 236.622 441.021 258.232C445.817 279.843 447.257 294.249 444.859 296.648C442.461 299.048 432.862 302.413 428.066 302.413C428.066 302.413 426.626 332.664 429.024 337.947C431.422 343.229 428.542 346.593 428.542 346.593L407.453 345.152C407.453 345.152 400.252 336.029 398.812 320.183C397.372 304.336 392.564 259.197 394.962 253.939C397.36 248.681 407.917 235.211 407.441 233.77C406.965 232.328 406.29 223.272 406.29 223.272Z" fill="#F36F6E"/>
<path opacity="0.1" d="M350.561 342.819C352.856 341.064 357.189 338.332 361.177 338.935L360.479 336.035C360.479 336.035 354.333 334.112 352.163 336.035C351.362 336.735 350.814 339.484 350.561 342.819Z" fill="black"/>
<path opacity="0.1" d="M386.111 226.299C386.111 226.299 373.873 234.222 372.433 237.586C370.993 240.951 365.715 243.351 365.715 243.351C365.715 243.351 355.64 248.633 355.64 267.362L350.362 293.772L374.355 327.388C374.355 327.388 377.235 293.772 378.675 285.608C380.115 277.443 382.032 262.092 382.032 262.092C382.032 262.092 389.232 252.968 388.268 250.569C387.304 248.169 386.111 226.299 386.111 226.299Z" fill="black"/>
<path d="M386.111 226.154C386.111 226.154 373.349 233.263 371.915 236.622C370.481 239.98 365.196 242.386 365.196 242.386C365.196 242.386 355.122 247.668 355.122 266.397L349.844 292.807L348.885 343.229C348.885 343.229 357.526 335.064 363.762 338.905C369.999 342.746 373.837 326.418 373.837 326.418C373.837 326.418 376.717 292.801 378.157 284.637C379.597 276.473 381.513 261.121 381.513 261.121C381.513 261.121 388.714 251.998 387.75 249.598C386.786 247.198 386.111 226.154 386.111 226.154Z" fill="#F36F6E"/>
<path opacity="0.1" d="M381.061 189.016C381.874 187.982 382.813 187.054 383.857 186.255C385.508 184.88 387.334 183.445 389.383 183.565C390.542 183.72 391.655 184.119 392.648 184.735C397.75 187.425 402.837 190.142 407.911 192.888C409.785 193.901 411.719 194.974 413.026 196.795C414.334 198.616 414.864 200.955 415.232 203.247C415.539 204.799 415.612 206.388 415.449 207.962C415.299 209.505 414.551 210.927 413.364 211.924C411.996 212.919 410.122 212.925 408.977 214.227C408.315 214.981 408.025 216.036 407.555 216.952C407.085 217.869 406.272 218.761 405.344 218.599C404.416 218.436 403.856 217.453 403.723 216.458C403.664 215.45 403.723 214.438 403.898 213.443C404.079 211.634 403.85 209.717 402.801 208.372C402.078 207.456 401.042 206.901 400.343 205.96C398.668 203.693 399.433 199.93 397.595 197.802C397.062 197.245 396.39 196.841 395.649 196.629C394.908 196.417 394.124 196.406 393.377 196.596C391.889 196.909 390.527 197.717 389.16 198.405C387.312 199.338 385.376 200.085 383.381 200.636C381.706 201.094 379.766 202.192 379.194 199.961C378.32 196.686 379.133 191.676 381.061 189.016Z" fill="black"/>
<path d="M381.543 188.54C382.356 187.506 383.295 186.578 384.339 185.778C385.99 184.404 387.816 182.968 389.865 183.089C391.024 183.243 392.137 183.642 393.13 184.259C398.228 186.948 402.464 184.404 408.393 192.411C409.658 194.124 412.201 194.497 413.508 196.318C414.816 198.139 415.346 200.479 415.714 202.77C416.021 204.322 416.094 205.912 415.931 207.486C415.781 209.029 415.033 210.451 413.846 211.447C412.478 212.442 410.604 212.448 409.459 213.751C408.797 214.504 408.507 215.56 408.037 216.476C407.567 217.393 406.754 218.285 405.826 218.122C404.898 217.959 404.338 216.977 404.205 215.982C404.146 214.973 404.205 213.961 404.38 212.967C404.561 211.158 404.332 209.24 403.283 207.896C402.56 206.979 401.524 206.424 400.825 205.484C399.15 203.217 399.915 199.454 398.077 197.325C397.544 196.769 396.872 196.364 396.131 196.152C395.39 195.941 394.606 195.929 393.859 196.119C392.371 196.433 391.009 197.241 389.642 197.928C387.794 198.861 385.858 199.609 383.863 200.159C382.188 200.618 380.248 201.715 379.676 199.484C378.796 196.21 379.615 191.193 381.543 188.54Z" fill="#865A61"/>
<path opacity="0.1" d="M424.794 261.832C424.794 261.832 431.193 278.161 426.391 284.884L415.834 282.472C415.834 282.472 425.433 285.355 423.993 279.59C422.553 273.826 424.794 261.832 424.794 261.832Z" fill="black"/>
<path opacity="0.1" d="M428.289 302.178C428.289 302.178 414.37 303.136 410.532 300.254C415.586 304.115 421.555 306.598 427.855 307.46L428.289 302.178Z" fill="black"/>
<path opacity="0.1" d="M368.33 271.426C368.33 271.426 361.129 293.519 361.611 296.877C362.093 300.236 363.051 337.217 363.051 337.217L364.491 336.735L364.009 296.395L368.33 271.426Z" fill="black"/>
<path d="M429.982 298.427L265.487 165.771C264.53 164.814 263.393 164.054 262.142 163.537C260.891 163.02 259.55 162.755 258.196 162.757H251.207C265.175 144.844 271.789 122.275 269.701 99.6506C267.614 77.0263 256.982 56.0506 239.973 41.0005C222.964 25.9505 200.86 17.9593 178.166 18.6565C155.473 19.3537 133.899 28.6867 117.845 44.7526C101.791 60.8185 92.4646 82.4073 91.7679 105.117C91.0712 127.827 99.0565 149.948 114.096 166.969C129.135 183.99 150.096 194.63 172.703 196.719C195.311 198.808 217.864 192.189 235.764 178.211V185.199C235.762 186.554 236.027 187.896 236.544 189.148C237.061 190.4 237.82 191.537 238.776 192.495L403.271 325.151C404.223 326.112 405.356 326.875 406.605 327.395C407.853 327.915 409.192 328.183 410.544 328.183C411.896 328.183 413.235 327.915 414.483 327.395C415.732 326.875 416.864 326.112 417.817 325.151L429.94 313.031C431.874 311.097 432.965 308.475 432.973 305.738C432.98 303.001 431.905 300.373 429.982 298.427ZM180.848 162.757C169.986 162.757 159.369 159.533 150.338 153.495C141.307 147.456 134.269 138.873 130.112 128.831C125.956 118.79 124.868 107.74 126.987 97.0795C129.106 86.4192 134.336 76.627 142.016 68.9413C149.697 61.2557 159.482 56.0216 170.134 53.9012C180.787 51.7807 191.829 52.869 201.863 57.0285C211.898 61.1879 220.475 68.2317 226.509 77.2691C232.543 86.3065 235.764 96.9317 235.764 107.801C235.769 115.02 234.353 122.169 231.595 128.84C228.837 135.511 224.793 141.572 219.692 146.677C214.592 151.782 208.536 155.831 201.871 158.592C195.205 161.353 188.062 162.773 180.848 162.769V162.757Z" fill="url(#paint3_linear)"/>
<path d="M431.187 297.221L266.692 164.565C265.735 163.608 264.598 162.848 263.347 162.331C262.096 161.814 260.755 161.549 259.402 161.551H252.412C266.38 143.638 272.994 121.069 270.907 98.4447C268.819 75.8203 258.187 54.8447 241.178 39.7946C224.169 24.7445 202.065 16.7533 179.371 17.4505C156.678 18.1477 135.104 27.4807 119.05 43.5466C102.996 59.6125 93.6697 81.2013 92.973 103.911C92.2763 126.621 100.262 148.742 115.301 165.763C130.34 182.784 151.301 193.424 173.909 195.513C196.517 197.602 219.07 190.983 236.969 177.005V183.993C236.967 185.348 237.232 186.69 237.749 187.942C238.266 189.194 239.025 190.331 239.982 191.29L404.476 323.945C405.429 324.906 406.561 325.669 407.81 326.189C409.058 326.709 410.397 326.977 411.749 326.977C413.101 326.977 414.44 326.709 415.688 326.189C416.937 325.669 418.069 324.906 419.022 323.945L431.145 311.825C433.079 309.891 434.17 307.269 434.178 304.532C434.186 301.795 433.11 299.167 431.187 297.221ZM182.053 161.551C171.192 161.551 160.574 158.327 151.543 152.289C142.512 146.25 135.474 137.667 131.317 127.625C127.161 117.584 126.073 106.534 128.192 95.8736C130.311 85.2132 135.541 75.421 143.221 67.7354C150.902 60.0497 160.687 54.8157 171.339 52.6952C181.992 50.5747 193.034 51.663 203.068 55.8225C213.103 59.9819 221.68 67.0257 227.714 76.0631C233.748 85.1006 236.969 95.7257 236.969 106.595C236.974 113.814 235.558 120.963 232.8 127.634C230.042 134.305 225.998 140.366 220.897 145.471C215.797 150.576 209.741 154.625 203.076 157.386C196.411 160.147 189.267 161.567 182.053 161.563V161.551Z" fill="#738D9B"/>
<path d="M418.956 285.125C418.956 285.125 394.944 257.569 398.318 276.479C400.729 289.925 409.833 297.131 414.153 298.572C418.473 300.013 418.956 285.125 418.956 285.125Z" fill="#FDC2CC"/>
<path d="M424.716 259.674C424.716 259.674 425.198 277.443 427.596 279.843C429.994 282.243 426.156 285.125 426.156 285.125L416.557 282.713C416.557 282.713 418.968 298.56 408.881 296.642C408.881 296.642 415.599 302.883 422.318 303.848C429.036 304.813 428.554 302.407 428.554 302.407L438.629 290.401L424.716 259.674Z" fill="#F36F6E"/>
<path d="M427.373 302.666L437.11 300.525L435.809 296.033L429.783 293.621L421.95 297.239L427.373 302.666Z" fill="#F36F6E"/>
<path d="M188.06 129.369L201.021 119.366C201.021 119.366 192.338 121.229 192.585 107.343C192.582 107.296 192.582 107.25 192.585 107.204C192.585 105.95 192.706 104.575 192.887 103.061C195.11 84.5318 177.335 100.836 177.335 100.836C177.488 102.477 177.488 104.128 177.335 105.769C177.335 105.811 177.335 105.859 177.335 105.901C176.983 110.468 175.726 114.918 173.635 118.992C168.809 128.254 188.06 129.369 188.06 129.369Z" fill="#A57878"/>
<path opacity="0.1" d="M178.992 103.194C181.191 105.335 182.535 109.224 185.843 109.224C188.236 109.229 190.578 108.526 192.573 107.204C192.573 105.95 192.694 104.575 192.875 103.061C195.098 84.5318 177.323 100.836 177.323 100.836C177.323 100.836 179.227 100.179 178.992 103.194Z" fill="black"/>
<path d="M185.843 108.621C192.592 108.621 198.063 103.146 198.063 96.3925C198.063 89.6389 192.592 84.1641 185.843 84.1641C179.094 84.1641 173.623 89.6389 173.623 96.3925C173.623 103.146 179.094 108.621 185.843 108.621Z" fill="#A57878"/>
<path opacity="0.1" d="M197.562 80.7331C196.862 79.8467 196.052 79.0525 195.152 78.3694C193.742 77.1936 192.176 75.9575 190.422 76.066C189.43 76.1981 188.477 76.5393 187.626 77.0669C183.258 79.3703 179.637 77.1936 174.557 84.0434C173.473 85.5087 171.297 85.8524 170.177 87.39C169.056 88.9276 168.604 90.9476 168.285 92.9133C168.021 94.243 167.958 95.6048 168.098 96.9532C168.232 98.2767 168.881 99.4942 169.906 100.342C171.075 101.192 172.683 101.198 173.665 102.314C174.159 103.04 174.564 103.824 174.871 104.647C175.268 105.431 175.967 106.173 176.763 106.058C177.558 105.944 178.034 105.081 178.148 104.249C178.198 103.388 178.148 102.524 177.998 101.675C177.847 100.149 178.04 98.4848 178.938 97.3331C179.54 96.5432 180.444 96.0729 181.041 95.2709C182.475 93.3354 181.824 90.0853 183.397 88.2884C183.857 87.8158 184.433 87.4737 185.068 87.2968C185.704 87.1199 186.374 87.1146 187.012 87.2814C188.278 87.6432 189.493 88.166 190.627 88.8371C192.209 89.6362 193.866 90.2765 195.574 90.7486C197.008 91.1405 198.671 92.0812 199.159 90.1456C199.924 87.2995 199.207 83.0063 197.562 80.7331Z" fill="black"/>
<path d="M197.562 80.13C196.862 79.2437 196.052 78.4495 195.152 77.7664C193.742 76.5905 192.176 75.3544 190.422 75.463C189.43 75.5951 188.477 75.9362 187.626 76.4639C183.258 78.7673 179.637 76.5905 174.557 83.4404C173.473 84.9056 171.297 85.2493 170.177 86.7869C169.056 88.3245 168.604 90.3445 168.285 92.3102C168.021 93.64 167.958 95.0018 168.098 96.3502C168.232 97.6737 168.881 98.8911 169.906 99.739C171.075 100.589 172.683 100.595 173.665 101.711C174.159 102.437 174.564 103.221 174.871 104.044C175.268 104.828 175.967 105.57 176.763 105.455C177.558 105.341 178.034 104.478 178.148 103.646C178.198 102.785 178.148 101.921 177.998 101.072C177.847 99.546 178.04 97.8818 178.938 96.7301C179.54 95.9402 180.444 95.4699 181.041 94.6679C182.475 92.7323 181.824 89.4823 183.397 87.6854C183.857 87.2128 184.433 86.8706 185.068 86.6937C185.704 86.5169 186.374 86.5116 187.012 86.6784C188.278 87.0402 189.493 87.563 190.627 88.2341C192.209 89.0332 193.866 89.6735 195.574 90.1455C197.008 90.5375 198.671 91.4781 199.159 89.5426C199.924 86.6965 199.207 82.4033 197.562 80.13Z" fill="#554649"/>
<path opacity="0.1" d="M173.623 135.803L173.382 145.059C176.884 146.011 180.497 146.492 184.126 146.488C184.728 146.488 185.361 146.488 185.975 146.446C189.193 146.307 192.383 145.785 195.478 144.89H195.538C196.11 144.721 196.677 144.547 197.237 144.354H197.297L197.809 144.173C199.76 143.485 201.654 142.647 203.473 141.664L203.588 141.604C203.787 141.495 203.986 141.387 204.19 141.272L203.256 128.797L204.745 120.24L196.598 114.687C196.141 115.348 195.629 115.969 195.068 116.544C194.264 117.385 193.322 118.082 192.284 118.606C186.439 121.489 179.787 116.906 176.479 114.072L175.726 113.403C174.871 112.625 174.382 112.094 174.382 112.094L170.309 118.389L173.623 135.803Z" fill="black"/>
<path d="M173.623 136.406L173.382 145.662C176.884 146.614 180.497 147.095 184.126 147.091C184.728 147.091 185.361 147.091 185.975 147.049C189.193 146.91 192.383 146.388 195.478 145.493H195.538C196.11 145.324 196.677 145.149 197.237 144.956H197.297L197.809 144.776C199.76 144.088 201.654 143.25 203.473 142.267L203.588 142.207C203.787 142.098 203.986 141.99 204.19 141.875L203.256 129.4L204.745 120.843L196.598 115.29C196.141 115.951 195.629 116.572 195.068 117.147C194.264 117.988 193.322 118.685 192.284 119.209C186.439 122.091 179.787 117.509 176.479 114.675L175.726 114.005C174.871 113.228 174.382 112.697 174.382 112.697L170.309 118.992L173.623 136.406Z" fill="#738D9B"/>
<path d="M196.207 137.148C196.207 137.148 196.653 140.699 197.237 144.944H197.297L197.809 144.764C199.76 144.076 201.654 143.238 203.473 142.255L203.588 142.195C203.787 142.086 203.986 141.978 204.19 141.863C206.862 140.363 209.356 138.567 211.626 136.509L211.825 136.322C213.07 135.194 214.239 133.985 215.325 132.704L215.452 132.553C213.301 125.082 208.824 122.731 208.824 122.731C208.824 122.731 204.751 120.874 203.636 118.281C202.521 115.688 192.682 110.207 192.682 110.207V110.249C192.682 110.713 192.525 114.964 192.29 119.239C192.139 122.019 191.953 124.811 191.736 126.584C191.689 127.16 191.584 127.729 191.422 128.284C190.657 130.111 196.207 137.148 196.207 137.148Z" fill="#C2D1D9"/>
</g>
<defs>
<linearGradient id="paint0_linear" x1="309.877" y1="479.128" x2="309.877" y2="23.6911" gradientUnits="userSpaceOnUse">
<stop stop-color="#808080" stop-opacity="0.25"/>
<stop offset="0.54" stop-color="#808080" stop-opacity="0.12"/>
<stop offset="1" stop-color="#808080" stop-opacity="0.1"/>
</linearGradient>
<linearGradient id="paint1_linear" x1="22537.2" y1="37354.7" x2="22537.2" y2="28523.4" gradientUnits="userSpaceOnUse">
<stop stop-color="#808080" stop-opacity="0.25"/>
<stop offset="0.54" stop-color="#808080" stop-opacity="0.12"/>
<stop offset="1" stop-color="#808080" stop-opacity="0.1"/>
</linearGradient>
<linearGradient id="paint2_linear" x1="-105360" y1="284402" x2="-105360" y2="106600" gradientUnits="userSpaceOnUse">
<stop stop-color="#808080" stop-opacity="0.25"/>
<stop offset="0.54" stop-color="#808080" stop-opacity="0.12"/>
<stop offset="1" stop-color="#808080" stop-opacity="0.1"/>
</linearGradient>
<linearGradient id="paint3_linear" x1="163382" y1="175900" x2="163382" y2="16911.8" gradientUnits="userSpaceOnUse">
<stop stop-color="#808080" stop-opacity="0.25"/>
<stop offset="0.54" stop-color="#808080" stop-opacity="0.12"/>
<stop offset="1" stop-color="#808080" stop-opacity="0.1"/>
</linearGradient>
<clipPath id="clip0">
<rect width="671" height="509" fill="white"/>
</clipPath>
</defs>
</svg>
