<svg width="597" height="527" viewBox="0 0 597 527" fill="none" xmlns="http://www.w3.org/2000/svg">
<g clip-path="url(#clip0)">
<path opacity="0.1" d="M190.446 522.136C219.569 522.136 243.177 515.225 243.177 506.701C243.177 498.176 219.569 491.266 190.446 491.266C161.324 491.266 137.716 498.176 137.716 506.701C137.716 515.225 161.324 522.136 190.446 522.136Z" fill="#738D9B"/>
<path opacity="0.1" d="M314.035 442.983C439.471 442.983 541.157 438.082 541.157 432.038C541.157 425.993 439.471 421.093 314.035 421.093C188.599 421.093 86.9128 425.993 86.9128 432.038C86.9128 438.082 188.599 442.983 314.035 442.983Z" fill="#738D9B"/>
<path opacity="0.1" d="M184.34 20.5567C204.599 2.5253 236.393 -1.1362 265.331 0.283701C356.237 4.7932 438.294 48.6392 509.271 98.2305C534.932 116.183 560.264 135.529 576.944 160.253C610.896 210.58 600.829 280.306 553.612 321.766C537.551 335.873 518.081 346.687 498.085 356.278C462.554 373.323 424.187 387.003 383.846 390.901C355.079 393.675 325.944 391.42 297.355 387.542C217.443 376.722 139.005 352.781 73.2658 311.82C44.433 293.855 17.2584 271.524 5.36865 242.469C-6.52108 213.413 1.09177 176.581 30.5364 159.378C42.7091 152.259 57.2702 149.051 71.5221 146.034C92.5052 141.59 113.824 137.212 132.754 128.18C152.316 118.859 175.47 100.821 171.575 80.1925C167.443 58.0197 164.107 38.5684 184.34 20.5567Z" fill="#738D9B"/>
<path d="M532.86 71.9877H98.7368C90.4441 71.9877 83.7216 78.7038 83.7216 86.9887V417.037C83.7216 425.321 90.4441 432.038 98.7368 432.038H532.86C541.153 432.038 547.875 425.321 547.875 417.037V86.9887C547.875 78.7038 541.153 71.9877 532.86 71.9877Z" fill="#424B5A"/>
<path d="M511.212 104.468H121.075V398.177H511.212V104.468Z" fill="white"/>
<path d="M105.856 257.712C109.388 257.712 112.252 254.851 112.252 251.322C112.252 247.794 109.388 244.933 105.856 244.933C102.324 244.933 99.4605 247.794 99.4605 251.322C99.4605 254.851 102.324 257.712 105.856 257.712Z" fill="#E6E8EC"/>
<path d="M528.504 262.55C534.329 262.55 539.052 257.832 539.052 252.013C539.052 246.193 534.329 241.475 528.504 241.475C522.679 241.475 517.957 246.193 517.957 252.013C517.957 257.832 522.679 262.55 528.504 262.55Z" fill="#E6E8EC"/>
<path d="M344.513 234.08C344.594 234.016 344.692 233.976 344.795 233.964C344.898 233.953 345.003 233.971 345.096 234.017C345.19 234.062 345.268 234.133 345.323 234.22C345.378 234.308 345.408 234.41 345.408 234.514V253.419C345.408 254.596 344.94 255.725 344.107 256.557C343.274 257.389 342.144 257.856 340.966 257.856H302.448C301.27 257.856 300.14 257.389 299.307 256.557C298.474 255.725 298.007 254.596 298.007 253.419V234.52C298.008 234.416 298.038 234.315 298.094 234.228C298.15 234.14 298.229 234.07 298.323 234.025C298.417 233.98 298.521 233.962 298.624 233.973C298.728 233.983 298.826 234.023 298.908 234.086C300.981 235.697 303.724 237.741 313.166 244.604C315.14 246.024 318.43 249.022 321.72 249.002C325.01 248.982 328.386 245.971 330.274 244.604C339.696 237.741 342.44 235.69 344.513 234.08ZM321.72 246.024C323.865 246.024 326.984 243.322 328.511 242.198C340.788 233.291 341.723 232.515 344.559 230.3C344.823 230.091 345.037 229.826 345.184 229.523C345.331 229.22 345.407 228.888 345.408 228.551V226.796C345.408 225.619 344.94 224.491 344.107 223.659C343.274 222.826 342.144 222.359 340.966 222.359H302.448C301.27 222.359 300.14 222.826 299.307 223.659C298.474 224.491 298.007 225.619 298.007 226.796V228.551C298.008 228.888 298.084 229.22 298.231 229.522C298.378 229.825 298.592 230.091 298.855 230.3C301.691 232.509 302.626 233.291 314.903 242.198C316.456 243.322 319.549 246.057 321.694 246.024H321.72Z" fill="#738D9B"/>
<path opacity="0.2" d="M252.441 170.276H215.963C214.847 170.278 213.778 170.722 212.989 171.511C212.201 172.3 211.758 173.369 211.758 174.483V199.739C211.758 200.854 212.201 201.923 212.989 202.712C213.778 203.501 214.847 203.945 215.963 203.946H252.441C253.558 203.945 254.628 203.501 255.417 202.712C256.206 201.924 256.651 200.854 256.652 199.739V174.483C256.651 173.368 256.206 172.299 255.417 171.51C254.628 170.722 253.558 170.278 252.441 170.276ZM252.441 174.483V178.046C250.467 179.644 247.335 182.135 240.637 187.374C239.157 188.538 236.235 191.318 234.195 191.318C232.156 191.318 229.234 188.564 227.76 187.374C221.056 182.115 217.891 179.644 215.95 178.046V174.47L252.441 174.483ZM215.963 199.739V183.456C217.976 185.054 220.825 187.302 225.175 190.687C227.096 192.193 230.438 195.519 234.215 195.499C237.992 195.479 241.275 192.212 243.256 190.687C247.598 187.289 250.448 185.041 252.468 183.456V199.739H215.963Z" fill="#738D9B"/>
<path opacity="0.1" d="M216.91 240.496H180.432C179.879 240.496 179.332 240.605 178.821 240.816C178.311 241.028 177.847 241.338 177.456 241.728C177.066 242.119 176.756 242.583 176.545 243.093C176.335 243.604 176.226 244.151 176.227 244.703V269.945C176.227 271.06 176.67 272.129 177.458 272.918C178.247 273.707 179.316 274.151 180.432 274.153H216.91C218.027 274.151 219.097 273.707 219.886 272.918C220.675 272.13 221.12 271.061 221.121 269.945V244.709C221.122 244.156 221.014 243.609 220.803 243.097C220.591 242.586 220.281 242.122 219.89 241.73C219.499 241.339 219.035 241.028 218.523 240.817C218.012 240.605 217.464 240.496 216.91 240.496ZM216.91 244.703V248.279C214.936 249.876 211.804 252.368 205.106 257.607C203.626 258.77 200.704 261.551 198.664 261.551C196.625 261.551 193.703 258.797 192.229 257.607C185.525 252.348 182.36 249.876 180.419 248.279V244.703H216.91ZM180.432 269.945V253.682C182.445 255.28 185.294 257.521 189.644 260.913C191.565 262.425 194.907 265.752 198.684 265.732C202.461 265.712 205.744 262.445 207.725 260.92C212.068 257.521 214.917 255.273 216.937 253.689V269.945H180.432Z" fill="#738D9B"/>
<path opacity="0.2" d="M256.666 304.056H220.2C219.084 304.058 218.014 304.502 217.224 305.29C216.435 306.079 215.991 307.148 215.989 308.263V333.499C215.991 334.614 216.435 335.683 217.224 336.472C218.014 337.261 219.084 337.704 220.2 337.706H256.692C257.808 337.704 258.877 337.26 259.665 336.472C260.454 335.683 260.896 334.614 260.896 333.499V308.263C260.896 307.709 260.787 307.16 260.574 306.648C260.361 306.137 260.049 305.672 259.656 305.281C259.263 304.89 258.796 304.581 258.283 304.371C257.77 304.16 257.22 304.053 256.666 304.056ZM256.666 308.263V311.839C254.692 313.436 251.56 315.928 244.861 321.167C243.381 322.331 240.453 325.111 238.42 325.111C236.387 325.111 233.458 322.357 231.978 321.167C225.28 315.928 222.174 313.463 220.2 311.839V308.263H256.666ZM220.2 333.499V317.236C222.214 318.833 225.063 321.082 229.412 324.467C231.327 325.972 234.676 329.299 238.453 329.279C242.229 329.259 245.513 325.992 247.493 324.467C251.836 321.068 254.685 318.82 256.705 317.236V333.499H220.2Z" fill="#738D9B"/>
<path opacity="0.2" d="M330.083 127.922H293.605C293.052 127.922 292.505 128.031 291.994 128.243C291.484 128.454 291.02 128.764 290.629 129.155C290.239 129.546 289.929 130.01 289.718 130.52C289.507 131.03 289.399 131.577 289.4 132.13V157.366C289.4 158.48 289.843 159.549 290.631 160.338C291.419 161.127 292.489 161.571 293.605 161.573H330.083C331.199 161.571 332.27 161.127 333.059 160.339C333.848 159.55 334.292 158.481 334.294 157.366V132.13C334.294 131.014 333.851 129.944 333.061 129.155C332.271 128.366 331.2 127.922 330.083 127.922ZM330.083 132.13V135.706C328.109 137.303 324.977 139.788 318.279 145.034C316.798 146.197 313.877 148.978 311.837 148.978C309.798 148.978 306.876 146.223 305.402 145.034C298.697 139.775 295.533 137.303 293.559 135.706V132.13H330.083ZM293.591 157.366V141.103C295.605 142.7 298.454 144.942 302.803 148.334C304.724 149.845 308.067 153.172 311.844 153.152C315.621 153.132 318.904 149.865 320.885 148.334C325.227 144.935 328.076 142.693 330.096 141.103V157.366H293.591Z" fill="#738D9B"/>
<path opacity="0.2" d="M330.083 345.549H293.605C292.489 345.55 291.419 345.994 290.631 346.783C289.843 347.572 289.4 348.641 289.4 349.756V374.992C289.4 376.106 289.843 377.176 290.631 377.964C291.419 378.753 292.489 379.197 293.605 379.199H330.083C331.199 379.197 332.27 378.753 333.059 377.965C333.848 377.176 334.292 376.107 334.294 374.992V349.756C334.292 348.64 333.848 347.571 333.059 346.783C332.27 345.994 331.199 345.55 330.083 345.549ZM330.083 349.756V353.332C328.109 354.929 324.977 357.421 318.279 362.66C316.798 363.823 313.877 366.604 311.837 366.604C309.798 366.604 306.876 363.85 305.402 362.66C298.697 357.401 295.533 354.929 293.559 353.332V349.756H330.083ZM293.605 374.992V358.729C295.618 360.326 298.467 362.574 302.816 365.96C304.738 367.465 308.08 370.791 311.857 370.772C315.634 370.752 318.917 367.485 320.898 365.96C325.24 362.561 328.089 360.313 330.109 358.729V374.992H293.605Z" fill="#738D9B"/>
<path opacity="0.2" d="M372.306 174.483V199.739C372.306 200.854 372.749 201.923 373.537 202.712C374.325 203.501 375.395 203.945 376.51 203.946H412.989C414.105 203.945 415.175 203.501 415.965 202.712C416.754 201.924 417.198 200.854 417.2 199.739V174.483C417.198 173.368 416.754 172.299 415.965 171.51C415.175 170.722 414.105 170.278 412.989 170.276H376.51C375.395 170.278 374.325 170.722 373.537 171.511C372.749 172.3 372.306 173.369 372.306 174.483ZM413.002 174.483V178.046C411.028 179.644 407.896 182.135 401.198 187.374C399.717 188.538 396.789 191.318 394.756 191.318C392.723 191.318 389.795 188.564 388.321 187.374C381.616 182.115 378.451 179.644 376.477 178.046V174.47L413.002 174.483ZM376.51 199.739V183.456C378.524 185.054 381.373 187.302 385.722 190.687C387.696 192.239 391.019 195.519 394.763 195.499C398.507 195.479 401.889 192.212 403.803 190.687C408.146 187.289 410.995 185.041 413.015 183.456V199.739H376.51Z" fill="#738D9B"/>
<path opacity="0.2" d="M405.376 242.027V267.263C405.376 268.379 405.82 269.449 406.609 270.238C407.399 271.027 408.47 271.471 409.587 271.471H446.072C447.188 271.469 448.258 271.025 449.048 270.236C449.837 269.448 450.281 268.379 450.283 267.263V242.027C450.281 240.912 449.837 239.843 449.048 239.054C448.258 238.266 447.188 237.822 446.072 237.82H409.587C409.034 237.82 408.486 237.929 407.976 238.14C407.465 238.352 407 238.662 406.609 239.052C406.218 239.443 405.908 239.907 405.697 240.417C405.485 240.928 405.376 241.475 405.376 242.027ZM446.072 242.027V245.603C444.098 247.201 440.966 249.692 434.268 254.931C432.794 256.095 429.866 258.875 427.826 258.875C425.787 258.875 422.865 256.121 421.391 254.931C414.686 249.672 411.554 247.201 409.587 245.603V242.027H446.072ZM409.587 267.263V251.013C411.561 252.611 414.443 254.859 418.799 258.244C420.773 259.796 424.063 263.076 427.833 263.056C431.603 263.037 434.959 259.769 436.874 258.244C441.216 254.846 444.072 252.598 446.085 251.013V267.277L409.587 267.263Z" fill="#738D9B"/>
<path opacity="0.2" d="M368.095 308.263V333.499C368.095 334.615 368.538 335.685 369.328 336.474C370.118 337.263 371.189 337.706 372.306 337.706H408.791C409.907 337.704 410.977 337.261 411.767 336.472C412.556 335.683 413 334.614 413.002 333.499V308.263C413 307.148 412.556 306.079 411.767 305.29C410.977 304.501 409.907 304.058 408.791 304.056H372.306C371.189 304.056 370.118 304.499 369.328 305.288C368.538 306.077 368.095 307.147 368.095 308.263ZM408.791 308.263V311.839C406.817 313.436 403.685 315.928 396.987 321.167C395.506 322.331 392.585 325.111 390.545 325.111C388.505 325.111 385.584 322.357 384.11 321.167C377.405 315.908 374.24 313.436 372.306 311.839V308.263H408.791ZM372.306 333.499V317.236C374.313 318.833 377.162 321.082 381.518 324.467C383.491 326.018 386.781 329.299 390.552 329.279C394.322 329.259 397.678 325.992 399.592 324.467C403.935 321.068 406.784 318.82 408.804 317.236V333.499H372.306Z" fill="#738D9B"/>
<path d="M289.223 231.017L288.611 230.767C288.049 229.963 287.413 229.215 286.709 228.532C286.709 228.532 269.95 222.918 266.542 220.847C264.43 219.596 262.022 218.933 259.567 218.928L253.488 217.896C253.488 217.896 250.073 217.159 248.441 216.581C246.809 216.002 243.835 214.813 243.835 214.813C243.835 214.813 240.275 213.333 239.676 212.446C239.078 211.559 236.117 210.822 236.117 210.822L230.037 206.221C230.037 206.221 225.142 203.263 224.398 200.456C223.655 197.649 220.838 189.82 211.35 194.842C211.35 194.842 206.6 193.527 205.429 192.035C204.257 190.543 193.124 192.18 193.124 192.18L189.657 186.263C189.236 182.952 189.144 179.607 189.38 176.278C189.38 175.963 189.433 175.621 189.466 175.325C192.61 172.916 194.85 169.519 195.825 165.683C196.8 161.846 196.454 157.793 194.842 154.178C194.743 153.954 194.631 153.731 194.526 153.52C194.796 153.006 194.989 152.454 195.098 151.883C195.098 151.739 195.144 151.594 195.164 151.45C195.197 151.113 195.208 150.775 195.197 150.437C195.193 149.798 195.109 149.162 194.947 148.544L194.809 148.084C194.357 146.703 193.522 145.479 192.4 144.554C191.302 143.66 189.92 143.048 189.111 141.924C187.92 140.228 188.229 137.829 187.137 136.087C187.028 135.924 186.909 135.769 186.781 135.62L186.683 135.515C186.571 135.397 186.452 135.292 186.334 135.186L186.262 135.127C184.649 133.813 182.136 133.701 180.037 134.233C177.504 134.891 175.155 136.205 172.562 136.587C170.503 136.863 168.424 136.475 166.351 136.343C164.278 136.212 162.061 136.343 160.357 137.553C158.258 139.019 157.402 141.721 155.567 143.509C153.731 145.297 150.803 146.138 149.197 148.248C148.619 149.025 148.244 149.934 148.107 150.893C147.971 151.852 148.076 152.83 148.414 153.737C149.072 155.427 150.513 156.787 150.842 158.569C151.211 160.541 150.184 162.723 150.875 164.518C150.929 164.647 150.99 164.772 151.059 164.893C151.147 164.886 151.235 164.886 151.323 164.893H151.527H151.579L151.829 164.939C151.912 164.954 151.993 164.976 152.073 165.004C152.599 165.203 153.072 165.522 153.453 165.935C153.835 166.348 154.114 166.844 154.27 167.384C154.698 168.784 154.461 170.296 154.27 171.749C154.08 173.202 153.869 174.727 154.389 176.094C154.412 176.162 154.441 176.228 154.474 176.291C154.519 176.393 154.574 176.49 154.639 176.58L154.678 176.633C154.743 176.721 154.818 176.801 154.902 176.87C155.288 177.095 155.725 177.219 156.172 177.231C156.323 177.231 156.475 177.284 156.619 177.317C156.764 177.35 156.817 177.369 156.909 177.396L157.047 177.435C157.172 177.474 157.291 177.514 157.416 177.566H157.448C157.58 177.626 157.712 177.678 157.837 177.744C158.514 178.06 159.123 178.506 159.626 179.059C159.83 179.282 160.021 179.525 160.219 179.755L160.502 180.051C160.603 180.146 160.711 180.234 160.824 180.314C161.309 180.625 161.88 180.775 162.456 180.742C163.195 180.696 163.925 180.554 164.627 180.321L164.686 180.873C164.805 181.925 164.91 182.963 164.996 183.976C164.996 184.12 164.996 184.258 165.028 184.396C162.855 186.217 161.065 188.452 159.765 190.97L159.962 191.627C159.887 191.711 159.822 191.796 159.765 191.884V194.835C159.765 194.835 144.039 197.642 142.256 198.977C140.473 200.311 137.216 200.449 137.216 200.449C137.216 200.449 128.313 200.009 128.313 208.278C128.313 208.278 128.017 212.117 126.24 212.269C124.464 212.42 123.569 214.78 123.569 214.78L114.522 224.528L101.316 235.164C101.316 235.164 95.4534 240.673 93.9532 242.961C93.7746 243.187 93.6548 243.453 93.6045 243.736C93.6045 243.736 77.6024 261.531 95.1179 268.999L95.664 269.222L110.975 280.68L130.057 291.461L130.629 290.652L130.932 290.856L133.228 292.368L136.163 287.642L136.551 287.727C137.63 287.977 138.92 288.503 139.512 289.594C140.387 291.211 145.671 294.636 148.888 294.971L148.77 295.326L146.967 301.065C146.967 301.065 143.407 305.2 144.151 306.679C144.894 308.158 142.835 319.09 142.835 319.09C142.835 319.09 146.125 320.404 147.73 321.305C148.04 321.426 148.362 321.514 148.691 321.568C148.691 321.857 148.632 322.153 148.599 322.436C148.547 323.468 148.193 324.463 147.579 325.295C145.796 327.064 145.947 330.613 145.947 330.613C145.947 330.613 145.052 335.78 145.947 336.372C146.842 336.963 145.546 338.291 145.546 338.291C145.546 338.291 146.927 342.722 145.546 344.497C144.164 346.272 141.315 370.2 146.592 381.868C146.592 381.868 151.296 391.912 148.77 395.462C146.243 399.012 143.039 410.384 143.506 412.448C143.973 414.512 142.815 419.541 142.815 419.541C142.815 419.541 144.743 430.059 143.407 432.241C142.071 434.424 138.512 468.14 142.815 476.285C142.815 476.285 138.512 481.754 136.288 481.754C134.064 481.754 138.216 490.299 139.992 491.949C141.769 493.599 142.571 501.547 142.571 501.547L142.828 501.665C142.901 501.981 142.986 502.323 143.072 502.658C144.012 506.319 145.625 511.348 147.414 511.447C150.23 511.591 161.061 510.855 161.502 508.193C161.942 505.531 161.35 501.1 163.574 499.772C165.798 498.444 173.516 494.605 168.772 485.448C168.193 485.384 167.61 485.366 167.029 485.396H166.989L167.877 465.675L171.437 436.869C171.437 436.869 174.556 426.969 175.003 425.641C175.451 424.314 174.26 422.098 174.26 422.098L175.096 414.118C175.096 414.118 174.556 405.257 176.333 404.073C178.109 402.89 177.076 398.466 177.076 398.466C177.076 398.466 178.563 393.293 178.708 390.486C178.872 388.438 179.22 386.41 179.747 384.425C179.747 384.425 180.34 381.795 181.379 378.226C182.062 375.612 182.503 372.94 182.695 370.246C182.695 370.246 186.696 365.223 186.255 361.233C185.814 357.243 186.551 350.893 188.031 352.221C189.512 353.549 190.407 358.137 190.407 358.137L192.631 370.548C192.631 370.548 196.487 382.808 196.039 384.583C195.592 386.358 197.23 392.852 197.23 392.852C197.23 392.852 196.934 400.386 197.822 402.16C198.711 403.935 197.822 407.479 197.822 407.479C197.822 407.479 200.79 415.012 200.342 416.491C199.895 417.97 200.388 426.68 200.388 426.68L201.237 433.181C201.237 433.181 202.125 438.355 201.237 441.162C200.349 443.969 205.119 480.603 206.442 483.562C207.764 486.52 205.685 492.567 205.685 492.567C205.685 492.567 204.053 497.445 211.021 501.113L213.101 509.534L213.252 509.58C213.252 509.876 213.298 510.185 213.344 510.487C213.93 514.379 216.884 518.375 227.787 515.003C227.787 515.003 231.077 513.859 231.939 511.48C232.801 509.1 239.65 506.582 239.65 506.582C239.65 506.582 245.651 499.739 240.394 494.914C239.697 494.188 238.793 493.694 237.804 493.501C236.816 493.308 235.792 493.425 234.873 493.836C234.661 491.929 234.98 490 235.794 488.262C237.426 484.87 234.163 477.626 233.13 476.429C232.097 475.233 234.446 469.783 234.446 469.783C233.999 468.272 233.454 466.792 232.814 465.353C232.222 464.314 231.629 437.428 231.629 437.428C231.629 437.428 230.445 422.657 227.326 416.452C227.326 416.452 228.07 412.021 228.366 410.101C228.662 408.182 228.07 376.274 228.07 376.274C228.07 376.274 234.446 365.756 229.998 350.124C230.018 347.846 230.216 345.574 230.59 343.327C231.182 340.079 229.701 334.314 229.701 334.314C229.701 334.314 231.333 326.189 228.221 323.796C226.905 322.824 226.352 320.595 226.115 318.307C226.115 318.018 226.069 317.729 226.05 317.446C230.208 316.349 233.248 315.132 233.557 313.903C234.597 309.768 227.774 290.238 227.774 290.238L219.542 266.35C219.542 266.35 222.661 255.418 221.325 252.019C219.99 248.621 224.293 240.049 224.293 240.049C224.293 240.049 222.358 234.441 223.694 232.962C223.794 232.837 223.874 232.697 223.931 232.548L227.109 234.882C227.109 234.882 232.452 236.361 233.741 237.833C235.031 239.306 240.756 238.872 240.756 238.872C240.756 238.872 246.381 238.708 249.967 239.424C250.926 239.533 251.837 239.904 252.599 240.496C254.382 242.422 260.317 243.125 261.502 242.271C261.949 241.929 262.818 241.935 263.798 242.067C264.882 242.245 265.949 242.511 266.989 242.862L286.729 245.373C287.175 245.004 287.601 244.611 288.005 244.197L288.262 244.394C304.231 256.009 304.83 244.637 304.83 244.637C304.83 244.637 310.462 246.11 310.462 242.665C310.442 239.924 295.644 233.62 289.223 231.017ZM142.493 278.176L142.071 278.143L142.354 277.689L140.782 276.953L140.446 276.795L141.038 275.947L125.451 266.632C124.401 266.029 123.569 265.108 123.076 264.003C122.187 262.083 118.331 261.643 118.331 261.643L113.956 257.797C113.956 257.797 119.075 251.592 120.536 251.592C121.996 251.592 124.543 249.758 124.543 249.758L130.8 245.538L130.919 245.689C130.919 245.689 136.406 252.479 136.84 253.663C137.275 254.846 142.177 260.013 142.177 260.013C142.177 260.013 147.375 266.514 149.744 273.752C150.611 274.947 151.614 276.039 152.731 277.006C148.664 277.453 143.809 278.32 143.809 278.32L142.493 278.176Z" fill="url(#paint0_linear)"/>
<path d="M190.591 178.559C189.841 187.828 192.532 197.314 192.532 197.314C192.532 197.314 164.041 199.075 166.094 195.263C166.37 194.64 166.529 193.971 166.562 193.29C166.712 190.939 166.664 188.58 166.417 186.237C166.331 185.231 166.226 184.199 166.114 183.147C165.732 179.709 165.226 176.173 164.798 173.392C164.726 172.965 164.66 172.551 164.601 172.163C164.199 169.711 163.903 168.094 163.903 168.094C163.903 168.094 185.807 161.658 192.433 163.854C194.302 164.472 194.96 165.767 193.572 168.094C191.943 171.015 190.962 174.253 190.696 177.586C190.624 177.928 190.591 178.243 190.591 178.559Z" fill="#BE6F72"/>
<path d="M310.442 244.492C310.442 247.937 304.863 246.465 304.863 246.465C304.863 246.465 304.27 257.765 288.459 246.221C288.058 245.925 287.643 245.617 287.216 245.288L286.558 232.522V231.786C286.558 231.786 287.676 232.226 289.433 232.936C295.789 235.533 310.442 241.81 310.442 244.492Z" fill="#BE6F72"/>
<path d="M165.048 499.864C162.844 501.179 163.436 505.59 162.995 508.226C162.554 510.862 151.81 511.605 149.039 511.46C147.269 511.361 145.671 506.365 144.743 502.73C144.21 500.64 143.894 498.996 143.894 498.996C143.894 498.996 161.66 491.943 163.14 488.42C164.074 486.171 166.7 485.659 168.463 485.586C169.038 485.557 169.614 485.572 170.187 485.632C174.892 494.73 167.246 498.543 165.048 499.864Z" fill="#464A5F"/>
<path d="M240.387 506.615C240.387 506.615 233.636 509.107 232.754 511.48C231.873 513.853 228.642 514.983 228.642 514.983C217.845 518.343 214.923 514.359 214.344 510.494C214.121 508.707 214.237 506.893 214.686 505.149L230.55 498.523C230.55 498.523 232.702 495.197 235.604 493.974C236.518 493.551 237.543 493.425 238.533 493.614C239.523 493.802 240.429 494.296 241.124 495.026C246.329 499.818 240.387 506.615 240.387 506.615Z" fill="#464A5F"/>
<path opacity="0.1" d="M168.463 485.586L168.127 492.975C163.436 496.196 162.864 502.507 162.864 502.507C160.016 503.754 156.945 504.417 153.836 504.456C150.726 504.494 147.641 503.907 144.763 502.73C144.23 500.64 143.914 498.996 143.914 498.996C143.914 498.996 161.679 491.943 163.16 488.419C164.074 486.171 166.7 485.691 168.463 485.586Z" fill="black"/>
<path opacity="0.1" d="M235.834 495.907C230.254 513.721 216.351 510.987 214.344 510.494C214.121 508.707 214.237 506.893 214.686 505.149L230.55 498.523C230.55 498.523 232.702 495.197 235.604 493.974C235.61 494.625 235.687 495.273 235.834 495.907Z" fill="black"/>
<path d="M236.571 488.419C235.605 490.481 235.346 492.803 235.834 495.026C229.813 514.247 214.12 509.547 214.12 509.547L212.061 501.185C205.159 497.517 206.797 492.679 206.797 492.679C206.797 492.679 208.857 486.658 207.547 483.726C206.238 480.794 201.507 444.403 202.389 441.615C203.27 438.828 202.389 433.694 202.389 433.694L201.553 427.232C201.553 427.232 201.066 418.581 201.507 417.109C201.948 415.636 199.013 408.162 199.013 408.162C199.013 408.162 199.895 404.639 199.013 402.903C198.131 401.168 198.428 393.661 198.428 393.661C198.428 393.661 196.809 387.206 197.25 385.444C197.691 383.682 193.874 371.508 193.874 371.508L191.67 359.182C191.67 359.182 190.788 354.633 189.314 353.312C187.841 351.991 187.117 358.301 187.558 362.265C187.999 366.229 184.011 371.186 184.011 371.186C183.818 373.863 183.378 376.517 182.695 379.113C181.669 382.63 181.083 385.273 181.083 385.273C180.56 387.243 180.214 389.256 180.05 391.288C179.905 394.075 178.438 399.216 178.438 399.216C178.438 399.216 179.465 403.613 177.701 404.783C175.938 405.953 176.477 414.762 176.477 414.762L175.648 422.69C175.648 422.69 176.819 424.892 176.379 426.207C175.938 427.521 172.858 437.382 172.858 437.382L169.305 465.971L168.127 492.094C163.436 495.315 162.864 501.626 162.864 501.626C159.934 502.918 156.766 503.586 153.563 503.586C150.36 503.586 147.193 502.918 144.262 501.626C144.262 501.626 143.473 493.737 141.716 492.094C139.959 490.451 135.84 481.971 138.045 481.971C140.249 481.971 144.506 476.534 144.506 476.534C140.249 468.469 143.769 435.015 145.092 432.813C146.414 430.611 144.506 420.192 144.506 420.192C144.506 420.192 145.677 415.203 145.197 413.152C144.717 411.101 147.881 399.801 150.382 396.277C152.882 392.754 148.23 382.775 148.23 382.775C142.999 371.186 145.828 347.415 147.197 345.654C148.566 343.892 147.197 339.494 147.197 339.494C147.197 339.494 148.474 338.18 147.585 337.588C146.697 336.996 147.585 331.869 147.585 331.869C147.585 331.869 147.434 328.345 149.197 326.61C149.809 325.785 150.159 324.796 150.204 323.77C150.408 321.641 150.408 319.497 150.204 317.367L170.47 305.482L195.875 303.425L227.01 313.108C226.815 315.295 226.815 317.495 227.01 319.681C227.241 321.949 227.813 324.165 229.089 325.131C232.175 327.484 230.557 335.55 230.557 335.55C230.557 335.55 232.024 341.276 231.438 344.503C231.069 346.735 230.873 348.992 230.853 351.254C235.255 366.808 228.938 377.227 228.938 377.227C228.938 377.227 229.53 408.918 229.234 410.824C228.938 412.731 228.208 417.129 228.208 417.129C231.294 423.295 232.465 437.967 232.465 437.967C232.465 437.967 233.051 464.669 233.643 465.701C234.276 467.132 234.814 468.604 235.255 470.105C235.255 470.105 232.906 475.529 233.939 476.679C234.972 477.829 238.183 485.034 236.571 488.419Z" fill="#F36F6E"/>
<path opacity="0.1" d="M193.539 168.12C191.91 171.042 190.929 174.279 190.663 177.612C190.624 177.928 190.598 178.27 190.571 178.559C187.624 180.807 183.077 179.67 179.076 179.67C177.668 179.67 178.004 177.599 176.688 177.29C171.97 176.153 167.141 177.501 164.765 173.418C164.693 172.991 164.627 172.577 164.568 172.189C164.166 169.737 163.87 168.12 163.87 168.12C163.87 168.12 185.775 161.685 192.4 163.88C194.269 164.498 194.927 165.793 193.539 168.12Z" fill="black"/>
<path d="M197.493 163.729C197.493 166.032 197.039 168.313 196.157 170.441C195.275 172.569 193.982 174.502 192.351 176.131C190.721 177.759 188.786 179.051 186.656 179.932C184.526 180.814 182.244 181.267 179.938 181.267C178.556 181.265 177.178 181.104 175.832 180.788C172.626 180.019 169.701 178.363 167.393 176.011C165.084 173.659 163.485 170.705 162.778 167.487C162.071 164.269 162.286 160.918 163.397 157.816C164.508 154.714 166.47 151.988 169.06 149.948C171.65 147.909 174.762 146.639 178.04 146.284C181.318 145.929 184.63 146.504 187.597 147.942C190.564 149.38 193.065 151.623 194.815 154.415C196.566 157.207 197.494 160.435 197.493 163.729Z" fill="#BE6F72"/>
<path opacity="0.1" d="M188.446 189.136C181.656 187.052 172.319 190.556 166.542 193.317C166.693 190.966 166.644 188.606 166.397 186.263C170.279 183.023 176.405 180.63 184.959 184.949C185.742 185.35 186.544 185.803 187.373 186.309L188.446 189.136Z" fill="black"/>
<path d="M188.446 189.576C179.34 186.776 165.647 194.046 162.127 196.071L161.469 193.836L161.278 193.212C161.278 193.212 168.759 177.179 185.005 185.389C185.788 185.79 186.59 186.244 187.42 186.75L188.446 189.576Z" fill="#738D9B"/>
<path opacity="0.1" d="M227.004 319.662C217.259 322.252 201.224 324.191 200.296 324.086C198.98 323.941 187.222 326.584 187.222 326.584C187.663 325.111 183.702 309.269 183.702 309.269L180.905 327.465C180.905 327.465 155.415 324.835 150.191 323.744C150.394 321.615 150.394 319.471 150.191 317.341L170.457 305.456L195.861 303.399L226.997 313.081C226.803 315.271 226.805 317.473 227.004 319.662Z" fill="black"/>
<path d="M234.367 315.284C233.36 319.379 201.612 323.323 200.296 323.205C198.98 323.086 187.222 325.703 187.222 325.703C187.663 324.23 183.702 308.388 183.702 308.388L180.906 326.61C180.906 326.61 150.948 323.527 149.322 322.666C147.697 321.805 144.473 320.47 144.473 320.47C144.473 320.47 146.526 309.611 145.789 308.145C145.052 306.679 148.579 302.564 148.579 302.564L150.369 296.871L155.771 279.674C155.455 279.495 155.152 279.295 154.863 279.076C153.535 278.025 152.359 276.795 151.369 275.421C149.039 268.184 143.874 261.728 143.874 261.728C143.874 261.728 139.032 256.594 138.61 255.418C138.189 254.241 132.735 247.496 132.735 247.496L116.436 226.514L125.392 216.831C125.392 216.831 126.273 214.484 128.024 214.339C129.774 214.195 130.083 210.395 130.083 210.395C130.083 202.178 138.893 202.618 138.893 202.618C138.893 202.618 142.124 202.474 143.881 201.153C145.638 199.831 161.219 197.037 161.219 197.037V194.546C174.286 177.231 190.828 188.485 190.828 188.485L194.269 194.401C194.269 194.401 205.277 192.791 206.448 194.257C207.62 195.723 212.324 197.037 212.324 197.037C221.727 192.055 224.51 199.831 225.247 202.618C225.984 205.406 230.833 208.337 230.833 208.337C230.833 208.337 225.833 233.429 224.51 234.895C223.187 236.361 225.102 241.942 225.102 241.942C225.102 241.942 220.858 250.435 222.174 253.801C223.49 257.166 220.411 268.039 220.411 268.039L228.636 291.809C228.636 291.809 235.393 311.175 234.367 315.284Z" fill="#738D9B"/>
<path opacity="0.1" d="M194.282 195.263C186.064 182.641 161.232 197.892 161.232 197.892V195.401C174.299 178.086 190.841 189.34 190.841 189.34L194.282 195.263Z" fill="black"/>
<path opacity="0.1" d="M188.446 189.576C179.34 186.776 165.647 194.047 162.127 196.071L161.258 196.577V194.086L161.449 193.836C169.595 183.246 179.043 183.621 184.985 185.389C185.768 185.79 186.571 186.244 187.4 186.75L188.446 189.576Z" fill="black"/>
<path d="M194.282 194.382C186.064 181.767 161.232 197.011 161.232 197.011V194.52C174.299 177.205 190.841 188.459 190.841 188.459L194.282 194.382Z" fill="#F36F6E"/>
<path opacity="0.1" d="M188.104 289.311L183.702 308.375L184.544 311.826C184.544 311.826 189.275 291.954 188.104 289.311Z" fill="black"/>
<path opacity="0.1" d="M219.976 257.62C219.976 257.62 217.772 275.369 203.376 280.509C203.376 280.509 215.272 269.801 219.976 257.62Z" fill="black"/>
<path opacity="0.1" d="M160.324 273.469C160.324 273.469 177.8 265.982 177.8 269.065C177.8 272.148 160.324 273.469 160.324 273.469Z" fill="black"/>
<path opacity="0.1" d="M197.651 258.356C197.651 258.356 209.844 249.699 212.482 251.901C215.121 254.103 197.651 258.356 197.651 258.356Z" fill="black"/>
<path opacity="0.1" d="M288.459 246.228C288.058 245.932 287.643 245.623 287.216 245.294L286.558 232.528V231.792C286.558 231.792 287.676 232.233 289.433 232.943C291.446 235.927 293.552 241.153 288.459 246.228Z" fill="black"/>
<path d="M286.946 247.201L267.41 244.709C266.38 244.363 265.324 244.099 264.252 243.92C263.318 243.789 262.423 243.782 261.975 244.118C260.804 244.999 254.928 244.269 253.165 242.356C252.402 241.767 251.491 241.398 250.533 241.291C246.973 240.588 241.407 240.745 241.407 240.745C241.407 240.745 235.742 241.186 234.459 239.72C233.176 238.254 227.879 236.788 227.879 236.788L222.299 232.673L225.819 207.148L230.82 208.318L236.834 212.867C236.834 212.867 239.775 213.603 240.361 214.484C240.946 215.365 244.473 216.831 244.473 216.831C244.473 216.831 247.408 218.001 249.026 218.592C250.645 219.184 254.02 219.907 254.02 219.907L260.041 220.939C262.473 220.944 264.86 221.603 266.95 222.845C270.319 224.903 286.92 230.477 286.92 230.477C286.92 230.477 296.526 239.28 286.946 247.201Z" fill="#738D9B"/>
<path opacity="0.1" d="M266.917 239.74C266.373 241.19 265.467 242.478 264.285 243.48C263.351 243.349 262.456 243.342 262.008 243.677C260.837 244.558 254.961 243.829 253.198 241.922C252.437 241.328 251.526 240.957 250.566 240.851C250.112 237.564 248.915 224.121 260.258 224.995C273.122 225.981 266.917 239.74 266.917 239.74Z" fill="black"/>
<path d="M266.917 240.18C266.373 241.631 265.467 242.918 264.285 243.92C263.351 243.789 262.456 243.782 262.008 244.118C260.837 244.999 254.961 244.269 253.198 242.356C252.435 241.767 251.524 241.398 250.566 241.291C250.112 238.037 248.915 224.561 260.258 225.435C273.122 226.421 266.917 240.18 266.917 240.18Z" fill="#F36F6E"/>
<path d="M283.913 239.68C284.276 239.68 284.57 239.189 284.57 238.583C284.57 237.976 284.276 237.485 283.913 237.485C283.549 237.485 283.255 237.976 283.255 238.583C283.255 239.189 283.549 239.68 283.913 239.68Z" fill="#738D9B"/>
<path d="M285.235 240.121C285.598 240.121 285.893 239.629 285.893 239.023C285.893 238.417 285.598 237.925 285.235 237.925C284.872 237.925 284.577 238.417 284.577 239.023C284.577 239.629 284.872 240.121 285.235 240.121Z" fill="#738D9B"/>
<path d="M286.558 240.535C286.921 240.535 287.216 240.044 287.216 239.437C287.216 238.831 286.921 238.339 286.558 238.339C286.194 238.339 285.9 238.831 285.9 239.437C285.9 240.044 286.194 240.535 286.558 240.535Z" fill="#738D9B"/>
<path opacity="0.1" d="M237.545 214.76C237.545 214.76 238.643 215.529 236.61 217.896C234.577 220.262 237.545 214.76 237.545 214.76Z" fill="black"/>
<path opacity="0.1" d="M248.066 220.538C248.066 220.538 251.04 231.372 248.507 233.245C245.973 235.118 248.066 220.538 248.066 220.538Z" fill="black"/>
<path d="M162.699 328.852C163.306 328.852 163.798 328.36 163.798 327.754C163.798 327.148 163.306 326.656 162.699 326.656C162.092 326.656 161.6 327.148 161.6 327.754C161.6 328.36 162.092 328.852 162.699 328.852Z" fill="#738D9B"/>
<path d="M215.167 327.681C215.773 327.681 216.265 327.19 216.265 326.584C216.265 325.977 215.773 325.486 215.167 325.486C214.56 325.486 214.068 325.977 214.068 326.584C214.068 327.19 214.56 327.681 215.167 327.681Z" fill="#738D9B"/>
<path opacity="0.1" d="M155.646 353.562C155.646 353.562 166.831 363.83 181.498 353.562C181.498 353.562 165.239 356.849 155.646 353.562Z" fill="black"/>
<path opacity="0.1" d="M196.914 356.658C196.914 356.658 215.864 357.835 220.562 353.582C225.26 349.328 196.914 356.658 196.914 356.658Z" fill="black"/>
<path opacity="0.1" d="M151.533 380.428C151.829 381.164 158.146 399.801 167.101 399.945L151.533 380.428Z" fill="black"/>
<path opacity="0.1" d="M227.76 361.503C227.76 361.503 219.68 396.29 210.574 400.826L227.76 361.503Z" fill="black"/>
<path opacity="0.1" d="M141.242 484.903C141.242 484.903 158.278 488.419 156.225 490.037C154.172 491.654 143.874 491.207 143.874 491.207L141.242 484.903Z" fill="black"/>
<path opacity="0.1" d="M222.766 477.711C222.766 477.711 228.787 484.607 230.84 480.794C232.893 476.981 222.766 477.711 222.766 477.711Z" fill="black"/>
<path opacity="0.1" d="M211.896 492.383C213.212 492.239 218.509 493.12 222.766 492.383C227.023 491.647 212.897 490.043 211.16 492.679C209.422 495.315 211.896 492.383 211.896 492.383Z" fill="black"/>
<path opacity="0.1" d="M195.98 156.603C195.797 156.91 195.576 157.193 195.322 157.445C194.736 158.023 194.006 158.424 193.453 159.049C192.335 160.33 192.433 162.112 192.387 163.88C192.389 164.591 192.316 165.301 192.17 165.997C191.916 167.023 191.391 167.962 190.651 168.717C189.91 169.472 188.981 170.015 187.959 170.289C187.161 168.72 185.9 167.433 184.347 166.602C184.078 166.424 183.76 166.337 183.439 166.352C183.066 166.452 182.742 166.686 182.531 167.009C181.129 168.728 180.254 170.814 180.011 173.018C179.889 174.09 179.916 175.174 180.09 176.239C180.221 176.975 181.077 178.572 180.748 179.256C180.234 180.281 177.675 180.571 175.826 180.794C175.168 180.866 174.635 180.932 174.286 181.011C171.685 181.59 169.11 182.269 166.562 183.049L166.088 183.18C165.654 179.236 165.035 175.114 164.561 172.196C163.409 170.123 162.689 167.838 162.446 165.48C162.202 163.121 162.44 160.738 163.145 158.474C163.85 156.209 165.006 154.111 166.545 152.307C168.085 150.502 169.974 149.027 172.1 147.973C174.225 146.918 176.543 146.305 178.912 146.17C181.282 146.036 183.654 146.383 185.885 147.19C188.117 147.997 190.161 149.248 191.895 150.867C193.629 152.486 195.016 154.44 195.973 156.61L195.98 156.603Z" fill="black"/>
<path d="M182.116 166.562C182.326 166.238 182.65 166.003 183.024 165.905C183.345 165.888 183.663 165.973 183.932 166.148C185.484 166.983 186.746 168.269 187.551 169.836C188.569 169.558 189.495 169.014 190.232 168.259C190.968 167.505 191.49 166.567 191.742 165.543C192.289 163.21 191.453 160.409 193.026 158.588C193.559 157.971 194.309 157.57 194.894 156.991C195.692 156.134 196.186 155.04 196.302 153.875C196.453 152.607 196.285 151.322 195.811 150.136C195.338 148.949 194.575 147.901 193.591 147.085C192.499 146.191 191.137 145.586 190.301 144.455C189.117 142.772 189.433 140.386 188.328 138.657C186.926 136.481 183.807 136.172 181.294 136.817C178.78 137.461 176.464 138.789 173.898 139.15C171.858 139.426 169.799 139.045 167.746 138.914C165.693 138.782 163.495 138.914 161.824 140.11C159.745 141.569 158.903 144.251 157.087 146.026C155.271 147.801 152.362 148.656 150.77 150.733C150.198 151.507 149.828 152.411 149.694 153.364C149.56 154.316 149.665 155.287 150 156.189C150.658 157.865 152.079 159.22 152.402 160.988C152.797 163.085 151.553 165.451 152.625 167.298C154.073 167.128 155.382 168.377 155.804 169.77C156.225 171.164 155.994 172.663 155.804 174.102C155.613 175.542 155.409 177.06 155.922 178.421C156.019 178.718 156.194 178.983 156.429 179.19C156.81 179.415 157.243 179.537 157.685 179.545C159.005 179.742 160.215 180.393 161.107 181.386C161.451 181.853 161.851 182.277 162.298 182.648C163.397 183.397 164.877 183.016 166.154 182.648C168.702 181.872 171.277 181.193 173.878 180.61C175.24 180.301 179.655 180.229 180.346 178.855C180.688 178.198 179.833 176.574 179.688 175.838C179.42 174.219 179.499 172.562 179.919 170.975C180.338 169.389 181.089 167.91 182.123 166.635L182.116 166.562Z" fill="#554649"/>
<path opacity="0.1" d="M152.948 296.411C152.428 296.963 151.5 297.068 150.388 296.825L155.79 279.628C155.475 279.449 155.172 279.249 154.882 279.03C157.271 278.774 159.363 278.662 160.001 278.971C161.706 279.799 154.988 294.268 152.948 296.411Z" fill="black"/>
<path d="M152.514 295.97C150.454 298.12 142.321 293.163 141.242 291.113C140.657 290.028 139.38 289.509 138.314 289.259C137.757 289.128 137.189 289.051 136.617 289.029L142.348 279.615L144.19 279.773L145.539 279.891C145.539 279.891 157.876 277.689 159.587 278.517C161.298 279.346 154.547 293.827 152.514 295.97Z" fill="#BE6F72"/>
<path opacity="0.1" d="M144.164 279.786L138.288 289.272C137.731 289.141 137.162 289.064 136.59 289.042L142.321 279.628L144.164 279.786Z" fill="black"/>
<path d="M144.026 279.3L134.992 293.88L132.721 292.375L131.412 291.514L139.453 277.157L142.466 278.564L144.026 279.3Z" fill="#738D9B"/>
<path opacity="0.1" d="M142.466 278.564L132.721 292.375L131.412 291.514L139.453 277.157L142.466 278.564Z" fill="black"/>
<path d="M142.723 277.571L131.853 292.979L112.91 282.271L97.7761 270.892L97.2365 270.669C79.8921 263.267 95.7166 245.59 95.7166 245.59C95.7673 245.31 95.8846 245.046 96.0587 244.821C97.5458 242.547 103.356 237.077 103.356 237.077L116.43 226.514L121.694 224.903L133.886 246.471L126.398 251.539C126.398 251.539 123.898 253.367 122.45 253.367C121.003 253.367 115.91 259.526 115.91 259.526L120.246 263.346C120.246 263.346 124.062 263.786 124.944 265.686C125.43 266.79 126.255 267.711 127.3 268.315L142.723 277.571Z" fill="#738D9B"/>
<path opacity="0.1" d="M107.179 252.631C107.179 252.631 118.489 250.744 119.075 251.539C119.661 252.335 107.179 252.631 107.179 252.631Z" fill="black"/>
<path opacity="0.1" d="M107.179 258.356C108.713 258.761 110.296 258.958 111.883 258.941C114.673 258.941 107.179 258.356 107.179 258.356Z" fill="black"/>
<path opacity="0.1" d="M97.684 270.668C80.3396 263.267 96.164 245.59 96.164 245.59C96.2147 245.31 96.3321 245.046 96.5062 244.821C99.7106 244.289 104.58 245.564 105.31 257.896C105.744 265.272 102.165 268.933 97.684 270.668Z" fill="black"/>
<path d="M97.2431 270.668C79.8987 263.267 95.7232 245.59 95.7232 245.59C95.7738 245.31 95.8912 245.046 96.0653 244.821C99.2697 244.289 104.139 245.564 104.869 257.896C105.303 265.272 101.724 268.933 97.2431 270.668Z" fill="#F36F6E"/>
<g opacity="0.1">
<path opacity="0.1" d="M152.303 166.516C152.373 166.788 152.48 167.049 152.619 167.292C152.958 167.254 153.302 167.29 153.626 167.397C153.266 166.997 152.811 166.694 152.303 166.516Z" fill="black"/>
<path opacity="0.1" d="M156.336 178.658L155.981 178.612C156.072 178.834 156.217 179.031 156.402 179.184C156.783 179.409 157.216 179.531 157.659 179.539C158.233 179.625 158.79 179.801 159.311 180.058C158.476 179.312 157.443 178.826 156.336 178.658Z" fill="black"/>
<path opacity="0.1" d="M193.591 147.098C192.499 146.204 191.137 145.599 190.301 144.468C189.117 142.786 189.433 140.399 188.328 138.67C187.864 137.967 187.202 137.416 186.426 137.086C186.645 137.298 186.839 137.534 187.005 137.79C188.124 139.518 187.808 141.905 188.979 143.587C189.795 144.738 191.157 145.343 192.269 146.217C193.252 147.033 194.015 148.082 194.489 149.268C194.962 150.454 195.131 151.74 194.98 153.007C194.864 154.172 194.369 155.266 193.572 156.123C192.986 156.702 192.256 157.103 191.703 157.721C190.137 159.542 190.966 162.322 190.42 164.676C190.196 165.587 189.758 166.431 189.142 167.14C188.527 167.849 187.751 168.401 186.88 168.751C187.125 169.101 187.345 169.468 187.538 169.849C188.556 169.572 189.481 169.027 190.218 168.273C190.955 167.518 191.477 166.58 191.729 165.557C192.275 163.223 191.44 160.423 193.012 158.602C193.545 157.984 194.295 157.583 194.881 157.004C195.678 156.147 196.173 155.053 196.289 153.888C196.442 152.622 196.275 151.337 195.804 150.151C195.333 148.965 194.572 147.915 193.591 147.098Z" fill="black"/>
<path opacity="0.1" d="M182.61 165.28C182.341 165.105 182.022 165.02 181.702 165.037C181.328 165.136 181.004 165.37 180.794 165.695C179.76 166.97 179.009 168.449 178.589 170.036C178.17 171.622 178.091 173.279 178.359 174.898C178.484 175.64 179.34 177.238 179.017 177.915C178.326 179.289 173.911 179.361 172.549 179.67C169.948 180.249 167.373 180.928 164.824 181.708C163.828 182.103 162.744 182.223 161.686 182.056C161.863 182.265 162.067 182.451 162.291 182.608C163.39 183.358 164.87 182.977 166.147 182.608C168.696 181.833 171.27 181.154 173.872 180.571C175.234 180.262 179.649 180.189 180.34 178.816C180.682 178.158 179.826 176.534 179.682 175.798C179.414 174.179 179.492 172.522 179.912 170.936C180.332 169.35 181.083 167.87 182.116 166.595C182.326 166.271 182.65 166.036 183.024 165.938C183.342 165.918 183.658 166.001 183.926 166.174C183.515 165.837 183.074 165.538 182.61 165.28Z" fill="black"/>
</g>
<path opacity="0.1" d="M56.9812 496.242C69.1258 496.242 78.971 494.579 78.971 492.528C78.971 490.477 69.1258 488.814 56.9812 488.814C44.8366 488.814 34.9915 490.477 34.9915 492.528C34.9915 494.579 44.8366 496.242 56.9812 496.242Z" fill="#738D9B"/>
<path d="M61.5213 445.625C61.5213 445.625 65.5613 450.884 59.6592 458.865C53.7571 466.845 48.888 473.557 50.8554 478.52C50.8554 478.52 59.7645 463.729 67.0088 463.519C74.2532 463.308 69.5223 454.519 61.5213 445.625Z" fill="#738D9B"/>
<path opacity="0.1" d="M61.5213 445.625C61.8745 446.136 62.1536 446.693 62.3503 447.282C69.4171 455.584 73.1873 463.328 66.3903 463.519C60.054 463.703 52.4609 475.009 50.6448 477.869C50.7041 478.086 50.7764 478.303 50.8554 478.526C50.8554 478.526 59.7645 463.736 67.0088 463.525C74.2532 463.315 69.5223 454.519 61.5213 445.625Z" fill="black"/>
<path d="M69.0289 452.35C69.0289 454.204 68.8183 455.709 68.5617 455.709C68.3051 455.709 68.0945 454.204 68.0945 452.35C68.0945 450.496 68.3577 451.364 68.6143 451.364C68.871 451.364 69.0289 450.496 69.0289 452.35Z" fill="#FFD037"/>
<path d="M71.6016 454.565C69.9698 455.453 68.5486 455.992 68.4235 455.768C68.2985 455.545 69.529 454.638 71.1607 453.75C72.7925 452.863 72.1477 453.507 72.2727 453.75C72.3977 453.993 73.2334 453.678 71.6016 454.565Z" fill="#FFD037"/>
<path d="M40.1961 445.625C40.1961 445.625 36.1561 450.884 42.0582 458.865C47.9603 466.845 52.8228 473.557 50.8554 478.52C50.8554 478.52 41.9529 463.729 34.7086 463.519C27.4642 463.308 32.2214 454.519 40.1961 445.625Z" fill="#738D9B"/>
<path opacity="0.1" d="M40.1961 445.625C39.8429 446.136 39.5637 446.693 39.367 447.282C32.3003 455.584 28.5301 463.341 35.3073 463.519C41.6371 463.703 49.2367 475.009 51.0528 477.869C50.9925 478.092 50.92 478.311 50.8356 478.526C50.8356 478.526 41.9332 463.736 34.6888 463.525C27.4444 463.315 32.2213 454.519 40.1961 445.625Z" fill="black"/>
<path d="M32.6754 452.35C32.6754 454.204 32.8859 455.709 33.1425 455.709C33.3991 455.709 33.6097 454.204 33.6097 452.35C33.6097 450.496 33.3465 451.364 33.0899 451.364C32.8333 451.364 32.6754 450.496 32.6754 452.35Z" fill="#FFD037"/>
<path d="M30.1158 454.565C31.7476 455.453 33.1689 455.992 33.2873 455.768C33.4057 455.545 32.1885 454.638 30.5567 453.75C28.9249 452.863 29.5697 453.507 29.4447 453.75C29.3197 453.993 28.484 453.678 30.1158 454.565Z" fill="#FFD037"/>
<path d="M33.9913 477.803C33.9913 477.803 45.2823 477.455 48.6841 475.036C52.0858 472.616 66.0482 469.724 66.897 473.609C67.7458 477.494 83.8598 492.909 71.1147 493.014C58.3696 493.12 41.5055 491.042 38.1037 488.965C34.702 486.888 33.9913 477.803 33.9913 477.803Z" fill="#C2D1D9"/>
<path opacity="0.2" d="M71.3252 491.693C58.5801 491.792 41.716 489.721 38.3143 487.637C35.7284 486.066 34.6954 480.406 34.3664 477.816H33.9847C33.9847 477.816 34.7019 486.914 38.0971 488.991C41.4923 491.069 58.363 493.146 71.1081 493.041C74.7862 493.041 76.0561 491.726 75.9903 489.754C75.4442 490.95 74.0624 491.667 71.3252 491.693Z" fill="black"/>
<path opacity="0.1" d="M464.022 511.986C476.813 511.986 487.183 510.235 487.183 508.075C487.183 505.914 476.813 504.163 464.022 504.163C451.23 504.163 440.861 505.914 440.861 508.075C440.861 510.235 451.23 511.986 464.022 511.986Z" fill="#738D9B"/>
<path d="M448.474 489.905C448.474 489.905 461.679 489.498 465.66 486.664C469.641 483.831 485.985 480.452 486.972 484.995C487.959 489.537 506.824 507.588 491.907 507.706C476.991 507.825 457.258 505.386 453.284 502.967C449.309 500.548 448.474 489.905 448.474 489.905Z" fill="#C2D1D9"/>
<path opacity="0.2" d="M492.177 506.122C477.26 506.247 457.521 503.802 453.547 501.383C450.52 499.542 449.316 492.936 448.941 489.885H448.5C448.5 489.885 449.336 500.528 453.31 502.947C457.284 505.366 476.997 507.805 491.933 507.687C496.243 507.687 497.73 506.122 497.645 503.854C497.02 505.241 495.381 506.07 492.177 506.122Z" fill="black"/>
<path d="M549.165 527C563.097 527 574.392 525.093 574.392 522.74C574.392 520.388 563.097 518.481 549.165 518.481C535.232 518.481 523.938 520.388 523.938 522.74C523.938 525.093 535.232 527 549.165 527Z" fill="#738D9B"/>
<path d="M559.594 515.772C560.743 514.832 561.583 513.568 562.002 512.144C562.311 510.704 561.699 508.982 560.317 508.449C558.778 507.864 557.126 508.929 555.876 510.014C554.626 511.098 553.192 512.321 551.553 512.091C552.394 511.329 553.023 510.362 553.379 509.285C553.736 508.208 553.807 507.057 553.586 505.945C553.516 505.484 553.321 505.052 553.02 504.696C552.165 503.782 550.612 504.17 549.586 504.893C546.296 507.187 545.414 511.611 545.394 515.601C545.065 514.162 545.342 512.663 545.335 511.19C545.329 509.718 544.921 508.081 543.677 507.286C542.901 506.871 542.03 506.667 541.15 506.694C539.683 506.641 538.051 506.786 537.045 507.858C535.801 509.172 536.123 511.427 537.209 512.893C538.295 514.359 539.94 515.273 541.453 516.285C542.668 517.01 543.705 517.999 544.486 519.177C544.579 519.342 544.654 519.516 544.71 519.697H553.922C555.982 518.652 557.89 517.331 559.594 515.772Z" fill="#738D9B"/>
</g>
<defs>
<linearGradient id="paint0_linear" x1="198.678" y1="516.246" x2="198.678" y2="133.931" gradientUnits="userSpaceOnUse">
<stop stop-color="#808080" stop-opacity="0.25"/>
<stop offset="0.54" stop-color="#808080" stop-opacity="0.12"/>
<stop offset="1" stop-color="#808080" stop-opacity="0.1"/>
</linearGradient>
<clipPath id="clip0">
<rect width="597" height="527" fill="white"/>
</clipPath>
</defs>
</svg>
