<svg width="68" height="43" viewBox="0 0 68 43" fill="none" xmlns="http://www.w3.org/2000/svg">
<g clip-path="url(#clip0)">
<path d="M68 0H0.394653V12.5598H68V0Z" fill="url(#paint0_linear)"/>
<path d="M67.5061 0.411377H0.789337V11.8923H67.5061V0.411377Z" fill="white"/>
<path d="M43.6704 2.75439H4.88715V9.587H43.6704V2.75439Z" fill="#F5F5F5"/>
<path d="M58.7157 3.19392C58.242 2.69861 57.6374 2.34945 56.973 2.18746C56.3085 2.02547 55.6119 2.05739 54.9649 2.27947C54.3179 2.50155 53.7474 2.90456 53.3206 3.44114C52.8937 3.97772 52.6281 4.62557 52.5551 5.30855C52.482 5.99154 52.6046 6.68128 52.9082 7.29672C53.2119 7.91216 53.6841 8.42772 54.2694 8.78282C54.8547 9.13791 55.5287 9.31779 56.2122 9.30131C56.8957 9.28482 57.5604 9.07266 58.128 8.68976L60.7239 11.403C60.7398 11.4197 60.7589 11.4331 60.7799 11.4423C60.801 11.4516 60.8237 11.4566 60.8467 11.457C60.8696 11.4575 60.8925 11.4533 60.9139 11.4449C60.9353 11.4364 60.9548 11.4238 60.9713 11.4077L61.6179 10.7845C61.6345 10.7685 61.6478 10.7494 61.6571 10.7282C61.6663 10.7071 61.6713 10.6843 61.6717 10.6612C61.6721 10.6381 61.668 10.6152 61.6596 10.5937C61.6512 10.5722 61.6386 10.5526 61.6226 10.536L59.0267 7.82274C59.5248 7.13759 59.7666 6.298 59.7098 5.45147C59.6529 4.60494 59.301 3.80562 58.7157 3.19392ZM57.907 7.55632C57.5408 7.91003 57.0783 8.14669 56.5782 8.23637C56.0781 8.32605 55.5627 8.26472 55.0973 8.06014C54.6318 7.85557 54.2372 7.51693 53.9633 7.08704C53.6894 6.65716 53.5486 6.15533 53.5586 5.64502C53.5685 5.13471 53.7289 4.63883 54.0194 4.22007C54.3098 3.80132 54.7174 3.47851 55.1905 3.29245C55.6635 3.10639 56.1809 3.06544 56.6771 3.17477C57.1734 3.28411 57.6262 3.53882 57.9784 3.90671C58.4495 4.39996 58.7066 5.06088 58.6932 5.74439C58.6799 6.4279 58.3971 7.07815 57.907 7.55243V7.55632Z" fill="url(#paint1_linear)"/>
<path d="M54.224 4.97461C53.9348 4.97461 53.9348 5.42565 54.224 5.42565C54.5132 5.42565 54.5132 4.97461 54.224 4.97461Z" fill="url(#paint2_linear)"/>
<path d="M56.2376 3.52978C55.8713 3.51878 55.5083 3.6017 55.1827 3.7707C54.8571 3.9397 54.5798 4.18922 54.3767 4.49573C54.2542 4.68893 54.6024 4.85953 54.7249 4.66711C55.035 4.17712 55.6282 3.8663 56.2679 3.88266C56.5912 3.89387 56.9067 3.98505 57.1866 4.14812C57.4664 4.31118 57.7019 4.54109 57.8721 4.81746C57.9946 5.02078 58.3164 4.83616 58.1939 4.6344C57.8039 3.98783 57.0409 3.54769 56.2376 3.52978Z" fill="url(#paint3_linear)"/>
<path d="M58.7157 2.79426C58.242 2.29895 57.6374 1.94979 56.973 1.7878C56.3085 1.62581 55.6119 1.65774 54.9649 1.87982C54.3179 2.1019 53.7474 2.50491 53.3206 3.04148C52.8937 3.57806 52.6281 4.22591 52.5551 4.9089C52.482 5.59188 52.6046 6.28162 52.9082 6.89706C53.2119 7.5125 53.6841 8.02806 54.2694 8.38316C54.8547 8.73826 55.5287 8.91813 56.2122 8.90165C56.8957 8.88517 57.5604 8.67301 58.128 8.29011L60.7239 11.0034C60.7398 11.02 60.7589 11.0334 60.7799 11.0427C60.801 11.0519 60.8237 11.0569 60.8467 11.0574C60.8696 11.0578 60.8925 11.0537 60.9139 11.0452C60.9353 11.0367 60.9548 11.0241 60.9713 11.008L61.6179 10.3848C61.6345 10.3689 61.6478 10.3497 61.6571 10.3286C61.6663 10.3074 61.6713 10.2847 61.6717 10.2616C61.6721 10.2385 61.668 10.2155 61.6596 10.194C61.6512 10.1725 61.6386 10.1529 61.6226 10.1363L59.0267 7.42308C59.5248 6.73793 59.7666 5.89835 59.7098 5.05182C59.6529 4.20529 59.301 3.40596 58.7157 2.79426ZM57.907 7.15666C57.5408 7.51037 57.0783 7.74703 56.5782 7.83671C56.0781 7.92639 55.5627 7.86506 55.0973 7.66049C54.6318 7.45591 54.2372 7.11727 53.9633 6.68738C53.6894 6.2575 53.5486 5.75567 53.5586 5.24536C53.5685 4.73505 53.7289 4.23917 54.0194 3.82042C54.3098 3.40167 54.7174 3.07885 55.1905 2.89279C55.6635 2.70673 56.1809 2.66578 56.6771 2.77511C57.1734 2.88445 57.6262 3.13917 57.9784 3.50705C58.4505 4.00045 58.7082 4.66204 58.6948 5.34631C58.6814 6.03058 58.398 6.68149 57.907 7.15588V7.15666Z" fill="#738D9B"/>
<path d="M54.224 4.57739C53.9348 4.57739 53.9348 5.02843 54.224 5.02843C54.5132 5.02843 54.5132 4.57739 54.224 4.57739Z" fill="#738D9B"/>
<path d="M56.2376 3.13305C55.8713 3.12205 55.5083 3.20497 55.1827 3.37397C54.8571 3.54297 54.5798 3.79249 54.3767 4.09901C54.2542 4.2922 54.6024 4.4628 54.7249 4.27039C55.035 3.7804 55.6282 3.46957 56.2679 3.48593C56.5912 3.49715 56.9067 3.58832 57.1866 3.75139C57.4664 3.91445 57.7019 4.14436 57.8721 4.42073C57.9946 4.62405 58.3164 4.43943 58.1939 4.23767C57.8039 3.5911 57.0409 3.15096 56.2376 3.13305Z" fill="#738D9B"/>
<path d="M67.5069 16.7002H0V43.0008H67.5069V16.7002Z" fill="url(#paint4_linear)"/>
<path d="M66.6982 17.342H0.789337V42.1594H66.6982V17.342Z" fill="white"/>
<path d="M9.38897 35.2599C12.4491 35.2599 14.9298 32.7676 14.9298 29.6932C14.9298 26.6188 12.4491 24.1265 9.38897 24.1265C6.32887 24.1265 3.84818 26.6188 3.84818 29.6932C3.84818 32.7676 6.32887 35.2599 9.38897 35.2599Z" fill="#738D9B"/>
<path d="M42.0545 25.2864H18.9694V28.0697H42.0545V25.2864Z" fill="#BDBDBD"/>
<path d="M42.0545 30.9683H18.9694V33.7516H42.0545V30.9683Z" fill="#E0E0E0"/>
<path d="M66.8137 17.342H44.9979V42.1594H66.8137V17.342Z" fill="#738D9B"/>
</g>
<defs>
<linearGradient id="paint0_linear" x1="34.1977" y1="12.5598" x2="34.1977" y2="0" gradientUnits="userSpaceOnUse">
<stop stop-color="#808080" stop-opacity="0.25"/>
<stop offset="0.54" stop-color="#808080" stop-opacity="0.12"/>
<stop offset="1" stop-color="#808080" stop-opacity="0.1"/>
</linearGradient>
<linearGradient id="paint1_linear" x1="57.1061" y1="11.4544" x2="57.1061" y2="2.08385" gradientUnits="userSpaceOnUse">
<stop stop-color="#B3B3B3" stop-opacity="0.25"/>
<stop offset="0.54" stop-color="#B3B3B3" stop-opacity="0.1"/>
<stop offset="1" stop-color="#B3B3B3" stop-opacity="0.05"/>
</linearGradient>
<linearGradient id="paint2_linear" x1="54.224" y1="5.42565" x2="54.224" y2="4.97461" gradientUnits="userSpaceOnUse">
<stop stop-opacity="0.12"/>
<stop offset="0.55" stop-opacity="0.09"/>
<stop offset="1" stop-opacity="0.02"/>
</linearGradient>
<linearGradient id="paint3_linear" x1="3488.87" y1="329.866" x2="3488.87" y2="305.494" gradientUnits="userSpaceOnUse">
<stop stop-opacity="0.12"/>
<stop offset="0.55" stop-opacity="0.09"/>
<stop offset="1" stop-opacity="0.02"/>
</linearGradient>
<linearGradient id="paint4_linear" x1="29387.1" y1="14534.4" x2="29387.1" y2="5655.02" gradientUnits="userSpaceOnUse">
<stop stop-color="#808080" stop-opacity="0.25"/>
<stop offset="0.54" stop-color="#808080" stop-opacity="0.12"/>
<stop offset="1" stop-color="#808080" stop-opacity="0.1"/>
</linearGradient>
<clipPath id="clip0">
<rect width="68" height="43" fill="white"/>
</clipPath>
</defs>
</svg>
