<svg width="43" height="52" viewBox="0 0 43 52" fill="none" xmlns="http://www.w3.org/2000/svg">
<path d="M40.1 7.64201L35.985 6.55664L35.7317 11.4673L40.0621 12.6063L40.1 7.64201Z" fill="#F5F5F5"/>
<path d="M11.1337 0V4.99669L35.7317 11.4672L35.985 6.55659L11.1337 0Z" fill="#F5F5F5"/>
<path opacity="0.1" d="M40.1 7.64201L35.985 6.55664L35.7317 11.4673L40.0621 12.6063L40.1 7.64201Z" fill="black"/>
<path d="M40.1 17.0478L35.985 15.9624L35.7317 20.8731L40.0621 22.012L40.1 17.0478Z" fill="#3AD29F"/>
<path d="M11.1337 9.40576V14.4025L35.7317 20.873L35.985 15.9623L11.1337 9.40576Z" fill="#F36F6E"/>
<path opacity="0.1" d="M40.1 17.0478L35.985 15.9624L35.7317 20.8731L40.0621 22.012L40.1 17.0478Z" fill="black"/>
<path d="M37.0308 18.779L37.7042 19.6606L39.0519 18.1907" stroke="white" stroke-width="7" stroke-miterlimit="10" stroke-linecap="round"/>
<g opacity="0.4">
<path opacity="0.4" d="M37.068 8.49097L38.4156 10.5485" stroke="white" stroke-width="7" stroke-miterlimit="10" stroke-linecap="round"/>
<path opacity="0.4" d="M38.7523 8.78491L37.068 10.2548" stroke="white" stroke-width="7" stroke-miterlimit="10" stroke-linecap="round"/>
</g>
<path d="M40.1 25.8656L35.985 24.7803L35.7317 29.6909L40.0621 30.8299L40.1 25.8656Z" fill="#F5F5F5"/>
<path d="M11.1337 18.2236V23.2203L35.7317 29.6909L35.985 24.7802L11.1337 18.2236Z" fill="#F5F5F5"/>
<path opacity="0.1" d="M40.1 25.8656L35.985 24.7803L35.7317 29.6909L40.0621 30.8299L40.1 25.8656Z" fill="black"/>
<g opacity="0.4">
<path opacity="0.4" d="M37.068 26.7146L38.4156 28.7722" stroke="white" stroke-width="7" stroke-miterlimit="10" stroke-linecap="round"/>
<path opacity="0.4" d="M38.7523 27.0085L37.068 28.4784" stroke="white" stroke-width="7" stroke-miterlimit="10" stroke-linecap="round"/>
</g>
<path opacity="0.3" d="M28.1426 17.6036C28.6076 17.6036 28.9844 16.9455 28.9844 16.1337C28.9844 15.3219 28.6076 14.6638 28.1426 14.6638C27.6777 14.6638 27.3008 15.3219 27.3008 16.1337C27.3008 16.9455 27.6777 17.6036 28.1426 17.6036Z" fill="black"/>
<path opacity="0.1" d="M28.1427 28.4784C32.0492 28.4784 35.216 22.9515 35.216 16.1336C35.216 9.31577 32.0492 3.78882 28.1427 3.78882C24.2361 3.78882 21.0693 9.31577 21.0693 16.1336C21.0693 22.9515 24.2361 28.4784 28.1427 28.4784Z" fill="#738D9B"/>
<path opacity="0.1" d="M28.1426 22.8941C30.2817 22.8941 32.0157 19.8674 32.0157 16.1337C32.0157 12.4 30.2817 9.37329 28.1426 9.37329C26.0036 9.37329 24.2696 12.4 24.2696 16.1337C24.2696 19.8674 26.0036 22.8941 28.1426 22.8941Z" fill="white"/>
<g opacity="0.5">
<path opacity="0.5" d="M28.9276 16.3329C28.5817 15.4275 26.5258 16.6512 26.5258 16.6512L26.3567 16.8498L22.702 21.1608L13.7479 16.7929V14.8398C14.1695 14.7991 14.5772 14.6835 14.9457 14.5001C15.3143 14.3168 15.6359 14.0695 15.8909 13.7736C16.1459 13.4777 16.3287 13.1394 16.4283 12.7796C16.5278 12.4197 16.5419 12.0458 16.4697 11.681C16.9202 11.5295 17.2872 11.2025 17.6255 10.8868C17.9372 10.5976 18.2708 10.2469 18.239 9.86169C18.2441 9.80016 18.24 9.73832 18.2269 9.6777C18.1556 9.35275 17.8189 9.11583 17.4624 9.00266C17.106 8.88949 16.7207 8.87029 16.3484 8.80411C15.4611 8.65256 14.6594 8.24819 13.7941 8.0192C13.4011 7.91602 12.9967 7.84947 12.5876 7.82066C12.2941 7.79948 11.9884 7.79948 11.72 7.90471C11.4257 8.02052 11.2126 8.24686 10.976 8.43945C10.69 8.67184 10.36 8.85925 10.0007 8.99339C9.46456 9.19193 8.86317 9.27334 8.38008 9.55395C8.24595 9.62446 8.13371 9.72263 8.05322 9.83985C7.98263 9.96594 7.95249 10.1064 7.96601 10.2462C7.96385 10.3694 7.97451 10.4926 7.99786 10.6142C8.0828 11.133 8.18063 11.6645 8.4817 12.1178C8.72742 12.4884 9.09523 12.7836 9.45622 13.0735L10.2684 13.7234C10.433 13.8557 10.615 14.0185 10.8274 14.0841C10.8137 13.998 10.8698 13.9074 10.9533 13.8193L10.6901 15.4249C10.1997 15.2921 9.68983 15.2219 9.17638 15.2164C8.48474 15.2091 7.78476 15.3183 7.48216 15.7293C7.46446 15.7543 7.449 15.7804 7.4359 15.8074C6.48262 16.7948 4.29773 19.9927 5.58243 27.7598C5.47246 28.7101 5.40648 29.3117 5.40648 29.3117L5.41407 29.407L5.40648 29.4792L5.42165 29.4898L6.1368 38.0649L4.75352 46.5162H5.06066V47.4553H4.71484V48.9643C4.71484 48.9643 9.51841 48.6962 10.251 47.7571C10.8577 46.9782 7.83784 47.2839 6.79204 47.411V46.8332H6.811V46.5149H7.17578L8.55906 40.7803C9.98102 38.6353 9.25222 33.2661 9.25222 33.2661L10.9813 34.1714L12.3616 40.4798L11.3256 49.8365H11.6328V50.4904H11.2293V51.9993C11.2293 51.9993 16.0329 51.7313 16.7655 50.7922C17.3722 50.0132 14.3538 50.319 13.308 50.4461L13.192 49.8365H13.4036L14.7884 41.3852C15.4709 39.0953 14.5404 32.3766 14.4175 31.5162L16.1299 21.6314L16.1057 21.6029L16.1299 21.4633L23.0471 23.5771C23.0471 23.5771 23.7387 24.1807 24.4501 22.3858C25.1144 20.7088 26.9368 18.4606 27.1727 18.1741L27.1977 18.1436C27.1977 18.1436 29.2734 17.2383 28.9276 16.3329Z" fill="url(#paint0_linear)"/>
</g>
<path d="M5.37012 45.7874V47.2566H7.05447V45.1997L5.37012 45.7874Z" fill="#FDA57D"/>
<path d="M11.77 48.7267V50.4904L13.4536 50.1966L13.1169 48.4329L11.77 48.7267Z" fill="#FDA57D"/>
<path d="M8.08354 15.8225C8.08354 15.8225 4.06414 18.4512 6.04426 28.7391L8.08354 15.8225Z" fill="#C2D1D9"/>
<path opacity="0.05" d="M8.08354 15.8225C8.08354 15.8225 4.06414 18.4512 6.04426 28.7391L8.08354 15.8225Z" fill="black"/>
<path opacity="0.05" d="M13.3042 49.6247L13.1358 48.7432L11.7882 49.037V49.6247H13.3042Z" fill="black"/>
<path opacity="0.05" d="M5.38904 46.3917H7.0734V45.5095L5.38904 46.0979V46.3917Z" fill="black"/>
<path d="M11.1338 14.0762L10.7971 16.1338L13.8283 17.603V14.6639L11.1338 14.0762Z" fill="#FDA57D"/>
<path d="M5.07129 46.0814L6.41893 37.8511L5.70757 29.3269L14.4646 31.3845C14.4646 31.3845 15.5468 38.7002 14.8384 41.084L13.4916 49.3143H11.4705L12.4806 40.2025L11.1338 34.0602L9.4494 33.1806C9.4494 33.1806 10.1608 38.409 8.77596 40.4963L7.43212 46.0814H5.07129Z" fill="#738D9B"/>
<path d="M28.6105 16.6884C28.2738 15.8068 26.2717 16.9988 26.2717 16.9988L26.1071 17.1933L26.9019 18.4819L26.9269 18.4521C26.9269 18.4521 28.9472 17.5699 28.6105 16.6884Z" fill="#FDA57D"/>
<path opacity="0.05" d="M11.0958 15.9695C11.0958 15.9695 8.4013 15.3487 7.72786 16.2633C7.05442 17.178 5.70679 29.4937 5.70679 29.4937C5.70679 29.4937 9.71102 32.4328 14.4638 31.5512L16.1481 21.8517L11.0958 15.9695Z" fill="black"/>
<path d="M22.5481 21.391L11.902 16.1997C11.1304 15.8208 10.2626 15.616 9.37733 15.6041C8.70389 15.5968 8.02211 15.7034 7.72786 16.1031C7.05442 17.0177 5.70679 29.3301 5.70679 29.3301C5.70679 29.3301 9.71102 32.2692 14.4638 31.3877L16.1481 21.6842L22.8848 23.7418C22.8848 23.7418 23.5582 24.3294 24.2499 22.5823C24.8968 20.9489 26.6714 18.7603 26.9042 18.479L26.1094 17.1905L22.5481 21.391Z" fill="#C2D1D9"/>
<path opacity="0.05" d="M11.0883 14.5319C11.3715 14.8477 11.7334 15.1029 12.1465 15.2784C12.5597 15.4538 13.0131 15.5448 13.4726 15.5445C13.5851 15.5444 13.6975 15.5389 13.8093 15.528V14.9568L11.1148 14.3691L11.0883 14.5319Z" fill="black"/>
<path d="M13.4915 15.2515C15.1656 15.2515 16.5227 14.0671 16.5227 12.6062C16.5227 11.1453 15.1656 9.96094 13.4915 9.96094C11.8174 9.96094 10.4603 11.1453 10.4603 12.6062C10.4603 14.0671 11.8174 15.2515 13.4915 15.2515Z" fill="#FDA57D"/>
<path d="M5.03333 46.9954V48.4653C5.03333 48.4653 9.711 48.2038 10.4224 47.2892C11.1337 46.3746 6.71768 46.9954 6.71768 46.9954H5.03333Z" fill="#333333"/>
<path d="M11.3757 49.9509V51.4208C11.3757 51.4208 16.0533 51.1594 16.7647 50.2448C17.4761 49.3302 13.06 49.9509 13.06 49.9509H11.3757Z" fill="#333333"/>
<path opacity="0.05" d="M11.569 13.8185L12.7536 12.3394C12.9288 12.1203 13.1085 11.8973 13.3543 11.7371C13.6 11.577 13.9261 11.4876 14.2173 11.5697C14.3932 11.6193 14.5396 11.7252 14.689 11.8198C15.1311 12.1004 15.6749 12.3089 16.2156 12.2242C16.7791 12.1355 17.2121 11.7517 17.6042 11.3877C17.9295 11.0859 18.2792 10.7153 18.1897 10.3083C18.1199 9.99191 17.7923 9.7616 17.4449 9.65108C17.0976 9.54055 16.723 9.52269 16.3605 9.46048C15.4967 9.31289 14.7155 8.91911 13.873 8.69608C13.4903 8.59381 13.0963 8.52725 12.6975 8.49754C12.4116 8.47702 12.1135 8.47702 11.8527 8.5796C11.566 8.69211 11.3582 8.91051 11.1284 9.10045C10.8499 9.32647 10.5287 9.50873 10.1789 9.63916C9.65716 9.83374 9.07397 9.91183 8.60074 10.1852C8.47029 10.2539 8.36118 10.3496 8.28298 10.4638C8.16164 10.6623 8.19274 10.8993 8.22914 11.1203C8.3118 11.6253 8.4066 12.1428 8.70009 12.5842C8.93974 12.9449 9.29693 13.2328 9.64958 13.5147L10.4406 14.1481C10.6006 14.2765 10.778 14.4353 10.9851 14.4995C10.9479 14.2719 11.4196 14.0071 11.569 13.8185Z" fill="black"/>
<path d="M11.569 13.7209L12.7536 12.2417C12.9288 12.0226 13.1085 11.7996 13.3543 11.6395C13.6 11.4793 13.9261 11.39 14.2173 11.472C14.3932 11.5217 14.5396 11.6275 14.689 11.7222C15.1311 12.0028 15.6749 12.2113 16.2156 12.1266C16.7791 12.0379 17.2121 11.654 17.6042 11.29C17.9295 10.9882 18.2792 10.6176 18.1897 10.2106C18.1199 9.89426 17.7923 9.66394 17.4449 9.55342C17.0976 9.4429 16.723 9.42503 16.3605 9.36282C15.4967 9.21524 14.7155 8.82146 13.873 8.59842C13.4903 8.49615 13.0963 8.4296 12.6975 8.39988C12.4116 8.37936 12.1135 8.37936 11.8527 8.48195C11.566 8.59445 11.3582 8.81285 11.1284 9.00279C10.85 9.22905 10.5287 9.41154 10.1789 9.54217C9.65716 9.73674 9.07397 9.81484 8.60074 10.0882C8.47029 10.157 8.36118 10.2526 8.28298 10.3668C8.16164 10.5653 8.19274 10.8023 8.22914 11.0233C8.3118 11.5283 8.4066 12.0458 8.70009 12.4872C8.93974 12.8479 9.29693 13.1358 9.64958 13.4177L10.4406 14.0511C10.6006 14.1795 10.778 14.3383 10.9851 14.4025C10.9479 14.1749 11.4196 13.9068 11.569 13.7209Z" fill="#333333"/>
<g opacity="0.5">
<path opacity="0.5" d="M0.373897 7.29907H0.261658V7.85433H0.373897V7.29907Z" fill="#47E6B1"/>
<path opacity="0.5" d="M0.636292 7.62529V7.52734H1.28746e-05V7.62529H0.636292Z" fill="#47E6B1"/>
</g>
<g opacity="0.5">
<path opacity="0.5" d="M40.1887 34.3672H40.0764V34.9224H40.1887V34.3672Z" fill="#47E6B1"/>
<path opacity="0.5" d="M40.4511 34.6934V34.5955H39.8148V34.6934H40.4511Z" fill="#47E6B1"/>
</g>
<g opacity="0.5">
<path opacity="0.5" d="M37.4236 22.5837H37.3114V23.139H37.4236V22.5837Z" fill="#47E6B1"/>
<path opacity="0.5" d="M37.6861 22.9102V22.8123H37.0498V22.9102H37.6861Z" fill="#47E6B1"/>
</g>
<g opacity="0.5">
<path opacity="0.5" d="M32.6337 33.8835H32.5215V34.4388H32.6337V33.8835Z" fill="#47E6B1"/>
<path opacity="0.5" d="M32.8961 34.2098V34.1118H32.2598V34.2098H32.8961Z" fill="#47E6B1"/>
</g>
<g opacity="0.5">
<path opacity="0.5" d="M29.2658 40.9702H29.1536V41.5255H29.2658V40.9702Z" fill="#47E6B1"/>
<path opacity="0.5" d="M29.5275 41.2972V41.1992H28.8912V41.2972H29.5275Z" fill="#47E6B1"/>
</g>
<g opacity="0.5">
<path opacity="0.5" d="M5.16455 15.8882H5.05231V16.4434H5.16455V15.8882Z" fill="#47E6B1"/>
<path opacity="0.5" d="M5.42621 16.2151V16.1172H4.78993V16.2151H5.42621Z" fill="#47E6B1"/>
</g>
<path opacity="0.5" d="M6.79958 7.24359C6.76877 7.23175 6.74402 7.21044 6.73004 7.18372C6.71606 7.157 6.71382 7.12672 6.72374 7.09865C6.72432 7.09425 6.72432 7.08981 6.72374 7.08542C6.72447 7.0726 6.72048 7.05992 6.71237 7.04922C6.70426 7.03852 6.69245 7.03036 6.67865 7.02592C6.66485 7.02149 6.6498 7.02102 6.63567 7.02458C6.62155 7.02814 6.60909 7.03554 6.60012 7.04571C6.59706 7.0494 6.59452 7.0534 6.59254 7.05762C6.57897 7.0845 6.55456 7.1061 6.52393 7.1183C6.49331 7.1305 6.45862 7.13246 6.42645 7.1238H6.41129C6.3966 7.12317 6.38207 7.12664 6.36981 7.13372C6.35755 7.1408 6.34819 7.15111 6.34312 7.16315C6.33804 7.17519 6.3375 7.18833 6.34157 7.20065C6.34565 7.21298 6.35413 7.22385 6.36579 7.23168C6.37002 7.23435 6.3746 7.23657 6.37944 7.23829C6.41024 7.25013 6.43499 7.27144 6.44897 7.29816C6.46295 7.32489 6.4652 7.35516 6.45527 7.38323C6.45469 7.38763 6.45469 7.39207 6.45527 7.39647C6.45455 7.40928 6.45853 7.42196 6.46664 7.43266C6.47475 7.44336 6.48657 7.45153 6.50036 7.45596C6.51416 7.46039 6.52922 7.46086 6.54334 7.4573C6.55747 7.45374 6.56992 7.44634 6.57889 7.43618C6.58195 7.43248 6.58449 7.42848 6.58647 7.42426C6.60004 7.39738 6.62446 7.37578 6.65508 7.36358C6.6857 7.35138 6.72039 7.34942 6.75256 7.35808H6.76772C6.78241 7.35871 6.79694 7.35524 6.8092 7.34816C6.82147 7.34108 6.83082 7.33077 6.8359 7.31873C6.84098 7.30669 6.84152 7.29355 6.83744 7.28123C6.83336 7.2689 6.82488 7.25803 6.81323 7.25021C6.80899 7.24754 6.80441 7.24532 6.79958 7.24359Z" fill="#4D8AF0"/>
<path opacity="0.5" d="M32.068 2.33343C32.0372 2.32159 32.0125 2.30029 31.9985 2.27356C31.9845 2.24684 31.9822 2.21657 31.9922 2.1885C31.9928 2.1841 31.9928 2.17966 31.9922 2.17526C31.9929 2.16245 31.9889 2.14976 31.9808 2.13906C31.9727 2.12836 31.9609 2.1202 31.9471 2.11577C31.9333 2.11134 31.9182 2.11086 31.9041 2.11442C31.89 2.11798 31.8775 2.12538 31.8686 2.13555C31.8655 2.13925 31.8629 2.14324 31.861 2.14746C31.8474 2.17435 31.823 2.19594 31.7924 2.20815C31.7617 2.22035 31.7271 2.2223 31.6949 2.21364H31.6797C31.665 2.21301 31.6505 2.21649 31.6382 2.22356C31.626 2.23064 31.6166 2.24095 31.6115 2.25299C31.6065 2.26503 31.6059 2.27817 31.61 2.2905C31.6141 2.30283 31.6226 2.31369 31.6342 2.32152C31.6384 2.32419 31.643 2.32641 31.6479 2.32814C31.6787 2.33998 31.7034 2.36129 31.7174 2.38801C31.7314 2.41473 31.7336 2.445 31.7237 2.47308C31.7231 2.47747 31.7231 2.48191 31.7237 2.48631C31.723 2.49913 31.727 2.51181 31.7351 2.52251C31.7432 2.53321 31.755 2.54137 31.7688 2.5458C31.7826 2.55024 31.7976 2.55071 31.8118 2.54715C31.8259 2.54359 31.8384 2.53619 31.8473 2.52602C31.8504 2.52233 31.8529 2.51833 31.8549 2.51411C31.8685 2.48722 31.8929 2.46563 31.9235 2.45343C31.9541 2.44122 31.9888 2.43927 32.021 2.44793H32.0362C32.0508 2.44856 32.0654 2.44508 32.0776 2.43801C32.0899 2.43093 32.0992 2.42062 32.1043 2.40858C32.1094 2.39654 32.1099 2.3834 32.1059 2.37107C32.1018 2.35874 32.0933 2.34788 32.0817 2.34005C32.0774 2.33738 32.0728 2.33516 32.068 2.33343Z" fill="#4D8AF0"/>
<path opacity="0.5" d="M1.00636 19.8061C0.975555 19.7942 0.950809 19.7729 0.936826 19.7462C0.922844 19.7195 0.920601 19.6892 0.930524 19.6612C0.931107 19.6568 0.931107 19.6523 0.930524 19.6479C0.93125 19.6351 0.927269 19.6224 0.919158 19.6117C0.911048 19.601 0.899232 19.5929 0.885435 19.5884C0.871639 19.584 0.856583 19.5835 0.842457 19.5871C0.828332 19.5906 0.815878 19.598 0.806911 19.6082C0.803851 19.6119 0.801305 19.6159 0.799326 19.6201C0.785758 19.647 0.761342 19.6686 0.730721 19.6808C0.7001 19.693 0.665408 19.695 0.633242 19.6863H0.618073C0.603389 19.6857 0.588857 19.6891 0.576595 19.6962C0.564332 19.7033 0.554982 19.7136 0.549903 19.7256C0.544824 19.7377 0.544284 19.7508 0.548362 19.7632C0.552439 19.7755 0.56092 19.7864 0.57257 19.7942C0.576804 19.7968 0.581388 19.7991 0.586223 19.8008C0.617029 19.8126 0.641776 19.8339 0.655758 19.8607C0.669741 19.8874 0.671983 19.9177 0.66206 19.9457C0.661477 19.9501 0.661477 19.9546 0.66206 19.959C0.661334 19.9718 0.665316 19.9845 0.673426 19.9952C0.681537 20.0059 0.693352 20.014 0.707149 20.0185C0.720946 20.0229 0.736002 20.0234 0.750127 20.0198C0.764252 20.0162 0.776706 20.0088 0.785674 19.9987C0.788733 19.995 0.79128 19.991 0.793258 19.9868C0.806827 19.9599 0.831242 19.9383 0.861863 19.9261C0.892485 19.9139 0.927176 19.9119 0.959343 19.9206H0.974512C0.989196 19.9212 1.00373 19.9177 1.01599 19.9107C1.02825 19.9036 1.0376 19.8933 1.04268 19.8812C1.04776 19.8692 1.0483 19.8561 1.04422 19.8437C1.04015 19.8314 1.03166 19.8205 1.02001 19.8127C1.01578 19.81 1.0112 19.8078 1.00636 19.8061Z" fill="#4D8AF0"/>
<path opacity="0.5" d="M2.01656 32.1508C1.98575 32.139 1.961 32.1177 1.94702 32.0909C1.93304 32.0642 1.93079 32.034 1.94072 32.0059C1.9413 32.0015 1.9413 31.997 1.94072 31.9926C1.94144 31.9798 1.93746 31.9671 1.92935 31.9564C1.92124 31.9457 1.90943 31.9376 1.89563 31.9332C1.88183 31.9287 1.86677 31.9282 1.85265 31.9318C1.83852 31.9354 1.82607 31.9428 1.8171 31.9529C1.81404 31.9566 1.8115 31.9606 1.80952 31.9648C1.79595 31.9917 1.77153 32.0133 1.74091 32.0255C1.71029 32.0377 1.6756 32.0397 1.64344 32.031H1.62827C1.61358 32.0304 1.59905 32.0339 1.58679 32.0409C1.57453 32.048 1.56517 32.0583 1.56009 32.0704C1.55502 32.0824 1.55448 32.0956 1.55856 32.1079C1.56263 32.1202 1.57111 32.1311 1.58276 32.1389C1.587 32.1416 1.59158 32.1438 1.59641 32.1455C1.62722 32.1574 1.65197 32.1787 1.66595 32.2054C1.67993 32.2321 1.68217 32.2624 1.67225 32.2905C1.67167 32.2949 1.67167 32.2993 1.67225 32.3037C1.67153 32.3165 1.67551 32.3292 1.68362 32.3399C1.69173 32.3506 1.70354 32.3588 1.71734 32.3632C1.73114 32.3676 1.7462 32.3681 1.76032 32.3645C1.77445 32.361 1.7869 32.3536 1.79587 32.3434C1.79893 32.3397 1.80147 32.3357 1.80345 32.3315C1.81702 32.3046 1.84144 32.283 1.87206 32.2708C1.90268 32.2586 1.93737 32.2566 1.96954 32.2653H1.98471C1.99939 32.2659 2.01392 32.2625 2.02618 32.2554C2.03845 32.2483 2.0478 32.238 2.05288 32.226C2.05795 32.2139 2.05849 32.2008 2.05442 32.1885C2.05034 32.1761 2.04186 32.1653 2.03021 32.1574C2.02597 32.1548 2.02139 32.1525 2.01656 32.1508Z" fill="#4D8AF0"/>
<path opacity="0.5" d="M18.8616 9.09516C18.9856 9.09516 19.0861 9.00746 19.0861 8.89927C19.0861 8.79108 18.9856 8.70337 18.8616 8.70337C18.7376 8.70337 18.6371 8.79108 18.6371 8.89927C18.6371 9.00746 18.7376 9.09516 18.8616 9.09516Z" fill="#F55F44"/>
<path opacity="0.5" d="M24.9241 34.6672C25.048 34.6672 25.1485 34.5795 25.1485 34.4713C25.1485 34.3631 25.048 34.2754 24.9241 34.2754C24.8001 34.2754 24.6996 34.3631 24.6996 34.4713C24.6996 34.5795 24.8001 34.6672 24.9241 34.6672Z" fill="#4D8AF0"/>
<path opacity="0.5" d="M38.7334 14.3859C38.8573 14.3859 38.9578 14.2982 38.9578 14.19C38.9578 14.0818 38.8573 13.9941 38.7334 13.9941C38.6094 13.9941 38.5089 14.0818 38.5089 14.19C38.5089 14.2982 38.6094 14.3859 38.7334 14.3859Z" fill="#4D8AF0"/>
<path opacity="0.5" d="M42.7755 23.2038C42.8995 23.2038 43 23.1161 43 23.0079C43 22.8997 42.8995 22.812 42.7755 22.812C42.6515 22.812 42.551 22.8997 42.551 23.0079C42.551 23.1161 42.6515 23.2038 42.7755 23.2038Z" fill="#47E6B1"/>
<path opacity="0.5" d="M27.7308 0.963571C27.8548 0.963571 27.9553 0.875865 27.9553 0.767674C27.9553 0.659483 27.8548 0.571777 27.7308 0.571777C27.6068 0.571777 27.5063 0.659483 27.5063 0.767674C27.5063 0.875865 27.6068 0.963571 27.7308 0.963571Z" fill="#F55F44"/>
<defs>
<linearGradient id="paint0_linear" x1="4.7156" y1="29.9067" x2="28.9662" y2="29.9067" gradientUnits="userSpaceOnUse">
<stop stop-color="#808080" stop-opacity="0.25"/>
<stop offset="0.54" stop-color="#808080" stop-opacity="0.12"/>
<stop offset="1" stop-color="#808080" stop-opacity="0.1"/>
</linearGradient>
</defs>
</svg>
